G04*
G04 #@! TF.GenerationSoftware,Altium Limited,Altium Designer,24.7.2 (38)*
G04*
G04 Layer_Color=2752767*
%FSAX43Y43*%
%MOMM*%
G71*
G04*
G04 #@! TF.SameCoordinates,3F101F8B-C0B2-4B88-A1E1-6A066521CB33*
G04*
G04*
G04 #@! TF.FilePolarity,Positive*
G04*
G01*
G75*
%ADD10C,0.254*%
%ADD12C,0.100*%
%ADD15C,0.150*%
%ADD70C,0.051*%
%ADD71C,0.381*%
%ADD72C,0.240*%
D10*
X0471749Y0548762D02*
G03*
X0472311Y0549324I0000000J0000562D01*
G01*
X0471186Y0549324D02*
G03*
X0471749Y0548762I0000563J0000000D01*
G01*
X0472311Y0554824D02*
G03*
X0471749Y0555387I-0000562J0000000D01*
G01*
X0471749D02*
G03*
X0471186Y0554824I0000000J-0000562D01*
G01*
X0465466Y0548770D02*
G03*
X0466028Y0549333I0000000J0000562D01*
G01*
X0464903Y0549333D02*
G03*
X0465466Y0548770I0000563J0000000D01*
G01*
X0466028Y0554833D02*
G03*
X0465466Y0555395I-0000562J0000000D01*
G01*
X0465466D02*
G03*
X0464903Y0554833I0000000J-0000562D01*
G01*
X0490234Y0537478D02*
G03*
X0490797Y0538041I0000000J0000562D01*
G01*
X0489672Y0538041D02*
G03*
X0490234Y0537478I0000563J0000000D01*
G01*
X0490797Y0543541D02*
G03*
X0490234Y0544103I-0000562J0000000D01*
G01*
X0490234D02*
G03*
X0489672Y0543541I0000000J-0000562D01*
G01*
X0490234Y0546103D02*
G03*
X0490797Y0546666I0000000J0000562D01*
G01*
X0489672Y0546666D02*
G03*
X0490234Y0546103I0000563J0000000D01*
G01*
X0490797Y0552166D02*
G03*
X0490234Y0552728I-0000562J0000000D01*
G01*
X0490234D02*
G03*
X0489672Y0552166I0000000J-0000562D01*
G01*
X0490234Y0554728D02*
G03*
X0490797Y0555291I0000000J0000562D01*
G01*
X0489672Y0555291D02*
G03*
X0490234Y0554728I0000563J0000000D01*
G01*
X0490797Y0560791D02*
G03*
X0490234Y0561353I-0000562J0000000D01*
G01*
X0490234D02*
G03*
X0489672Y0560791I0000000J-0000562D01*
G01*
X0490234Y0563353D02*
G03*
X0490797Y0563916I0000000J0000562D01*
G01*
X0489672Y0563916D02*
G03*
X0490234Y0563353I0000563J0000000D01*
G01*
X0490797Y0569416D02*
G03*
X0490234Y0569978I-0000562J0000000D01*
G01*
X0490234D02*
G03*
X0489672Y0569416I0000000J-0000562D01*
G01*
X0488360Y0573380D02*
G03*
X0488360Y0574176I-0000398J0000398D01*
G01*
X0487565Y0573380D02*
G03*
X0488360Y0573380I0000398J0000398D01*
G01*
X0484471Y0578065D02*
G03*
X0483676Y0578065I-0000398J-0000398D01*
G01*
X0483676Y0578065D02*
G03*
X0483676Y0577269I0000398J-0000398D01*
G01*
X0480924Y0581787D02*
G03*
X0480361Y0582349I-0000562J0000000D01*
G01*
X0480361Y0581224D02*
G03*
X0480924Y0581787I0000000J0000563D01*
G01*
X0474861Y0582349D02*
G03*
X0474299Y0581787I0000000J-0000562D01*
G01*
Y0581787D02*
G03*
X0474861Y0581224I0000562J0000000D01*
G01*
X0472299Y0581787D02*
G03*
X0471736Y0582349I-0000562J0000000D01*
G01*
X0471736Y0581224D02*
G03*
X0472299Y0581787I0000000J0000563D01*
G01*
X0466236Y0582349D02*
G03*
X0465674Y0581787I0000000J-0000562D01*
G01*
Y0581787D02*
G03*
X0466236Y0581224I0000562J0000000D01*
G01*
X0463674Y0581787D02*
G03*
X0463111Y0582349I-0000562J0000000D01*
G01*
X0463111Y0581224D02*
G03*
X0463674Y0581787I0000000J0000563D01*
G01*
X0457611Y0582349D02*
G03*
X0457049Y0581787I0000000J-0000562D01*
G01*
Y0581787D02*
G03*
X0457611Y0581224I0000562J0000000D01*
G01*
X0455049Y0581787D02*
G03*
X0454486Y0582349I-0000562J0000000D01*
G01*
X0454486Y0581224D02*
G03*
X0455049Y0581787I0000000J0000563D01*
G01*
X0448986Y0582349D02*
G03*
X0448424Y0581787I0000000J-0000562D01*
G01*
Y0581787D02*
G03*
X0448986Y0581224I0000562J0000000D01*
G01*
X0446424Y0581787D02*
G03*
X0445861Y0582349I-0000562J0000000D01*
G01*
X0445861Y0581224D02*
G03*
X0446424Y0581787I0000000J0000563D01*
G01*
X0440361Y0582349D02*
G03*
X0439799Y0581787I0000000J-0000562D01*
G01*
Y0581787D02*
G03*
X0440361Y0581224I0000562J0000000D01*
G01*
X0437799Y0581787D02*
G03*
X0437236Y0582349I-0000562J0000000D01*
G01*
X0437236Y0581224D02*
G03*
X0437799Y0581787I0000000J0000563D01*
G01*
X0431736Y0582349D02*
G03*
X0431174Y0581787I0000000J-0000562D01*
G01*
Y0581787D02*
G03*
X0431736Y0581224I0000562J0000000D01*
G01*
X0429174Y0581787D02*
G03*
X0428611Y0582349I-0000562J0000000D01*
G01*
X0428611Y0581224D02*
G03*
X0429174Y0581787I0000000J0000563D01*
G01*
X0423111Y0582349D02*
G03*
X0422549Y0581787I0000000J-0000562D01*
G01*
Y0581787D02*
G03*
X0423111Y0581224I0000562J0000000D01*
G01*
X0420549Y0581787D02*
G03*
X0419986Y0582349I-0000562J0000000D01*
G01*
X0419986Y0581224D02*
G03*
X0420549Y0581787I0000000J0000563D01*
G01*
X0414486Y0582349D02*
G03*
X0413924Y0581787I0000000J-0000562D01*
G01*
Y0581787D02*
G03*
X0414486Y0581224I0000562J0000000D01*
G01*
X0411924Y0581787D02*
G03*
X0411361Y0582349I-0000562J0000000D01*
G01*
X0411361Y0581224D02*
G03*
X0411924Y0581787I0000000J0000563D01*
G01*
X0405861Y0582349D02*
G03*
X0405299Y0581787I0000000J-0000562D01*
G01*
Y0581787D02*
G03*
X0405861Y0581224I0000562J0000000D01*
G01*
X0471186Y0549324D02*
Y0554824D01*
X0472311Y0549324D02*
Y0554824D01*
X0464903Y0549333D02*
Y0554833D01*
X0466028Y0549333D02*
Y0554833D01*
X0489672Y0538041D02*
Y0543541D01*
X0490797Y0538041D02*
Y0543541D01*
X0489672Y0546666D02*
Y0552166D01*
X0490797Y0546666D02*
Y0552166D01*
X0489672Y0555291D02*
Y0560791D01*
X0490797Y0555291D02*
Y0560791D01*
X0489672Y0563916D02*
Y0569416D01*
X0490797Y0563916D02*
Y0569416D01*
X0483676Y0577269D02*
X0487565Y0573380D01*
X0484471Y0578065D02*
X0488360Y0574176D01*
X0474861Y0581224D02*
X0480361D01*
X0474861Y0582349D02*
X0480361D01*
X0466236Y0581224D02*
X0471736D01*
X0466236Y0582349D02*
X0471736D01*
X0457611Y0581224D02*
X0463111D01*
X0457611Y0582349D02*
X0463111D01*
X0448986Y0581224D02*
X0454486D01*
X0448986Y0582349D02*
X0454486D01*
X0440361Y0581224D02*
X0445861D01*
X0440361Y0582349D02*
X0445861D01*
X0431736Y0581224D02*
X0437236D01*
X0431736Y0582349D02*
X0437236D01*
X0423111Y0581224D02*
X0428611D01*
X0423111Y0582349D02*
X0428611D01*
X0414486Y0581224D02*
X0419986D01*
X0414486Y0582349D02*
X0419986D01*
X0405862Y0581224D02*
X0411361D01*
X0405861Y0582349D02*
X0411361D01*
D12*
X0499566Y0535195D02*
G03*
X0502566Y0538195I-0000000J0003000D01*
G01*
X0502566Y0672195D02*
G03*
X0499566Y0675195I-0003000J0000000D01*
G01*
X0405566Y0675195D02*
G03*
X0402566Y0672195I-0000000J-0003000D01*
G01*
X0402566Y0538195D02*
G03*
X0405566Y0535195I0003000J-0000000D01*
G01*
X0402566Y0538195D02*
X0402566Y0672195D01*
X0405566Y0535195D02*
X0499566Y0535195D01*
X0502566Y0538195D02*
X0502566Y0672195D01*
X0405566Y0675195D02*
X0499566Y0675195D01*
D15*
X0385946Y0478605D02*
G03*
X0385946Y0478605I-0000333J0000000D01*
G01*
X0386168D02*
G03*
X0386168Y0478605I-0000556J0000000D01*
G01*
Y0471105D02*
G03*
X0386168Y0471105I-0000556J0000000D01*
G01*
X0385612Y0500772D02*
X0385946Y0501438D01*
X0385279D02*
X0385946D01*
X0385279D02*
X0385612Y0500772D01*
Y0500549D02*
X0386168Y0501660D01*
X0385057D02*
X0386168D01*
X0385057D02*
X0385612Y0500549D01*
X0385057Y0498327D02*
X0385335D01*
X0385057D02*
Y0498883D01*
X0385335D01*
Y0499160D01*
X0385890D01*
Y0498883D02*
Y0499160D01*
Y0498883D02*
X0386168D01*
Y0498327D02*
Y0498883D01*
X0385890Y0498327D02*
X0386168D01*
X0385890Y0498049D02*
Y0498327D01*
X0385335Y0498049D02*
X0385890D01*
X0385335D02*
Y0498327D01*
X0385057Y0495549D02*
Y0495827D01*
X0385335Y0496105D01*
X0385057Y0496383D02*
X0385335Y0496105D01*
X0385057Y0496383D02*
Y0496660D01*
X0385335D01*
X0385612Y0496383D01*
X0385890Y0496660D01*
X0386168D01*
Y0496383D02*
Y0496660D01*
X0385890Y0496105D02*
X0386168Y0496383D01*
X0385890Y0496105D02*
X0386168Y0495827D01*
Y0495549D02*
Y0495827D01*
X0385890Y0495549D02*
X0386168D01*
X0385612Y0495827D02*
X0385890Y0495549D01*
X0385335D02*
X0385612Y0495827D01*
X0385057Y0495549D02*
X0385335D01*
X0385612Y0493049D02*
X0386168Y0494160D01*
X0385057D02*
X0386168D01*
X0385057D02*
X0385612Y0493049D01*
X0385335Y0490827D02*
X0385612Y0490549D01*
X0385057Y0490827D02*
X0385335D01*
X0385057D02*
X0385335Y0491105D01*
X0385057Y0491383D02*
X0385335Y0491105D01*
X0385057Y0491383D02*
X0385335D01*
X0385612Y0491660D01*
X0385890Y0491383D01*
X0386168D01*
X0385890Y0491105D02*
X0386168Y0491383D01*
X0385890Y0491105D02*
X0386168Y0490827D01*
X0385890D02*
X0386168D01*
X0385612Y0490549D02*
X0385890Y0490827D01*
X0385279Y0488272D02*
X0385946D01*
Y0488938D01*
X0385279D02*
X0385946D01*
X0385279Y0488272D02*
Y0488938D01*
X0385057Y0488049D02*
X0386168D01*
Y0489160D01*
X0385057D02*
X0386168D01*
X0385057Y0488049D02*
Y0489160D01*
X0385446Y0485938D02*
X0385612Y0485772D01*
X0385279Y0485938D02*
X0385446D01*
X0385279D02*
X0385446Y0486105D01*
X0385279Y0486272D02*
X0385446Y0486105D01*
X0385279Y0486272D02*
X0385446D01*
X0385612Y0486438D01*
X0385779Y0486272D01*
X0385946D01*
X0385779Y0486105D02*
X0385946Y0486272D01*
X0385779Y0486105D02*
X0385946Y0485938D01*
X0385779D02*
X0385946D01*
X0385612Y0485772D02*
X0385779Y0485938D01*
X0385335Y0485827D02*
X0385612Y0485549D01*
X0385057Y0485827D02*
X0385335D01*
X0385057D02*
X0385335Y0486105D01*
X0385057Y0486383D02*
X0385335Y0486105D01*
X0385057Y0486383D02*
X0385335D01*
X0385612Y0486660D01*
X0385890Y0486383D01*
X0386168D01*
X0385890Y0486105D02*
X0386168Y0486383D01*
X0385890Y0486105D02*
X0386168Y0485827D01*
X0385890D02*
X0386168D01*
X0385612Y0485549D02*
X0385890Y0485827D01*
X0385057Y0483049D02*
X0386168D01*
Y0484160D01*
X0385057D02*
X0386168D01*
X0385057Y0483049D02*
Y0484160D01*
X0385279Y0480772D02*
X0385612Y0480938D01*
X0385946Y0480772D01*
X0385779Y0481105D02*
X0385946Y0480772D01*
X0385779Y0481105D02*
X0385946Y0481438D01*
X0385612Y0481272D02*
X0385946Y0481438D01*
X0385279D02*
X0385612Y0481272D01*
X0385279Y0481438D02*
X0385446Y0481105D01*
X0385279Y0480772D02*
X0385446Y0481105D01*
X0385057Y0480549D02*
X0385612Y0480827D01*
X0386168Y0480549D01*
X0385890Y0481105D02*
X0386168Y0480549D01*
X0385890Y0481105D02*
X0386168Y0481660D01*
X0385612Y0481383D02*
X0386168Y0481660D01*
X0385057D02*
X0385612Y0481383D01*
X0385057Y0481660D02*
X0385335Y0481105D01*
X0385057Y0480549D02*
X0385335Y0481105D01*
X0385057Y0475549D02*
X0385612Y0475827D01*
X0386168Y0475549D01*
X0385890Y0476105D02*
X0386168Y0475549D01*
X0385890Y0476105D02*
X0386168Y0476660D01*
X0385612Y0476383D02*
X0386168Y0476660D01*
X0385057D02*
X0385612Y0476383D01*
X0385057Y0476660D02*
X0385335Y0476105D01*
X0385057Y0475549D02*
X0385335Y0476105D01*
X0385057Y0473605D02*
X0385612Y0473049D01*
X0386168Y0473605D01*
X0385612Y0474160D02*
X0386168Y0473605D01*
X0385057D02*
X0385612Y0474160D01*
X0485685Y0500549D02*
X0485352Y0500883D01*
Y0501216D01*
X0485685Y0501549D01*
X0486185Y0500549D02*
Y0501549D01*
X0486518Y0501216D01*
X0486851Y0501549D01*
Y0500549D01*
X0487184D02*
X0487518D01*
X0487351D01*
Y0501216D01*
X0487184D01*
X0488017D02*
X0488684Y0500549D01*
X0488351Y0500883D01*
X0488684Y0501216D01*
X0488017Y0500549D01*
X0489517D02*
X0489184D01*
X0489017Y0500716D01*
Y0501049D01*
X0489184Y0501216D01*
X0489517D01*
X0489684Y0501049D01*
Y0500883D01*
X0489017D01*
X0490683Y0501549D02*
Y0500549D01*
X0490183D01*
X0490017Y0500716D01*
Y0501049D01*
X0490183Y0501216D01*
X0490683D01*
X0491016Y0500549D02*
X0491350Y0500883D01*
Y0501216D01*
X0491016Y0501549D01*
X0485352Y0498716D02*
Y0498049D01*
Y0498383D01*
X0485518Y0498549D01*
X0485685Y0498716D01*
X0485851D01*
X0486351Y0498049D02*
X0486685D01*
X0486518D01*
Y0499049D01*
X0486351Y0498882D01*
X0487184D02*
X0487351Y0499049D01*
X0487684D01*
X0487851Y0498882D01*
Y0498716D01*
X0487684Y0498549D01*
X0487851Y0498383D01*
Y0498216D01*
X0487684Y0498049D01*
X0487351D01*
X0487184Y0498216D01*
Y0498383D01*
X0487351Y0498549D01*
X0487184Y0498716D01*
Y0498882D01*
X0487351Y0498549D02*
X0487684D01*
X0488850Y0499049D02*
X0488184D01*
Y0498549D01*
X0488517Y0498716D01*
X0488684D01*
X0488850Y0498549D01*
Y0498216D01*
X0488684Y0498049D01*
X0488351D01*
X0488184Y0498216D01*
X0489184Y0497883D02*
X0489850D01*
X0490850Y0498049D02*
X0490183D01*
X0490850Y0498716D01*
Y0498882D01*
X0490683Y0499049D01*
X0490350D01*
X0490183Y0498882D01*
X0491850Y0498049D02*
X0491183D01*
X0491850Y0498716D01*
Y0498882D01*
X0491683Y0499049D01*
X0491350D01*
X0491183Y0498882D01*
X0492849Y0499049D02*
X0492183D01*
Y0498549D01*
X0492516Y0498716D01*
X0492683D01*
X0492849Y0498549D01*
Y0498216D01*
X0492683Y0498049D01*
X0492349D01*
X0492183Y0498216D01*
X0493182Y0499049D02*
Y0498049D01*
Y0498549D01*
X0493349Y0498716D01*
X0493682D01*
X0493849Y0498549D01*
Y0498049D01*
X0494182Y0498216D02*
X0494349Y0498049D01*
X0494682D01*
X0494849Y0498216D01*
Y0498882D01*
X0494682Y0499049D01*
X0494349D01*
X0494182Y0498882D01*
Y0498716D01*
X0494349Y0498549D01*
X0494849D01*
X0495182Y0498882D02*
X0495348Y0499049D01*
X0495682D01*
X0495848Y0498882D01*
Y0498216D01*
X0495682Y0498049D01*
X0495348D01*
X0495182Y0498216D01*
Y0498882D01*
X0496181Y0498716D02*
Y0498049D01*
Y0498383D01*
X0496348Y0498549D01*
X0496515Y0498716D01*
X0496681D01*
X0497181Y0498216D02*
X0497348Y0498049D01*
X0497681D01*
X0497848Y0498216D01*
Y0498882D01*
X0497681Y0499049D01*
X0497348D01*
X0497181Y0498882D01*
Y0498716D01*
X0497348Y0498549D01*
X0497848D01*
X0498847Y0498049D02*
X0498181D01*
X0498847Y0498716D01*
Y0498882D01*
X0498681Y0499049D01*
X0498347D01*
X0498181Y0498882D01*
X0485685Y0495549D02*
X0485352Y0495883D01*
Y0496216D01*
X0485685Y0496549D01*
X0486185Y0495549D02*
Y0496549D01*
X0486518Y0496216D01*
X0486851Y0496549D01*
Y0495549D01*
X0487184D02*
X0487518D01*
X0487351D01*
Y0496216D01*
X0487184D01*
X0488017D02*
X0488684Y0495549D01*
X0488351Y0495883D01*
X0488684Y0496216D01*
X0488017Y0495549D01*
X0489517D02*
X0489184D01*
X0489017Y0495716D01*
Y0496049D01*
X0489184Y0496216D01*
X0489517D01*
X0489684Y0496049D01*
Y0495883D01*
X0489017D01*
X0490683Y0496549D02*
Y0495549D01*
X0490183D01*
X0490017Y0495716D01*
Y0496049D01*
X0490183Y0496216D01*
X0490683D01*
X0491016Y0495549D02*
X0491350Y0495883D01*
Y0496216D01*
X0491016Y0496549D01*
X0486018Y0493716D02*
X0485518D01*
X0485352Y0493549D01*
Y0493216D01*
X0485518Y0493049D01*
X0486018D01*
X0487018D02*
X0486351D01*
X0487018Y0493716D01*
Y0493882D01*
X0486851Y0494049D01*
X0486518D01*
X0486351Y0493882D01*
X0487351D02*
X0487518Y0494049D01*
X0487851D01*
X0488017Y0493882D01*
Y0493716D01*
X0487851Y0493549D01*
X0488017Y0493383D01*
Y0493216D01*
X0487851Y0493049D01*
X0487518D01*
X0487351Y0493216D01*
Y0493383D01*
X0487518Y0493549D01*
X0487351Y0493716D01*
Y0493882D01*
X0487518Y0493549D02*
X0487851D01*
X0488351Y0493882D02*
X0488517Y0494049D01*
X0488850D01*
X0489017Y0493882D01*
Y0493216D01*
X0488850Y0493049D01*
X0488517D01*
X0488351Y0493216D01*
Y0493882D01*
X0489350Y0494049D02*
Y0493049D01*
Y0493549D01*
X0489517Y0493716D01*
X0489850D01*
X0490017Y0493549D01*
Y0493049D01*
X0490350D02*
X0490683D01*
X0490517D01*
Y0494049D01*
X0490350Y0493882D01*
X0491850Y0493049D02*
X0491183D01*
X0491850Y0493716D01*
Y0493882D01*
X0491683Y0494049D01*
X0491350D01*
X0491183Y0493882D01*
X0492183D02*
X0492349Y0494049D01*
X0492683D01*
X0492849Y0493882D01*
Y0493216D01*
X0492683Y0493049D01*
X0492349D01*
X0492183Y0493216D01*
Y0493882D01*
X0486018Y0491216D02*
X0485518D01*
X0485352Y0491049D01*
Y0490716D01*
X0485518Y0490549D01*
X0486018D01*
X0487018D02*
X0486351D01*
X0487018Y0491216D01*
Y0491382D01*
X0486851Y0491549D01*
X0486518D01*
X0486351Y0491382D01*
X0488017Y0491549D02*
X0487351D01*
Y0491049D01*
X0487684Y0491216D01*
X0487851D01*
X0488017Y0491049D01*
Y0490716D01*
X0487851Y0490549D01*
X0487518D01*
X0487351Y0490716D01*
X0488351Y0491382D02*
X0488517Y0491549D01*
X0488850D01*
X0489017Y0491382D01*
Y0490716D01*
X0488850Y0490549D01*
X0488517D01*
X0488351Y0490716D01*
Y0491382D01*
X0489350Y0491549D02*
Y0490549D01*
Y0491049D01*
X0489517Y0491216D01*
X0489850D01*
X0490017Y0491049D01*
Y0490549D01*
X0490350D02*
X0490683D01*
X0490517D01*
Y0491549D01*
X0490350Y0491382D01*
X0491183D02*
X0491350Y0491549D01*
X0491683D01*
X0491850Y0491382D01*
Y0491216D01*
X0491683Y0491049D01*
X0491516D01*
X0491683D01*
X0491850Y0490883D01*
Y0490716D01*
X0491683Y0490549D01*
X0491350D01*
X0491183Y0490716D01*
X0492183Y0491382D02*
X0492349Y0491549D01*
X0492683D01*
X0492849Y0491382D01*
Y0490716D01*
X0492683Y0490549D01*
X0492349D01*
X0492183Y0490716D01*
Y0491382D01*
X0486018Y0488716D02*
X0485518D01*
X0485352Y0488549D01*
Y0488216D01*
X0485518Y0488049D01*
X0486018D01*
X0486351Y0488882D02*
X0486518Y0489049D01*
X0486851D01*
X0487018Y0488882D01*
Y0488716D01*
X0486851Y0488549D01*
X0486685D01*
X0486851D01*
X0487018Y0488383D01*
Y0488216D01*
X0486851Y0488049D01*
X0486518D01*
X0486351Y0488216D01*
X0487351Y0488882D02*
X0487518Y0489049D01*
X0487851D01*
X0488017Y0488882D01*
Y0488216D01*
X0487851Y0488049D01*
X0487518D01*
X0487351Y0488216D01*
Y0488882D01*
X0488351D02*
X0488517Y0489049D01*
X0488850D01*
X0489017Y0488882D01*
Y0488216D01*
X0488850Y0488049D01*
X0488517D01*
X0488351Y0488216D01*
Y0488882D01*
X0489350Y0489049D02*
Y0488049D01*
Y0488549D01*
X0489517Y0488716D01*
X0489850D01*
X0490017Y0488549D01*
Y0488049D01*
X0490350D02*
X0490683D01*
X0490517D01*
Y0489049D01*
X0490350Y0488882D01*
X0491683Y0488049D02*
Y0489049D01*
X0491183Y0488549D01*
X0491850D01*
X0492183Y0488882D02*
X0492349Y0489049D01*
X0492683D01*
X0492849Y0488882D01*
Y0488216D01*
X0492683Y0488049D01*
X0492349D01*
X0492183Y0488216D01*
Y0488882D01*
X0485685Y0485549D02*
X0485352Y0485883D01*
Y0486216D01*
X0485685Y0486549D01*
X0486185Y0485549D02*
Y0486549D01*
X0486518Y0486216D01*
X0486851Y0486549D01*
Y0485549D01*
X0487184D02*
X0487518D01*
X0487351D01*
Y0486216D01*
X0487184D01*
X0488017D02*
X0488684Y0485549D01*
X0488351Y0485883D01*
X0488684Y0486216D01*
X0488017Y0485549D01*
X0489517D02*
X0489184D01*
X0489017Y0485716D01*
Y0486049D01*
X0489184Y0486216D01*
X0489517D01*
X0489684Y0486049D01*
Y0485883D01*
X0489017D01*
X0490683Y0486549D02*
Y0485549D01*
X0490183D01*
X0490017Y0485716D01*
Y0486049D01*
X0490183Y0486216D01*
X0490683D01*
X0491016Y0485549D02*
X0491350Y0485883D01*
Y0486216D01*
X0491016Y0486549D01*
X0486018Y0483716D02*
X0485518D01*
X0485352Y0483549D01*
Y0483216D01*
X0485518Y0483049D01*
X0486018D01*
X0486351Y0483882D02*
X0486518Y0484049D01*
X0486851D01*
X0487018Y0483882D01*
Y0483716D01*
X0486851Y0483549D01*
X0486685D01*
X0486851D01*
X0487018Y0483383D01*
Y0483216D01*
X0486851Y0483049D01*
X0486518D01*
X0486351Y0483216D01*
X0487351Y0483882D02*
X0487518Y0484049D01*
X0487851D01*
X0488017Y0483882D01*
Y0483716D01*
X0487851Y0483549D01*
X0487684D01*
X0487851D01*
X0488017Y0483383D01*
Y0483216D01*
X0487851Y0483049D01*
X0487518D01*
X0487351Y0483216D01*
X0488351Y0483882D02*
X0488517Y0484049D01*
X0488850D01*
X0489017Y0483882D01*
Y0483216D01*
X0488850Y0483049D01*
X0488517D01*
X0488351Y0483216D01*
Y0483882D01*
X0489350Y0484049D02*
Y0483049D01*
Y0483549D01*
X0489517Y0483716D01*
X0489850D01*
X0490017Y0483549D01*
Y0483049D01*
X0490350D02*
X0490683D01*
X0490517D01*
Y0484049D01*
X0490350Y0483882D01*
X0491850Y0484049D02*
X0491516Y0483882D01*
X0491183Y0483549D01*
Y0483216D01*
X0491350Y0483049D01*
X0491683D01*
X0491850Y0483216D01*
Y0483383D01*
X0491683Y0483549D01*
X0491183D01*
X0492183Y0483882D02*
X0492349Y0484049D01*
X0492683D01*
X0492849Y0483882D01*
Y0483216D01*
X0492683Y0483049D01*
X0492349D01*
X0492183Y0483216D01*
Y0483882D01*
X0493182Y0483049D02*
Y0483716D01*
X0493349D01*
X0493516Y0483549D01*
Y0483049D01*
Y0483549D01*
X0493682Y0483716D01*
X0493849Y0483549D01*
Y0483049D01*
X0494182Y0483882D02*
X0494349Y0484049D01*
X0494682D01*
X0494849Y0483882D01*
Y0483716D01*
X0494682Y0483549D01*
X0494515D01*
X0494682D01*
X0494849Y0483383D01*
Y0483216D01*
X0494682Y0483049D01*
X0494349D01*
X0494182Y0483216D01*
X0495848Y0484049D02*
X0495182D01*
Y0483549D01*
X0495515Y0483716D01*
X0495682D01*
X0495848Y0483549D01*
Y0483216D01*
X0495682Y0483049D01*
X0495348D01*
X0495182Y0483216D01*
X0496181Y0483882D02*
X0496348Y0484049D01*
X0496681D01*
X0496848Y0483882D01*
Y0483216D01*
X0496681Y0483049D01*
X0496348D01*
X0496181Y0483216D01*
Y0483882D01*
X0485352Y0481216D02*
Y0480549D01*
Y0480883D01*
X0485518Y0481049D01*
X0485685Y0481216D01*
X0485851D01*
X0487018Y0480549D02*
X0486351D01*
X0487018Y0481216D01*
Y0481382D01*
X0486851Y0481549D01*
X0486518D01*
X0486351Y0481382D01*
X0488017Y0481549D02*
X0487351D01*
Y0481049D01*
X0487684Y0481216D01*
X0487851D01*
X0488017Y0481049D01*
Y0480716D01*
X0487851Y0480549D01*
X0487518D01*
X0487351Y0480716D01*
X0488351Y0481382D02*
X0488517Y0481549D01*
X0488850D01*
X0489017Y0481382D01*
Y0480716D01*
X0488850Y0480549D01*
X0488517D01*
X0488351Y0480716D01*
Y0481382D01*
X0489350Y0480383D02*
X0490017D01*
X0490850Y0480549D02*
Y0481549D01*
X0490350Y0481049D01*
X0491016D01*
X0491350Y0481382D02*
X0491516Y0481549D01*
X0491850D01*
X0492016Y0481382D01*
Y0480716D01*
X0491850Y0480549D01*
X0491516D01*
X0491350Y0480716D01*
Y0481382D01*
X0492349D02*
X0492516Y0481549D01*
X0492849D01*
X0493016Y0481382D01*
Y0480716D01*
X0492849Y0480549D01*
X0492516D01*
X0492349Y0480716D01*
Y0481382D01*
X0493349Y0481549D02*
Y0480549D01*
Y0481049D01*
X0493516Y0481216D01*
X0493849D01*
X0494016Y0481049D01*
Y0480549D01*
X0494349D02*
X0494682D01*
X0494515D01*
Y0481549D01*
X0494349Y0481382D01*
X0495848Y0481549D02*
X0495515Y0481382D01*
X0495182Y0481049D01*
Y0480716D01*
X0495348Y0480549D01*
X0495682D01*
X0495848Y0480716D01*
Y0480883D01*
X0495682Y0481049D01*
X0495182D01*
X0496181Y0481382D02*
X0496348Y0481549D01*
X0496681D01*
X0496848Y0481382D01*
Y0480716D01*
X0496681Y0480549D01*
X0496348D01*
X0496181Y0480716D01*
Y0481382D01*
X0497181Y0481216D02*
Y0480549D01*
Y0480883D01*
X0497348Y0481049D01*
X0497514Y0481216D01*
X0497681D01*
X0498181Y0480549D02*
X0498514D01*
X0498347D01*
Y0481549D01*
X0498181Y0481382D01*
X0499680Y0480549D02*
X0499014D01*
X0499680Y0481216D01*
Y0481382D01*
X0499514Y0481549D01*
X0499181D01*
X0499014Y0481382D01*
X0500680Y0481549D02*
X0500014D01*
Y0481049D01*
X0500347Y0481216D01*
X0500513D01*
X0500680Y0481049D01*
Y0480716D01*
X0500513Y0480549D01*
X0500180D01*
X0500014Y0480716D01*
X0486018Y0478716D02*
X0485518D01*
X0485352Y0478549D01*
Y0478216D01*
X0485518Y0478049D01*
X0486018D01*
X0486351Y0478882D02*
X0486518Y0479049D01*
X0486851D01*
X0487018Y0478882D01*
Y0478716D01*
X0486851Y0478549D01*
X0486685D01*
X0486851D01*
X0487018Y0478383D01*
Y0478216D01*
X0486851Y0478049D01*
X0486518D01*
X0486351Y0478216D01*
X0487351Y0479049D02*
X0488017D01*
Y0478882D01*
X0487351Y0478216D01*
Y0478049D01*
X0488351Y0478882D02*
X0488517Y0479049D01*
X0488850D01*
X0489017Y0478882D01*
Y0478216D01*
X0488850Y0478049D01*
X0488517D01*
X0488351Y0478216D01*
Y0478882D01*
X0489350Y0479049D02*
Y0478049D01*
Y0478549D01*
X0489517Y0478716D01*
X0489850D01*
X0490017Y0478549D01*
Y0478049D01*
X0490350D02*
X0490683D01*
X0490517D01*
Y0479049D01*
X0490350Y0478882D01*
X0491183D02*
X0491350Y0479049D01*
X0491683D01*
X0491850Y0478882D01*
Y0478716D01*
X0491683Y0478549D01*
X0491850Y0478383D01*
Y0478216D01*
X0491683Y0478049D01*
X0491350D01*
X0491183Y0478216D01*
Y0478383D01*
X0491350Y0478549D01*
X0491183Y0478716D01*
Y0478882D01*
X0491350Y0478549D02*
X0491683D01*
X0492849Y0479049D02*
X0492183D01*
Y0478549D01*
X0492516Y0478716D01*
X0492683D01*
X0492849Y0478549D01*
Y0478216D01*
X0492683Y0478049D01*
X0492349D01*
X0492183Y0478216D01*
X0486018Y0476216D02*
X0485518D01*
X0485352Y0476049D01*
Y0475716D01*
X0485518Y0475549D01*
X0486018D01*
X0486351D02*
X0486685D01*
X0486518D01*
Y0476549D01*
X0486351Y0476382D01*
X0487851Y0476549D02*
X0487184D01*
Y0476049D01*
X0487518Y0476216D01*
X0487684D01*
X0487851Y0476049D01*
Y0475716D01*
X0487684Y0475549D01*
X0487351D01*
X0487184Y0475716D01*
X0488184Y0476382D02*
X0488351Y0476549D01*
X0488684D01*
X0488850Y0476382D01*
Y0475716D01*
X0488684Y0475549D01*
X0488351D01*
X0488184Y0475716D01*
Y0476382D01*
X0489184Y0476549D02*
Y0475549D01*
Y0476049D01*
X0489350Y0476216D01*
X0489684D01*
X0489850Y0476049D01*
Y0475549D01*
X0490183D02*
Y0476216D01*
X0490683D01*
X0490850Y0476049D01*
Y0475549D01*
X0491850D02*
X0491183D01*
X0491850Y0476216D01*
Y0476382D01*
X0491683Y0476549D01*
X0491350D01*
X0491183Y0476382D01*
X0492183D02*
X0492349Y0476549D01*
X0492683D01*
X0492849Y0476382D01*
Y0475716D01*
X0492683Y0475549D01*
X0492349D01*
X0492183Y0475716D01*
Y0476382D01*
X0493182D02*
X0493349Y0476549D01*
X0493682D01*
X0493849Y0476382D01*
Y0475716D01*
X0493682Y0475549D01*
X0493349D01*
X0493182Y0475716D01*
Y0476382D01*
X0486018Y0473716D02*
X0485518D01*
X0485352Y0473549D01*
Y0473216D01*
X0485518Y0473049D01*
X0486018D01*
X0487018Y0474049D02*
X0486351D01*
Y0473549D01*
X0486685Y0473716D01*
X0486851D01*
X0487018Y0473549D01*
Y0473216D01*
X0486851Y0473049D01*
X0486518D01*
X0486351Y0473216D01*
X0488017Y0474049D02*
X0487351D01*
Y0473549D01*
X0487684Y0473716D01*
X0487851D01*
X0488017Y0473549D01*
Y0473216D01*
X0487851Y0473049D01*
X0487518D01*
X0487351Y0473216D01*
X0488351Y0473882D02*
X0488517Y0474049D01*
X0488850D01*
X0489017Y0473882D01*
Y0473216D01*
X0488850Y0473049D01*
X0488517D01*
X0488351Y0473216D01*
Y0473882D01*
X0489350Y0474049D02*
Y0473049D01*
Y0473549D01*
X0489517Y0473716D01*
X0489850D01*
X0490017Y0473549D01*
Y0473049D01*
X0490350Y0473882D02*
X0490517Y0474049D01*
X0490850D01*
X0491016Y0473882D01*
Y0473716D01*
X0490850Y0473549D01*
X0490683D01*
X0490850D01*
X0491016Y0473383D01*
Y0473216D01*
X0490850Y0473049D01*
X0490517D01*
X0490350Y0473216D01*
X0492016Y0473049D02*
X0491350D01*
X0492016Y0473716D01*
Y0473882D01*
X0491850Y0474049D01*
X0491516D01*
X0491350Y0473882D01*
X0492349D02*
X0492516Y0474049D01*
X0492849D01*
X0493016Y0473882D01*
Y0473216D01*
X0492849Y0473049D01*
X0492516D01*
X0492349Y0473216D01*
Y0473882D01*
X0493349Y0473049D02*
Y0473716D01*
X0493516D01*
X0493682Y0473549D01*
Y0473049D01*
Y0473549D01*
X0493849Y0473716D01*
X0494016Y0473549D01*
Y0473049D01*
X0495015Y0474049D02*
X0494349D01*
Y0473549D01*
X0494682Y0473716D01*
X0494849D01*
X0495015Y0473549D01*
Y0473216D01*
X0494849Y0473049D01*
X0494515D01*
X0494349Y0473216D01*
X0495348Y0474049D02*
X0496015D01*
Y0473882D01*
X0495348Y0473216D01*
Y0473049D01*
X0496348Y0473882D02*
X0496515Y0474049D01*
X0496848D01*
X0497015Y0473882D01*
Y0473216D01*
X0496848Y0473049D01*
X0496515D01*
X0496348Y0473216D01*
Y0473882D01*
X0485352Y0471216D02*
X0485685Y0470549D01*
X0486018Y0471216D01*
X0486351Y0470549D02*
X0486685D01*
X0486518D01*
Y0471549D01*
X0486351Y0471382D01*
X0487184D02*
X0487351Y0471549D01*
X0487684D01*
X0487851Y0471382D01*
Y0470716D01*
X0487684Y0470549D01*
X0487351D01*
X0487184Y0470716D01*
Y0471382D01*
X0488184D02*
X0488351Y0471549D01*
X0488684D01*
X0488850Y0471382D01*
Y0470716D01*
X0488684Y0470549D01*
X0488351D01*
X0488184Y0470716D01*
Y0471382D01*
X0489184Y0471549D02*
Y0470549D01*
Y0471049D01*
X0489350Y0471216D01*
X0489684D01*
X0489850Y0471049D01*
Y0470549D01*
X0490850Y0471549D02*
X0490183D01*
Y0471049D01*
X0490517Y0471216D01*
X0490683D01*
X0490850Y0471049D01*
Y0470716D01*
X0490683Y0470549D01*
X0490350D01*
X0490183Y0470716D01*
X0491183Y0471382D02*
X0491350Y0471549D01*
X0491683D01*
X0491850Y0471382D01*
Y0470716D01*
X0491683Y0470549D01*
X0491350D01*
X0491183Y0470716D01*
Y0471382D01*
X0492183Y0470549D02*
Y0471216D01*
X0492349D01*
X0492516Y0471049D01*
Y0470549D01*
Y0471049D01*
X0492683Y0471216D01*
X0492849Y0471049D01*
Y0470549D01*
X0493182Y0471382D02*
X0493349Y0471549D01*
X0493682D01*
X0493849Y0471382D01*
Y0470716D01*
X0493682Y0470549D01*
X0493349D01*
X0493182Y0470716D01*
Y0471382D01*
X0494182Y0470549D02*
Y0471216D01*
X0494349D01*
X0494515Y0471049D01*
Y0470549D01*
Y0471049D01*
X0494682Y0471216D01*
X0494849Y0471049D01*
Y0470549D01*
X0495182Y0471216D02*
X0495848Y0470549D01*
X0495515Y0470883D01*
X0495848Y0471216D01*
X0495182Y0470549D01*
X0496181Y0471382D02*
X0496348Y0471549D01*
X0496681D01*
X0496848Y0471382D01*
Y0470716D01*
X0496681Y0470549D01*
X0496348D01*
X0496181Y0470716D01*
Y0471382D01*
X0473308Y0500549D02*
X0472975Y0500883D01*
Y0501216D01*
X0473308Y0501549D01*
X0473808Y0500549D02*
Y0501549D01*
X0474141Y0501216D01*
X0474475Y0501549D01*
Y0500549D01*
X0474808D02*
X0475141D01*
X0474974D01*
Y0501216D01*
X0474808D01*
X0475641D02*
X0476307Y0500549D01*
X0475974Y0500883D01*
X0476307Y0501216D01*
X0475641Y0500549D01*
X0477140D02*
X0476807D01*
X0476640Y0500716D01*
Y0501049D01*
X0476807Y0501216D01*
X0477140D01*
X0477307Y0501049D01*
Y0500883D01*
X0476640D01*
X0478307Y0501549D02*
Y0500549D01*
X0477807D01*
X0477640Y0500716D01*
Y0501049D01*
X0477807Y0501216D01*
X0478307D01*
X0478640Y0500549D02*
X0478973Y0500883D01*
Y0501216D01*
X0478640Y0501549D01*
X0472975Y0498049D02*
Y0499049D01*
X0473475D01*
X0473641Y0498882D01*
Y0498549D01*
X0473475Y0498383D01*
X0472975D01*
X0473308D02*
X0473641Y0498049D01*
X0474141D02*
X0474475D01*
X0474641Y0498216D01*
Y0498549D01*
X0474475Y0498716D01*
X0474141D01*
X0473975Y0498549D01*
Y0498216D01*
X0474141Y0498049D01*
X0474974Y0498716D02*
Y0498216D01*
X0475141Y0498049D01*
X0475641D01*
Y0498716D01*
X0475974Y0498049D02*
Y0498716D01*
X0476474D01*
X0476640Y0498549D01*
Y0498049D01*
X0477640Y0499049D02*
Y0498049D01*
X0477140D01*
X0476974Y0498216D01*
Y0498549D01*
X0477140Y0498716D01*
X0477640D01*
X0478473Y0498049D02*
X0478140D01*
X0477973Y0498216D01*
Y0498549D01*
X0478140Y0498716D01*
X0478473D01*
X0478640Y0498549D01*
Y0498383D01*
X0477973D01*
X0479640Y0499049D02*
Y0498049D01*
X0479140D01*
X0478973Y0498216D01*
Y0498549D01*
X0479140Y0498716D01*
X0479640D01*
X0472975Y0495549D02*
Y0496549D01*
X0473475D01*
X0473641Y0496382D01*
Y0496049D01*
X0473475Y0495883D01*
X0472975D01*
X0473308D02*
X0473641Y0495549D01*
X0474141D02*
X0474475D01*
X0474641Y0495716D01*
Y0496049D01*
X0474475Y0496216D01*
X0474141D01*
X0473975Y0496049D01*
Y0495716D01*
X0474141Y0495549D01*
X0474974Y0496216D02*
Y0495716D01*
X0475141Y0495549D01*
X0475641D01*
Y0496216D01*
X0475974Y0495549D02*
Y0496216D01*
X0476474D01*
X0476640Y0496049D01*
Y0495549D01*
X0477640Y0496549D02*
Y0495549D01*
X0477140D01*
X0476974Y0495716D01*
Y0496049D01*
X0477140Y0496216D01*
X0477640D01*
X0478473Y0495549D02*
X0478140D01*
X0477973Y0495716D01*
Y0496049D01*
X0478140Y0496216D01*
X0478473D01*
X0478640Y0496049D01*
Y0495883D01*
X0477973D01*
X0479640Y0496549D02*
Y0495549D01*
X0479140D01*
X0478973Y0495716D01*
Y0496049D01*
X0479140Y0496216D01*
X0479640D01*
X0472975Y0493049D02*
Y0494049D01*
X0473475D01*
X0473641Y0493882D01*
Y0493549D01*
X0473475Y0493383D01*
X0472975D01*
X0473308D02*
X0473641Y0493049D01*
X0474141D02*
X0474475D01*
X0474641Y0493216D01*
Y0493549D01*
X0474475Y0493716D01*
X0474141D01*
X0473975Y0493549D01*
Y0493216D01*
X0474141Y0493049D01*
X0474974Y0493716D02*
Y0493216D01*
X0475141Y0493049D01*
X0475641D01*
Y0493716D01*
X0475974Y0493049D02*
Y0493716D01*
X0476474D01*
X0476640Y0493549D01*
Y0493049D01*
X0477640Y0494049D02*
Y0493049D01*
X0477140D01*
X0476974Y0493216D01*
Y0493549D01*
X0477140Y0493716D01*
X0477640D01*
X0478473Y0493049D02*
X0478140D01*
X0477973Y0493216D01*
Y0493549D01*
X0478140Y0493716D01*
X0478473D01*
X0478640Y0493549D01*
Y0493383D01*
X0477973D01*
X0479640Y0494049D02*
Y0493049D01*
X0479140D01*
X0478973Y0493216D01*
Y0493549D01*
X0479140Y0493716D01*
X0479640D01*
X0472975Y0490549D02*
Y0491549D01*
X0473475D01*
X0473641Y0491382D01*
Y0491049D01*
X0473475Y0490883D01*
X0472975D01*
X0473308D02*
X0473641Y0490549D01*
X0474141D02*
X0474475D01*
X0474641Y0490716D01*
Y0491049D01*
X0474475Y0491216D01*
X0474141D01*
X0473975Y0491049D01*
Y0490716D01*
X0474141Y0490549D01*
X0474974Y0491216D02*
Y0490716D01*
X0475141Y0490549D01*
X0475641D01*
Y0491216D01*
X0475974Y0490549D02*
Y0491216D01*
X0476474D01*
X0476640Y0491049D01*
Y0490549D01*
X0477640Y0491549D02*
Y0490549D01*
X0477140D01*
X0476974Y0490716D01*
Y0491049D01*
X0477140Y0491216D01*
X0477640D01*
X0478473Y0490549D02*
X0478140D01*
X0477973Y0490716D01*
Y0491049D01*
X0478140Y0491216D01*
X0478473D01*
X0478640Y0491049D01*
Y0490883D01*
X0477973D01*
X0479640Y0491549D02*
Y0490549D01*
X0479140D01*
X0478973Y0490716D01*
Y0491049D01*
X0479140Y0491216D01*
X0479640D01*
X0472975Y0488049D02*
Y0489049D01*
X0473475D01*
X0473641Y0488882D01*
Y0488549D01*
X0473475Y0488383D01*
X0472975D01*
X0473308D02*
X0473641Y0488049D01*
X0474141D02*
X0474475D01*
X0474641Y0488216D01*
Y0488549D01*
X0474475Y0488716D01*
X0474141D01*
X0473975Y0488549D01*
Y0488216D01*
X0474141Y0488049D01*
X0474974Y0488716D02*
Y0488216D01*
X0475141Y0488049D01*
X0475641D01*
Y0488716D01*
X0475974Y0488049D02*
Y0488716D01*
X0476474D01*
X0476640Y0488549D01*
Y0488049D01*
X0477640Y0489049D02*
Y0488049D01*
X0477140D01*
X0476974Y0488216D01*
Y0488549D01*
X0477140Y0488716D01*
X0477640D01*
X0478473Y0488049D02*
X0478140D01*
X0477973Y0488216D01*
Y0488549D01*
X0478140Y0488716D01*
X0478473D01*
X0478640Y0488549D01*
Y0488383D01*
X0477973D01*
X0479640Y0489049D02*
Y0488049D01*
X0479140D01*
X0478973Y0488216D01*
Y0488549D01*
X0479140Y0488716D01*
X0479640D01*
X0472975Y0485549D02*
Y0486549D01*
X0473475D01*
X0473641Y0486382D01*
Y0486049D01*
X0473475Y0485883D01*
X0472975D01*
X0473308D02*
X0473641Y0485549D01*
X0474141D02*
X0474475D01*
X0474641Y0485716D01*
Y0486049D01*
X0474475Y0486216D01*
X0474141D01*
X0473975Y0486049D01*
Y0485716D01*
X0474141Y0485549D01*
X0474974Y0486216D02*
Y0485716D01*
X0475141Y0485549D01*
X0475641D01*
Y0486216D01*
X0475974Y0485549D02*
Y0486216D01*
X0476474D01*
X0476640Y0486049D01*
Y0485549D01*
X0477640Y0486549D02*
Y0485549D01*
X0477140D01*
X0476974Y0485716D01*
Y0486049D01*
X0477140Y0486216D01*
X0477640D01*
X0478473Y0485549D02*
X0478140D01*
X0477973Y0485716D01*
Y0486049D01*
X0478140Y0486216D01*
X0478473D01*
X0478640Y0486049D01*
Y0485883D01*
X0477973D01*
X0479640Y0486549D02*
Y0485549D01*
X0479140D01*
X0478973Y0485716D01*
Y0486049D01*
X0479140Y0486216D01*
X0479640D01*
X0472975Y0483049D02*
Y0484049D01*
X0473475D01*
X0473641Y0483882D01*
Y0483549D01*
X0473475Y0483383D01*
X0472975D01*
X0473308D02*
X0473641Y0483049D01*
X0474141D02*
X0474475D01*
X0474641Y0483216D01*
Y0483549D01*
X0474475Y0483716D01*
X0474141D01*
X0473975Y0483549D01*
Y0483216D01*
X0474141Y0483049D01*
X0474974Y0483716D02*
Y0483216D01*
X0475141Y0483049D01*
X0475641D01*
Y0483716D01*
X0475974Y0483049D02*
Y0483716D01*
X0476474D01*
X0476640Y0483549D01*
Y0483049D01*
X0477640Y0484049D02*
Y0483049D01*
X0477140D01*
X0476974Y0483216D01*
Y0483549D01*
X0477140Y0483716D01*
X0477640D01*
X0478473Y0483049D02*
X0478140D01*
X0477973Y0483216D01*
Y0483549D01*
X0478140Y0483716D01*
X0478473D01*
X0478640Y0483549D01*
Y0483383D01*
X0477973D01*
X0479640Y0484049D02*
Y0483049D01*
X0479140D01*
X0478973Y0483216D01*
Y0483549D01*
X0479140Y0483716D01*
X0479640D01*
X0472975Y0480549D02*
Y0481549D01*
X0473475D01*
X0473641Y0481382D01*
Y0481049D01*
X0473475Y0480883D01*
X0472975D01*
X0473308D02*
X0473641Y0480549D01*
X0474141D02*
X0474475D01*
X0474641Y0480716D01*
Y0481049D01*
X0474475Y0481216D01*
X0474141D01*
X0473975Y0481049D01*
Y0480716D01*
X0474141Y0480549D01*
X0474974Y0481216D02*
Y0480716D01*
X0475141Y0480549D01*
X0475641D01*
Y0481216D01*
X0475974Y0480549D02*
Y0481216D01*
X0476474D01*
X0476640Y0481049D01*
Y0480549D01*
X0477640Y0481549D02*
Y0480549D01*
X0477140D01*
X0476974Y0480716D01*
Y0481049D01*
X0477140Y0481216D01*
X0477640D01*
X0478473Y0480549D02*
X0478140D01*
X0477973Y0480716D01*
Y0481049D01*
X0478140Y0481216D01*
X0478473D01*
X0478640Y0481049D01*
Y0480883D01*
X0477973D01*
X0479640Y0481549D02*
Y0480549D01*
X0479140D01*
X0478973Y0480716D01*
Y0481049D01*
X0479140Y0481216D01*
X0479640D01*
X0472975Y0478049D02*
Y0479049D01*
X0473475D01*
X0473641Y0478882D01*
Y0478549D01*
X0473475Y0478383D01*
X0472975D01*
X0473308D02*
X0473641Y0478049D01*
X0474141D02*
X0474475D01*
X0474641Y0478216D01*
Y0478549D01*
X0474475Y0478716D01*
X0474141D01*
X0473975Y0478549D01*
Y0478216D01*
X0474141Y0478049D01*
X0474974Y0478716D02*
Y0478216D01*
X0475141Y0478049D01*
X0475641D01*
Y0478716D01*
X0475974Y0478049D02*
Y0478716D01*
X0476474D01*
X0476640Y0478549D01*
Y0478049D01*
X0477640Y0479049D02*
Y0478049D01*
X0477140D01*
X0476974Y0478216D01*
Y0478549D01*
X0477140Y0478716D01*
X0477640D01*
X0478473Y0478049D02*
X0478140D01*
X0477973Y0478216D01*
Y0478549D01*
X0478140Y0478716D01*
X0478473D01*
X0478640Y0478549D01*
Y0478383D01*
X0477973D01*
X0479640Y0479049D02*
Y0478049D01*
X0479140D01*
X0478973Y0478216D01*
Y0478549D01*
X0479140Y0478716D01*
X0479640D01*
X0472975Y0475549D02*
Y0476549D01*
X0473475D01*
X0473641Y0476382D01*
Y0476049D01*
X0473475Y0475883D01*
X0472975D01*
X0473308D02*
X0473641Y0475549D01*
X0474141D02*
X0474475D01*
X0474641Y0475716D01*
Y0476049D01*
X0474475Y0476216D01*
X0474141D01*
X0473975Y0476049D01*
Y0475716D01*
X0474141Y0475549D01*
X0474974Y0476216D02*
Y0475716D01*
X0475141Y0475549D01*
X0475641D01*
Y0476216D01*
X0475974Y0475549D02*
Y0476216D01*
X0476474D01*
X0476640Y0476049D01*
Y0475549D01*
X0477640Y0476549D02*
Y0475549D01*
X0477140D01*
X0476974Y0475716D01*
Y0476049D01*
X0477140Y0476216D01*
X0477640D01*
X0478473Y0475549D02*
X0478140D01*
X0477973Y0475716D01*
Y0476049D01*
X0478140Y0476216D01*
X0478473D01*
X0478640Y0476049D01*
Y0475883D01*
X0477973D01*
X0479640Y0476549D02*
Y0475549D01*
X0479140D01*
X0478973Y0475716D01*
Y0476049D01*
X0479140Y0476216D01*
X0479640D01*
X0472975Y0473049D02*
Y0474049D01*
X0473475D01*
X0473641Y0473882D01*
Y0473549D01*
X0473475Y0473383D01*
X0472975D01*
X0473308D02*
X0473641Y0473049D01*
X0474141D02*
X0474475D01*
X0474641Y0473216D01*
Y0473549D01*
X0474475Y0473716D01*
X0474141D01*
X0473975Y0473549D01*
Y0473216D01*
X0474141Y0473049D01*
X0474974Y0473716D02*
Y0473216D01*
X0475141Y0473049D01*
X0475641D01*
Y0473716D01*
X0475974Y0473049D02*
Y0473716D01*
X0476474D01*
X0476640Y0473549D01*
Y0473049D01*
X0477640Y0474049D02*
Y0473049D01*
X0477140D01*
X0476974Y0473216D01*
Y0473549D01*
X0477140Y0473716D01*
X0477640D01*
X0478473Y0473049D02*
X0478140D01*
X0477973Y0473216D01*
Y0473549D01*
X0478140Y0473716D01*
X0478473D01*
X0478640Y0473549D01*
Y0473383D01*
X0477973D01*
X0479640Y0474049D02*
Y0473049D01*
X0479140D01*
X0478973Y0473216D01*
Y0473549D01*
X0479140Y0473716D01*
X0479640D01*
X0472975Y0470549D02*
Y0471549D01*
X0473475D01*
X0473641Y0471382D01*
Y0471049D01*
X0473475Y0470883D01*
X0472975D01*
X0473308D02*
X0473641Y0470549D01*
X0474141D02*
X0474475D01*
X0474641Y0470716D01*
Y0471049D01*
X0474475Y0471216D01*
X0474141D01*
X0473975Y0471049D01*
Y0470716D01*
X0474141Y0470549D01*
X0474974Y0471216D02*
Y0470716D01*
X0475141Y0470549D01*
X0475641D01*
Y0471216D01*
X0475974Y0470549D02*
Y0471216D01*
X0476474D01*
X0476640Y0471049D01*
Y0470549D01*
X0477640Y0471549D02*
Y0470549D01*
X0477140D01*
X0476974Y0470716D01*
Y0471049D01*
X0477140Y0471216D01*
X0477640D01*
X0478473Y0470549D02*
X0478140D01*
X0477973Y0470716D01*
Y0471049D01*
X0478140Y0471216D01*
X0478473D01*
X0478640Y0471049D01*
Y0470883D01*
X0477973D01*
X0479640Y0471549D02*
Y0470549D01*
X0479140D01*
X0478973Y0470716D01*
Y0471049D01*
X0479140Y0471216D01*
X0479640D01*
X0463198Y0500549D02*
Y0501549D01*
X0463697D01*
X0463864Y0501382D01*
Y0501049D01*
X0463697Y0500883D01*
X0463198D01*
X0464364Y0501216D02*
X0464697D01*
X0464864Y0501049D01*
Y0500549D01*
X0464364D01*
X0464197Y0500716D01*
X0464364Y0500883D01*
X0464864D01*
X0465863Y0501549D02*
Y0500549D01*
X0465363D01*
X0465197Y0500716D01*
Y0501049D01*
X0465363Y0501216D01*
X0465863D01*
X0463198Y0498049D02*
Y0499049D01*
X0463697D01*
X0463864Y0498882D01*
Y0498549D01*
X0463697Y0498383D01*
X0463198D01*
X0464364Y0498716D02*
X0464697D01*
X0464864Y0498549D01*
Y0498049D01*
X0464364D01*
X0464197Y0498216D01*
X0464364Y0498383D01*
X0464864D01*
X0465863Y0499049D02*
Y0498049D01*
X0465363D01*
X0465197Y0498216D01*
Y0498549D01*
X0465363Y0498716D01*
X0465863D01*
X0463198Y0495549D02*
Y0496549D01*
X0463697D01*
X0463864Y0496382D01*
Y0496049D01*
X0463697Y0495883D01*
X0463198D01*
X0464364Y0496216D02*
X0464697D01*
X0464864Y0496049D01*
Y0495549D01*
X0464364D01*
X0464197Y0495716D01*
X0464364Y0495883D01*
X0464864D01*
X0465863Y0496549D02*
Y0495549D01*
X0465363D01*
X0465197Y0495716D01*
Y0496049D01*
X0465363Y0496216D01*
X0465863D01*
X0463198Y0493049D02*
Y0494049D01*
X0463697D01*
X0463864Y0493882D01*
Y0493549D01*
X0463697Y0493383D01*
X0463198D01*
X0464364Y0493716D02*
X0464697D01*
X0464864Y0493549D01*
Y0493049D01*
X0464364D01*
X0464197Y0493216D01*
X0464364Y0493383D01*
X0464864D01*
X0465863Y0494049D02*
Y0493049D01*
X0465363D01*
X0465197Y0493216D01*
Y0493549D01*
X0465363Y0493716D01*
X0465863D01*
X0463198Y0490549D02*
Y0491549D01*
X0463697D01*
X0463864Y0491382D01*
Y0491049D01*
X0463697Y0490883D01*
X0463198D01*
X0464364Y0491216D02*
X0464697D01*
X0464864Y0491049D01*
Y0490549D01*
X0464364D01*
X0464197Y0490716D01*
X0464364Y0490883D01*
X0464864D01*
X0465863Y0491549D02*
Y0490549D01*
X0465363D01*
X0465197Y0490716D01*
Y0491049D01*
X0465363Y0491216D01*
X0465863D01*
X0463198Y0488049D02*
Y0489049D01*
X0463697D01*
X0463864Y0488882D01*
Y0488549D01*
X0463697Y0488383D01*
X0463198D01*
X0464364Y0488716D02*
X0464697D01*
X0464864Y0488549D01*
Y0488049D01*
X0464364D01*
X0464197Y0488216D01*
X0464364Y0488383D01*
X0464864D01*
X0465863Y0489049D02*
Y0488049D01*
X0465363D01*
X0465197Y0488216D01*
Y0488549D01*
X0465363Y0488716D01*
X0465863D01*
X0463198Y0485549D02*
Y0486549D01*
X0463697D01*
X0463864Y0486382D01*
Y0486049D01*
X0463697Y0485883D01*
X0463198D01*
X0464364Y0486216D02*
X0464697D01*
X0464864Y0486049D01*
Y0485549D01*
X0464364D01*
X0464197Y0485716D01*
X0464364Y0485883D01*
X0464864D01*
X0465863Y0486549D02*
Y0485549D01*
X0465363D01*
X0465197Y0485716D01*
Y0486049D01*
X0465363Y0486216D01*
X0465863D01*
X0463198Y0483049D02*
Y0484049D01*
X0463697D01*
X0463864Y0483882D01*
Y0483549D01*
X0463697Y0483383D01*
X0463198D01*
X0464364Y0483716D02*
X0464697D01*
X0464864Y0483549D01*
Y0483049D01*
X0464364D01*
X0464197Y0483216D01*
X0464364Y0483383D01*
X0464864D01*
X0465863Y0484049D02*
Y0483049D01*
X0465363D01*
X0465197Y0483216D01*
Y0483549D01*
X0465363Y0483716D01*
X0465863D01*
X0463198Y0480549D02*
Y0481549D01*
X0463697D01*
X0463864Y0481382D01*
Y0481049D01*
X0463697Y0480883D01*
X0463198D01*
X0464364Y0481216D02*
X0464697D01*
X0464864Y0481049D01*
Y0480549D01*
X0464364D01*
X0464197Y0480716D01*
X0464364Y0480883D01*
X0464864D01*
X0465863Y0481549D02*
Y0480549D01*
X0465363D01*
X0465197Y0480716D01*
Y0481049D01*
X0465363Y0481216D01*
X0465863D01*
X0463198Y0478049D02*
Y0479049D01*
X0463697D01*
X0463864Y0478882D01*
Y0478549D01*
X0463697Y0478383D01*
X0463198D01*
X0464364Y0478716D02*
X0464697D01*
X0464864Y0478549D01*
Y0478049D01*
X0464364D01*
X0464197Y0478216D01*
X0464364Y0478383D01*
X0464864D01*
X0465863Y0479049D02*
Y0478049D01*
X0465363D01*
X0465197Y0478216D01*
Y0478549D01*
X0465363Y0478716D01*
X0465863D01*
X0463198Y0475549D02*
Y0476549D01*
X0463697D01*
X0463864Y0476382D01*
Y0476049D01*
X0463697Y0475883D01*
X0463198D01*
X0464364Y0476216D02*
X0464697D01*
X0464864Y0476049D01*
Y0475549D01*
X0464364D01*
X0464197Y0475716D01*
X0464364Y0475883D01*
X0464864D01*
X0465863Y0476549D02*
Y0475549D01*
X0465363D01*
X0465197Y0475716D01*
Y0476049D01*
X0465363Y0476216D01*
X0465863D01*
X0463198Y0473049D02*
Y0474049D01*
X0463697D01*
X0463864Y0473882D01*
Y0473549D01*
X0463697Y0473383D01*
X0463198D01*
X0464364Y0473716D02*
X0464697D01*
X0464864Y0473549D01*
Y0473049D01*
X0464364D01*
X0464197Y0473216D01*
X0464364Y0473383D01*
X0464864D01*
X0465863Y0474049D02*
Y0473049D01*
X0465363D01*
X0465197Y0473216D01*
Y0473549D01*
X0465363Y0473716D01*
X0465863D01*
X0463198Y0471549D02*
Y0470883D01*
X0463531Y0470549D01*
X0463864Y0470883D01*
Y0471549D01*
X0464197Y0470549D02*
X0464530D01*
X0464364D01*
Y0471216D01*
X0464197D01*
X0465197D02*
X0465530D01*
X0465697Y0471049D01*
Y0470549D01*
X0465197D01*
X0465030Y0470716D01*
X0465197Y0470883D01*
X0465697D01*
X0443423Y0501549D02*
X0444090D01*
X0443757D01*
Y0500549D01*
X0444923Y0501549D02*
X0444590D01*
X0444423Y0501382D01*
Y0500716D01*
X0444590Y0500549D01*
X0444923D01*
X0445089Y0500716D01*
Y0501382D01*
X0444923Y0501549D01*
X0445423Y0500549D02*
Y0501549D01*
X0445922D01*
X0446089Y0501382D01*
Y0501049D01*
X0445922Y0500883D01*
X0445423D01*
X0447422Y0501049D02*
X0448088D01*
X0449421Y0501549D02*
Y0500549D01*
X0449921D01*
X0450088Y0500716D01*
Y0500883D01*
X0449921Y0501049D01*
X0449421D01*
X0449921D01*
X0450088Y0501216D01*
Y0501382D01*
X0449921Y0501549D01*
X0449421D01*
X0450921D02*
X0450588D01*
X0450421Y0501382D01*
Y0500716D01*
X0450588Y0500549D01*
X0450921D01*
X0451087Y0500716D01*
Y0501382D01*
X0450921Y0501549D01*
X0451421D02*
X0452087D01*
X0451754D01*
Y0500549D01*
X0443423Y0499049D02*
X0444090D01*
X0443757D01*
Y0498049D01*
X0444923Y0499049D02*
X0444590D01*
X0444423Y0498882D01*
Y0498216D01*
X0444590Y0498049D01*
X0444923D01*
X0445089Y0498216D01*
Y0498882D01*
X0444923Y0499049D01*
X0445423Y0498049D02*
Y0499049D01*
X0445922D01*
X0446089Y0498882D01*
Y0498549D01*
X0445922Y0498383D01*
X0445423D01*
X0447422Y0498549D02*
X0448088D01*
X0449421Y0499049D02*
Y0498049D01*
X0449921D01*
X0450088Y0498216D01*
Y0498383D01*
X0449921Y0498549D01*
X0449421D01*
X0449921D01*
X0450088Y0498716D01*
Y0498882D01*
X0449921Y0499049D01*
X0449421D01*
X0450921D02*
X0450588D01*
X0450421Y0498882D01*
Y0498216D01*
X0450588Y0498049D01*
X0450921D01*
X0451087Y0498216D01*
Y0498882D01*
X0450921Y0499049D01*
X0451421D02*
X0452087D01*
X0451754D01*
Y0498049D01*
X0443423Y0496549D02*
X0444090D01*
X0443757D01*
Y0495549D01*
X0444923Y0496549D02*
X0444590D01*
X0444423Y0496382D01*
Y0495716D01*
X0444590Y0495549D01*
X0444923D01*
X0445089Y0495716D01*
Y0496382D01*
X0444923Y0496549D01*
X0445423Y0495549D02*
Y0496549D01*
X0445922D01*
X0446089Y0496382D01*
Y0496049D01*
X0445922Y0495883D01*
X0445423D01*
X0447422Y0496049D02*
X0448088D01*
X0449421Y0496549D02*
Y0495549D01*
X0449921D01*
X0450088Y0495716D01*
Y0495883D01*
X0449921Y0496049D01*
X0449421D01*
X0449921D01*
X0450088Y0496216D01*
Y0496382D01*
X0449921Y0496549D01*
X0449421D01*
X0450921D02*
X0450588D01*
X0450421Y0496382D01*
Y0495716D01*
X0450588Y0495549D01*
X0450921D01*
X0451087Y0495716D01*
Y0496382D01*
X0450921Y0496549D01*
X0451421D02*
X0452087D01*
X0451754D01*
Y0495549D01*
X0443423Y0494049D02*
X0444090D01*
X0443757D01*
Y0493049D01*
X0444923Y0494049D02*
X0444590D01*
X0444423Y0493882D01*
Y0493216D01*
X0444590Y0493049D01*
X0444923D01*
X0445089Y0493216D01*
Y0493882D01*
X0444923Y0494049D01*
X0445423Y0493049D02*
Y0494049D01*
X0445922D01*
X0446089Y0493882D01*
Y0493549D01*
X0445922Y0493383D01*
X0445423D01*
X0447422Y0493549D02*
X0448088D01*
X0449421Y0494049D02*
Y0493049D01*
X0449921D01*
X0450088Y0493216D01*
Y0493383D01*
X0449921Y0493549D01*
X0449421D01*
X0449921D01*
X0450088Y0493716D01*
Y0493882D01*
X0449921Y0494049D01*
X0449421D01*
X0450921D02*
X0450588D01*
X0450421Y0493882D01*
Y0493216D01*
X0450588Y0493049D01*
X0450921D01*
X0451087Y0493216D01*
Y0493882D01*
X0450921Y0494049D01*
X0451421D02*
X0452087D01*
X0451754D01*
Y0493049D01*
X0443423Y0491549D02*
X0444090D01*
X0443757D01*
Y0490549D01*
X0444923Y0491549D02*
X0444590D01*
X0444423Y0491382D01*
Y0490716D01*
X0444590Y0490549D01*
X0444923D01*
X0445089Y0490716D01*
Y0491382D01*
X0444923Y0491549D01*
X0445423Y0490549D02*
Y0491549D01*
X0445922D01*
X0446089Y0491382D01*
Y0491049D01*
X0445922Y0490883D01*
X0445423D01*
X0447422Y0491049D02*
X0448088D01*
X0449421Y0491549D02*
Y0490549D01*
X0449921D01*
X0450088Y0490716D01*
Y0490883D01*
X0449921Y0491049D01*
X0449421D01*
X0449921D01*
X0450088Y0491216D01*
Y0491382D01*
X0449921Y0491549D01*
X0449421D01*
X0450921D02*
X0450588D01*
X0450421Y0491382D01*
Y0490716D01*
X0450588Y0490549D01*
X0450921D01*
X0451087Y0490716D01*
Y0491382D01*
X0450921Y0491549D01*
X0451421D02*
X0452087D01*
X0451754D01*
Y0490549D01*
X0443423Y0489049D02*
X0444090D01*
X0443757D01*
Y0488049D01*
X0444923Y0489049D02*
X0444590D01*
X0444423Y0488882D01*
Y0488216D01*
X0444590Y0488049D01*
X0444923D01*
X0445089Y0488216D01*
Y0488882D01*
X0444923Y0489049D01*
X0445423Y0488049D02*
Y0489049D01*
X0445922D01*
X0446089Y0488882D01*
Y0488549D01*
X0445922Y0488383D01*
X0445423D01*
X0447422Y0488549D02*
X0448088D01*
X0449421Y0489049D02*
Y0488049D01*
X0449921D01*
X0450088Y0488216D01*
Y0488383D01*
X0449921Y0488549D01*
X0449421D01*
X0449921D01*
X0450088Y0488716D01*
Y0488882D01*
X0449921Y0489049D01*
X0449421D01*
X0450921D02*
X0450588D01*
X0450421Y0488882D01*
Y0488216D01*
X0450588Y0488049D01*
X0450921D01*
X0451087Y0488216D01*
Y0488882D01*
X0450921Y0489049D01*
X0451421D02*
X0452087D01*
X0451754D01*
Y0488049D01*
X0443423Y0486549D02*
X0444090D01*
X0443757D01*
Y0485549D01*
X0444923Y0486549D02*
X0444590D01*
X0444423Y0486382D01*
Y0485716D01*
X0444590Y0485549D01*
X0444923D01*
X0445089Y0485716D01*
Y0486382D01*
X0444923Y0486549D01*
X0445423Y0485549D02*
Y0486549D01*
X0445922D01*
X0446089Y0486382D01*
Y0486049D01*
X0445922Y0485883D01*
X0445423D01*
X0447422Y0486049D02*
X0448088D01*
X0449421Y0486549D02*
Y0485549D01*
X0449921D01*
X0450088Y0485716D01*
Y0485883D01*
X0449921Y0486049D01*
X0449421D01*
X0449921D01*
X0450088Y0486216D01*
Y0486382D01*
X0449921Y0486549D01*
X0449421D01*
X0450921D02*
X0450588D01*
X0450421Y0486382D01*
Y0485716D01*
X0450588Y0485549D01*
X0450921D01*
X0451087Y0485716D01*
Y0486382D01*
X0450921Y0486549D01*
X0451421D02*
X0452087D01*
X0451754D01*
Y0485549D01*
X0443423Y0484049D02*
X0444090D01*
X0443757D01*
Y0483049D01*
X0444923Y0484049D02*
X0444590D01*
X0444423Y0483882D01*
Y0483216D01*
X0444590Y0483049D01*
X0444923D01*
X0445089Y0483216D01*
Y0483882D01*
X0444923Y0484049D01*
X0445423Y0483049D02*
Y0484049D01*
X0445922D01*
X0446089Y0483882D01*
Y0483549D01*
X0445922Y0483383D01*
X0445423D01*
X0447422Y0483549D02*
X0448088D01*
X0449421Y0484049D02*
Y0483049D01*
X0449921D01*
X0450088Y0483216D01*
Y0483383D01*
X0449921Y0483549D01*
X0449421D01*
X0449921D01*
X0450088Y0483716D01*
Y0483882D01*
X0449921Y0484049D01*
X0449421D01*
X0450921D02*
X0450588D01*
X0450421Y0483882D01*
Y0483216D01*
X0450588Y0483049D01*
X0450921D01*
X0451087Y0483216D01*
Y0483882D01*
X0450921Y0484049D01*
X0451421D02*
X0452087D01*
X0451754D01*
Y0483049D01*
X0443423Y0481549D02*
X0444090D01*
X0443757D01*
Y0480549D01*
X0444923Y0481549D02*
X0444590D01*
X0444423Y0481382D01*
Y0480716D01*
X0444590Y0480549D01*
X0444923D01*
X0445089Y0480716D01*
Y0481382D01*
X0444923Y0481549D01*
X0445423Y0480549D02*
Y0481549D01*
X0445922D01*
X0446089Y0481382D01*
Y0481049D01*
X0445922Y0480883D01*
X0445423D01*
X0447422Y0481049D02*
X0448088D01*
X0449421Y0481549D02*
Y0480549D01*
X0449921D01*
X0450088Y0480716D01*
Y0480883D01*
X0449921Y0481049D01*
X0449421D01*
X0449921D01*
X0450088Y0481216D01*
Y0481382D01*
X0449921Y0481549D01*
X0449421D01*
X0450921D02*
X0450588D01*
X0450421Y0481382D01*
Y0480716D01*
X0450588Y0480549D01*
X0450921D01*
X0451087Y0480716D01*
Y0481382D01*
X0450921Y0481549D01*
X0451421D02*
X0452087D01*
X0451754D01*
Y0480549D01*
X0443423Y0479049D02*
X0444090D01*
X0443757D01*
Y0478049D01*
X0444923Y0479049D02*
X0444590D01*
X0444423Y0478882D01*
Y0478216D01*
X0444590Y0478049D01*
X0444923D01*
X0445089Y0478216D01*
Y0478882D01*
X0444923Y0479049D01*
X0445423Y0478049D02*
Y0479049D01*
X0445922D01*
X0446089Y0478882D01*
Y0478549D01*
X0445922Y0478383D01*
X0445423D01*
X0447422Y0478549D02*
X0448088D01*
X0449421Y0479049D02*
Y0478049D01*
X0449921D01*
X0450088Y0478216D01*
Y0478383D01*
X0449921Y0478549D01*
X0449421D01*
X0449921D01*
X0450088Y0478716D01*
Y0478882D01*
X0449921Y0479049D01*
X0449421D01*
X0450921D02*
X0450588D01*
X0450421Y0478882D01*
Y0478216D01*
X0450588Y0478049D01*
X0450921D01*
X0451087Y0478216D01*
Y0478882D01*
X0450921Y0479049D01*
X0451421D02*
X0452087D01*
X0451754D01*
Y0478049D01*
X0443423Y0476549D02*
X0444090D01*
X0443757D01*
Y0475549D01*
X0444923Y0476549D02*
X0444590D01*
X0444423Y0476382D01*
Y0475716D01*
X0444590Y0475549D01*
X0444923D01*
X0445089Y0475716D01*
Y0476382D01*
X0444923Y0476549D01*
X0445423Y0475549D02*
Y0476549D01*
X0445922D01*
X0446089Y0476382D01*
Y0476049D01*
X0445922Y0475883D01*
X0445423D01*
X0447422Y0476049D02*
X0448088D01*
X0449421Y0476549D02*
Y0475549D01*
X0449921D01*
X0450088Y0475716D01*
Y0475883D01*
X0449921Y0476049D01*
X0449421D01*
X0449921D01*
X0450088Y0476216D01*
Y0476382D01*
X0449921Y0476549D01*
X0449421D01*
X0450921D02*
X0450588D01*
X0450421Y0476382D01*
Y0475716D01*
X0450588Y0475549D01*
X0450921D01*
X0451087Y0475716D01*
Y0476382D01*
X0450921Y0476549D01*
X0451421D02*
X0452087D01*
X0451754D01*
Y0475549D01*
X0443423Y0474049D02*
X0444090D01*
X0443757D01*
Y0473049D01*
X0444923Y0474049D02*
X0444590D01*
X0444423Y0473882D01*
Y0473216D01*
X0444590Y0473049D01*
X0444923D01*
X0445089Y0473216D01*
Y0473882D01*
X0444923Y0474049D01*
X0445423Y0473049D02*
Y0474049D01*
X0445922D01*
X0446089Y0473882D01*
Y0473549D01*
X0445922Y0473383D01*
X0445423D01*
X0447422Y0473549D02*
X0448088D01*
X0449421Y0474049D02*
Y0473049D01*
X0449921D01*
X0450088Y0473216D01*
Y0473383D01*
X0449921Y0473549D01*
X0449421D01*
X0449921D01*
X0450088Y0473716D01*
Y0473882D01*
X0449921Y0474049D01*
X0449421D01*
X0450921D02*
X0450588D01*
X0450421Y0473882D01*
Y0473216D01*
X0450588Y0473049D01*
X0450921D01*
X0451087Y0473216D01*
Y0473882D01*
X0450921Y0474049D01*
X0451421D02*
X0452087D01*
X0451754D01*
Y0473049D01*
X0443423Y0471549D02*
X0444090D01*
X0443757D01*
Y0470549D01*
X0444923Y0471549D02*
X0444590D01*
X0444423Y0471382D01*
Y0470716D01*
X0444590Y0470549D01*
X0444923D01*
X0445089Y0470716D01*
Y0471382D01*
X0444923Y0471549D01*
X0445423Y0470549D02*
Y0471549D01*
X0445922D01*
X0446089Y0471382D01*
Y0471049D01*
X0445922Y0470883D01*
X0445423D01*
X0447422Y0471049D02*
X0448088D01*
X0449421Y0471549D02*
Y0470549D01*
X0449921D01*
X0450088Y0470716D01*
Y0470883D01*
X0449921Y0471049D01*
X0449421D01*
X0449921D01*
X0450088Y0471216D01*
Y0471382D01*
X0449921Y0471549D01*
X0449421D01*
X0450921D02*
X0450588D01*
X0450421Y0471382D01*
Y0470716D01*
X0450588Y0470549D01*
X0450921D01*
X0451087Y0470716D01*
Y0471382D01*
X0450921Y0471549D01*
X0451421D02*
X0452087D01*
X0451754D01*
Y0470549D01*
X0431247Y0500549D02*
Y0501549D01*
X0431746D01*
X0431913Y0501382D01*
Y0501049D01*
X0431746Y0500883D01*
X0431247D01*
X0431580D02*
X0431913Y0500549D01*
X0432413D02*
X0432746D01*
X0432913Y0500716D01*
Y0501049D01*
X0432746Y0501216D01*
X0432413D01*
X0432246Y0501049D01*
Y0500716D01*
X0432413Y0500549D01*
X0433246Y0501216D02*
Y0500716D01*
X0433413Y0500549D01*
X0433912D01*
Y0501216D01*
X0434246Y0500549D02*
Y0501216D01*
X0434745D01*
X0434912Y0501049D01*
Y0500549D01*
X0435912Y0501549D02*
Y0500549D01*
X0435412D01*
X0435245Y0500716D01*
Y0501049D01*
X0435412Y0501216D01*
X0435912D01*
X0431247Y0498049D02*
Y0499049D01*
X0431746D01*
X0431913Y0498882D01*
Y0498549D01*
X0431746Y0498383D01*
X0431247D01*
X0431580D02*
X0431913Y0498049D01*
X0432413D02*
X0432746D01*
X0432913Y0498216D01*
Y0498549D01*
X0432746Y0498716D01*
X0432413D01*
X0432246Y0498549D01*
Y0498216D01*
X0432413Y0498049D01*
X0433246Y0498716D02*
Y0498216D01*
X0433413Y0498049D01*
X0433912D01*
Y0498716D01*
X0434246Y0498049D02*
Y0498716D01*
X0434745D01*
X0434912Y0498549D01*
Y0498049D01*
X0435912Y0499049D02*
Y0498049D01*
X0435412D01*
X0435245Y0498216D01*
Y0498549D01*
X0435412Y0498716D01*
X0435912D01*
X0431247Y0495549D02*
Y0496549D01*
X0431746D01*
X0431913Y0496382D01*
Y0496049D01*
X0431746Y0495883D01*
X0431247D01*
X0431580D02*
X0431913Y0495549D01*
X0432413D02*
X0432746D01*
X0432913Y0495716D01*
Y0496049D01*
X0432746Y0496216D01*
X0432413D01*
X0432246Y0496049D01*
Y0495716D01*
X0432413Y0495549D01*
X0433246Y0496216D02*
Y0495716D01*
X0433413Y0495549D01*
X0433912D01*
Y0496216D01*
X0434246Y0495549D02*
Y0496216D01*
X0434745D01*
X0434912Y0496049D01*
Y0495549D01*
X0435912Y0496549D02*
Y0495549D01*
X0435412D01*
X0435245Y0495716D01*
Y0496049D01*
X0435412Y0496216D01*
X0435912D01*
X0431247Y0493049D02*
Y0494049D01*
X0431746D01*
X0431913Y0493882D01*
Y0493549D01*
X0431746Y0493383D01*
X0431247D01*
X0431580D02*
X0431913Y0493049D01*
X0432413D02*
X0432746D01*
X0432913Y0493216D01*
Y0493549D01*
X0432746Y0493716D01*
X0432413D01*
X0432246Y0493549D01*
Y0493216D01*
X0432413Y0493049D01*
X0433246Y0493716D02*
Y0493216D01*
X0433413Y0493049D01*
X0433912D01*
Y0493716D01*
X0434246Y0493049D02*
Y0493716D01*
X0434745D01*
X0434912Y0493549D01*
Y0493049D01*
X0435912Y0494049D02*
Y0493049D01*
X0435412D01*
X0435245Y0493216D01*
Y0493549D01*
X0435412Y0493716D01*
X0435912D01*
X0431247Y0490549D02*
Y0491549D01*
X0431746D01*
X0431913Y0491382D01*
Y0491049D01*
X0431746Y0490883D01*
X0431247D01*
X0431580D02*
X0431913Y0490549D01*
X0432413D02*
X0432746D01*
X0432913Y0490716D01*
Y0491049D01*
X0432746Y0491216D01*
X0432413D01*
X0432246Y0491049D01*
Y0490716D01*
X0432413Y0490549D01*
X0433246Y0491216D02*
Y0490716D01*
X0433413Y0490549D01*
X0433912D01*
Y0491216D01*
X0434246Y0490549D02*
Y0491216D01*
X0434745D01*
X0434912Y0491049D01*
Y0490549D01*
X0435912Y0491549D02*
Y0490549D01*
X0435412D01*
X0435245Y0490716D01*
Y0491049D01*
X0435412Y0491216D01*
X0435912D01*
X0431247Y0488049D02*
Y0489049D01*
X0431746D01*
X0431913Y0488882D01*
Y0488549D01*
X0431746Y0488383D01*
X0431247D01*
X0431580D02*
X0431913Y0488049D01*
X0432413D02*
X0432746D01*
X0432913Y0488216D01*
Y0488549D01*
X0432746Y0488716D01*
X0432413D01*
X0432246Y0488549D01*
Y0488216D01*
X0432413Y0488049D01*
X0433246Y0488716D02*
Y0488216D01*
X0433413Y0488049D01*
X0433912D01*
Y0488716D01*
X0434246Y0488049D02*
Y0488716D01*
X0434745D01*
X0434912Y0488549D01*
Y0488049D01*
X0435912Y0489049D02*
Y0488049D01*
X0435412D01*
X0435245Y0488216D01*
Y0488549D01*
X0435412Y0488716D01*
X0435912D01*
X0431247Y0485549D02*
Y0486549D01*
X0431746D01*
X0431913Y0486382D01*
Y0486049D01*
X0431746Y0485883D01*
X0431247D01*
X0431580D02*
X0431913Y0485549D01*
X0432413D02*
X0432746D01*
X0432913Y0485716D01*
Y0486049D01*
X0432746Y0486216D01*
X0432413D01*
X0432246Y0486049D01*
Y0485716D01*
X0432413Y0485549D01*
X0433246Y0486216D02*
Y0485716D01*
X0433413Y0485549D01*
X0433912D01*
Y0486216D01*
X0434246Y0485549D02*
Y0486216D01*
X0434745D01*
X0434912Y0486049D01*
Y0485549D01*
X0435912Y0486549D02*
Y0485549D01*
X0435412D01*
X0435245Y0485716D01*
Y0486049D01*
X0435412Y0486216D01*
X0435912D01*
X0431247Y0483049D02*
Y0484049D01*
X0431746D01*
X0431913Y0483882D01*
Y0483549D01*
X0431746Y0483383D01*
X0431247D01*
X0431580D02*
X0431913Y0483049D01*
X0432413D02*
X0432746D01*
X0432913Y0483216D01*
Y0483549D01*
X0432746Y0483716D01*
X0432413D01*
X0432246Y0483549D01*
Y0483216D01*
X0432413Y0483049D01*
X0433246Y0483716D02*
Y0483216D01*
X0433413Y0483049D01*
X0433912D01*
Y0483716D01*
X0434246Y0483049D02*
Y0483716D01*
X0434745D01*
X0434912Y0483549D01*
Y0483049D01*
X0435912Y0484049D02*
Y0483049D01*
X0435412D01*
X0435245Y0483216D01*
Y0483549D01*
X0435412Y0483716D01*
X0435912D01*
X0431247Y0480549D02*
Y0481549D01*
X0431746D01*
X0431913Y0481382D01*
Y0481049D01*
X0431746Y0480883D01*
X0431247D01*
X0431580D02*
X0431913Y0480549D01*
X0432413D02*
X0432746D01*
X0432913Y0480716D01*
Y0481049D01*
X0432746Y0481216D01*
X0432413D01*
X0432246Y0481049D01*
Y0480716D01*
X0432413Y0480549D01*
X0433246Y0481216D02*
Y0480716D01*
X0433413Y0480549D01*
X0433912D01*
Y0481216D01*
X0434246Y0480549D02*
Y0481216D01*
X0434745D01*
X0434912Y0481049D01*
Y0480549D01*
X0435912Y0481549D02*
Y0480549D01*
X0435412D01*
X0435245Y0480716D01*
Y0481049D01*
X0435412Y0481216D01*
X0435912D01*
X0431247Y0478049D02*
Y0479049D01*
X0431746D01*
X0431913Y0478882D01*
Y0478549D01*
X0431746Y0478383D01*
X0431247D01*
X0431580D02*
X0431913Y0478049D01*
X0432413D02*
X0432746D01*
X0432913Y0478216D01*
Y0478549D01*
X0432746Y0478716D01*
X0432413D01*
X0432246Y0478549D01*
Y0478216D01*
X0432413Y0478049D01*
X0433246Y0478716D02*
Y0478216D01*
X0433413Y0478049D01*
X0433912D01*
Y0478716D01*
X0434246Y0478049D02*
Y0478716D01*
X0434745D01*
X0434912Y0478549D01*
Y0478049D01*
X0435912Y0479049D02*
Y0478049D01*
X0435412D01*
X0435245Y0478216D01*
Y0478549D01*
X0435412Y0478716D01*
X0435912D01*
X0431247Y0475549D02*
Y0476549D01*
X0431746D01*
X0431913Y0476382D01*
Y0476049D01*
X0431746Y0475883D01*
X0431247D01*
X0431580D02*
X0431913Y0475549D01*
X0432413D02*
X0432746D01*
X0432913Y0475716D01*
Y0476049D01*
X0432746Y0476216D01*
X0432413D01*
X0432246Y0476049D01*
Y0475716D01*
X0432413Y0475549D01*
X0433246Y0476216D02*
Y0475716D01*
X0433413Y0475549D01*
X0433912D01*
Y0476216D01*
X0434246Y0475549D02*
Y0476216D01*
X0434745D01*
X0434912Y0476049D01*
Y0475549D01*
X0435912Y0476549D02*
Y0475549D01*
X0435412D01*
X0435245Y0475716D01*
Y0476049D01*
X0435412Y0476216D01*
X0435912D01*
X0431247Y0473049D02*
Y0474049D01*
X0431746D01*
X0431913Y0473882D01*
Y0473549D01*
X0431746Y0473383D01*
X0431247D01*
X0431580D02*
X0431913Y0473049D01*
X0432413D02*
X0432746D01*
X0432913Y0473216D01*
Y0473549D01*
X0432746Y0473716D01*
X0432413D01*
X0432246Y0473549D01*
Y0473216D01*
X0432413Y0473049D01*
X0433246Y0473716D02*
Y0473216D01*
X0433413Y0473049D01*
X0433912D01*
Y0473716D01*
X0434246Y0473049D02*
Y0473716D01*
X0434745D01*
X0434912Y0473549D01*
Y0473049D01*
X0435912Y0474049D02*
Y0473049D01*
X0435412D01*
X0435245Y0473216D01*
Y0473549D01*
X0435412Y0473716D01*
X0435912D01*
X0431247Y0470549D02*
Y0471549D01*
X0431746D01*
X0431913Y0471382D01*
Y0471049D01*
X0431746Y0470883D01*
X0431247D01*
X0431580D02*
X0431913Y0470549D01*
X0432413D02*
X0432746D01*
X0432913Y0470716D01*
Y0471049D01*
X0432746Y0471216D01*
X0432413D01*
X0432246Y0471049D01*
Y0470716D01*
X0432413Y0470549D01*
X0433246Y0471216D02*
Y0470716D01*
X0433413Y0470549D01*
X0433912D01*
Y0471216D01*
X0434246Y0470549D02*
Y0471216D01*
X0434745D01*
X0434912Y0471049D01*
Y0470549D01*
X0435912Y0471549D02*
Y0470549D01*
X0435412D01*
X0435245Y0470716D01*
Y0471049D01*
X0435412Y0471216D01*
X0435912D01*
X0422869Y0500549D02*
Y0501549D01*
X0423368D01*
X0423535Y0501382D01*
Y0501049D01*
X0423368Y0500883D01*
X0422869D01*
X0423868Y0501549D02*
X0424535D01*
X0424202D01*
Y0500549D01*
X0424868Y0501549D02*
Y0500549D01*
Y0501049D01*
X0425534D01*
Y0501549D01*
Y0500549D01*
X0422869Y0498049D02*
Y0499049D01*
X0423368D01*
X0423535Y0498882D01*
Y0498549D01*
X0423368Y0498383D01*
X0422869D01*
X0423868Y0499049D02*
X0424535D01*
X0424202D01*
Y0498049D01*
X0424868Y0499049D02*
Y0498049D01*
Y0498549D01*
X0425534D01*
Y0499049D01*
Y0498049D01*
X0422869Y0495549D02*
Y0496549D01*
X0423368D01*
X0423535Y0496382D01*
Y0496049D01*
X0423368Y0495883D01*
X0422869D01*
X0423868Y0496549D02*
X0424535D01*
X0424202D01*
Y0495549D01*
X0424868Y0496549D02*
Y0495549D01*
Y0496049D01*
X0425534D01*
Y0496549D01*
Y0495549D01*
X0422869Y0493049D02*
Y0494049D01*
X0423368D01*
X0423535Y0493882D01*
Y0493549D01*
X0423368Y0493383D01*
X0422869D01*
X0423868Y0494049D02*
X0424535D01*
X0424202D01*
Y0493049D01*
X0424868Y0494049D02*
Y0493049D01*
Y0493549D01*
X0425534D01*
Y0494049D01*
Y0493049D01*
X0422869Y0490549D02*
Y0491549D01*
X0423368D01*
X0423535Y0491382D01*
Y0491049D01*
X0423368Y0490883D01*
X0422869D01*
X0423868Y0491549D02*
X0424535D01*
X0424202D01*
Y0490549D01*
X0424868Y0491549D02*
Y0490549D01*
Y0491049D01*
X0425534D01*
Y0491549D01*
Y0490549D01*
X0422869Y0488049D02*
Y0489049D01*
X0423368D01*
X0423535Y0488882D01*
Y0488549D01*
X0423368Y0488383D01*
X0422869D01*
X0423868Y0489049D02*
X0424535D01*
X0424202D01*
Y0488049D01*
X0424868Y0489049D02*
Y0488049D01*
Y0488549D01*
X0425534D01*
Y0489049D01*
Y0488049D01*
X0422869Y0485549D02*
Y0486549D01*
X0423368D01*
X0423535Y0486382D01*
Y0486049D01*
X0423368Y0485883D01*
X0422869D01*
X0423868Y0486549D02*
X0424535D01*
X0424202D01*
Y0485549D01*
X0424868Y0486549D02*
Y0485549D01*
Y0486049D01*
X0425534D01*
Y0486549D01*
Y0485549D01*
X0422869Y0483049D02*
Y0484049D01*
X0423368D01*
X0423535Y0483882D01*
Y0483549D01*
X0423368Y0483383D01*
X0422869D01*
X0423868Y0484049D02*
X0424535D01*
X0424202D01*
Y0483049D01*
X0424868Y0484049D02*
Y0483049D01*
Y0483549D01*
X0425534D01*
Y0484049D01*
Y0483049D01*
X0422869Y0480549D02*
Y0481549D01*
X0423368D01*
X0423535Y0481382D01*
Y0481049D01*
X0423368Y0480883D01*
X0422869D01*
X0423868Y0481549D02*
X0424535D01*
X0424202D01*
Y0480549D01*
X0424868Y0481549D02*
Y0480549D01*
Y0481049D01*
X0425534D01*
Y0481549D01*
Y0480549D01*
X0422869Y0478049D02*
Y0479049D01*
X0423368D01*
X0423535Y0478882D01*
Y0478549D01*
X0423368Y0478383D01*
X0422869D01*
X0423868Y0479049D02*
X0424535D01*
X0424202D01*
Y0478049D01*
X0424868Y0479049D02*
Y0478049D01*
Y0478549D01*
X0425534D01*
Y0479049D01*
Y0478049D01*
X0422869Y0475549D02*
Y0476549D01*
X0423535Y0475549D01*
Y0476549D01*
X0423868Y0475549D02*
Y0476549D01*
X0424368D01*
X0424535Y0476382D01*
Y0476049D01*
X0424368Y0475883D01*
X0423868D01*
X0424868Y0476549D02*
X0425534D01*
X0425201D01*
Y0475549D01*
X0425868Y0476549D02*
Y0475549D01*
Y0476049D01*
X0426534D01*
Y0476549D01*
Y0475549D01*
X0422869Y0473049D02*
Y0474049D01*
X0423368D01*
X0423535Y0473882D01*
Y0473549D01*
X0423368Y0473383D01*
X0422869D01*
X0423868Y0474049D02*
X0424535D01*
X0424202D01*
Y0473049D01*
X0424868Y0474049D02*
Y0473049D01*
Y0473549D01*
X0425534D01*
Y0474049D01*
Y0473049D01*
X0422869Y0470549D02*
Y0471549D01*
X0423368D01*
X0423535Y0471382D01*
Y0471049D01*
X0423368Y0470883D01*
X0422869D01*
X0423868Y0471549D02*
X0424535D01*
X0424202D01*
Y0470549D01*
X0424868Y0471549D02*
Y0470549D01*
Y0471049D01*
X0425534D01*
Y0471549D01*
Y0470549D01*
X0403741Y0501382D02*
X0403908Y0501549D01*
X0404241D01*
X0404407Y0501382D01*
Y0500716D01*
X0404241Y0500549D01*
X0403908D01*
X0403741Y0500716D01*
Y0501382D01*
X0404741Y0500549D02*
Y0500716D01*
X0404907D01*
Y0500549D01*
X0404741D01*
X0405574Y0501382D02*
X0405740Y0501549D01*
X0406073D01*
X0406240Y0501382D01*
Y0501216D01*
X0406073Y0501049D01*
X0406240Y0500883D01*
Y0500716D01*
X0406073Y0500549D01*
X0405740D01*
X0405574Y0500716D01*
Y0500883D01*
X0405740Y0501049D01*
X0405574Y0501216D01*
Y0501382D01*
X0405740Y0501049D02*
X0406073D01*
X0406573Y0501382D02*
X0406740Y0501549D01*
X0407073D01*
X0407240Y0501382D01*
Y0500716D01*
X0407073Y0500549D01*
X0406740D01*
X0406573Y0500716D01*
Y0501382D01*
X0407573D02*
X0407740Y0501549D01*
X0408073D01*
X0408239Y0501382D01*
Y0500716D01*
X0408073Y0500549D01*
X0407740D01*
X0407573Y0500716D01*
Y0501382D01*
X0408573Y0500549D02*
Y0501216D01*
X0408739D01*
X0408906Y0501049D01*
Y0500549D01*
Y0501049D01*
X0409073Y0501216D01*
X0409239Y0501049D01*
Y0500549D01*
X0409572D02*
Y0501216D01*
X0409739D01*
X0409906Y0501049D01*
Y0500549D01*
Y0501049D01*
X0410072Y0501216D01*
X0410239Y0501049D01*
Y0500549D01*
X0411905D02*
X0411572Y0500883D01*
Y0501216D01*
X0411905Y0501549D01*
X0412405Y0501382D02*
X0412571Y0501549D01*
X0412905D01*
X0413071Y0501382D01*
Y0501216D01*
X0412905Y0501049D01*
X0412738D01*
X0412905D01*
X0413071Y0500883D01*
Y0500716D01*
X0412905Y0500549D01*
X0412571D01*
X0412405Y0500716D01*
X0413404Y0500549D02*
X0413738D01*
X0413571D01*
Y0501549D01*
X0413404Y0501382D01*
X0414238Y0500549D02*
Y0500716D01*
X0414404D01*
Y0500549D01*
X0414238D01*
X0415737Y0501549D02*
X0415071D01*
Y0501049D01*
X0415404Y0501216D01*
X0415570D01*
X0415737Y0501049D01*
Y0500716D01*
X0415570Y0500549D01*
X0415237D01*
X0415071Y0500716D01*
X0416070Y0501382D02*
X0416237Y0501549D01*
X0416570D01*
X0416737Y0501382D01*
Y0500716D01*
X0416570Y0500549D01*
X0416237D01*
X0416070Y0500716D01*
Y0501382D01*
X0417070Y0500549D02*
Y0501216D01*
X0417237D01*
X0417403Y0501049D01*
Y0500549D01*
Y0501049D01*
X0417570Y0501216D01*
X0417736Y0501049D01*
Y0500549D01*
X0418070D02*
X0418403D01*
X0418236D01*
Y0501216D01*
X0418070D01*
X0418903Y0500549D02*
X0419236D01*
X0419069D01*
Y0501549D01*
X0418903D01*
X0419736Y0500549D02*
X0420069Y0500883D01*
Y0501216D01*
X0419736Y0501549D01*
X0403741Y0498882D02*
X0403908Y0499049D01*
X0404241D01*
X0404407Y0498882D01*
Y0498216D01*
X0404241Y0498049D01*
X0403908D01*
X0403741Y0498216D01*
Y0498882D01*
X0404741Y0498049D02*
Y0498216D01*
X0404907D01*
Y0498049D01*
X0404741D01*
X0405574Y0498216D02*
X0405740Y0498049D01*
X0406073D01*
X0406240Y0498216D01*
Y0498882D01*
X0406073Y0499049D01*
X0405740D01*
X0405574Y0498882D01*
Y0498716D01*
X0405740Y0498549D01*
X0406240D01*
X0406573Y0498882D02*
X0406740Y0499049D01*
X0407073D01*
X0407240Y0498882D01*
Y0498216D01*
X0407073Y0498049D01*
X0406740D01*
X0406573Y0498216D01*
Y0498882D01*
X0407573D02*
X0407740Y0499049D01*
X0408073D01*
X0408239Y0498882D01*
Y0498216D01*
X0408073Y0498049D01*
X0407740D01*
X0407573Y0498216D01*
Y0498882D01*
X0408573Y0498049D02*
Y0498716D01*
X0408739D01*
X0408906Y0498549D01*
Y0498049D01*
Y0498549D01*
X0409073Y0498716D01*
X0409239Y0498549D01*
Y0498049D01*
X0409572D02*
Y0498716D01*
X0409739D01*
X0409906Y0498549D01*
Y0498049D01*
Y0498549D01*
X0410072Y0498716D01*
X0410239Y0498549D01*
Y0498049D01*
X0411905D02*
X0411572Y0498383D01*
Y0498716D01*
X0411905Y0499049D01*
X0412405Y0498882D02*
X0412571Y0499049D01*
X0412905D01*
X0413071Y0498882D01*
Y0498716D01*
X0412905Y0498549D01*
X0412738D01*
X0412905D01*
X0413071Y0498383D01*
Y0498216D01*
X0412905Y0498049D01*
X0412571D01*
X0412405Y0498216D01*
X0414071Y0499049D02*
X0413404D01*
Y0498549D01*
X0413738Y0498716D01*
X0413904D01*
X0414071Y0498549D01*
Y0498216D01*
X0413904Y0498049D01*
X0413571D01*
X0413404Y0498216D01*
X0414404Y0498049D02*
Y0498216D01*
X0414571D01*
Y0498049D01*
X0414404D01*
X0415737D02*
Y0499049D01*
X0415237Y0498549D01*
X0415904D01*
X0416237Y0498882D02*
X0416404Y0499049D01*
X0416737D01*
X0416903Y0498882D01*
Y0498716D01*
X0416737Y0498549D01*
X0416570D01*
X0416737D01*
X0416903Y0498383D01*
Y0498216D01*
X0416737Y0498049D01*
X0416404D01*
X0416237Y0498216D01*
X0417237Y0498049D02*
Y0498716D01*
X0417403D01*
X0417570Y0498549D01*
Y0498049D01*
Y0498549D01*
X0417736Y0498716D01*
X0417903Y0498549D01*
Y0498049D01*
X0418236D02*
X0418569D01*
X0418403D01*
Y0498716D01*
X0418236D01*
X0419069Y0498049D02*
X0419403D01*
X0419236D01*
Y0499049D01*
X0419069D01*
X0419902Y0498049D02*
X0420236Y0498383D01*
Y0498716D01*
X0419902Y0499049D01*
X0403741Y0495549D02*
X0404074D01*
X0403908D01*
Y0496549D01*
X0403741Y0496382D01*
X0404574Y0495549D02*
Y0495716D01*
X0404741D01*
Y0495549D01*
X0404574D01*
X0405407Y0496382D02*
X0405574Y0496549D01*
X0405907D01*
X0406073Y0496382D01*
Y0495716D01*
X0405907Y0495549D01*
X0405574D01*
X0405407Y0495716D01*
Y0496382D01*
X0406407D02*
X0406573Y0496549D01*
X0406907D01*
X0407073Y0496382D01*
Y0495716D01*
X0406907Y0495549D01*
X0406573D01*
X0406407Y0495716D01*
Y0496382D01*
X0407406D02*
X0407573Y0496549D01*
X0407906D01*
X0408073Y0496382D01*
Y0495716D01*
X0407906Y0495549D01*
X0407573D01*
X0407406Y0495716D01*
Y0496382D01*
X0408406Y0495549D02*
Y0496216D01*
X0408573D01*
X0408739Y0496049D01*
Y0495549D01*
Y0496049D01*
X0408906Y0496216D01*
X0409073Y0496049D01*
Y0495549D01*
X0409406D02*
Y0496216D01*
X0409572D01*
X0409739Y0496049D01*
Y0495549D01*
Y0496049D01*
X0409906Y0496216D01*
X0410072Y0496049D01*
Y0495549D01*
X0411738D02*
X0411405Y0495883D01*
Y0496216D01*
X0411738Y0496549D01*
X0412238Y0496382D02*
X0412405Y0496549D01*
X0412738D01*
X0412905Y0496382D01*
Y0496216D01*
X0412738Y0496049D01*
X0412571D01*
X0412738D01*
X0412905Y0495883D01*
Y0495716D01*
X0412738Y0495549D01*
X0412405D01*
X0412238Y0495716D01*
X0413238D02*
X0413404Y0495549D01*
X0413738D01*
X0413904Y0495716D01*
Y0496382D01*
X0413738Y0496549D01*
X0413404D01*
X0413238Y0496382D01*
Y0496216D01*
X0413404Y0496049D01*
X0413904D01*
X0414238Y0495549D02*
Y0495716D01*
X0414404D01*
Y0495549D01*
X0414238D01*
X0415071Y0496382D02*
X0415237Y0496549D01*
X0415570D01*
X0415737Y0496382D01*
Y0496216D01*
X0415570Y0496049D01*
X0415404D01*
X0415570D01*
X0415737Y0495883D01*
Y0495716D01*
X0415570Y0495549D01*
X0415237D01*
X0415071Y0495716D01*
X0416070Y0496549D02*
X0416737D01*
Y0496382D01*
X0416070Y0495716D01*
Y0495549D01*
X0417070D02*
Y0496216D01*
X0417237D01*
X0417403Y0496049D01*
Y0495549D01*
Y0496049D01*
X0417570Y0496216D01*
X0417736Y0496049D01*
Y0495549D01*
X0418070D02*
X0418403D01*
X0418236D01*
Y0496216D01*
X0418070D01*
X0418903Y0495549D02*
X0419236D01*
X0419069D01*
Y0496549D01*
X0418903D01*
X0419736Y0495549D02*
X0420069Y0495883D01*
Y0496216D01*
X0419736Y0496549D01*
X0403741Y0493049D02*
X0404074D01*
X0403908D01*
Y0494049D01*
X0403741Y0493882D01*
X0404574Y0493049D02*
Y0493216D01*
X0404741D01*
Y0493049D01*
X0404574D01*
X0406073D02*
X0405407D01*
X0406073Y0493716D01*
Y0493882D01*
X0405907Y0494049D01*
X0405574D01*
X0405407Y0493882D01*
X0406407D02*
X0406573Y0494049D01*
X0406907D01*
X0407073Y0493882D01*
Y0493216D01*
X0406907Y0493049D01*
X0406573D01*
X0406407Y0493216D01*
Y0493882D01*
X0407406D02*
X0407573Y0494049D01*
X0407906D01*
X0408073Y0493882D01*
Y0493216D01*
X0407906Y0493049D01*
X0407573D01*
X0407406Y0493216D01*
Y0493882D01*
X0408406Y0493049D02*
Y0493716D01*
X0408573D01*
X0408739Y0493549D01*
Y0493049D01*
Y0493549D01*
X0408906Y0493716D01*
X0409073Y0493549D01*
Y0493049D01*
X0409406D02*
Y0493716D01*
X0409572D01*
X0409739Y0493549D01*
Y0493049D01*
Y0493549D01*
X0409906Y0493716D01*
X0410072Y0493549D01*
Y0493049D01*
X0411738D02*
X0411405Y0493383D01*
Y0493716D01*
X0411738Y0494049D01*
X0412738Y0493049D02*
Y0494049D01*
X0412238Y0493549D01*
X0412905D01*
X0413238Y0494049D02*
X0413904D01*
Y0493882D01*
X0413238Y0493216D01*
Y0493049D01*
X0414238D02*
Y0493216D01*
X0414404D01*
Y0493049D01*
X0414238D01*
X0415737D02*
X0415071D01*
X0415737Y0493716D01*
Y0493882D01*
X0415570Y0494049D01*
X0415237D01*
X0415071Y0493882D01*
X0416570Y0493049D02*
Y0494049D01*
X0416070Y0493549D01*
X0416737D01*
X0417070Y0493049D02*
Y0493716D01*
X0417237D01*
X0417403Y0493549D01*
Y0493049D01*
Y0493549D01*
X0417570Y0493716D01*
X0417736Y0493549D01*
Y0493049D01*
X0418070D02*
X0418403D01*
X0418236D01*
Y0493716D01*
X0418070D01*
X0418903Y0493049D02*
X0419236D01*
X0419069D01*
Y0494049D01*
X0418903D01*
X0419736Y0493049D02*
X0420069Y0493383D01*
Y0493716D01*
X0419736Y0494049D01*
X0403741Y0490549D02*
X0404074D01*
X0403908D01*
Y0491549D01*
X0403741Y0491382D01*
X0404574Y0490549D02*
Y0490716D01*
X0404741D01*
Y0490549D01*
X0404574D01*
X0405407Y0491382D02*
X0405574Y0491549D01*
X0405907D01*
X0406073Y0491382D01*
Y0491216D01*
X0405907Y0491049D01*
X0405740D01*
X0405907D01*
X0406073Y0490883D01*
Y0490716D01*
X0405907Y0490549D01*
X0405574D01*
X0405407Y0490716D01*
X0406407Y0491382D02*
X0406573Y0491549D01*
X0406907D01*
X0407073Y0491382D01*
Y0490716D01*
X0406907Y0490549D01*
X0406573D01*
X0406407Y0490716D01*
Y0491382D01*
X0407406D02*
X0407573Y0491549D01*
X0407906D01*
X0408073Y0491382D01*
Y0490716D01*
X0407906Y0490549D01*
X0407573D01*
X0407406Y0490716D01*
Y0491382D01*
X0408406Y0490549D02*
Y0491216D01*
X0408573D01*
X0408739Y0491049D01*
Y0490549D01*
Y0491049D01*
X0408906Y0491216D01*
X0409073Y0491049D01*
Y0490549D01*
X0409406D02*
Y0491216D01*
X0409572D01*
X0409739Y0491049D01*
Y0490549D01*
Y0491049D01*
X0409906Y0491216D01*
X0410072Y0491049D01*
Y0490549D01*
X0411738D02*
X0411405Y0490883D01*
Y0491216D01*
X0411738Y0491549D01*
X0412905D02*
X0412238D01*
Y0491049D01*
X0412571Y0491216D01*
X0412738D01*
X0412905Y0491049D01*
Y0490716D01*
X0412738Y0490549D01*
X0412405D01*
X0412238Y0490716D01*
X0413238Y0490549D02*
X0413571D01*
X0413404D01*
Y0491549D01*
X0413238Y0491382D01*
X0414071Y0490549D02*
Y0490716D01*
X0414238D01*
Y0490549D01*
X0414071D01*
X0414904D02*
X0415237D01*
X0415071D01*
Y0491549D01*
X0414904Y0491382D01*
X0415737D02*
X0415904Y0491549D01*
X0416237D01*
X0416404Y0491382D01*
Y0491216D01*
X0416237Y0491049D01*
X0416404Y0490883D01*
Y0490716D01*
X0416237Y0490549D01*
X0415904D01*
X0415737Y0490716D01*
Y0490883D01*
X0415904Y0491049D01*
X0415737Y0491216D01*
Y0491382D01*
X0415904Y0491049D02*
X0416237D01*
X0416737Y0490549D02*
Y0491216D01*
X0416903D01*
X0417070Y0491049D01*
Y0490549D01*
Y0491049D01*
X0417237Y0491216D01*
X0417403Y0491049D01*
Y0490549D01*
X0417736D02*
X0418070D01*
X0417903D01*
Y0491216D01*
X0417736D01*
X0418569Y0490549D02*
X0418903D01*
X0418736D01*
Y0491549D01*
X0418569D01*
X0419403Y0490549D02*
X0419736Y0490883D01*
Y0491216D01*
X0419403Y0491549D01*
X0403741Y0488049D02*
X0404074D01*
X0403908D01*
Y0489049D01*
X0403741Y0488882D01*
X0404574Y0488049D02*
Y0488216D01*
X0404741D01*
Y0488049D01*
X0404574D01*
X0405907D02*
Y0489049D01*
X0405407Y0488549D01*
X0406073D01*
X0406407Y0488882D02*
X0406573Y0489049D01*
X0406907D01*
X0407073Y0488882D01*
Y0488216D01*
X0406907Y0488049D01*
X0406573D01*
X0406407Y0488216D01*
Y0488882D01*
X0407406D02*
X0407573Y0489049D01*
X0407906D01*
X0408073Y0488882D01*
Y0488216D01*
X0407906Y0488049D01*
X0407573D01*
X0407406Y0488216D01*
Y0488882D01*
X0408406Y0488049D02*
Y0488716D01*
X0408573D01*
X0408739Y0488549D01*
Y0488049D01*
Y0488549D01*
X0408906Y0488716D01*
X0409073Y0488549D01*
Y0488049D01*
X0409406D02*
Y0488716D01*
X0409572D01*
X0409739Y0488549D01*
Y0488049D01*
Y0488549D01*
X0409906Y0488716D01*
X0410072Y0488549D01*
Y0488049D01*
X0411738D02*
X0411405Y0488383D01*
Y0488716D01*
X0411738Y0489049D01*
X0412905D02*
X0412238D01*
Y0488549D01*
X0412571Y0488716D01*
X0412738D01*
X0412905Y0488549D01*
Y0488216D01*
X0412738Y0488049D01*
X0412405D01*
X0412238Y0488216D01*
X0413904Y0489049D02*
X0413238D01*
Y0488549D01*
X0413571Y0488716D01*
X0413738D01*
X0413904Y0488549D01*
Y0488216D01*
X0413738Y0488049D01*
X0413404D01*
X0413238Y0488216D01*
X0414238Y0488049D02*
Y0488216D01*
X0414404D01*
Y0488049D01*
X0414238D01*
X0415071D02*
X0415404D01*
X0415237D01*
Y0489049D01*
X0415071Y0488882D01*
X0416570Y0488049D02*
X0415904D01*
X0416570Y0488716D01*
Y0488882D01*
X0416404Y0489049D01*
X0416070D01*
X0415904Y0488882D01*
X0416903Y0488049D02*
Y0488716D01*
X0417070D01*
X0417237Y0488549D01*
Y0488049D01*
Y0488549D01*
X0417403Y0488716D01*
X0417570Y0488549D01*
Y0488049D01*
X0417903D02*
X0418236D01*
X0418070D01*
Y0488716D01*
X0417903D01*
X0418736Y0488049D02*
X0419069D01*
X0418903D01*
Y0489049D01*
X0418736D01*
X0419569Y0488049D02*
X0419902Y0488383D01*
Y0488716D01*
X0419569Y0489049D01*
X0403741Y0485549D02*
X0404074D01*
X0403908D01*
Y0486549D01*
X0403741Y0486382D01*
X0404574Y0485549D02*
Y0485716D01*
X0404741D01*
Y0485549D01*
X0404574D01*
X0406073Y0486549D02*
X0405407D01*
Y0486049D01*
X0405740Y0486216D01*
X0405907D01*
X0406073Y0486049D01*
Y0485716D01*
X0405907Y0485549D01*
X0405574D01*
X0405407Y0485716D01*
X0406407Y0486382D02*
X0406573Y0486549D01*
X0406907D01*
X0407073Y0486382D01*
Y0485716D01*
X0406907Y0485549D01*
X0406573D01*
X0406407Y0485716D01*
Y0486382D01*
X0407406D02*
X0407573Y0486549D01*
X0407906D01*
X0408073Y0486382D01*
Y0485716D01*
X0407906Y0485549D01*
X0407573D01*
X0407406Y0485716D01*
Y0486382D01*
X0408406Y0485549D02*
Y0486216D01*
X0408573D01*
X0408739Y0486049D01*
Y0485549D01*
Y0486049D01*
X0408906Y0486216D01*
X0409073Y0486049D01*
Y0485549D01*
X0409406D02*
Y0486216D01*
X0409572D01*
X0409739Y0486049D01*
Y0485549D01*
Y0486049D01*
X0409906Y0486216D01*
X0410072Y0486049D01*
Y0485549D01*
X0411738D02*
X0411405Y0485883D01*
Y0486216D01*
X0411738Y0486549D01*
X0412905D02*
X0412238D01*
Y0486049D01*
X0412571Y0486216D01*
X0412738D01*
X0412905Y0486049D01*
Y0485716D01*
X0412738Y0485549D01*
X0412405D01*
X0412238Y0485716D01*
X0413238D02*
X0413404Y0485549D01*
X0413738D01*
X0413904Y0485716D01*
Y0486382D01*
X0413738Y0486549D01*
X0413404D01*
X0413238Y0486382D01*
Y0486216D01*
X0413404Y0486049D01*
X0413904D01*
X0414238Y0485549D02*
Y0485716D01*
X0414404D01*
Y0485549D01*
X0414238D01*
X0415071Y0486382D02*
X0415237Y0486549D01*
X0415570D01*
X0415737Y0486382D01*
Y0485716D01*
X0415570Y0485549D01*
X0415237D01*
X0415071Y0485716D01*
Y0486382D01*
X0416737Y0486549D02*
X0416404Y0486382D01*
X0416070Y0486049D01*
Y0485716D01*
X0416237Y0485549D01*
X0416570D01*
X0416737Y0485716D01*
Y0485883D01*
X0416570Y0486049D01*
X0416070D01*
X0417070Y0485549D02*
Y0486216D01*
X0417237D01*
X0417403Y0486049D01*
Y0485549D01*
Y0486049D01*
X0417570Y0486216D01*
X0417736Y0486049D01*
Y0485549D01*
X0418070D02*
X0418403D01*
X0418236D01*
Y0486216D01*
X0418070D01*
X0418903Y0485549D02*
X0419236D01*
X0419069D01*
Y0486549D01*
X0418903D01*
X0419736Y0485549D02*
X0420069Y0485883D01*
Y0486216D01*
X0419736Y0486549D01*
X0403741Y0483049D02*
X0404074D01*
X0403908D01*
Y0484049D01*
X0403741Y0483882D01*
X0404574Y0483049D02*
Y0483216D01*
X0404741D01*
Y0483049D01*
X0404574D01*
X0406073Y0484049D02*
X0405740Y0483882D01*
X0405407Y0483549D01*
Y0483216D01*
X0405574Y0483049D01*
X0405907D01*
X0406073Y0483216D01*
Y0483383D01*
X0405907Y0483549D01*
X0405407D01*
X0406407Y0483882D02*
X0406573Y0484049D01*
X0406907D01*
X0407073Y0483882D01*
Y0483216D01*
X0406907Y0483049D01*
X0406573D01*
X0406407Y0483216D01*
Y0483882D01*
X0407406D02*
X0407573Y0484049D01*
X0407906D01*
X0408073Y0483882D01*
Y0483216D01*
X0407906Y0483049D01*
X0407573D01*
X0407406Y0483216D01*
Y0483882D01*
X0408406Y0483049D02*
Y0483716D01*
X0408573D01*
X0408739Y0483549D01*
Y0483049D01*
Y0483549D01*
X0408906Y0483716D01*
X0409073Y0483549D01*
Y0483049D01*
X0409406D02*
Y0483716D01*
X0409572D01*
X0409739Y0483549D01*
Y0483049D01*
Y0483549D01*
X0409906Y0483716D01*
X0410072Y0483549D01*
Y0483049D01*
X0411738D02*
X0411405Y0483383D01*
Y0483716D01*
X0411738Y0484049D01*
X0412905D02*
X0412571Y0483882D01*
X0412238Y0483549D01*
Y0483216D01*
X0412405Y0483049D01*
X0412738D01*
X0412905Y0483216D01*
Y0483383D01*
X0412738Y0483549D01*
X0412238D01*
X0413904Y0483049D02*
X0413238D01*
X0413904Y0483716D01*
Y0483882D01*
X0413738Y0484049D01*
X0413404D01*
X0413238Y0483882D01*
X0414238Y0483049D02*
Y0483216D01*
X0414404D01*
Y0483049D01*
X0414238D01*
X0415071Y0483216D02*
X0415237Y0483049D01*
X0415570D01*
X0415737Y0483216D01*
Y0483882D01*
X0415570Y0484049D01*
X0415237D01*
X0415071Y0483882D01*
Y0483716D01*
X0415237Y0483549D01*
X0415737D01*
X0416070Y0483216D02*
X0416237Y0483049D01*
X0416570D01*
X0416737Y0483216D01*
Y0483882D01*
X0416570Y0484049D01*
X0416237D01*
X0416070Y0483882D01*
Y0483716D01*
X0416237Y0483549D01*
X0416737D01*
X0417070Y0483049D02*
Y0483716D01*
X0417237D01*
X0417403Y0483549D01*
Y0483049D01*
Y0483549D01*
X0417570Y0483716D01*
X0417736Y0483549D01*
Y0483049D01*
X0418070D02*
X0418403D01*
X0418236D01*
Y0483716D01*
X0418070D01*
X0418903Y0483049D02*
X0419236D01*
X0419069D01*
Y0484049D01*
X0418903D01*
X0419736Y0483049D02*
X0420069Y0483383D01*
Y0483716D01*
X0419736Y0484049D01*
X0403741Y0480549D02*
X0404074D01*
X0403908D01*
Y0481549D01*
X0403741Y0481382D01*
X0404574Y0480549D02*
Y0480716D01*
X0404741D01*
Y0480549D01*
X0404574D01*
X0406073Y0481549D02*
X0405740Y0481382D01*
X0405407Y0481049D01*
Y0480716D01*
X0405574Y0480549D01*
X0405907D01*
X0406073Y0480716D01*
Y0480883D01*
X0405907Y0481049D01*
X0405407D01*
X0406407Y0481382D02*
X0406573Y0481549D01*
X0406907D01*
X0407073Y0481382D01*
Y0480716D01*
X0406907Y0480549D01*
X0406573D01*
X0406407Y0480716D01*
Y0481382D01*
X0407406D02*
X0407573Y0481549D01*
X0407906D01*
X0408073Y0481382D01*
Y0480716D01*
X0407906Y0480549D01*
X0407573D01*
X0407406Y0480716D01*
Y0481382D01*
X0408406Y0480549D02*
Y0481216D01*
X0408573D01*
X0408739Y0481049D01*
Y0480549D01*
Y0481049D01*
X0408906Y0481216D01*
X0409073Y0481049D01*
Y0480549D01*
X0409406D02*
Y0481216D01*
X0409572D01*
X0409739Y0481049D01*
Y0480549D01*
Y0481049D01*
X0409906Y0481216D01*
X0410072Y0481049D01*
Y0480549D01*
X0411738D02*
X0411405Y0480883D01*
Y0481216D01*
X0411738Y0481549D01*
X0412905D02*
X0412571Y0481382D01*
X0412238Y0481049D01*
Y0480716D01*
X0412405Y0480549D01*
X0412738D01*
X0412905Y0480716D01*
Y0480883D01*
X0412738Y0481049D01*
X0412238D01*
X0413238Y0481382D02*
X0413404Y0481549D01*
X0413738D01*
X0413904Y0481382D01*
Y0481216D01*
X0413738Y0481049D01*
X0413571D01*
X0413738D01*
X0413904Y0480883D01*
Y0480716D01*
X0413738Y0480549D01*
X0413404D01*
X0413238Y0480716D01*
X0414238Y0480549D02*
Y0480716D01*
X0414404D01*
Y0480549D01*
X0414238D01*
X0415071Y0481382D02*
X0415237Y0481549D01*
X0415570D01*
X0415737Y0481382D01*
Y0480716D01*
X0415570Y0480549D01*
X0415237D01*
X0415071Y0480716D01*
Y0481382D01*
X0416070D02*
X0416237Y0481549D01*
X0416570D01*
X0416737Y0481382D01*
Y0480716D01*
X0416570Y0480549D01*
X0416237D01*
X0416070Y0480716D01*
Y0481382D01*
X0417070Y0480549D02*
Y0481216D01*
X0417237D01*
X0417403Y0481049D01*
Y0480549D01*
Y0481049D01*
X0417570Y0481216D01*
X0417736Y0481049D01*
Y0480549D01*
X0418070D02*
X0418403D01*
X0418236D01*
Y0481216D01*
X0418070D01*
X0418903Y0480549D02*
X0419236D01*
X0419069D01*
Y0481549D01*
X0418903D01*
X0419736Y0480549D02*
X0420069Y0480883D01*
Y0481216D01*
X0419736Y0481549D01*
X0403741Y0478049D02*
X0404074D01*
X0403908D01*
Y0479049D01*
X0403741Y0478882D01*
X0404574Y0478049D02*
Y0478216D01*
X0404741D01*
Y0478049D01*
X0404574D01*
X0405407Y0478882D02*
X0405574Y0479049D01*
X0405907D01*
X0406073Y0478882D01*
Y0478716D01*
X0405907Y0478549D01*
X0406073Y0478383D01*
Y0478216D01*
X0405907Y0478049D01*
X0405574D01*
X0405407Y0478216D01*
Y0478383D01*
X0405574Y0478549D01*
X0405407Y0478716D01*
Y0478882D01*
X0405574Y0478549D02*
X0405907D01*
X0407073Y0479049D02*
X0406407D01*
Y0478549D01*
X0406740Y0478716D01*
X0406907D01*
X0407073Y0478549D01*
Y0478216D01*
X0406907Y0478049D01*
X0406573D01*
X0406407Y0478216D01*
X0407406Y0478882D02*
X0407573Y0479049D01*
X0407906D01*
X0408073Y0478882D01*
Y0478216D01*
X0407906Y0478049D01*
X0407573D01*
X0407406Y0478216D01*
Y0478882D01*
X0408406Y0478049D02*
Y0478716D01*
X0408573D01*
X0408739Y0478549D01*
Y0478049D01*
Y0478549D01*
X0408906Y0478716D01*
X0409073Y0478549D01*
Y0478049D01*
X0409406D02*
Y0478716D01*
X0409572D01*
X0409739Y0478549D01*
Y0478049D01*
Y0478549D01*
X0409906Y0478716D01*
X0410072Y0478549D01*
Y0478049D01*
X0411738D02*
X0411405Y0478383D01*
Y0478716D01*
X0411738Y0479049D01*
X0412238D02*
X0412905D01*
Y0478882D01*
X0412238Y0478216D01*
Y0478049D01*
X0413904D02*
X0413238D01*
X0413904Y0478716D01*
Y0478882D01*
X0413738Y0479049D01*
X0413404D01*
X0413238Y0478882D01*
X0414238Y0478049D02*
Y0478216D01*
X0414404D01*
Y0478049D01*
X0414238D01*
X0415071Y0478882D02*
X0415237Y0479049D01*
X0415570D01*
X0415737Y0478882D01*
Y0478716D01*
X0415570Y0478549D01*
X0415737Y0478383D01*
Y0478216D01*
X0415570Y0478049D01*
X0415237D01*
X0415071Y0478216D01*
Y0478383D01*
X0415237Y0478549D01*
X0415071Y0478716D01*
Y0478882D01*
X0415237Y0478549D02*
X0415570D01*
X0416570Y0478049D02*
Y0479049D01*
X0416070Y0478549D01*
X0416737D01*
X0417070Y0478049D02*
Y0478716D01*
X0417237D01*
X0417403Y0478549D01*
Y0478049D01*
Y0478549D01*
X0417570Y0478716D01*
X0417736Y0478549D01*
Y0478049D01*
X0418070D02*
X0418403D01*
X0418236D01*
Y0478716D01*
X0418070D01*
X0418903Y0478049D02*
X0419236D01*
X0419069D01*
Y0479049D01*
X0418903D01*
X0419736Y0478049D02*
X0420069Y0478383D01*
Y0478716D01*
X0419736Y0479049D01*
X0404407Y0475549D02*
X0403741D01*
X0404407Y0476216D01*
Y0476382D01*
X0404241Y0476549D01*
X0403908D01*
X0403741Y0476382D01*
X0404741Y0475549D02*
Y0475716D01*
X0404907D01*
Y0475549D01*
X0404741D01*
X0405574Y0476382D02*
X0405740Y0476549D01*
X0406073D01*
X0406240Y0476382D01*
Y0475716D01*
X0406073Y0475549D01*
X0405740D01*
X0405574Y0475716D01*
Y0476382D01*
X0406573D02*
X0406740Y0476549D01*
X0407073D01*
X0407240Y0476382D01*
Y0475716D01*
X0407073Y0475549D01*
X0406740D01*
X0406573Y0475716D01*
Y0476382D01*
X0407573D02*
X0407740Y0476549D01*
X0408073D01*
X0408239Y0476382D01*
Y0475716D01*
X0408073Y0475549D01*
X0407740D01*
X0407573Y0475716D01*
Y0476382D01*
X0408573Y0475549D02*
Y0476216D01*
X0408739D01*
X0408906Y0476049D01*
Y0475549D01*
Y0476049D01*
X0409073Y0476216D01*
X0409239Y0476049D01*
Y0475549D01*
X0409572D02*
Y0476216D01*
X0409739D01*
X0409906Y0476049D01*
Y0475549D01*
Y0476049D01*
X0410072Y0476216D01*
X0410239Y0476049D01*
Y0475549D01*
X0411905D02*
X0411572Y0475883D01*
Y0476216D01*
X0411905Y0476549D01*
X0412405D02*
X0413071D01*
Y0476382D01*
X0412405Y0475716D01*
Y0475549D01*
X0413404Y0476382D02*
X0413571Y0476549D01*
X0413904D01*
X0414071Y0476382D01*
Y0476216D01*
X0413904Y0476049D01*
X0414071Y0475883D01*
Y0475716D01*
X0413904Y0475549D01*
X0413571D01*
X0413404Y0475716D01*
Y0475883D01*
X0413571Y0476049D01*
X0413404Y0476216D01*
Y0476382D01*
X0413571Y0476049D02*
X0413904D01*
X0414404Y0475549D02*
Y0475716D01*
X0414571D01*
Y0475549D01*
X0414404D01*
X0415237Y0476549D02*
X0415904D01*
Y0476382D01*
X0415237Y0475716D01*
Y0475549D01*
X0416737D02*
Y0476549D01*
X0416237Y0476049D01*
X0416903D01*
X0417237Y0475549D02*
Y0476216D01*
X0417403D01*
X0417570Y0476049D01*
Y0475549D01*
Y0476049D01*
X0417736Y0476216D01*
X0417903Y0476049D01*
Y0475549D01*
X0418236D02*
X0418569D01*
X0418403D01*
Y0476216D01*
X0418236D01*
X0419069Y0475549D02*
X0419403D01*
X0419236D01*
Y0476549D01*
X0419069D01*
X0419902Y0475549D02*
X0420236Y0475883D01*
Y0476216D01*
X0419902Y0476549D01*
X0403741Y0473882D02*
X0403908Y0474049D01*
X0404241D01*
X0404407Y0473882D01*
Y0473716D01*
X0404241Y0473549D01*
X0404074D01*
X0404241D01*
X0404407Y0473383D01*
Y0473216D01*
X0404241Y0473049D01*
X0403908D01*
X0403741Y0473216D01*
X0404741Y0473049D02*
Y0473216D01*
X0404907D01*
Y0473049D01*
X0404741D01*
X0406240D02*
X0405574D01*
X0406240Y0473716D01*
Y0473882D01*
X0406073Y0474049D01*
X0405740D01*
X0405574Y0473882D01*
X0406573D02*
X0406740Y0474049D01*
X0407073D01*
X0407240Y0473882D01*
Y0473216D01*
X0407073Y0473049D01*
X0406740D01*
X0406573Y0473216D01*
Y0473882D01*
X0407573D02*
X0407740Y0474049D01*
X0408073D01*
X0408239Y0473882D01*
Y0473216D01*
X0408073Y0473049D01*
X0407740D01*
X0407573Y0473216D01*
Y0473882D01*
X0408573Y0473049D02*
Y0473716D01*
X0408739D01*
X0408906Y0473549D01*
Y0473049D01*
Y0473549D01*
X0409073Y0473716D01*
X0409239Y0473549D01*
Y0473049D01*
X0409572D02*
Y0473716D01*
X0409739D01*
X0409906Y0473549D01*
Y0473049D01*
Y0473549D01*
X0410072Y0473716D01*
X0410239Y0473549D01*
Y0473049D01*
X0411905D02*
X0411572Y0473383D01*
Y0473716D01*
X0411905Y0474049D01*
X0412405Y0473049D02*
X0412738D01*
X0412571D01*
Y0474049D01*
X0412405Y0473882D01*
X0413904Y0473049D02*
X0413238D01*
X0413904Y0473716D01*
Y0473882D01*
X0413738Y0474049D01*
X0413404D01*
X0413238Y0473882D01*
X0414904Y0474049D02*
X0414238D01*
Y0473549D01*
X0414571Y0473716D01*
X0414737D01*
X0414904Y0473549D01*
Y0473216D01*
X0414737Y0473049D01*
X0414404D01*
X0414238Y0473216D01*
X0415237Y0473049D02*
Y0473216D01*
X0415404D01*
Y0473049D01*
X0415237D01*
X0416070Y0473216D02*
X0416237Y0473049D01*
X0416570D01*
X0416737Y0473216D01*
Y0473882D01*
X0416570Y0474049D01*
X0416237D01*
X0416070Y0473882D01*
Y0473716D01*
X0416237Y0473549D01*
X0416737D01*
X0417070Y0473882D02*
X0417237Y0474049D01*
X0417570D01*
X0417736Y0473882D01*
Y0473716D01*
X0417570Y0473549D01*
X0417736Y0473383D01*
Y0473216D01*
X0417570Y0473049D01*
X0417237D01*
X0417070Y0473216D01*
Y0473383D01*
X0417237Y0473549D01*
X0417070Y0473716D01*
Y0473882D01*
X0417237Y0473549D02*
X0417570D01*
X0418070Y0473049D02*
Y0473716D01*
X0418236D01*
X0418403Y0473549D01*
Y0473049D01*
Y0473549D01*
X0418569Y0473716D01*
X0418736Y0473549D01*
Y0473049D01*
X0419069D02*
X0419403D01*
X0419236D01*
Y0473716D01*
X0419069D01*
X0419902Y0473049D02*
X0420236D01*
X0420069D01*
Y0474049D01*
X0419902D01*
X0420735Y0473049D02*
X0421069Y0473383D01*
Y0473716D01*
X0420735Y0474049D01*
X0403741Y0471382D02*
X0403908Y0471549D01*
X0404241D01*
X0404407Y0471382D01*
Y0470716D01*
X0404241Y0470549D01*
X0403908D01*
X0403741Y0470716D01*
Y0471382D01*
X0404741Y0470549D02*
Y0470716D01*
X0404907D01*
Y0470549D01*
X0404741D01*
X0406240Y0471549D02*
X0405574D01*
Y0471049D01*
X0405907Y0471216D01*
X0406073D01*
X0406240Y0471049D01*
Y0470716D01*
X0406073Y0470549D01*
X0405740D01*
X0405574Y0470716D01*
X0406573Y0471382D02*
X0406740Y0471549D01*
X0407073D01*
X0407240Y0471382D01*
Y0470716D01*
X0407073Y0470549D01*
X0406740D01*
X0406573Y0470716D01*
Y0471382D01*
X0407573D02*
X0407740Y0471549D01*
X0408073D01*
X0408239Y0471382D01*
Y0470716D01*
X0408073Y0470549D01*
X0407740D01*
X0407573Y0470716D01*
Y0471382D01*
X0408573Y0470549D02*
Y0471216D01*
X0408739D01*
X0408906Y0471049D01*
Y0470549D01*
Y0471049D01*
X0409073Y0471216D01*
X0409239Y0471049D01*
Y0470549D01*
X0409572D02*
Y0471216D01*
X0409739D01*
X0409906Y0471049D01*
Y0470549D01*
Y0471049D01*
X0410072Y0471216D01*
X0410239Y0471049D01*
Y0470549D01*
X0411905D02*
X0411572Y0470883D01*
Y0471216D01*
X0411905Y0471549D01*
X0412405Y0470549D02*
X0412738D01*
X0412571D01*
Y0471549D01*
X0412405Y0471382D01*
X0413238Y0470716D02*
X0413404Y0470549D01*
X0413738D01*
X0413904Y0470716D01*
Y0471382D01*
X0413738Y0471549D01*
X0413404D01*
X0413238Y0471382D01*
Y0471216D01*
X0413404Y0471049D01*
X0413904D01*
X0414238Y0470549D02*
Y0470716D01*
X0414404D01*
Y0470549D01*
X0414238D01*
X0415737Y0471549D02*
X0415404Y0471382D01*
X0415071Y0471049D01*
Y0470716D01*
X0415237Y0470549D01*
X0415570D01*
X0415737Y0470716D01*
Y0470883D01*
X0415570Y0471049D01*
X0415071D01*
X0416070Y0470716D02*
X0416237Y0470549D01*
X0416570D01*
X0416737Y0470716D01*
Y0471382D01*
X0416570Y0471549D01*
X0416237D01*
X0416070Y0471382D01*
Y0471216D01*
X0416237Y0471049D01*
X0416737D01*
X0417070Y0470549D02*
Y0471216D01*
X0417237D01*
X0417403Y0471049D01*
Y0470549D01*
Y0471049D01*
X0417570Y0471216D01*
X0417736Y0471049D01*
Y0470549D01*
X0418070D02*
X0418403D01*
X0418236D01*
Y0471216D01*
X0418070D01*
X0418903Y0470549D02*
X0419236D01*
X0419069D01*
Y0471549D01*
X0418903D01*
X0419736Y0470549D02*
X0420069Y0470883D01*
Y0471216D01*
X0419736Y0471549D01*
X0393944Y0468049D02*
X0394277D01*
X0394110D01*
Y0469049D01*
X0393944Y0468882D01*
X0394777Y0469049D02*
X0395443D01*
Y0468882D01*
X0394777Y0468216D01*
Y0468049D01*
X0396443Y0469049D02*
X0396109Y0468882D01*
X0395776Y0468549D01*
Y0468216D01*
X0395943Y0468049D01*
X0396276D01*
X0396443Y0468216D01*
Y0468383D01*
X0396276Y0468549D01*
X0395776D01*
X0397776Y0469049D02*
X0398442D01*
X0398109D01*
Y0468049D01*
X0398942D02*
X0399275D01*
X0399442Y0468216D01*
Y0468549D01*
X0399275Y0468716D01*
X0398942D01*
X0398775Y0468549D01*
Y0468216D01*
X0398942Y0468049D01*
X0399942Y0468882D02*
Y0468716D01*
X0399775D01*
X0400108D01*
X0399942D01*
Y0468216D01*
X0400108Y0468049D01*
X0400775Y0468716D02*
X0401108D01*
X0401274Y0468549D01*
Y0468049D01*
X0400775D01*
X0400608Y0468216D01*
X0400775Y0468383D01*
X0401274D01*
X0401608Y0468049D02*
X0401941D01*
X0401774D01*
Y0469049D01*
X0401608D01*
X0393944Y0500549D02*
X0394277D01*
X0394110D01*
Y0501549D01*
X0393944Y0501382D01*
X0394777Y0500549D02*
X0395110D01*
X0394943D01*
Y0501549D01*
X0394777Y0501382D01*
X0393944Y0498882D02*
X0394110Y0499049D01*
X0394443D01*
X0394610Y0498882D01*
Y0498716D01*
X0394443Y0498549D01*
X0394277D01*
X0394443D01*
X0394610Y0498383D01*
Y0498216D01*
X0394443Y0498049D01*
X0394110D01*
X0393944Y0498216D01*
X0394943Y0498882D02*
X0395110Y0499049D01*
X0395443D01*
X0395610Y0498882D01*
Y0498216D01*
X0395443Y0498049D01*
X0395110D01*
X0394943Y0498216D01*
Y0498882D01*
X0393944Y0495716D02*
X0394110Y0495549D01*
X0394443D01*
X0394610Y0495716D01*
Y0496382D01*
X0394443Y0496549D01*
X0394110D01*
X0393944Y0496382D01*
Y0496216D01*
X0394110Y0496049D01*
X0394610D01*
X0393944Y0493049D02*
X0394277D01*
X0394110D01*
Y0494049D01*
X0393944Y0493882D01*
X0395276Y0493049D02*
Y0494049D01*
X0394777Y0493549D01*
X0395443D01*
X0393944Y0490549D02*
X0394277D01*
X0394110D01*
Y0491549D01*
X0393944Y0491382D01*
X0395443Y0491549D02*
X0394777D01*
Y0491049D01*
X0395110Y0491216D01*
X0395276D01*
X0395443Y0491049D01*
Y0490716D01*
X0395276Y0490549D01*
X0394943D01*
X0394777Y0490716D01*
X0394443Y0488049D02*
Y0489049D01*
X0393944Y0488549D01*
X0394610D01*
X0393944Y0486382D02*
X0394110Y0486549D01*
X0394443D01*
X0394610Y0486382D01*
Y0486216D01*
X0394443Y0486049D01*
X0394610Y0485883D01*
Y0485716D01*
X0394443Y0485549D01*
X0394110D01*
X0393944Y0485716D01*
Y0485883D01*
X0394110Y0486049D01*
X0393944Y0486216D01*
Y0486382D01*
X0394110Y0486049D02*
X0394443D01*
X0394610Y0483049D02*
X0393944D01*
X0394610Y0483716D01*
Y0483882D01*
X0394443Y0484049D01*
X0394110D01*
X0393944Y0483882D01*
X0395610Y0484049D02*
X0394943D01*
Y0483549D01*
X0395276Y0483716D01*
X0395443D01*
X0395610Y0483549D01*
Y0483216D01*
X0395443Y0483049D01*
X0395110D01*
X0394943Y0483216D01*
X0393944Y0481382D02*
X0394110Y0481549D01*
X0394443D01*
X0394610Y0481382D01*
Y0481216D01*
X0394443Y0481049D01*
X0394277D01*
X0394443D01*
X0394610Y0480883D01*
Y0480716D01*
X0394443Y0480549D01*
X0394110D01*
X0393944Y0480716D01*
X0394443Y0478049D02*
Y0479049D01*
X0393944Y0478549D01*
X0394610D01*
Y0475549D02*
X0393944D01*
X0394610Y0476216D01*
Y0476382D01*
X0394443Y0476549D01*
X0394110D01*
X0393944Y0476382D01*
X0394443Y0473049D02*
Y0474049D01*
X0393944Y0473549D01*
X0394610D01*
X0394443Y0470549D02*
Y0471549D01*
X0393944Y0471049D01*
X0394610D01*
X0394943Y0471549D02*
X0395610D01*
Y0471382D01*
X0394943Y0470716D01*
Y0470549D01*
D70*
X0417211Y0628527D02*
G03*
X0417211Y0628527I-0000254J0000000D01*
G01*
X0462556Y0638683D02*
G03*
X0462556Y0638683I-0000254J0000000D01*
G01*
X0462756Y0631250D02*
G03*
X0462756Y0631250I-0000254J0000000D01*
G01*
X0444606Y0631251D02*
G03*
X0444606Y0631251I-0000254J0000000D01*
G01*
X0438515Y0624901D02*
G03*
X0438515Y0624901I-0000254J0000000D01*
G01*
X0440968Y0620220D02*
G03*
X0440968Y0620220I-0000254J0000000D01*
G01*
X0480706Y0631251D02*
G03*
X0480706Y0631251I-0000254J0000000D01*
G01*
Y0638683D02*
G03*
X0480706Y0638683I-0000254J0000000D01*
G01*
X0444406Y0638683D02*
G03*
X0444406Y0638683I-0000254J0000000D01*
G01*
X0485727Y0605512D02*
G03*
X0485727Y0605512I-0000254J0000000D01*
G01*
Y0617857D02*
G03*
X0485727Y0617857I-0000254J0000000D01*
G01*
X0459118Y0620220D02*
G03*
X0459118Y0620220I-0000254J0000000D01*
G01*
X0456665Y0624909D02*
G03*
X0456665Y0624909I-0000254J0000000D01*
G01*
X0474815Y0624909D02*
G03*
X0474815Y0624909I-0000254J0000000D01*
G01*
X0477268Y0620221D02*
G03*
X0477268Y0620221I-0000254J0000000D01*
G01*
X0485727Y0630202D02*
G03*
X0485727Y0630202I-0000254J0000000D01*
G01*
Y0642547D02*
G03*
X0485727Y0642547I-0000254J0000000D01*
G01*
X0485727Y0654892D02*
G03*
X0485727Y0654892I-0000254J0000000D01*
G01*
Y0667237D02*
G03*
X0485727Y0667237I-0000254J0000000D01*
G01*
X0417963Y0594023D02*
G03*
X0417963Y0594023I-0000254J0000000D01*
G01*
X0417963Y0583524D02*
G03*
X0417963Y0583524I-0000254J0000000D01*
G01*
X0424926Y0593276D02*
G03*
X0424926Y0593276I-0000254J0000000D01*
G01*
X0432823Y0637741D02*
G03*
X0432823Y0637741I-0000254J0000000D01*
G01*
X0434463Y0639381D02*
G03*
X0434463Y0639381I-0000254J0000000D01*
G01*
X0452613Y0639381D02*
G03*
X0452613Y0639381I-0000254J0000000D01*
G01*
X0450973Y0637741D02*
G03*
X0450973Y0637741I-0000254J0000000D01*
G01*
X0469123Y0637741D02*
G03*
X0469123Y0637741I-0000254J0000000D01*
G01*
X0470763Y0639381D02*
G03*
X0470763Y0639381I-0000254J0000000D01*
G01*
X0495320Y0572187D02*
G03*
X0495320Y0572187I-0000254J0000000D01*
G01*
X0485727Y0593167D02*
G03*
X0485727Y0593167I-0000254J0000000D01*
G01*
X0448795Y0609524D02*
G03*
X0448795Y0609524I-0000254J0000000D01*
G01*
X0456314D02*
G03*
X0456314Y0609524I-0000254J0000000D01*
G01*
X0499495Y0542282D02*
G03*
X0499495Y0542282I-0000254J0000000D01*
G01*
X0458620Y0609524D02*
G03*
X0458620Y0609524I-0000254J0000000D01*
G01*
X0461020D02*
G03*
X0461020Y0609524I-0000254J0000000D01*
G01*
X0459820D02*
G03*
X0459820Y0609524I-0000254J0000000D01*
G01*
X0492170Y0574795D02*
G03*
X0492170Y0574795I-0000254J0000000D01*
G01*
X0460645Y0602045D02*
G03*
X0460645Y0602045I-0000254J0000000D01*
G01*
X0459796Y0602894D02*
G03*
X0459796Y0602894I-0000254J0000000D01*
G01*
X0461493Y0601197D02*
G03*
X0461493Y0601197I-0000254J0000000D01*
G01*
X0478715Y0599500D02*
G03*
X0478715Y0599500I-0000254J0000000D01*
G01*
X0477867Y0600348D02*
G03*
X0477867Y0600348I-0000254J0000000D01*
G01*
X0480412Y0597803D02*
G03*
X0480412Y0597803I-0000254J0000000D01*
G01*
X0479564Y0598651D02*
G03*
X0479564Y0598651I-0000254J0000000D01*
G01*
X0477018Y0601197D02*
G03*
X0477018Y0601197I-0000254J0000000D01*
G01*
X0475321Y0602894D02*
G03*
X0475321Y0602894I-0000254J0000000D01*
G01*
X0476170Y0602045D02*
G03*
X0476170Y0602045I-0000254J0000000D01*
G01*
X0408294Y0570588D02*
G03*
X0408294Y0570588I-0000152J0000000D01*
G01*
X0408395D02*
G03*
X0408395Y0570588I-0000254J0000000D01*
G01*
X0408294Y0555348D02*
G03*
X0408294Y0555348I-0000152J0000000D01*
G01*
X0408395D02*
G03*
X0408395Y0555348I-0000254J0000000D01*
G01*
X0408294Y0562968D02*
G03*
X0408294Y0562968I-0000152J0000000D01*
G01*
X0408395D02*
G03*
X0408395Y0562968I-0000254J0000000D01*
G01*
X0408294Y0547728D02*
G03*
X0408294Y0547728I-0000152J0000000D01*
G01*
X0408395D02*
G03*
X0408395Y0547728I-0000254J0000000D01*
G01*
X0499312Y0672195D02*
X0499566Y0671941D01*
X0499820Y0672195D01*
X0499566Y0672449D02*
X0499820Y0672195D01*
X0499312D02*
X0499566Y0672449D01*
X0405312Y0672195D02*
X0405566Y0671941D01*
X0405820Y0672195D01*
X0405566Y0672449D02*
X0405820Y0672195D01*
X0405312D02*
X0405566Y0672449D01*
X0463447Y0597657D02*
X0463574D01*
X0463447D02*
Y0597911D01*
X0463574D01*
Y0598038D01*
X0463828D01*
Y0597911D02*
Y0598038D01*
Y0597911D02*
X0463955D01*
Y0597657D02*
Y0597911D01*
X0463828Y0597657D02*
X0463955D01*
X0463828Y0597530D02*
Y0597657D01*
X0463574Y0597530D02*
X0463828D01*
X0463574D02*
Y0597657D01*
X0460907D02*
X0461034D01*
X0460907D02*
Y0597911D01*
X0461034D01*
Y0598038D01*
X0461288D01*
Y0597911D02*
Y0598038D01*
Y0597911D02*
X0461415D01*
Y0597657D02*
Y0597911D01*
X0461288Y0597657D02*
X0461415D01*
X0461288Y0597530D02*
Y0597657D01*
X0461034Y0597530D02*
X0461288D01*
X0461034D02*
Y0597657D01*
X0458367Y0597657D02*
X0458494D01*
X0458367D02*
Y0597911D01*
X0458494D01*
Y0598038D01*
X0458748D01*
Y0597911D02*
Y0598038D01*
Y0597911D02*
X0458875D01*
Y0597657D02*
Y0597911D01*
X0458748Y0597657D02*
X0458875D01*
X0458748Y0597530D02*
Y0597657D01*
X0458494Y0597530D02*
X0458748D01*
X0458494D02*
Y0597657D01*
X0455827Y0597657D02*
X0455954D01*
X0455827D02*
Y0597911D01*
X0455954D01*
Y0598038D01*
X0456208D01*
Y0597911D02*
Y0598038D01*
Y0597911D02*
X0456335D01*
Y0597657D02*
Y0597911D01*
X0456208Y0597657D02*
X0456335D01*
X0456208Y0597530D02*
Y0597657D01*
X0455954Y0597530D02*
X0456208D01*
X0455954D02*
Y0597657D01*
X0453287Y0597657D02*
X0453414D01*
X0453287D02*
Y0597911D01*
X0453414D01*
Y0598038D01*
X0453668D01*
Y0597911D02*
Y0598038D01*
Y0597911D02*
X0453795D01*
Y0597657D02*
Y0597911D01*
X0453668Y0597657D02*
X0453795D01*
X0453668Y0597530D02*
Y0597657D01*
X0453414Y0597530D02*
X0453668D01*
X0453414D02*
Y0597657D01*
X0450747D02*
X0450874D01*
X0450747D02*
Y0597911D01*
X0450874D01*
Y0598038D01*
X0451128D01*
Y0597911D02*
Y0598038D01*
Y0597911D02*
X0451255D01*
Y0597657D02*
Y0597911D01*
X0451128Y0597657D02*
X0451255D01*
X0451128Y0597530D02*
Y0597657D01*
X0450874Y0597530D02*
X0451128D01*
X0450874D02*
Y0597657D01*
X0448207D02*
X0448334D01*
X0448207D02*
Y0597911D01*
X0448334D01*
Y0598038D01*
X0448588D01*
Y0597911D02*
Y0598038D01*
Y0597911D02*
X0448715D01*
Y0597657D02*
Y0597911D01*
X0448588Y0597657D02*
X0448715D01*
X0448588Y0597530D02*
Y0597657D01*
X0448334Y0597530D02*
X0448588D01*
X0448334D02*
Y0597657D01*
X0445667Y0597657D02*
X0445794D01*
X0445667D02*
Y0597911D01*
X0445794D01*
Y0598038D01*
X0446048D01*
Y0597911D02*
Y0598038D01*
Y0597911D02*
X0446175D01*
Y0597657D02*
Y0597911D01*
X0446048Y0597657D02*
X0446175D01*
X0446048Y0597530D02*
Y0597657D01*
X0445794Y0597530D02*
X0446048D01*
X0445794D02*
Y0597657D01*
X0443127Y0597657D02*
X0443254D01*
X0443127D02*
Y0597911D01*
X0443254D01*
Y0598038D01*
X0443508D01*
Y0597911D02*
Y0598038D01*
Y0597911D02*
X0443635D01*
Y0597657D02*
Y0597911D01*
X0443508Y0597657D02*
X0443635D01*
X0443508Y0597530D02*
Y0597657D01*
X0443254Y0597530D02*
X0443508D01*
X0443254D02*
Y0597657D01*
X0440587D02*
X0440714D01*
X0440587D02*
Y0597911D01*
X0440714D01*
Y0598038D01*
X0440968D01*
Y0597911D02*
Y0598038D01*
Y0597911D02*
X0441095D01*
Y0597657D02*
Y0597911D01*
X0440968Y0597657D02*
X0441095D01*
X0440968Y0597530D02*
Y0597657D01*
X0440714Y0597530D02*
X0440968D01*
X0440714D02*
Y0597657D01*
X0438047D02*
X0438174D01*
X0438047D02*
Y0597911D01*
X0438174D01*
Y0598038D01*
X0438428D01*
Y0597911D02*
Y0598038D01*
Y0597911D02*
X0438555D01*
Y0597657D02*
Y0597911D01*
X0438428Y0597657D02*
X0438555D01*
X0438428Y0597530D02*
Y0597657D01*
X0438174Y0597530D02*
X0438428D01*
X0438174D02*
Y0597657D01*
X0435507Y0597657D02*
X0435634D01*
X0435507D02*
Y0597911D01*
X0435634D01*
Y0598038D01*
X0435888D01*
Y0597911D02*
Y0598038D01*
Y0597911D02*
X0436015D01*
Y0597657D02*
Y0597911D01*
X0435888Y0597657D02*
X0436015D01*
X0435888Y0597530D02*
Y0597657D01*
X0435634Y0597530D02*
X0435888D01*
X0435634D02*
Y0597657D01*
X0432967Y0597657D02*
X0433094D01*
X0432967D02*
Y0597911D01*
X0433094D01*
Y0598038D01*
X0433348D01*
Y0597911D02*
Y0598038D01*
Y0597911D02*
X0433475D01*
Y0597657D02*
Y0597911D01*
X0433348Y0597657D02*
X0433475D01*
X0433348Y0597530D02*
Y0597657D01*
X0433094Y0597530D02*
X0433348D01*
X0433094D02*
Y0597657D01*
X0430427Y0597657D02*
X0430554D01*
X0430427D02*
Y0597911D01*
X0430554D01*
Y0598038D01*
X0430808D01*
Y0597911D02*
Y0598038D01*
Y0597911D02*
X0430935D01*
Y0597657D02*
Y0597911D01*
X0430808Y0597657D02*
X0430935D01*
X0430808Y0597530D02*
Y0597657D01*
X0430554Y0597530D02*
X0430808D01*
X0430554D02*
Y0597657D01*
X0427887D02*
X0428014D01*
X0427887D02*
Y0597911D01*
X0428014D01*
Y0598038D01*
X0428268D01*
Y0597911D02*
Y0598038D01*
Y0597911D02*
X0428395D01*
Y0597657D02*
Y0597911D01*
X0428268Y0597657D02*
X0428395D01*
X0428268Y0597530D02*
Y0597657D01*
X0428014Y0597530D02*
X0428268D01*
X0428014D02*
Y0597657D01*
X0463447Y0612897D02*
X0463574D01*
X0463447D02*
Y0613151D01*
X0463574D01*
Y0613278D01*
X0463828D01*
Y0613151D02*
Y0613278D01*
Y0613151D02*
X0463955D01*
Y0612897D02*
Y0613151D01*
X0463828Y0612897D02*
X0463955D01*
X0463828Y0612770D02*
Y0612897D01*
X0463574Y0612770D02*
X0463828D01*
X0463574D02*
Y0612897D01*
X0460907D02*
X0461034D01*
X0460907D02*
Y0613151D01*
X0461034D01*
Y0613278D01*
X0461288D01*
Y0613151D02*
Y0613278D01*
Y0613151D02*
X0461415D01*
Y0612897D02*
Y0613151D01*
X0461288Y0612897D02*
X0461415D01*
X0461288Y0612770D02*
Y0612897D01*
X0461034Y0612770D02*
X0461288D01*
X0461034D02*
Y0612897D01*
X0458367Y0612897D02*
X0458494D01*
X0458367D02*
Y0613151D01*
X0458494D01*
Y0613278D01*
X0458748D01*
Y0613151D02*
Y0613278D01*
Y0613151D02*
X0458875D01*
Y0612897D02*
Y0613151D01*
X0458748Y0612897D02*
X0458875D01*
X0458748Y0612770D02*
Y0612897D01*
X0458494Y0612770D02*
X0458748D01*
X0458494D02*
Y0612897D01*
X0455827Y0612897D02*
X0455954D01*
X0455827D02*
Y0613151D01*
X0455954D01*
Y0613278D01*
X0456208D01*
Y0613151D02*
Y0613278D01*
Y0613151D02*
X0456335D01*
Y0612897D02*
Y0613151D01*
X0456208Y0612897D02*
X0456335D01*
X0456208Y0612770D02*
Y0612897D01*
X0455954Y0612770D02*
X0456208D01*
X0455954D02*
Y0612897D01*
X0453287Y0612897D02*
X0453414D01*
X0453287D02*
Y0613151D01*
X0453414D01*
Y0613278D01*
X0453668D01*
Y0613151D02*
Y0613278D01*
Y0613151D02*
X0453795D01*
Y0612897D02*
Y0613151D01*
X0453668Y0612897D02*
X0453795D01*
X0453668Y0612770D02*
Y0612897D01*
X0453414Y0612770D02*
X0453668D01*
X0453414D02*
Y0612897D01*
X0450747Y0612897D02*
X0450874D01*
X0450747D02*
Y0613151D01*
X0450874D01*
Y0613278D01*
X0451128D01*
Y0613151D02*
Y0613278D01*
Y0613151D02*
X0451255D01*
Y0612897D02*
Y0613151D01*
X0451128Y0612897D02*
X0451255D01*
X0451128Y0612770D02*
Y0612897D01*
X0450874Y0612770D02*
X0451128D01*
X0450874D02*
Y0612897D01*
X0448207Y0612897D02*
X0448334D01*
X0448207D02*
Y0613151D01*
X0448334D01*
Y0613278D01*
X0448588D01*
Y0613151D02*
Y0613278D01*
Y0613151D02*
X0448715D01*
Y0612897D02*
Y0613151D01*
X0448588Y0612897D02*
X0448715D01*
X0448588Y0612770D02*
Y0612897D01*
X0448334Y0612770D02*
X0448588D01*
X0448334D02*
Y0612897D01*
X0445667D02*
X0445794D01*
X0445667D02*
Y0613151D01*
X0445794D01*
Y0613278D01*
X0446048D01*
Y0613151D02*
Y0613278D01*
Y0613151D02*
X0446175D01*
Y0612897D02*
Y0613151D01*
X0446048Y0612897D02*
X0446175D01*
X0446048Y0612770D02*
Y0612897D01*
X0445794Y0612770D02*
X0446048D01*
X0445794D02*
Y0612897D01*
X0443127D02*
X0443254D01*
X0443127D02*
Y0613151D01*
X0443254D01*
Y0613278D01*
X0443508D01*
Y0613151D02*
Y0613278D01*
Y0613151D02*
X0443635D01*
Y0612897D02*
Y0613151D01*
X0443508Y0612897D02*
X0443635D01*
X0443508Y0612770D02*
Y0612897D01*
X0443254Y0612770D02*
X0443508D01*
X0443254D02*
Y0612897D01*
X0440587Y0612897D02*
X0440714D01*
X0440587D02*
Y0613151D01*
X0440714D01*
Y0613278D01*
X0440968D01*
Y0613151D02*
Y0613278D01*
Y0613151D02*
X0441095D01*
Y0612897D02*
Y0613151D01*
X0440968Y0612897D02*
X0441095D01*
X0440968Y0612770D02*
Y0612897D01*
X0440714Y0612770D02*
X0440968D01*
X0440714D02*
Y0612897D01*
X0435507Y0612897D02*
X0435634D01*
X0435507D02*
Y0613151D01*
X0435634D01*
Y0613278D01*
X0435888D01*
Y0613151D02*
Y0613278D01*
Y0613151D02*
X0436015D01*
Y0612897D02*
Y0613151D01*
X0435888Y0612897D02*
X0436015D01*
X0435888Y0612770D02*
Y0612897D01*
X0435634Y0612770D02*
X0435888D01*
X0435634D02*
Y0612897D01*
X0432967Y0612897D02*
X0433094D01*
X0432967D02*
Y0613151D01*
X0433094D01*
Y0613278D01*
X0433348D01*
Y0613151D02*
Y0613278D01*
Y0613151D02*
X0433475D01*
Y0612897D02*
Y0613151D01*
X0433348Y0612897D02*
X0433475D01*
X0433348Y0612770D02*
Y0612897D01*
X0433094Y0612770D02*
X0433348D01*
X0433094D02*
Y0612897D01*
X0430427Y0612897D02*
X0430554D01*
X0430427D02*
Y0613151D01*
X0430554D01*
Y0613278D01*
X0430808D01*
Y0613151D02*
Y0613278D01*
Y0613151D02*
X0430935D01*
Y0612897D02*
Y0613151D01*
X0430808Y0612897D02*
X0430935D01*
X0430808Y0612770D02*
Y0612897D01*
X0430554Y0612770D02*
X0430808D01*
X0430554D02*
Y0612897D01*
X0427887Y0612897D02*
X0428014D01*
X0427887D02*
Y0613151D01*
X0428014D01*
Y0613278D01*
X0428268D01*
Y0613151D02*
Y0613278D01*
Y0613151D02*
X0428395D01*
Y0612897D02*
Y0613151D01*
X0428268Y0612897D02*
X0428395D01*
X0428268Y0612770D02*
Y0612897D01*
X0428014Y0612770D02*
X0428268D01*
X0428014D02*
Y0612897D01*
X0422752Y0640565D02*
X0423006Y0641073D01*
X0422498D02*
X0423006D01*
X0422498D02*
X0422752Y0640565D01*
Y0660565D02*
X0423006Y0661073D01*
X0422498D02*
X0423006D01*
X0422498D02*
X0422752Y0660565D01*
X0417672Y0640565D02*
X0417926Y0641073D01*
X0417418D02*
X0417926D01*
X0417418D02*
X0417672Y0640565D01*
Y0660565D02*
X0417926Y0661073D01*
X0417418D02*
X0417926D01*
X0417418D02*
X0417672Y0660565D01*
X0412596Y0667993D02*
X0412672Y0667917D01*
X0412520Y0667993D02*
X0412596D01*
X0412520D02*
X0412596Y0668069D01*
X0412520Y0668146D02*
X0412596Y0668069D01*
X0412520Y0668146D02*
X0412596D01*
X0412672Y0668222D01*
X0412749Y0668146D01*
X0412825D01*
X0412749Y0668069D02*
X0412825Y0668146D01*
X0412749Y0668069D02*
X0412825Y0667993D01*
X0412749D02*
X0412825D01*
X0412672Y0667917D02*
X0412749Y0667993D01*
X0412545Y0667942D02*
X0412672Y0667815D01*
X0412418Y0667942D02*
X0412545D01*
X0412418D02*
X0412545Y0668069D01*
X0412418Y0668196D02*
X0412545Y0668069D01*
X0412418Y0668196D02*
X0412545D01*
X0412672Y0668323D01*
X0412799Y0668196D01*
X0412926D01*
X0412799Y0668069D02*
X0412926Y0668196D01*
X0412799Y0668069D02*
X0412926Y0667942D01*
X0412799D02*
X0412926D01*
X0412672Y0667815D02*
X0412799Y0667942D01*
X0417676Y0667993D02*
X0417752Y0667917D01*
X0417600Y0667993D02*
X0417676D01*
X0417600D02*
X0417676Y0668069D01*
X0417600Y0668146D02*
X0417676Y0668069D01*
X0417600Y0668146D02*
X0417676D01*
X0417752Y0668222D01*
X0417828Y0668146D01*
X0417905D01*
X0417828Y0668069D02*
X0417905Y0668146D01*
X0417828Y0668069D02*
X0417905Y0667993D01*
X0417828D02*
X0417905D01*
X0417752Y0667917D02*
X0417828Y0667993D01*
X0417625Y0667942D02*
X0417752Y0667815D01*
X0417498Y0667942D02*
X0417625D01*
X0417498D02*
X0417625Y0668069D01*
X0417498Y0668196D02*
X0417625Y0668069D01*
X0417498Y0668196D02*
X0417625D01*
X0417752Y0668323D01*
X0417879Y0668196D01*
X0418006D01*
X0417879Y0668069D02*
X0418006Y0668196D01*
X0417879Y0668069D02*
X0418006Y0667942D01*
X0417879D02*
X0418006D01*
X0417752Y0667815D02*
X0417879Y0667942D01*
X0422756Y0667993D02*
X0422832Y0667917D01*
X0422680Y0667993D02*
X0422756D01*
X0422680D02*
X0422756Y0668069D01*
X0422680Y0668146D02*
X0422756Y0668069D01*
X0422680Y0668146D02*
X0422756D01*
X0422832Y0668222D01*
X0422908Y0668146D01*
X0422985D01*
X0422908Y0668069D02*
X0422985Y0668146D01*
X0422908Y0668069D02*
X0422985Y0667993D01*
X0422908D02*
X0422985D01*
X0422832Y0667917D02*
X0422908Y0667993D01*
X0422705Y0667942D02*
X0422832Y0667815D01*
X0422578Y0667942D02*
X0422705D01*
X0422578D02*
X0422705Y0668069D01*
X0422578Y0668196D02*
X0422705Y0668069D01*
X0422578Y0668196D02*
X0422705D01*
X0422832Y0668323D01*
X0422959Y0668196D01*
X0423086D01*
X0422959Y0668069D02*
X0423086Y0668196D01*
X0422959Y0668069D02*
X0423086Y0667942D01*
X0422959D02*
X0423086D01*
X0422832Y0667815D02*
X0422959Y0667942D01*
X0424102Y0586795D02*
Y0586922D01*
X0424229Y0587049D01*
X0424102Y0587177D02*
X0424229Y0587049D01*
X0424102Y0587177D02*
Y0587303D01*
X0424229D01*
X0424356Y0587177D01*
X0424483Y0587303D01*
X0424610D01*
Y0587177D02*
Y0587303D01*
X0424483Y0587049D02*
X0424610Y0587177D01*
X0424483Y0587049D02*
X0424610Y0586922D01*
Y0586795D02*
Y0586922D01*
X0424483Y0586795D02*
X0424610D01*
X0424356Y0586922D02*
X0424483Y0586795D01*
X0424229D02*
X0424356Y0586922D01*
X0424102Y0586795D02*
X0424229D01*
X0429102D02*
Y0586922D01*
X0429229Y0587049D01*
X0429102Y0587177D02*
X0429229Y0587049D01*
X0429102Y0587177D02*
Y0587303D01*
X0429229D01*
X0429356Y0587177D01*
X0429483Y0587303D01*
X0429610D01*
Y0587177D02*
Y0587303D01*
X0429483Y0587049D02*
X0429610Y0587177D01*
X0429483Y0587049D02*
X0429610Y0586922D01*
Y0586795D02*
Y0586922D01*
X0429483Y0586795D02*
X0429610D01*
X0429356Y0586922D02*
X0429483Y0586795D01*
X0429229D02*
X0429356Y0586922D01*
X0429102Y0586795D02*
X0429229D01*
X0431602D02*
Y0586922D01*
X0431729Y0587049D01*
X0431602Y0587177D02*
X0431729Y0587049D01*
X0431602Y0587177D02*
Y0587303D01*
X0431729D01*
X0431856Y0587177D01*
X0431983Y0587303D01*
X0432110D01*
Y0587177D02*
Y0587303D01*
X0431983Y0587049D02*
X0432110Y0587177D01*
X0431983Y0587049D02*
X0432110Y0586922D01*
Y0586795D02*
Y0586922D01*
X0431983Y0586795D02*
X0432110D01*
X0431856Y0586922D02*
X0431983Y0586795D01*
X0431729D02*
X0431856Y0586922D01*
X0431602Y0586795D02*
X0431729D01*
X0426602D02*
Y0586922D01*
X0426729Y0587049D01*
X0426602Y0587177D02*
X0426729Y0587049D01*
X0426602Y0587177D02*
Y0587303D01*
X0426729D01*
X0426856Y0587177D01*
X0426983Y0587303D01*
X0427110D01*
Y0587177D02*
Y0587303D01*
X0426983Y0587049D02*
X0427110Y0587177D01*
X0426983Y0587049D02*
X0427110Y0586922D01*
Y0586795D02*
Y0586922D01*
X0426983Y0586795D02*
X0427110D01*
X0426856Y0586922D02*
X0426983Y0586795D01*
X0426729D02*
X0426856Y0586922D01*
X0426602Y0586795D02*
X0426729D01*
X0466875Y0667848D02*
X0467383D01*
Y0668356D01*
X0466875D02*
X0467383D01*
X0466875Y0667848D02*
Y0668356D01*
X0471955Y0667848D02*
X0472463D01*
Y0668356D01*
X0471955D02*
X0472463D01*
X0471955Y0667848D02*
Y0668356D01*
X0477035Y0667848D02*
X0477543D01*
Y0668356D01*
X0477035D02*
X0477543D01*
X0477035Y0667848D02*
Y0668356D01*
X0430575Y0667848D02*
X0431083D01*
Y0668356D01*
X0430575D02*
X0431083D01*
X0430575Y0667848D02*
Y0668356D01*
X0435655Y0667848D02*
X0436163D01*
Y0668356D01*
X0435655D02*
X0436163D01*
X0435655Y0667848D02*
Y0668356D01*
X0440735Y0667848D02*
X0441243D01*
Y0668356D01*
X0440735D02*
X0441243D01*
X0440735Y0667848D02*
Y0668356D01*
X0441782Y0644614D02*
X0441909Y0644487D01*
X0441655Y0644614D02*
X0441782D01*
X0441655D02*
X0441782Y0644741D01*
X0441655Y0644868D02*
X0441782Y0644741D01*
X0441655Y0644868D02*
X0441782D01*
X0441909Y0644995D01*
X0442036Y0644868D01*
X0442163D01*
X0442036Y0644741D02*
X0442163Y0644868D01*
X0442036Y0644741D02*
X0442163Y0644614D01*
X0442036D02*
X0442163D01*
X0441909Y0644487D02*
X0442036Y0644614D01*
X0429782D02*
X0429909Y0644487D01*
X0429655Y0644614D02*
X0429782D01*
X0429655D02*
X0429782Y0644741D01*
X0429655Y0644868D02*
X0429782Y0644741D01*
X0429655Y0644868D02*
X0429782D01*
X0429909Y0644995D01*
X0430036Y0644868D01*
X0430163D01*
X0430036Y0644741D02*
X0430163Y0644868D01*
X0430036Y0644741D02*
X0430163Y0644614D01*
X0430036D02*
X0430163D01*
X0429909Y0644487D02*
X0430036Y0644614D01*
X0441782Y0656814D02*
X0441909Y0656687D01*
X0441655Y0656814D02*
X0441782D01*
X0441655D02*
X0441782Y0656941D01*
X0441655Y0657068D02*
X0441782Y0656941D01*
X0441655Y0657068D02*
X0441782D01*
X0441909Y0657195D01*
X0442036Y0657068D01*
X0442163D01*
X0442036Y0656941D02*
X0442163Y0657068D01*
X0442036Y0656941D02*
X0442163Y0656814D01*
X0442036D02*
X0442163D01*
X0441909Y0656687D02*
X0442036Y0656814D01*
X0429782D02*
X0429909Y0656687D01*
X0429655Y0656814D02*
X0429782D01*
X0429655D02*
X0429782Y0656941D01*
X0429655Y0657068D02*
X0429782Y0656941D01*
X0429655Y0657068D02*
X0429782D01*
X0429909Y0657195D01*
X0430036Y0657068D01*
X0430163D01*
X0430036Y0656941D02*
X0430163Y0657068D01*
X0430036Y0656941D02*
X0430163Y0656814D01*
X0430036D02*
X0430163D01*
X0429909Y0656687D02*
X0430036Y0656814D01*
X0435782Y0642614D02*
X0435909Y0642487D01*
X0435655Y0642614D02*
X0435782D01*
X0435655D02*
X0435782Y0642741D01*
X0435655Y0642868D02*
X0435782Y0642741D01*
X0435655Y0642868D02*
X0435782D01*
X0435909Y0642995D01*
X0436036Y0642868D01*
X0436163D01*
X0436036Y0642741D02*
X0436163Y0642868D01*
X0436036Y0642741D02*
X0436163Y0642614D01*
X0436036D02*
X0436163D01*
X0435909Y0642487D02*
X0436036Y0642614D01*
X0459932Y0644614D02*
X0460059Y0644487D01*
X0459805Y0644614D02*
X0459932D01*
X0459805D02*
X0459932Y0644741D01*
X0459805Y0644868D02*
X0459932Y0644741D01*
X0459805Y0644868D02*
X0459932D01*
X0460059Y0644995D01*
X0460186Y0644868D01*
X0460313D01*
X0460186Y0644741D02*
X0460313Y0644868D01*
X0460186Y0644741D02*
X0460313Y0644614D01*
X0460186D02*
X0460313D01*
X0460059Y0644487D02*
X0460186Y0644614D01*
X0447932D02*
X0448059Y0644487D01*
X0447805Y0644614D02*
X0447932D01*
X0447805D02*
X0447932Y0644741D01*
X0447805Y0644868D02*
X0447932Y0644741D01*
X0447805Y0644868D02*
X0447932D01*
X0448059Y0644995D01*
X0448186Y0644868D01*
X0448313D01*
X0448186Y0644741D02*
X0448313Y0644868D01*
X0448186Y0644741D02*
X0448313Y0644614D01*
X0448186D02*
X0448313D01*
X0448059Y0644487D02*
X0448186Y0644614D01*
X0459932Y0656814D02*
X0460059Y0656687D01*
X0459805Y0656814D02*
X0459932D01*
X0459805D02*
X0459932Y0656941D01*
X0459805Y0657068D02*
X0459932Y0656941D01*
X0459805Y0657068D02*
X0459932D01*
X0460059Y0657195D01*
X0460186Y0657068D01*
X0460313D01*
X0460186Y0656941D02*
X0460313Y0657068D01*
X0460186Y0656941D02*
X0460313Y0656814D01*
X0460186D02*
X0460313D01*
X0460059Y0656687D02*
X0460186Y0656814D01*
X0447932D02*
X0448059Y0656687D01*
X0447805Y0656814D02*
X0447932D01*
X0447805D02*
X0447932Y0656941D01*
X0447805Y0657068D02*
X0447932Y0656941D01*
X0447805Y0657068D02*
X0447932D01*
X0448059Y0657195D01*
X0448186Y0657068D01*
X0448313D01*
X0448186Y0656941D02*
X0448313Y0657068D01*
X0448186Y0656941D02*
X0448313Y0656814D01*
X0448186D02*
X0448313D01*
X0448059Y0656687D02*
X0448186Y0656814D01*
X0453932Y0642614D02*
X0454059Y0642487D01*
X0453805Y0642614D02*
X0453932D01*
X0453805D02*
X0453932Y0642741D01*
X0453805Y0642868D02*
X0453932Y0642741D01*
X0453805Y0642868D02*
X0453932D01*
X0454059Y0642995D01*
X0454186Y0642868D01*
X0454313D01*
X0454186Y0642741D02*
X0454313Y0642868D01*
X0454186Y0642741D02*
X0454313Y0642614D01*
X0454186D02*
X0454313D01*
X0454059Y0642487D02*
X0454186Y0642614D01*
X0448725Y0667848D02*
X0449233D01*
Y0668356D01*
X0448725D02*
X0449233D01*
X0448725Y0667848D02*
Y0668356D01*
X0453805Y0667848D02*
X0454313D01*
Y0668356D01*
X0453805D02*
X0454313D01*
X0453805Y0667848D02*
Y0668356D01*
X0458885Y0667848D02*
X0459393D01*
Y0668356D01*
X0458885D02*
X0459393D01*
X0458885Y0667848D02*
Y0668356D01*
X0496057Y0623228D02*
X0496565D01*
Y0623736D01*
X0496057D02*
X0496565D01*
X0496057Y0623228D02*
Y0623736D01*
X0496057Y0628308D02*
X0496565D01*
Y0628816D01*
X0496057D02*
X0496565D01*
X0496057Y0628308D02*
Y0628816D01*
Y0610883D02*
X0496565D01*
Y0611391D01*
X0496057D02*
X0496565D01*
X0496057Y0610883D02*
Y0611391D01*
X0496057Y0615963D02*
X0496565D01*
Y0616471D01*
X0496057D02*
X0496565D01*
X0496057Y0615963D02*
Y0616471D01*
X0496057Y0598538D02*
X0496565D01*
Y0599046D01*
X0496057D02*
X0496565D01*
X0496057Y0598538D02*
Y0599046D01*
Y0603618D02*
X0496565D01*
Y0604126D01*
X0496057D02*
X0496565D01*
X0496057Y0603618D02*
Y0604126D01*
Y0635573D02*
X0496565D01*
Y0636081D01*
X0496057D02*
X0496565D01*
X0496057Y0635573D02*
Y0636081D01*
Y0640653D02*
X0496565D01*
Y0641161D01*
X0496057D02*
X0496565D01*
X0496057Y0640653D02*
Y0641161D01*
X0408669Y0592154D02*
X0409177D01*
Y0592661D01*
X0408669D02*
X0409177D01*
X0408669Y0592154D02*
Y0592661D01*
X0408669Y0587073D02*
X0409177D01*
Y0587581D01*
X0408669D02*
X0409177D01*
X0408669Y0587073D02*
Y0587581D01*
X0412969Y0585309D02*
X0413223Y0585435D01*
X0413477Y0585309D01*
X0413350Y0585562D02*
X0413477Y0585309D01*
X0413350Y0585562D02*
X0413477Y0585817D01*
X0413223Y0585690D02*
X0413477Y0585817D01*
X0412969D02*
X0413223Y0585690D01*
X0412969Y0585817D02*
X0413096Y0585562D01*
X0412969Y0585309D02*
X0413096Y0585562D01*
X0412969Y0593919D02*
X0413223Y0594046D01*
X0413477Y0593919D01*
X0413350Y0594172D02*
X0413477Y0593919D01*
X0413350Y0594172D02*
X0413477Y0594427D01*
X0413223Y0594299D02*
X0413477Y0594427D01*
X0412969D02*
X0413223Y0594299D01*
X0412969Y0594427D02*
X0413096Y0594172D01*
X0412969Y0593919D02*
X0413096Y0594172D01*
X0496057Y0660263D02*
X0496565D01*
Y0660771D01*
X0496057D02*
X0496565D01*
X0496057Y0660263D02*
Y0660771D01*
X0496057Y0665343D02*
X0496565D01*
Y0665851D01*
X0496057D02*
X0496565D01*
X0496057Y0665343D02*
Y0665851D01*
Y0647918D02*
X0496565D01*
Y0648426D01*
X0496057D02*
X0496565D01*
X0496057Y0647918D02*
Y0648426D01*
Y0652998D02*
X0496565D01*
Y0653506D01*
X0496057D02*
X0496565D01*
X0496057Y0652998D02*
Y0653506D01*
X0405312Y0538195D02*
X0405566Y0537941D01*
X0405820Y0538195D01*
X0405566Y0538449D02*
X0405820Y0538195D01*
X0405312D02*
X0405566Y0538449D01*
X0453327Y0586772D02*
Y0586899D01*
X0453454Y0587026D01*
X0453327Y0587153D02*
X0453454Y0587026D01*
X0453327Y0587153D02*
Y0587280D01*
X0453454D01*
X0453581Y0587153D01*
X0453708Y0587280D01*
X0453835D01*
Y0587153D02*
Y0587280D01*
X0453708Y0587026D02*
X0453835Y0587153D01*
X0453708Y0587026D02*
X0453835Y0586899D01*
Y0586772D02*
Y0586899D01*
X0453708Y0586772D02*
X0453835D01*
X0453581Y0586899D02*
X0453708Y0586772D01*
X0453454D02*
X0453581Y0586899D01*
X0453327Y0586772D02*
X0453454D01*
X0458327D02*
Y0586899D01*
X0458454Y0587026D01*
X0458327Y0587153D02*
X0458454Y0587026D01*
X0458327Y0587153D02*
Y0587280D01*
X0458454D01*
X0458581Y0587153D01*
X0458708Y0587280D01*
X0458835D01*
Y0587153D02*
Y0587280D01*
X0458708Y0587026D02*
X0458835Y0587153D01*
X0458708Y0587026D02*
X0458835Y0586899D01*
Y0586772D02*
Y0586899D01*
X0458708Y0586772D02*
X0458835D01*
X0458581Y0586899D02*
X0458708Y0586772D01*
X0458454D02*
X0458581Y0586899D01*
X0458327Y0586772D02*
X0458454D01*
X0455827D02*
Y0586899D01*
X0455954Y0587026D01*
X0455827Y0587153D02*
X0455954Y0587026D01*
X0455827Y0587153D02*
Y0587280D01*
X0455954D01*
X0456081Y0587153D01*
X0456208Y0587280D01*
X0456335D01*
Y0587153D02*
Y0587280D01*
X0456208Y0587026D02*
X0456335Y0587153D01*
X0456208Y0587026D02*
X0456335Y0586899D01*
Y0586772D02*
Y0586899D01*
X0456208Y0586772D02*
X0456335D01*
X0456081Y0586899D02*
X0456208Y0586772D01*
X0455954D02*
X0456081Y0586899D01*
X0455827Y0586772D02*
X0455954D01*
X0450827D02*
Y0586899D01*
X0450954Y0587026D01*
X0450827Y0587153D02*
X0450954Y0587026D01*
X0450827Y0587153D02*
Y0587280D01*
X0450954D01*
X0451081Y0587153D01*
X0451208Y0587280D01*
X0451335D01*
Y0587153D02*
Y0587280D01*
X0451208Y0587026D02*
X0451335Y0587153D01*
X0451208Y0587026D02*
X0451335Y0586899D01*
Y0586772D02*
Y0586899D01*
X0451208Y0586772D02*
X0451335D01*
X0451081Y0586899D02*
X0451208Y0586772D01*
X0450954D02*
X0451081Y0586899D01*
X0450827Y0586772D02*
X0450954D01*
X0438047Y0612897D02*
X0438174D01*
X0438047D02*
Y0613151D01*
X0438174D01*
Y0613278D01*
X0438428D01*
Y0613151D02*
Y0613278D01*
Y0613151D02*
X0438555D01*
Y0612897D02*
Y0613151D01*
X0438428Y0612897D02*
X0438555D01*
X0438428Y0612770D02*
Y0612897D01*
X0438174Y0612770D02*
X0438428D01*
X0438174D02*
Y0612897D01*
X0413145Y0570512D02*
X0413221Y0570436D01*
X0413069Y0570512D02*
X0413145D01*
X0413069D02*
X0413145Y0570588D01*
X0413069Y0570664D02*
X0413145Y0570588D01*
X0413069Y0570664D02*
X0413145D01*
X0413221Y0570740D01*
X0413298Y0570664D01*
X0413374D01*
X0413298Y0570588D02*
X0413374Y0570664D01*
X0413298Y0570588D02*
X0413374Y0570512D01*
X0413298D02*
X0413374D01*
X0413221Y0570436D02*
X0413298Y0570512D01*
X0413094Y0570461D02*
X0413221Y0570334D01*
X0412967Y0570461D02*
X0413094D01*
X0412967D02*
X0413094Y0570588D01*
X0412967Y0570715D02*
X0413094Y0570588D01*
X0412967Y0570715D02*
X0413094D01*
X0413221Y0570842D01*
X0413348Y0570715D01*
X0413475D01*
X0413348Y0570588D02*
X0413475Y0570715D01*
X0413348Y0570588D02*
X0413475Y0570461D01*
X0413348D02*
X0413475D01*
X0413221Y0570334D02*
X0413348Y0570461D01*
X0413145Y0562892D02*
X0413221Y0562816D01*
X0413069Y0562892D02*
X0413145D01*
X0413069D02*
X0413145Y0562968D01*
X0413069Y0563044D02*
X0413145Y0562968D01*
X0413069Y0563044D02*
X0413145D01*
X0413221Y0563120D01*
X0413298Y0563044D01*
X0413374D01*
X0413298Y0562968D02*
X0413374Y0563044D01*
X0413298Y0562968D02*
X0413374Y0562892D01*
X0413298D02*
X0413374D01*
X0413221Y0562816D02*
X0413298Y0562892D01*
X0413094Y0562841D02*
X0413221Y0562714D01*
X0412967Y0562841D02*
X0413094D01*
X0412967D02*
X0413094Y0562968D01*
X0412967Y0563095D02*
X0413094Y0562968D01*
X0412967Y0563095D02*
X0413094D01*
X0413221Y0563222D01*
X0413348Y0563095D01*
X0413475D01*
X0413348Y0562968D02*
X0413475Y0563095D01*
X0413348Y0562968D02*
X0413475Y0562841D01*
X0413348D02*
X0413475D01*
X0413221Y0562714D02*
X0413348Y0562841D01*
X0413145Y0555272D02*
X0413221Y0555196D01*
X0413069Y0555272D02*
X0413145D01*
X0413069D02*
X0413145Y0555348D01*
X0413069Y0555424D02*
X0413145Y0555348D01*
X0413069Y0555424D02*
X0413145D01*
X0413221Y0555500D01*
X0413298Y0555424D01*
X0413374D01*
X0413298Y0555348D02*
X0413374Y0555424D01*
X0413298Y0555348D02*
X0413374Y0555272D01*
X0413298D02*
X0413374D01*
X0413221Y0555196D02*
X0413298Y0555272D01*
X0413094Y0555221D02*
X0413221Y0555094D01*
X0412967Y0555221D02*
X0413094D01*
X0412967D02*
X0413094Y0555348D01*
X0412967Y0555475D02*
X0413094Y0555348D01*
X0412967Y0555475D02*
X0413094D01*
X0413221Y0555602D01*
X0413348Y0555475D01*
X0413475D01*
X0413348Y0555348D02*
X0413475Y0555475D01*
X0413348Y0555348D02*
X0413475Y0555221D01*
X0413348D02*
X0413475D01*
X0413221Y0555094D02*
X0413348Y0555221D01*
X0413145Y0547652D02*
X0413221Y0547576D01*
X0413069Y0547652D02*
X0413145D01*
X0413069D02*
X0413145Y0547728D01*
X0413069Y0547804D02*
X0413145Y0547728D01*
X0413069Y0547804D02*
X0413145D01*
X0413221Y0547880D01*
X0413298Y0547804D01*
X0413374D01*
X0413298Y0547728D02*
X0413374Y0547804D01*
X0413298Y0547728D02*
X0413374Y0547652D01*
X0413298D02*
X0413374D01*
X0413221Y0547576D02*
X0413298Y0547652D01*
X0413094Y0547601D02*
X0413221Y0547474D01*
X0412967Y0547601D02*
X0413094D01*
X0412967D02*
X0413094Y0547728D01*
X0412967Y0547855D02*
X0413094Y0547728D01*
X0412967Y0547855D02*
X0413094D01*
X0413221Y0547982D01*
X0413348Y0547855D01*
X0413475D01*
X0413348Y0547728D02*
X0413475Y0547855D01*
X0413348Y0547728D02*
X0413475Y0547601D01*
X0413348D02*
X0413475D01*
X0413221Y0547474D02*
X0413348Y0547601D01*
X0462989Y0552491D02*
X0463141Y0552567D01*
X0463294Y0552491D01*
X0463218Y0552643D02*
X0463294Y0552491D01*
X0463218Y0552643D02*
X0463294Y0552795D01*
X0463141Y0552719D02*
X0463294Y0552795D01*
X0462989D02*
X0463141Y0552719D01*
X0462989Y0552795D02*
X0463065Y0552643D01*
X0462989Y0552491D02*
X0463065Y0552643D01*
X0462887Y0552389D02*
X0463141Y0552516D01*
X0463395Y0552389D01*
X0463268Y0552643D02*
X0463395Y0552389D01*
X0463268Y0552643D02*
X0463395Y0552897D01*
X0463141Y0552770D02*
X0463395Y0552897D01*
X0462887D02*
X0463141Y0552770D01*
X0462887Y0552897D02*
X0463014Y0552643D01*
X0462887Y0552389D02*
X0463014Y0552643D01*
X0473989Y0552491D02*
X0474141Y0552567D01*
X0474294Y0552491D01*
X0474218Y0552643D02*
X0474294Y0552491D01*
X0474218Y0552643D02*
X0474294Y0552795D01*
X0474141Y0552719D02*
X0474294Y0552795D01*
X0473989D02*
X0474141Y0552719D01*
X0473989Y0552795D02*
X0474065Y0552643D01*
X0473989Y0552491D02*
X0474065Y0552643D01*
X0473887Y0552389D02*
X0474141Y0552516D01*
X0474395Y0552389D01*
X0474268Y0552643D02*
X0474395Y0552389D01*
X0474268Y0552643D02*
X0474395Y0552897D01*
X0474141Y0552770D02*
X0474395Y0552897D01*
X0473887D02*
X0474141Y0552770D01*
X0473887Y0552897D02*
X0474014Y0552643D01*
X0473887Y0552389D02*
X0474014Y0552643D01*
X0468489Y0552491D02*
X0468641Y0552567D01*
X0468794Y0552491D01*
X0468718Y0552643D02*
X0468794Y0552491D01*
X0468718Y0552643D02*
X0468794Y0552795D01*
X0468641Y0552719D02*
X0468794Y0552795D01*
X0468489D02*
X0468641Y0552719D01*
X0468489Y0552795D02*
X0468565Y0552643D01*
X0468489Y0552491D02*
X0468565Y0552643D01*
X0468387Y0552389D02*
X0468641Y0552516D01*
X0468895Y0552389D01*
X0468768Y0552643D02*
X0468895Y0552389D01*
X0468768Y0552643D02*
X0468895Y0552897D01*
X0468641Y0552770D02*
X0468895Y0552897D01*
X0468387D02*
X0468641Y0552770D01*
X0468387Y0552897D02*
X0468514Y0552643D01*
X0468387Y0552389D02*
X0468514Y0552643D01*
X0421449Y0555196D02*
X0421754D01*
Y0555500D01*
X0421449D02*
X0421754D01*
X0421449Y0555196D02*
Y0555500D01*
X0421347Y0555094D02*
X0421855D01*
Y0555602D01*
X0421347D02*
X0421855D01*
X0421347Y0555094D02*
Y0555602D01*
X0436689Y0555196D02*
X0436994D01*
Y0555500D01*
X0436689D02*
X0436994D01*
X0436689Y0555196D02*
Y0555500D01*
X0436587Y0555094D02*
X0437095D01*
Y0555602D01*
X0436587D02*
X0437095D01*
X0436587Y0555094D02*
Y0555602D01*
X0464541Y0540594D02*
X0464795Y0541102D01*
X0464287D02*
X0464795D01*
X0464287D02*
X0464541Y0540594D01*
X0444541D02*
X0444795Y0541102D01*
X0444287D02*
X0444795D01*
X0444287D02*
X0444541Y0540594D01*
X0494041Y0552910D02*
X0494194Y0553215D01*
X0493889D02*
X0494194D01*
X0493889D02*
X0494041Y0552910D01*
Y0552808D02*
X0494295Y0553316D01*
X0493787D02*
X0494295D01*
X0493787D02*
X0494041Y0552808D01*
Y0547830D02*
X0494194Y0548135D01*
X0493889D02*
X0494194D01*
X0493889D02*
X0494041Y0547830D01*
Y0547728D02*
X0494295Y0548236D01*
X0493787D02*
X0494295D01*
X0493787D02*
X0494041Y0547728D01*
X0486421Y0552910D02*
X0486574Y0553215D01*
X0486269D02*
X0486574D01*
X0486269D02*
X0486421Y0552910D01*
Y0552808D02*
X0486675Y0553316D01*
X0486167D02*
X0486675D01*
X0486167D02*
X0486421Y0552808D01*
Y0547830D02*
X0486574Y0548135D01*
X0486269D02*
X0486574D01*
X0486269D02*
X0486421Y0547830D01*
Y0547728D02*
X0486675Y0548236D01*
X0486167D02*
X0486675D01*
X0486167D02*
X0486421Y0547728D01*
X0494041Y0550370D02*
X0494194Y0550675D01*
X0493889D02*
X0494194D01*
X0493889D02*
X0494041Y0550370D01*
Y0550268D02*
X0494295Y0550776D01*
X0493787D02*
X0494295D01*
X0493787D02*
X0494041Y0550268D01*
X0486421Y0550370D02*
X0486574Y0550675D01*
X0486269D02*
X0486574D01*
X0486269D02*
X0486421Y0550370D01*
Y0550268D02*
X0486675Y0550776D01*
X0486167D02*
X0486675D01*
X0486167D02*
X0486421Y0550268D01*
X0486421Y0540594D02*
X0486675Y0541102D01*
X0486167D02*
X0486675D01*
X0486167D02*
X0486421Y0540594D01*
X0468641D02*
X0468895Y0541102D01*
X0468387D02*
X0468895D01*
X0468387D02*
X0468641Y0540594D01*
X0449741Y0570334D02*
X0449995Y0570842D01*
X0449487D02*
X0449995D01*
X0449487D02*
X0449741Y0570334D01*
X0469741Y0570334D02*
X0469995Y0570842D01*
X0469487D02*
X0469995D01*
X0469487D02*
X0469741Y0570334D01*
X0449741Y0576354D02*
X0449995Y0576862D01*
X0449487D02*
X0449995D01*
X0449487D02*
X0449741Y0576354D01*
X0469741D02*
X0469995Y0576862D01*
X0469487D02*
X0469995D01*
X0469487D02*
X0469741Y0576354D01*
X0499312Y0538195D02*
X0499566Y0537941D01*
X0499820Y0538195D01*
X0499566Y0538449D02*
X0499820Y0538195D01*
X0499312D02*
X0499566Y0538449D01*
X0453541Y0601932D02*
X0453693Y0602237D01*
X0453389D02*
X0453693D01*
X0453389D02*
X0453541Y0601932D01*
Y0601830D02*
X0453795Y0602338D01*
X0453287D02*
X0453795D01*
X0453287D02*
X0453541Y0601830D01*
X0451001Y0601932D02*
X0451153Y0602237D01*
X0450849D02*
X0451153D01*
X0450849D02*
X0451001Y0601932D01*
Y0601830D02*
X0451255Y0602338D01*
X0450747D02*
X0451255D01*
X0450747D02*
X0451001Y0601830D01*
X0443381Y0601932D02*
X0443533Y0602237D01*
X0443229D02*
X0443533D01*
X0443229D02*
X0443381Y0601932D01*
Y0601830D02*
X0443635Y0602338D01*
X0443127D02*
X0443635D01*
X0443127D02*
X0443381Y0601830D01*
X0440841Y0601932D02*
X0440993Y0602237D01*
X0440689D02*
X0440993D01*
X0440689D02*
X0440841Y0601932D01*
Y0601830D02*
X0441095Y0602338D01*
X0440587D02*
X0441095D01*
X0440587D02*
X0440841Y0601830D01*
X0438301Y0601932D02*
X0438453Y0602237D01*
X0438149D02*
X0438453D01*
X0438149D02*
X0438301Y0601932D01*
Y0601830D02*
X0438555Y0602338D01*
X0438047D02*
X0438555D01*
X0438047D02*
X0438301Y0601830D01*
X0449090Y0540772D02*
X0449166Y0540696D01*
X0449014Y0540772D02*
X0449090D01*
X0449014D02*
X0449090Y0540848D01*
X0449014Y0540924D02*
X0449090Y0540848D01*
X0449014Y0540924D02*
X0449090D01*
X0449166Y0541000D01*
X0449243Y0540924D01*
X0449319D01*
X0449243Y0540848D02*
X0449319Y0540924D01*
X0449243Y0540848D02*
X0449319Y0540772D01*
X0449243D02*
X0449319D01*
X0449166Y0540696D02*
X0449243Y0540772D01*
X0449039Y0540721D02*
X0449166Y0540594D01*
X0448912Y0540721D02*
X0449039D01*
X0448912D02*
X0449039Y0540848D01*
X0448912Y0540975D02*
X0449039Y0540848D01*
X0448912Y0540975D02*
X0449039D01*
X0449166Y0541102D01*
X0449293Y0540975D01*
X0449420D01*
X0449293Y0540848D02*
X0449420Y0540975D01*
X0449293Y0540848D02*
X0449420Y0540721D01*
X0449293D02*
X0449420D01*
X0449166Y0540594D02*
X0449293Y0540721D01*
X0469741Y0562714D02*
X0469995Y0563222D01*
X0469487D02*
X0469995D01*
X0469487D02*
X0469741Y0562714D01*
X0449741D02*
X0449995Y0563222D01*
X0449487D02*
X0449995D01*
X0449487D02*
X0449741Y0562714D01*
X0436689Y0570436D02*
X0436994D01*
Y0570740D01*
X0436689D02*
X0436994D01*
X0436689Y0570436D02*
Y0570740D01*
X0436587Y0570334D02*
X0437095D01*
Y0570842D01*
X0436587D02*
X0437095D01*
X0436587Y0570334D02*
Y0570842D01*
X0421449Y0570436D02*
X0421754D01*
Y0570740D01*
X0421449D02*
X0421754D01*
X0421449Y0570436D02*
Y0570740D01*
X0421347Y0570334D02*
X0421855D01*
Y0570842D01*
X0421347D02*
X0421855D01*
X0421347Y0570334D02*
Y0570842D01*
X0496057Y0586193D02*
X0496565D01*
Y0586701D01*
X0496057D02*
X0496565D01*
X0496057Y0586193D02*
Y0586701D01*
Y0591273D02*
X0496565D01*
Y0591781D01*
X0496057D02*
X0496565D01*
X0496057Y0591273D02*
Y0591781D01*
X0444287Y0555594D02*
Y0555721D01*
X0444414Y0555848D01*
X0444287Y0555975D02*
X0444414Y0555848D01*
X0444287Y0555975D02*
Y0556102D01*
X0444414D01*
X0444541Y0555975D01*
X0444668Y0556102D01*
X0444795D01*
Y0555975D02*
Y0556102D01*
X0444668Y0555848D02*
X0444795Y0555975D01*
X0444668Y0555848D02*
X0444795Y0555721D01*
Y0555594D02*
Y0555721D01*
X0444668Y0555594D02*
X0444795D01*
X0444541Y0555721D02*
X0444668Y0555594D01*
X0444414D02*
X0444541Y0555721D01*
X0444287Y0555594D02*
X0444414D01*
X0478082Y0644614D02*
X0478209Y0644487D01*
X0477955Y0644614D02*
X0478082D01*
X0477955D02*
X0478082Y0644741D01*
X0477955Y0644868D02*
X0478082Y0644741D01*
X0477955Y0644868D02*
X0478082D01*
X0478209Y0644995D01*
X0478336Y0644868D01*
X0478463D01*
X0478336Y0644741D02*
X0478463Y0644868D01*
X0478336Y0644741D02*
X0478463Y0644614D01*
X0478336D02*
X0478463D01*
X0478209Y0644487D02*
X0478336Y0644614D01*
X0466082D02*
X0466209Y0644487D01*
X0465955Y0644614D02*
X0466082D01*
X0465955D02*
X0466082Y0644741D01*
X0465955Y0644868D02*
X0466082Y0644741D01*
X0465955Y0644868D02*
X0466082D01*
X0466209Y0644995D01*
X0466336Y0644868D01*
X0466463D01*
X0466336Y0644741D02*
X0466463Y0644868D01*
X0466336Y0644741D02*
X0466463Y0644614D01*
X0466336D02*
X0466463D01*
X0466209Y0644487D02*
X0466336Y0644614D01*
X0478082Y0656814D02*
X0478209Y0656687D01*
X0477955Y0656814D02*
X0478082D01*
X0477955D02*
X0478082Y0656941D01*
X0477955Y0657068D02*
X0478082Y0656941D01*
X0477955Y0657068D02*
X0478082D01*
X0478209Y0657195D01*
X0478336Y0657068D01*
X0478463D01*
X0478336Y0656941D02*
X0478463Y0657068D01*
X0478336Y0656941D02*
X0478463Y0656814D01*
X0478336D02*
X0478463D01*
X0478209Y0656687D02*
X0478336Y0656814D01*
X0466082D02*
X0466209Y0656687D01*
X0465955Y0656814D02*
X0466082D01*
X0465955D02*
X0466082Y0656941D01*
X0465955Y0657068D02*
X0466082Y0656941D01*
X0465955Y0657068D02*
X0466082D01*
X0466209Y0657195D01*
X0466336Y0657068D01*
X0466463D01*
X0466336Y0656941D02*
X0466463Y0657068D01*
X0466336Y0656941D02*
X0466463Y0656814D01*
X0466336D02*
X0466463D01*
X0466209Y0656687D02*
X0466336Y0656814D01*
X0472082Y0642614D02*
X0472209Y0642487D01*
X0471955Y0642614D02*
X0472082D01*
X0471955D02*
X0472082Y0642741D01*
X0471955Y0642868D02*
X0472082Y0642741D01*
X0471955Y0642868D02*
X0472082D01*
X0472209Y0642995D01*
X0472336Y0642868D01*
X0472463D01*
X0472336Y0642741D02*
X0472463Y0642868D01*
X0472336Y0642741D02*
X0472463Y0642614D01*
X0472336D02*
X0472463D01*
X0472209Y0642487D02*
X0472336Y0642614D01*
D71*
X0384066Y0502299D02*
X0516656D01*
X0384066Y0469799D02*
X0516656D01*
X0384066Y0467299D02*
X0516656D01*
Y0504799D01*
X0384066D02*
X0516656D01*
X0384066Y0467299D02*
Y0504799D01*
X0501730Y0467299D02*
Y0504799D01*
X0484602Y0467299D02*
Y0504799D01*
X0472225Y0467299D02*
Y0504799D01*
X0462448Y0467299D02*
Y0504799D01*
X0442673Y0467299D02*
Y0504799D01*
X0430497Y0467299D02*
Y0504799D01*
X0422119Y0467299D02*
Y0504799D01*
X0402991Y0467299D02*
Y0504799D01*
X0393194Y0467299D02*
Y0504799D01*
D72*
X0502480Y0504249D02*
Y0503049D01*
X0503080D01*
X0503280Y0503249D01*
Y0504049D01*
X0503080Y0504249D01*
X0502480D01*
X0504279Y0503049D02*
X0503880D01*
X0503680Y0503249D01*
Y0503649D01*
X0503880Y0503849D01*
X0504279D01*
X0504479Y0503649D01*
Y0503449D01*
X0503680D01*
X0504879Y0503049D02*
X0505479D01*
X0505679Y0503249D01*
X0505479Y0503449D01*
X0505079D01*
X0504879Y0503649D01*
X0505079Y0503849D01*
X0505679D01*
X0506879D02*
X0506279D01*
X0506079Y0503649D01*
Y0503249D01*
X0506279Y0503049D01*
X0506879D01*
X0507278Y0503849D02*
Y0503049D01*
Y0503449D01*
X0507478Y0503649D01*
X0507678Y0503849D01*
X0507878D01*
X0508478Y0503049D02*
X0508878D01*
X0508678D01*
Y0503849D01*
X0508478D01*
X0509478Y0502649D02*
Y0503849D01*
X0510078D01*
X0510277Y0503649D01*
Y0503249D01*
X0510078Y0503049D01*
X0509478D01*
X0510877Y0504049D02*
Y0503849D01*
X0510677D01*
X0511077D01*
X0510877D01*
Y0503249D01*
X0511077Y0503049D01*
X0511677D02*
X0512077D01*
X0511877D01*
Y0503849D01*
X0511677D01*
X0512877Y0503049D02*
X0513277D01*
X0513476Y0503249D01*
Y0503649D01*
X0513277Y0503849D01*
X0512877D01*
X0512677Y0503649D01*
Y0503249D01*
X0512877Y0503049D01*
X0513876D02*
Y0503849D01*
X0514476D01*
X0514676Y0503649D01*
Y0503049D01*
X0485352Y0504249D02*
X0486151D01*
X0485751D01*
Y0503049D01*
X0487151D02*
X0486751D01*
X0486551Y0503249D01*
Y0503649D01*
X0486751Y0503849D01*
X0487151D01*
X0487351Y0503649D01*
Y0503449D01*
X0486551D01*
X0487751Y0503049D02*
Y0503849D01*
X0487951D01*
X0488151Y0503649D01*
Y0503049D01*
Y0503649D01*
X0488351Y0503849D01*
X0488551Y0503649D01*
Y0503049D01*
X0488950Y0502649D02*
Y0503849D01*
X0489550D01*
X0489750Y0503649D01*
Y0503249D01*
X0489550Y0503049D01*
X0488950D01*
X0490150D02*
X0490550D01*
X0490350D01*
Y0504249D01*
X0490150D01*
X0491350Y0503849D02*
X0491750D01*
X0491949Y0503649D01*
Y0503049D01*
X0491350D01*
X0491150Y0503249D01*
X0491350Y0503449D01*
X0491949D01*
X0492549Y0504049D02*
Y0503849D01*
X0492349D01*
X0492749D01*
X0492549D01*
Y0503249D01*
X0492749Y0503049D01*
X0493949D02*
X0493549D01*
X0493349Y0503249D01*
Y0503649D01*
X0493549Y0503849D01*
X0493949D01*
X0494149Y0503649D01*
Y0503449D01*
X0493349D01*
X0472975Y0503049D02*
Y0504249D01*
X0473575D01*
X0473775Y0504049D01*
Y0503649D01*
X0473575Y0503449D01*
X0472975D01*
X0474375Y0503849D02*
X0474774D01*
X0474974Y0503649D01*
Y0503049D01*
X0474375D01*
X0474175Y0503249D01*
X0474375Y0503449D01*
X0474974D01*
X0476174Y0504249D02*
Y0503049D01*
X0475574D01*
X0475374Y0503249D01*
Y0503649D01*
X0475574Y0503849D01*
X0476174D01*
X0478573Y0504049D02*
X0478373Y0504249D01*
X0477973D01*
X0477773Y0504049D01*
Y0503849D01*
X0477973Y0503649D01*
X0478373D01*
X0478573Y0503449D01*
Y0503249D01*
X0478373Y0503049D01*
X0477973D01*
X0477773Y0503249D01*
X0478973Y0504249D02*
Y0503049D01*
Y0503649D01*
X0479173Y0503849D01*
X0479573D01*
X0479773Y0503649D01*
Y0503049D01*
X0480373Y0503849D02*
X0480772D01*
X0480972Y0503649D01*
Y0503049D01*
X0480373D01*
X0480173Y0503249D01*
X0480373Y0503449D01*
X0480972D01*
X0481372Y0502649D02*
Y0503849D01*
X0481972D01*
X0482172Y0503649D01*
Y0503249D01*
X0481972Y0503049D01*
X0481372D01*
X0483172D02*
X0482772D01*
X0482572Y0503249D01*
Y0503649D01*
X0482772Y0503849D01*
X0483172D01*
X0483372Y0503649D01*
Y0503449D01*
X0482572D01*
X0463198Y0504249D02*
Y0503449D01*
X0463597Y0503049D01*
X0463997Y0503449D01*
Y0504249D01*
X0464397Y0503049D02*
X0464797D01*
X0464597D01*
Y0503849D01*
X0464397D01*
X0465597D02*
X0465997D01*
X0466197Y0503649D01*
Y0503049D01*
X0465597D01*
X0465397Y0503249D01*
X0465597Y0503449D01*
X0466197D01*
X0466596Y0503049D02*
X0467396Y0503849D01*
X0467796Y0503049D02*
Y0504249D01*
X0468396D01*
X0468596Y0504049D01*
Y0503649D01*
X0468396Y0503449D01*
X0467796D01*
X0469196Y0503849D02*
X0469595D01*
X0469795Y0503649D01*
Y0503049D01*
X0469196D01*
X0468996Y0503249D01*
X0469196Y0503449D01*
X0469795D01*
X0470995Y0504249D02*
Y0503049D01*
X0470395D01*
X0470195Y0503249D01*
Y0503649D01*
X0470395Y0503849D01*
X0470995D01*
X0443423Y0504249D02*
Y0503049D01*
X0444023D01*
X0444223Y0503249D01*
Y0504049D01*
X0444023Y0504249D01*
X0443423D01*
X0444623Y0503849D02*
Y0503049D01*
Y0503449D01*
X0444823Y0503649D01*
X0445023Y0503849D01*
X0445223D01*
X0445823Y0503049D02*
X0446222D01*
X0446022D01*
Y0503849D01*
X0445823D01*
X0446822Y0503049D02*
X0447222D01*
X0447022D01*
Y0504249D01*
X0446822D01*
X0447822Y0503049D02*
X0448222D01*
X0448022D01*
Y0504249D01*
X0447822D01*
X0450021D02*
Y0503049D01*
X0450821D01*
X0451421Y0503849D02*
X0451821D01*
X0452021Y0503649D01*
Y0503049D01*
X0451421D01*
X0451221Y0503249D01*
X0451421Y0503449D01*
X0452021D01*
X0452420Y0503849D02*
Y0503249D01*
X0452620Y0503049D01*
X0453220D01*
Y0502849D01*
X0453020Y0502649D01*
X0452820D01*
X0453220Y0503049D02*
Y0503849D01*
X0454220Y0503049D02*
X0453820D01*
X0453620Y0503249D01*
Y0503649D01*
X0453820Y0503849D01*
X0454220D01*
X0454420Y0503649D01*
Y0503449D01*
X0453620D01*
X0454820Y0503849D02*
Y0503049D01*
Y0503449D01*
X0455020Y0503649D01*
X0455219Y0503849D01*
X0455419D01*
X0457219Y0503049D02*
Y0504249D01*
X0457819D01*
X0458019Y0504049D01*
Y0503649D01*
X0457819Y0503449D01*
X0457219D01*
X0458618Y0503849D02*
X0459018D01*
X0459218Y0503649D01*
Y0503049D01*
X0458618D01*
X0458418Y0503249D01*
X0458618Y0503449D01*
X0459218D01*
X0459618Y0503049D02*
X0460018D01*
X0459818D01*
Y0503849D01*
X0459618D01*
X0460618D02*
Y0503049D01*
Y0503449D01*
X0460818Y0503649D01*
X0461018Y0503849D01*
X0461218D01*
X0431247Y0504249D02*
Y0503049D01*
Y0503649D01*
X0432046D01*
Y0504249D01*
Y0503049D01*
X0432646D02*
X0433046D01*
X0433246Y0503249D01*
Y0503649D01*
X0433046Y0503849D01*
X0432646D01*
X0432446Y0503649D01*
Y0503249D01*
X0432646Y0503049D01*
X0433646D02*
X0434046D01*
X0433846D01*
Y0504249D01*
X0433646D01*
X0435245Y0503049D02*
X0434845D01*
X0434645Y0503249D01*
Y0503649D01*
X0434845Y0503849D01*
X0435245D01*
X0435445Y0503649D01*
Y0503449D01*
X0434645D01*
X0437045Y0504249D02*
X0437844D01*
X0437445D01*
Y0503049D01*
X0438244Y0503849D02*
Y0503249D01*
X0438444Y0503049D01*
X0439044D01*
Y0502849D01*
X0438844Y0502649D01*
X0438644D01*
X0439044Y0503049D02*
Y0503849D01*
X0439444Y0502649D02*
Y0503849D01*
X0440044D01*
X0440244Y0503649D01*
Y0503249D01*
X0440044Y0503049D01*
X0439444D01*
X0441243D02*
X0440843D01*
X0440644Y0503249D01*
Y0503649D01*
X0440843Y0503849D01*
X0441243D01*
X0441443Y0503649D01*
Y0503449D01*
X0440644D01*
X0422869Y0503049D02*
Y0504249D01*
X0423468D01*
X0423668Y0504049D01*
Y0503649D01*
X0423468Y0503449D01*
X0422869D01*
X0424068Y0503049D02*
X0424468D01*
X0424268D01*
Y0504249D01*
X0424068D01*
X0425268Y0503849D02*
X0425668D01*
X0425868Y0503649D01*
Y0503049D01*
X0425268D01*
X0425068Y0503249D01*
X0425268Y0503449D01*
X0425868D01*
X0426467Y0504049D02*
Y0503849D01*
X0426268D01*
X0426667D01*
X0426467D01*
Y0503249D01*
X0426667Y0503049D01*
X0427867D02*
X0427467D01*
X0427267Y0503249D01*
Y0503649D01*
X0427467Y0503849D01*
X0427867D01*
X0428067Y0503649D01*
Y0503449D01*
X0427267D01*
X0429267Y0504249D02*
Y0503049D01*
X0428667D01*
X0428467Y0503249D01*
Y0503649D01*
X0428667Y0503849D01*
X0429267D01*
X0403741Y0504249D02*
Y0503049D01*
Y0503649D01*
X0404541D01*
Y0504249D01*
Y0503049D01*
X0405140D02*
X0405540D01*
X0405740Y0503249D01*
Y0503649D01*
X0405540Y0503849D01*
X0405140D01*
X0404941Y0503649D01*
Y0503249D01*
X0405140Y0503049D01*
X0406140D02*
X0406540D01*
X0406340D01*
Y0504249D01*
X0406140D01*
X0407740Y0503049D02*
X0407340D01*
X0407140Y0503249D01*
Y0503649D01*
X0407340Y0503849D01*
X0407740D01*
X0407940Y0503649D01*
Y0503449D01*
X0407140D01*
X0410339Y0504049D02*
X0410139Y0504249D01*
X0409739D01*
X0409539Y0504049D01*
Y0503849D01*
X0409739Y0503649D01*
X0410139D01*
X0410339Y0503449D01*
Y0503249D01*
X0410139Y0503049D01*
X0409739D01*
X0409539Y0503249D01*
X0410739Y0503049D02*
X0411139D01*
X0410939D01*
Y0503849D01*
X0410739D01*
X0411738D02*
X0412538D01*
X0411738Y0503049D01*
X0412538D01*
X0413538D02*
X0413138D01*
X0412938Y0503249D01*
Y0503649D01*
X0413138Y0503849D01*
X0413538D01*
X0413738Y0503649D01*
Y0503449D01*
X0412938D01*
X0394743Y0504049D02*
X0394543Y0504249D01*
X0394143D01*
X0393944Y0504049D01*
Y0503249D01*
X0394143Y0503049D01*
X0394543D01*
X0394743Y0503249D01*
X0395343Y0503049D02*
X0395743D01*
X0395943Y0503249D01*
Y0503649D01*
X0395743Y0503849D01*
X0395343D01*
X0395143Y0503649D01*
Y0503249D01*
X0395343Y0503049D01*
X0396343Y0503849D02*
Y0503249D01*
X0396543Y0503049D01*
X0397142D01*
Y0503849D01*
X0397542Y0503049D02*
Y0503849D01*
X0398142D01*
X0398342Y0503649D01*
Y0503049D01*
X0398942Y0504049D02*
Y0503849D01*
X0398742D01*
X0399142D01*
X0398942D01*
Y0503249D01*
X0399142Y0503049D01*
X0386365Y0504049D02*
X0386165Y0504249D01*
X0385766D01*
X0385566Y0504049D01*
Y0503849D01*
X0385766Y0503649D01*
X0386165D01*
X0386365Y0503449D01*
Y0503249D01*
X0386165Y0503049D01*
X0385766D01*
X0385566Y0503249D01*
X0386765Y0503849D02*
Y0503249D01*
X0386965Y0503049D01*
X0387565D01*
Y0502849D01*
X0387365Y0502649D01*
X0387165D01*
X0387565Y0503049D02*
Y0503849D01*
X0387965Y0503049D02*
Y0503849D01*
X0388165D01*
X0388365Y0503649D01*
Y0503049D01*
Y0503649D01*
X0388565Y0503849D01*
X0388765Y0503649D01*
Y0503049D01*
X0389164Y0504249D02*
Y0503049D01*
X0389764D01*
X0389964Y0503249D01*
Y0503449D01*
Y0503649D01*
X0389764Y0503849D01*
X0389164D01*
X0390564Y0503049D02*
X0390964D01*
X0391164Y0503249D01*
Y0503649D01*
X0390964Y0503849D01*
X0390564D01*
X0390364Y0503649D01*
Y0503249D01*
X0390564Y0503049D01*
X0391564D02*
X0391964D01*
X0391764D01*
Y0504249D01*
X0391564D01*
M02*
