G04*
G04 #@! TF.GenerationSoftware,Altium Limited,Altium Designer,24.7.2 (38)*
G04*
G04 Layer_Color=8421504*
%FSAX43Y43*%
%MOMM*%
G71*
G04*
G04 #@! TF.SameCoordinates,3F101F8B-C0B2-4B88-A1E1-6A066521CB33*
G04*
G04*
G04 #@! TF.FilePolarity,Positive*
G04*
G01*
G75*
%ADD10C,0.254*%
%ADD12C,0.100*%
%ADD20R,1.100X1.700*%
%ADD21R,1.700X1.100*%
G04:AMPARAMS|DCode=22|XSize=1.2mm|YSize=1.2mm|CornerRadius=0.12mm|HoleSize=0mm|Usage=FLASHONLY|Rotation=270.000|XOffset=0mm|YOffset=0mm|HoleType=Round|Shape=RoundedRectangle|*
%AMROUNDEDRECTD22*
21,1,1.200,0.960,0,0,270.0*
21,1,0.960,1.200,0,0,270.0*
1,1,0.240,-0.480,-0.480*
1,1,0.240,-0.480,0.480*
1,1,0.240,0.480,0.480*
1,1,0.240,0.480,-0.480*
%
%ADD22ROUNDEDRECTD22*%
%ADD23R,1.500X1.500*%
%ADD24R,1.900X1.700*%
G04:AMPARAMS|DCode=25|XSize=1mm|YSize=1.2mm|CornerRadius=0.15mm|HoleSize=0mm|Usage=FLASHONLY|Rotation=90.000|XOffset=0mm|YOffset=0mm|HoleType=Round|Shape=RoundedRectangle|*
%AMROUNDEDRECTD25*
21,1,1.000,0.900,0,0,90.0*
21,1,0.700,1.200,0,0,90.0*
1,1,0.300,0.450,0.350*
1,1,0.300,0.450,-0.350*
1,1,0.300,-0.450,-0.350*
1,1,0.300,-0.450,0.350*
%
%ADD25ROUNDEDRECTD25*%
G04:AMPARAMS|DCode=26|XSize=1.4mm|YSize=1.8mm|CornerRadius=0.14mm|HoleSize=0mm|Usage=FLASHONLY|Rotation=0.000|XOffset=0mm|YOffset=0mm|HoleType=Round|Shape=RoundedRectangle|*
%AMROUNDEDRECTD26*
21,1,1.400,1.520,0,0,0.0*
21,1,1.120,1.800,0,0,0.0*
1,1,0.280,0.560,-0.760*
1,1,0.280,-0.560,-0.760*
1,1,0.280,-0.560,0.760*
1,1,0.280,0.560,0.760*
%
%ADD26ROUNDEDRECTD26*%
%ADD27R,1.700X1.900*%
D10*
X0471749Y0548762D02*
G03*
X0472311Y0549324I0000000J0000562D01*
G01*
X0471186Y0549324D02*
G03*
X0471749Y0548762I0000563J0000000D01*
G01*
X0472311Y0554824D02*
G03*
X0471749Y0555387I-0000562J0000000D01*
G01*
X0471749D02*
G03*
X0471186Y0554824I0000000J-0000562D01*
G01*
X0465466Y0548770D02*
G03*
X0466028Y0549333I0000000J0000562D01*
G01*
X0464903Y0549333D02*
G03*
X0465466Y0548770I0000563J0000000D01*
G01*
X0466028Y0554833D02*
G03*
X0465466Y0555395I-0000562J0000000D01*
G01*
X0465466D02*
G03*
X0464903Y0554833I0000000J-0000562D01*
G01*
X0490234Y0537478D02*
G03*
X0490797Y0538041I0000000J0000562D01*
G01*
X0489672Y0538041D02*
G03*
X0490234Y0537478I0000563J0000000D01*
G01*
X0490797Y0543541D02*
G03*
X0490234Y0544103I-0000562J0000000D01*
G01*
X0490234D02*
G03*
X0489672Y0543541I0000000J-0000562D01*
G01*
X0490234Y0546103D02*
G03*
X0490797Y0546666I0000000J0000562D01*
G01*
X0489672Y0546666D02*
G03*
X0490234Y0546103I0000563J0000000D01*
G01*
X0490797Y0552166D02*
G03*
X0490234Y0552728I-0000562J0000000D01*
G01*
X0490234D02*
G03*
X0489672Y0552166I0000000J-0000562D01*
G01*
X0490234Y0554728D02*
G03*
X0490797Y0555291I0000000J0000562D01*
G01*
X0489672Y0555291D02*
G03*
X0490234Y0554728I0000563J0000000D01*
G01*
X0490797Y0560791D02*
G03*
X0490234Y0561353I-0000562J0000000D01*
G01*
X0490234D02*
G03*
X0489672Y0560791I0000000J-0000562D01*
G01*
X0490234Y0563353D02*
G03*
X0490797Y0563916I0000000J0000562D01*
G01*
X0489672Y0563916D02*
G03*
X0490234Y0563353I0000563J0000000D01*
G01*
X0490797Y0569416D02*
G03*
X0490234Y0569978I-0000562J0000000D01*
G01*
X0490234D02*
G03*
X0489672Y0569416I0000000J-0000562D01*
G01*
X0488360Y0573380D02*
G03*
X0488360Y0574176I-0000398J0000398D01*
G01*
X0487565Y0573380D02*
G03*
X0488360Y0573380I0000398J0000398D01*
G01*
X0484471Y0578065D02*
G03*
X0483676Y0578065I-0000398J-0000398D01*
G01*
X0483676Y0578065D02*
G03*
X0483676Y0577269I0000398J-0000398D01*
G01*
X0480924Y0581787D02*
G03*
X0480361Y0582349I-0000562J0000000D01*
G01*
X0480361Y0581224D02*
G03*
X0480924Y0581787I0000000J0000563D01*
G01*
X0474861Y0582349D02*
G03*
X0474299Y0581787I0000000J-0000562D01*
G01*
Y0581787D02*
G03*
X0474861Y0581224I0000562J0000000D01*
G01*
X0472299Y0581787D02*
G03*
X0471736Y0582349I-0000562J0000000D01*
G01*
X0471736Y0581224D02*
G03*
X0472299Y0581787I0000000J0000563D01*
G01*
X0466236Y0582349D02*
G03*
X0465674Y0581787I0000000J-0000562D01*
G01*
Y0581787D02*
G03*
X0466236Y0581224I0000562J0000000D01*
G01*
X0463674Y0581787D02*
G03*
X0463111Y0582349I-0000562J0000000D01*
G01*
X0463111Y0581224D02*
G03*
X0463674Y0581787I0000000J0000563D01*
G01*
X0457611Y0582349D02*
G03*
X0457049Y0581787I0000000J-0000562D01*
G01*
Y0581787D02*
G03*
X0457611Y0581224I0000562J0000000D01*
G01*
X0455049Y0581787D02*
G03*
X0454486Y0582349I-0000562J0000000D01*
G01*
X0454486Y0581224D02*
G03*
X0455049Y0581787I0000000J0000563D01*
G01*
X0448986Y0582349D02*
G03*
X0448424Y0581787I0000000J-0000562D01*
G01*
Y0581787D02*
G03*
X0448986Y0581224I0000562J0000000D01*
G01*
X0446424Y0581787D02*
G03*
X0445861Y0582349I-0000562J0000000D01*
G01*
X0445861Y0581224D02*
G03*
X0446424Y0581787I0000000J0000563D01*
G01*
X0440361Y0582349D02*
G03*
X0439799Y0581787I0000000J-0000562D01*
G01*
Y0581787D02*
G03*
X0440361Y0581224I0000562J0000000D01*
G01*
X0437799Y0581787D02*
G03*
X0437236Y0582349I-0000562J0000000D01*
G01*
X0437236Y0581224D02*
G03*
X0437799Y0581787I0000000J0000563D01*
G01*
X0431736Y0582349D02*
G03*
X0431174Y0581787I0000000J-0000562D01*
G01*
Y0581787D02*
G03*
X0431736Y0581224I0000562J0000000D01*
G01*
X0429174Y0581787D02*
G03*
X0428611Y0582349I-0000562J0000000D01*
G01*
X0428611Y0581224D02*
G03*
X0429174Y0581787I0000000J0000563D01*
G01*
X0423111Y0582349D02*
G03*
X0422549Y0581787I0000000J-0000562D01*
G01*
Y0581787D02*
G03*
X0423111Y0581224I0000562J0000000D01*
G01*
X0420549Y0581787D02*
G03*
X0419986Y0582349I-0000562J0000000D01*
G01*
X0419986Y0581224D02*
G03*
X0420549Y0581787I0000000J0000563D01*
G01*
X0414486Y0582349D02*
G03*
X0413924Y0581787I0000000J-0000562D01*
G01*
Y0581787D02*
G03*
X0414486Y0581224I0000562J0000000D01*
G01*
X0411924Y0581787D02*
G03*
X0411361Y0582349I-0000562J0000000D01*
G01*
X0411361Y0581224D02*
G03*
X0411924Y0581787I0000000J0000563D01*
G01*
X0405861Y0582349D02*
G03*
X0405299Y0581787I0000000J-0000562D01*
G01*
Y0581787D02*
G03*
X0405861Y0581224I0000562J0000000D01*
G01*
X0471186Y0549324D02*
Y0554824D01*
X0472311Y0549324D02*
Y0554824D01*
X0464903Y0549333D02*
Y0554833D01*
X0466028Y0549333D02*
Y0554833D01*
X0489672Y0538041D02*
Y0543541D01*
X0490797Y0538041D02*
Y0543541D01*
X0489672Y0546666D02*
Y0552166D01*
X0490797Y0546666D02*
Y0552166D01*
X0489672Y0555291D02*
Y0560791D01*
X0490797Y0555291D02*
Y0560791D01*
X0489672Y0563916D02*
Y0569416D01*
X0490797Y0563916D02*
Y0569416D01*
X0483676Y0577269D02*
X0487565Y0573380D01*
X0484471Y0578065D02*
X0488360Y0574176D01*
X0474861Y0581224D02*
X0480361D01*
X0474861Y0582349D02*
X0480361D01*
X0466236Y0581224D02*
X0471736D01*
X0466236Y0582349D02*
X0471736D01*
X0457611Y0581224D02*
X0463111D01*
X0457611Y0582349D02*
X0463111D01*
X0448986Y0581224D02*
X0454486D01*
X0448986Y0582349D02*
X0454486D01*
X0440361Y0581224D02*
X0445861D01*
X0440361Y0582349D02*
X0445861D01*
X0431736Y0581224D02*
X0437236D01*
X0431736Y0582349D02*
X0437236D01*
X0423111Y0581224D02*
X0428611D01*
X0423111Y0582349D02*
X0428611D01*
X0414486Y0581224D02*
X0419986D01*
X0414486Y0582349D02*
X0419986D01*
X0405862Y0581224D02*
X0411361D01*
X0405861Y0582349D02*
X0411361D01*
D12*
X0499566Y0535195D02*
G03*
X0502566Y0538195I-0000000J0003000D01*
G01*
X0502566Y0672195D02*
G03*
X0499566Y0675195I-0003000J0000000D01*
G01*
X0405566Y0675195D02*
G03*
X0402566Y0672195I-0000000J-0003000D01*
G01*
X0402566Y0538195D02*
G03*
X0405566Y0535195I0003000J-0000000D01*
G01*
X0402566Y0538195D02*
X0402566Y0672195D01*
X0405566Y0535195D02*
X0499566Y0535195D01*
X0502566Y0538195D02*
X0502566Y0672195D01*
X0405566Y0675195D02*
X0499566Y0675195D01*
D20*
X0426655Y0592296D02*
D03*
X0429355D02*
D03*
X0426656Y0594546D02*
D03*
X0429355D02*
D03*
X0486121Y0568028D02*
D03*
X0483421D02*
D03*
X0457972Y0633958D02*
D03*
X0460672D02*
D03*
Y0631224D02*
D03*
X0457972D02*
D03*
X0439822Y0633958D02*
D03*
X0442522D02*
D03*
X0442522Y0631258D02*
D03*
X0439822D02*
D03*
X0476122Y0633858D02*
D03*
X0478822D02*
D03*
X0478822Y0631258D02*
D03*
X0476122D02*
D03*
D21*
X0485473Y0591527D02*
D03*
Y0588827D02*
D03*
X0487973D02*
D03*
Y0591527D02*
D03*
X0482973Y0588827D02*
D03*
Y0591527D02*
D03*
X0495066Y0567768D02*
D03*
Y0570468D02*
D03*
X0496841Y0542282D02*
D03*
Y0544982D02*
D03*
X0494041D02*
D03*
Y0542282D02*
D03*
X0452152Y0620024D02*
D03*
Y0622724D02*
D03*
X0434002Y0620024D02*
D03*
Y0622724D02*
D03*
X0470302Y0620024D02*
D03*
Y0622724D02*
D03*
X0417709Y0585224D02*
D03*
X0417709Y0587924D02*
D03*
X0429508Y0633508D02*
D03*
X0429508Y0630808D02*
D03*
X0412697Y0623650D02*
D03*
Y0626350D02*
D03*
X0415237Y0626350D02*
D03*
Y0623650D02*
D03*
X0485473Y0665597D02*
D03*
Y0662897D02*
D03*
X0487973Y0657817D02*
D03*
Y0660517D02*
D03*
Y0665597D02*
D03*
Y0662897D02*
D03*
X0436542Y0620024D02*
D03*
Y0622724D02*
D03*
X0485473Y0653252D02*
D03*
Y0650552D02*
D03*
X0487973Y0645472D02*
D03*
Y0648172D02*
D03*
Y0653252D02*
D03*
Y0650552D02*
D03*
X0485473Y0640907D02*
D03*
Y0638207D02*
D03*
X0454692Y0620024D02*
D03*
Y0622724D02*
D03*
X0487973Y0633127D02*
D03*
Y0635827D02*
D03*
Y0640907D02*
D03*
Y0638207D02*
D03*
X0485473Y0628562D02*
D03*
Y0625862D02*
D03*
X0487973Y0620782D02*
D03*
Y0623482D02*
D03*
Y0628562D02*
D03*
Y0625862D02*
D03*
X0472842Y0620024D02*
D03*
Y0622724D02*
D03*
X0485473Y0616217D02*
D03*
X0485473Y0613517D02*
D03*
X0487973Y0608437D02*
D03*
Y0611137D02*
D03*
Y0616217D02*
D03*
Y0613517D02*
D03*
X0485473Y0603872D02*
D03*
Y0601172D02*
D03*
X0487973Y0596092D02*
D03*
Y0598792D02*
D03*
Y0603872D02*
D03*
X0487973Y0601172D02*
D03*
D22*
X0496841Y0548422D02*
D03*
Y0550522D02*
D03*
X0457145Y0620220D02*
D03*
Y0622320D02*
D03*
X0438995Y0620220D02*
D03*
Y0622320D02*
D03*
X0475295Y0620221D02*
D03*
Y0622320D02*
D03*
X0417709Y0590224D02*
D03*
Y0592324D02*
D03*
X0429508Y0628508D02*
D03*
X0429508Y0626408D02*
D03*
X0417591Y0623946D02*
D03*
Y0626046D02*
D03*
D23*
X0472721Y0570543D02*
D03*
Y0565443D02*
D03*
X0481421Y0570543D02*
D03*
Y0565443D02*
D03*
D24*
X0495066D02*
D03*
X0486066D02*
D03*
X0495066Y0562903D02*
D03*
X0486066D02*
D03*
D25*
X0460672Y0636791D02*
D03*
Y0638691D02*
D03*
X0458472Y0637741D02*
D03*
X0442522Y0636791D02*
D03*
Y0638691D02*
D03*
X0440322Y0637741D02*
D03*
X0478822Y0636791D02*
D03*
Y0638691D02*
D03*
X0476622Y0637741D02*
D03*
D26*
X0455709Y0637741D02*
D03*
X0452309D02*
D03*
X0437559Y0637741D02*
D03*
X0434159D02*
D03*
X0473859Y0637741D02*
D03*
X0470459D02*
D03*
D27*
X0454692Y0624909D02*
D03*
Y0633909D02*
D03*
X0452152Y0624909D02*
D03*
Y0633909D02*
D03*
X0436542Y0624909D02*
D03*
Y0633909D02*
D03*
X0434002Y0624909D02*
D03*
Y0633909D02*
D03*
X0472842Y0624909D02*
D03*
Y0633909D02*
D03*
X0470302Y0624909D02*
D03*
Y0633909D02*
D03*
X0415237Y0628535D02*
D03*
Y0637535D02*
D03*
X0412697Y0628535D02*
D03*
Y0637535D02*
D03*
M02*
