G04*
G04 #@! TF.GenerationSoftware,Altium Limited,Altium Designer,24.7.2 (38)*
G04*
G04 Layer_Physical_Order=2*
G04 Layer_Color=16737843*
%FSAX43Y43*%
%MOMM*%
G71*
G04*
G04 #@! TF.SameCoordinates,3F101F8B-C0B2-4B88-A1E1-6A066521CB33*
G04*
G04*
G04 #@! TF.FilePolarity,Positive*
G04*
G01*
G75*
%ADD10C,0.254*%
%ADD12C,0.100*%
%ADD16C,0.400*%
%ADD41C,3.300*%
%ADD51C,1.600*%
%ADD53C,0.450*%
%ADD55C,2.500*%
%ADD56C,2.000*%
%ADD57C,3.000*%
%ADD58C,2.800*%
%ADD59C,3.200*%
%ADD60C,5.500*%
%ADD61C,3.700*%
%ADD62O,2.000X1.600*%
G04:AMPARAMS|DCode=63|XSize=2mm|YSize=1.6mm|CornerRadius=0.4mm|HoleSize=0mm|Usage=FLASHONLY|Rotation=180.000|XOffset=0mm|YOffset=0mm|HoleType=Round|Shape=RoundedRectangle|*
%AMROUNDEDRECTD63*
21,1,2.000,0.800,0,0,180.0*
21,1,1.200,1.600,0,0,180.0*
1,1,0.800,-0.600,0.400*
1,1,0.800,0.600,0.400*
1,1,0.800,0.600,-0.400*
1,1,0.800,-0.600,-0.400*
%
%ADD63ROUNDEDRECTD63*%
%ADD64O,2.500X4.000*%
%ADD65O,1.850X2.250*%
%ADD66O,1.800X2.800*%
%ADD67O,1.800X2.100*%
%ADD68C,1.500*%
%ADD69C,1.000*%
G36*
X0497107Y0674685D02*
X0497251Y0674335D01*
X0497163Y0674247D01*
X0496872Y0673846D01*
X0496647Y0673404D01*
X0496494Y0672933D01*
X0496416Y0672443D01*
Y0671947D01*
X0496494Y0671458D01*
X0496647Y0670986D01*
X0496872Y0670544D01*
X0497163Y0670143D01*
X0497514Y0669793D01*
X0497915Y0669501D01*
X0498357Y0669276D01*
X0498828Y0669123D01*
X0499318Y0669045D01*
X0499814D01*
X0500304Y0669123D01*
X0500775Y0669276D01*
X0501217Y0669501D01*
X0501618Y0669793D01*
X0501706Y0669881D01*
X0502056Y0669736D01*
X0502056Y0540655D01*
X0501706Y0540510D01*
X0501618Y0540598D01*
X0501217Y0540889D01*
X0500775Y0541115D01*
X0500303Y0541268D01*
X0500032Y0541311D01*
X0499916Y0541684D01*
X0499962Y0541730D01*
X0500080Y0541935D01*
X0500141Y0542164D01*
Y0542401D01*
X0500080Y0542630D01*
X0499962Y0542835D01*
X0499916Y0542881D01*
X0499906Y0542899D01*
X0499902Y0542903D01*
X0499900Y0542910D01*
X0499890Y0542941D01*
X0499880Y0542989D01*
X0499871Y0543045D01*
X0499851Y0543332D01*
X0499849Y0543445D01*
X0499847Y0543458D01*
Y0563974D01*
X0499851D01*
X0499814Y0564445D01*
X0499703Y0564905D01*
X0499522Y0565342D01*
X0499275Y0565745D01*
X0498972Y0566101D01*
X0498970Y0566099D01*
X0498968Y0566099D01*
X0494028Y0571039D01*
X0494014Y0571050D01*
X0493641Y0571467D01*
X0493307Y0571938D01*
X0493027Y0572443D01*
X0492806Y0572977D01*
X0492647Y0573531D01*
X0492604Y0573781D01*
X0492583Y0573924D01*
X0492576Y0574001D01*
X0492574Y0574068D01*
X0492576Y0574122D01*
X0492581Y0574161D01*
X0492586Y0574183D01*
X0492586Y0574184D01*
X0492594Y0574193D01*
X0492601Y0574208D01*
X0492636Y0574243D01*
X0492754Y0574448D01*
X0492816Y0574677D01*
Y0574914D01*
X0492754Y0575143D01*
X0492636Y0575348D01*
X0492468Y0575516D01*
X0492263Y0575634D01*
X0492034Y0575695D01*
X0491797D01*
X0491568Y0575634D01*
X0491363Y0575516D01*
X0491196Y0575348D01*
X0491077Y0575143D01*
X0491016Y0574914D01*
Y0574677D01*
X0491077Y0574448D01*
X0491196Y0574243D01*
X0491251Y0574188D01*
X0491257Y0574177D01*
X0491265Y0574160D01*
X0491274Y0574134D01*
X0491384Y0573685D01*
X0491406Y0573564D01*
X0491414Y0573543D01*
X0491430Y0573437D01*
X0491582Y0572831D01*
X0491792Y0572244D01*
X0492059Y0571680D01*
X0492379Y0571145D01*
X0492751Y0570644D01*
X0493170Y0570182D01*
X0493172Y0570184D01*
X0493172D01*
X0493172Y0570183D01*
X0498112Y0565243D01*
X0498124Y0565234D01*
X0498336Y0564975D01*
X0498503Y0564664D01*
X0498605Y0564326D01*
X0498638Y0563991D01*
X0498636Y0563974D01*
Y0543462D01*
X0498634Y0543451D01*
X0498628Y0543222D01*
X0498612Y0543048D01*
X0498603Y0542989D01*
X0498592Y0542941D01*
X0498583Y0542910D01*
X0498580Y0542903D01*
X0498577Y0542899D01*
X0498567Y0542881D01*
X0498521Y0542835D01*
X0498403Y0542630D01*
X0498341Y0542401D01*
Y0542164D01*
X0498403Y0541935D01*
X0498521Y0541730D01*
X0498667Y0541584D01*
X0498670Y0541465D01*
X0498617Y0541199D01*
X0498357Y0541115D01*
X0497915Y0540889D01*
X0497514Y0540598D01*
X0497163Y0540247D01*
X0496872Y0539846D01*
X0496647Y0539404D01*
X0496493Y0538933D01*
X0496416Y0538443D01*
Y0537947D01*
X0496493Y0537458D01*
X0496647Y0536986D01*
X0496872Y0536544D01*
X0497163Y0536143D01*
X0497251Y0536055D01*
X0497106Y0535705D01*
X0492535Y0535705D01*
X0492535Y0546874D01*
X0492819Y0546991D01*
X0492885Y0547001D01*
X0493038Y0546883D01*
X0493233Y0546803D01*
X0493441Y0546775D01*
X0494641D01*
X0494850Y0546803D01*
X0495045Y0546883D01*
X0495212Y0547012D01*
X0495340Y0547179D01*
X0495421Y0547373D01*
X0495448Y0547582D01*
Y0548382D01*
X0495421Y0548591D01*
X0495340Y0548786D01*
X0495212Y0548953D01*
X0495045Y0549081D01*
X0494850Y0549162D01*
X0494641Y0549189D01*
X0493441D01*
X0493233Y0549162D01*
X0493038Y0549081D01*
X0492885Y0548964D01*
X0492819Y0548974D01*
X0492535Y0549090D01*
Y0552223D01*
X0492678Y0552303D01*
X0492885Y0552336D01*
X0492989Y0552210D01*
X0493172Y0552060D01*
X0493380Y0551948D01*
X0493606Y0551880D01*
X0493841Y0551856D01*
X0494241D01*
X0494477Y0551880D01*
X0494703Y0551948D01*
X0494911Y0552060D01*
X0495094Y0552210D01*
X0495244Y0552392D01*
X0495355Y0552601D01*
X0495424Y0552827D01*
X0495447Y0553062D01*
X0495424Y0553297D01*
X0495355Y0553524D01*
X0495244Y0553732D01*
X0495094Y0553915D01*
X0494911Y0554065D01*
X0494703Y0554176D01*
X0494477Y0554245D01*
X0494241Y0554268D01*
X0493841D01*
X0493606Y0554245D01*
X0493380Y0554176D01*
X0493172Y0554065D01*
X0492989Y0553915D01*
X0492885Y0553788D01*
X0492678Y0553822D01*
X0492535Y0553901D01*
X0492535Y0565910D01*
X0492529Y0566308D01*
X0492477Y0567103D01*
X0492373Y0567893D01*
X0492217Y0568674D01*
X0492011Y0569443D01*
X0491755Y0570197D01*
X0491450Y0570933D01*
X0491098Y0571647D01*
X0490700Y0572337D01*
X0490257Y0572999D01*
X0489773Y0573631D01*
X0489248Y0574229D01*
X0488971Y0574516D01*
X0488971Y0574516D01*
X0481606Y0581880D01*
X0481558Y0581926D01*
X0481336Y0582184D01*
X0481127Y0582394D01*
X0481062Y0582458D01*
X0480968Y0582552D01*
X0480968Y0582552D01*
X0480671Y0582849D01*
X0465026D01*
Y0583933D01*
X0465034Y0583972D01*
X0465034Y0584095D01*
X0465034Y0584095D01*
X0465034Y0597984D01*
Y0598076D01*
X0465026Y0598115D01*
Y0598155D01*
X0464990Y0598334D01*
X0464975Y0598371D01*
X0464967Y0598410D01*
X0464898Y0598579D01*
X0464875Y0598612D01*
X0464860Y0598649D01*
X0464759Y0598801D01*
X0464730Y0598829D01*
X0464708Y0598862D01*
X0464579Y0598991D01*
X0464546Y0599014D01*
X0464517Y0599042D01*
X0464366Y0599143D01*
X0464329Y0599159D01*
X0464295Y0599181D01*
X0464127Y0599251D01*
X0464088Y0599258D01*
X0464050Y0599274D01*
X0463872Y0599309D01*
X0463832D01*
X0463792Y0599317D01*
X0463701D01*
X0463610Y0599317D01*
X0463571Y0599309D01*
X0463530D01*
X0463352Y0599274D01*
X0463315Y0599258D01*
X0463275Y0599251D01*
X0463107Y0599181D01*
X0463073Y0599159D01*
X0463036Y0599143D01*
X0462885Y0599042D01*
X0462856Y0599014D01*
X0462823Y0598991D01*
X0462694Y0598862D01*
X0462672Y0598829D01*
X0462643Y0598801D01*
X0462542Y0598649D01*
X0462527Y0598612D01*
X0462504Y0598579D01*
X0462458Y0598466D01*
X0462449Y0598423D01*
X0462433Y0598382D01*
X0462428Y0598352D01*
X0462395Y0598244D01*
X0462379Y0598082D01*
X0462375Y0598057D01*
X0462375Y0598039D01*
X0462371Y0597999D01*
X0462368Y0597984D01*
X0462368Y0597984D01*
X0462368Y0585254D01*
X0462365Y0585181D01*
X0462334Y0585029D01*
X0462279Y0584896D01*
X0462198Y0584775D01*
X0462096Y0584673D01*
X0461976Y0584592D01*
X0461842Y0584537D01*
X0461690Y0584507D01*
X0461617Y0584503D01*
X0414620Y0584503D01*
X0414433Y0584853D01*
X0414464Y0584899D01*
X0414569Y0585154D01*
X0414623Y0585425D01*
Y0585700D01*
X0414569Y0585971D01*
X0414464Y0586226D01*
X0414311Y0586455D01*
X0414116Y0586650D01*
X0413886Y0586803D01*
X0413632Y0586909D01*
X0413361Y0586963D01*
X0413085D01*
X0412815Y0586909D01*
X0412560Y0586803D01*
X0412331Y0586650D01*
X0412136Y0586455D01*
X0411983Y0586226D01*
X0411877Y0585971D01*
X0411823Y0585700D01*
Y0585425D01*
X0411877Y0585154D01*
X0411983Y0584899D01*
X0412013Y0584853D01*
X0411826Y0584503D01*
X0411501D01*
X0411451Y0584506D01*
X0411343Y0584527D01*
X0411251Y0584565D01*
X0411169Y0584620D01*
X0411098Y0584691D01*
X0411043Y0584773D01*
X0411005Y0584865D01*
X0410983Y0584973D01*
X0410981Y0585023D01*
X0410981Y0587328D01*
X0410973Y0587367D01*
Y0587529D01*
X0410894Y0587925D01*
X0410740Y0588299D01*
X0410516Y0588634D01*
X0410230Y0588920D01*
X0409894Y0589144D01*
X0409521Y0589299D01*
X0409125Y0589378D01*
X0408721D01*
X0408325Y0589299D01*
X0407952Y0589144D01*
X0407616Y0588920D01*
X0407331Y0588634D01*
X0407106Y0588299D01*
X0406952Y0587925D01*
X0406873Y0587529D01*
Y0587367D01*
X0406865Y0587328D01*
Y0584088D01*
X0406865Y0583966D01*
X0406873Y0583926D01*
Y0583886D01*
X0406921Y0583646D01*
X0406936Y0583609D01*
X0406944Y0583569D01*
X0407038Y0583343D01*
X0407060Y0583310D01*
X0407075Y0583273D01*
X0407186Y0583107D01*
X0407124Y0582867D01*
X0407017Y0582757D01*
X0405750Y0582757D01*
X0405750Y0582757D01*
X0405710Y0582749D01*
X0403076Y0582749D01*
X0403076Y0669736D01*
X0403426Y0669881D01*
X0403514Y0669793D01*
X0403915Y0669501D01*
X0404357Y0669276D01*
X0404828Y0669123D01*
X0405318Y0669045D01*
X0405814D01*
X0406304Y0669123D01*
X0406775Y0669276D01*
X0407217Y0669501D01*
X0407618Y0669793D01*
X0407969Y0670143D01*
X0408260Y0670544D01*
X0408485Y0670986D01*
X0408638Y0671458D01*
X0408716Y0671947D01*
Y0672443D01*
X0408638Y0672933D01*
X0408485Y0673404D01*
X0408260Y0673846D01*
X0407969Y0674247D01*
X0407881Y0674335D01*
X0408026Y0674685D01*
X0497107Y0674685D01*
D02*
G37*
G36*
X0463701Y0598909D02*
X0463792D01*
X0463971Y0598874D01*
X0464139Y0598804D01*
X0464291Y0598703D01*
X0464420Y0598574D01*
X0464521Y0598423D01*
X0464590Y0598254D01*
X0464626Y0598076D01*
Y0597984D01*
X0464626Y0584095D01*
X0464626Y0584095D01*
X0464626Y0583972D01*
X0464578Y0583731D01*
X0464484Y0583503D01*
X0464347Y0583298D01*
X0464173Y0583124D01*
X0463968Y0582988D01*
X0463741Y0582893D01*
X0463520Y0582849D01*
X0462776D01*
Y0582845D01*
X0408516Y0582845D01*
X0408393Y0582845D01*
X0408153Y0582893D01*
X0407927Y0582987D01*
X0407724Y0583123D01*
X0407551Y0583296D01*
X0407415Y0583499D01*
X0407321Y0583725D01*
X0407273Y0583966D01*
X0407273Y0584088D01*
Y0587328D01*
X0410573D01*
X0410573Y0585013D01*
X0410578Y0584923D01*
X0410613Y0584747D01*
X0410681Y0584580D01*
X0410781Y0584431D01*
X0410909Y0584304D01*
X0411058Y0584204D01*
X0411224Y0584135D01*
X0411401Y0584100D01*
X0411491Y0584095D01*
X0461627Y0584095D01*
X0461627Y0584095D01*
X0461740Y0584101D01*
X0461961Y0584145D01*
X0462169Y0584231D01*
X0462356Y0584356D01*
X0462515Y0584515D01*
X0462640Y0584703D01*
X0462727Y0584911D01*
X0462770Y0585131D01*
X0462776Y0585244D01*
X0462776Y0597984D01*
X0462776Y0597984D01*
X0462835Y0598310D01*
X0462881Y0598423D01*
X0462983Y0598574D01*
X0463111Y0598703D01*
X0463263Y0598804D01*
X0463431Y0598874D01*
X0463610Y0598909D01*
X0463701Y0598909D01*
D02*
G37*
G36*
X0492242Y0574406D02*
X0492215Y0574356D01*
X0492194Y0574298D01*
X0492179Y0574231D01*
X0492170Y0574155D01*
X0492166Y0574071D01*
X0492169Y0573978D01*
X0492177Y0573876D01*
X0492212Y0573647D01*
X0491807Y0573638D01*
X0491783Y0573770D01*
X0491665Y0574254D01*
X0491642Y0574315D01*
X0491619Y0574365D01*
X0491597Y0574403D01*
X0491575Y0574430D01*
X0492275Y0574447D01*
X0492242Y0574406D01*
D02*
G37*
G36*
X0472331Y0578008D02*
X0472332Y0578008D01*
X0472332D01*
X0472653Y0577966D01*
X0472665Y0577964D01*
X0472873Y0577878D01*
X0473061Y0577753D01*
X0473220Y0577593D01*
X0473345Y0577406D01*
X0473431Y0577198D01*
X0473475Y0576977D01*
X0473475Y0576864D01*
X0473475Y0569970D01*
X0473475Y0569970D01*
X0473475Y0569893D01*
X0473445Y0569742D01*
X0473386Y0569600D01*
X0473301Y0569472D01*
X0473192Y0569363D01*
X0473064Y0569277D01*
X0472921Y0569218D01*
X0472770Y0569188D01*
X0472693Y0569188D01*
X0467507Y0569188D01*
X0467371Y0569188D01*
X0467103Y0569241D01*
X0466851Y0569346D01*
X0466624Y0569497D01*
X0466431Y0569690D01*
X0466280Y0569917D01*
X0466176Y0570169D01*
X0466122Y0570437D01*
X0466122Y0570573D01*
Y0576845D01*
Y0576960D01*
X0466167Y0577185D01*
X0466255Y0577396D01*
X0466382Y0577587D01*
X0466544Y0577748D01*
X0466734Y0577876D01*
X0466946Y0577963D01*
X0467170Y0578008D01*
X0472331D01*
X0472331Y0578008D01*
D02*
G37*
G36*
X0407130Y0575099D02*
X0424231Y0575099D01*
X0424231Y0575099D01*
X0424231Y0575099D01*
X0424555Y0575036D01*
X0424643Y0575000D01*
X0424786Y0574905D01*
X0424907Y0574783D01*
X0425002Y0574641D01*
X0425068Y0574483D01*
X0425101Y0574315D01*
X0425101Y0574229D01*
X0425101Y0569619D01*
X0425101D01*
X0425101Y0569532D01*
X0425068Y0569362D01*
X0425001Y0569202D01*
X0424905Y0569057D01*
X0424782Y0568935D01*
X0424638Y0568838D01*
X0424478Y0568772D01*
X0424308Y0568738D01*
X0424221Y0568738D01*
X0407965Y0568738D01*
X0407965Y0568738D01*
X0407800D01*
X0407477Y0568802D01*
X0407172Y0568928D01*
X0406898Y0569112D01*
X0406665Y0569345D01*
X0406482Y0569619D01*
X0406356Y0569923D01*
X0406291Y0570246D01*
Y0570411D01*
Y0574260D01*
X0406291Y0574343D01*
X0406324Y0574505D01*
X0406387Y0574657D01*
X0406479Y0574795D01*
X0406596Y0574912D01*
X0406733Y0575003D01*
X0406886Y0575067D01*
X0407048Y0575099D01*
X0407130Y0575099D01*
D02*
G37*
G36*
X0473475Y0562458D02*
X0473475Y0562370D01*
X0473441Y0562198D01*
X0473374Y0562036D01*
X0473277Y0561891D01*
X0473153Y0561767D01*
X0473007Y0561669D01*
X0472845Y0561602D01*
X0472673Y0561568D01*
X0472585Y0561568D01*
X0469746D01*
X0469608Y0561568D01*
X0469337Y0561622D01*
X0469081Y0561728D01*
X0468851Y0561882D01*
X0468655Y0562077D01*
X0468501Y0562307D01*
X0468395Y0562563D01*
X0468341Y0562835D01*
X0468341Y0562973D01*
Y0562973D01*
X0468341Y0565396D01*
X0468341Y0565474D01*
X0468372Y0565628D01*
X0468432Y0565773D01*
X0468519Y0565904D01*
X0468630Y0566015D01*
X0468761Y0566102D01*
X0468906Y0566162D01*
X0469060Y0566193D01*
X0469138Y0566193D01*
X0469138Y0566193D01*
X0473475D01*
X0473475Y0562458D01*
D02*
G37*
G36*
X0449479Y0564818D02*
X0449479Y0564818D01*
X0449479D01*
X0449806Y0564786D01*
X0449964Y0564754D01*
X0450266Y0564629D01*
X0450539Y0564447D01*
X0450770Y0564215D01*
X0450952Y0563943D01*
X0451078Y0563640D01*
X0451141Y0563319D01*
X0451141Y0563155D01*
X0451141Y0562780D01*
X0451141Y0562780D01*
X0451141Y0562617D01*
X0451078Y0562295D01*
X0450952Y0561993D01*
X0450770Y0561721D01*
X0450539Y0561489D01*
X0450267Y0561307D01*
X0449964Y0561182D01*
X0449643Y0561118D01*
X0449479Y0561118D01*
X0407976Y0561118D01*
X0407976Y0561118D01*
X0407814Y0561113D01*
X0407493Y0561070D01*
X0407179Y0560987D01*
X0406879Y0560862D01*
X0406599Y0560700D01*
X0406341Y0560503D01*
X0406112Y0560273D01*
X0405914Y0560016D01*
X0405752Y0559735D01*
X0405628Y0559435D01*
X0405544Y0559122D01*
X0405502Y0558800D01*
X0405496Y0558638D01*
Y0551812D01*
X0405501Y0551666D01*
X0405539Y0551376D01*
X0405615Y0551094D01*
X0405727Y0550824D01*
X0405873Y0550571D01*
X0406051Y0550339D01*
X0406257Y0550132D01*
X0406489Y0549954D01*
X0406742Y0549808D01*
X0407012Y0549696D01*
X0407295Y0549621D01*
X0407585Y0549583D01*
X0407731Y0549578D01*
X0414819D01*
Y0547131D01*
X0414819Y0547131D01*
Y0547008D01*
X0414771Y0546765D01*
X0414676Y0546537D01*
X0414539Y0546332D01*
X0414365Y0546158D01*
X0414159Y0546021D01*
X0413931Y0545926D01*
X0413689Y0545878D01*
X0413566D01*
X0404908Y0545878D01*
X0404908Y0545878D01*
X0404739Y0545878D01*
X0404409Y0545944D01*
X0404097Y0546073D01*
X0403817Y0546260D01*
X0403579Y0546499D01*
X0403391Y0546779D01*
X0403262Y0547090D01*
X0403196Y0547421D01*
X0403196Y0547590D01*
Y0563641D01*
X0403196Y0563641D01*
X0403240Y0563973D01*
X0403241Y0563980D01*
X0403329Y0564192D01*
X0403456Y0564382D01*
X0403618Y0564544D01*
X0403808Y0564671D01*
X0404019Y0564758D01*
X0404244Y0564803D01*
X0404358Y0564803D01*
X0410601Y0564803D01*
Y0564818D01*
X0449479Y0564818D01*
X0449479Y0564818D01*
D02*
G37*
G36*
X0452770Y0558565D02*
X0452770Y0558565D01*
X0452770D01*
X0453100Y0558562D01*
X0453653Y0558502D01*
X0454230Y0558376D01*
X0454790Y0558188D01*
X0455327Y0557941D01*
X0455834Y0557639D01*
X0456306Y0557283D01*
X0456702Y0556911D01*
X0456929Y0556655D01*
X0456929Y0556655D01*
X0456929Y0556655D01*
X0456929Y0556655D01*
X0456929Y0556654D01*
X0457138Y0556424D01*
X0457162Y0556401D01*
X0457591Y0556000D01*
X0458087Y0555626D01*
X0458620Y0555307D01*
X0459184Y0555048D01*
X0459773Y0554851D01*
X0460380Y0554718D01*
X0460998Y0554651D01*
X0461308Y0554643D01*
X0463231Y0554643D01*
X0463231Y0554643D01*
X0463231Y0554643D01*
X0463563Y0554600D01*
X0463569Y0554598D01*
X0463781Y0554511D01*
X0463971Y0554384D01*
X0464132Y0554222D01*
X0464259Y0554032D01*
X0464347Y0553821D01*
X0464391Y0553597D01*
X0464391Y0553482D01*
X0464391Y0550931D01*
X0464391D01*
X0464391Y0550823D01*
X0464349Y0550612D01*
X0464267Y0550413D01*
X0464147Y0550234D01*
X0463995Y0550082D01*
X0463816Y0549962D01*
X0463617Y0549880D01*
X0463406Y0549838D01*
X0463298Y0549838D01*
X0435005Y0549838D01*
X0435005Y0549838D01*
X0434881Y0549838D01*
X0434638Y0549886D01*
X0434409Y0549981D01*
X0434203Y0550119D01*
X0434027Y0550294D01*
X0433890Y0550500D01*
X0433795Y0550729D01*
X0433746Y0550972D01*
X0433746Y0551096D01*
X0433746Y0556190D01*
X0433746Y0556190D01*
Y0556346D01*
X0433787Y0556654D01*
X0433868Y0556955D01*
X0433987Y0557243D01*
X0434143Y0557512D01*
X0434332Y0557759D01*
X0434552Y0557980D01*
X0434799Y0558169D01*
X0435069Y0558325D01*
X0435357Y0558444D01*
X0435657Y0558525D01*
X0435966Y0558565D01*
X0436122Y0558565D01*
X0452770Y0558565D01*
X0452770Y0558565D01*
D02*
G37*
G36*
X0417762Y0559294D02*
X0423619Y0559294D01*
X0423619Y0559294D01*
X0423619Y0559294D01*
X0423619D01*
X0423953Y0559256D01*
X0424051Y0559237D01*
X0424321Y0559125D01*
X0424564Y0558963D01*
X0424770Y0558756D01*
X0424933Y0558513D01*
X0425044Y0558244D01*
X0425101Y0557957D01*
X0425101Y0557811D01*
X0425101Y0552660D01*
X0425101Y0552660D01*
X0425101Y0552660D01*
Y0552660D01*
X0425072Y0552338D01*
X0425034Y0552148D01*
X0424902Y0551828D01*
X0424709Y0551540D01*
X0424465Y0551295D01*
X0424177Y0551103D01*
X0423857Y0550971D01*
X0423517Y0550903D01*
X0423344Y0550903D01*
X0419191Y0550903D01*
X0419191Y0550903D01*
X0418914Y0550903D01*
X0418363Y0550961D01*
X0417822Y0551075D01*
X0417295Y0551246D01*
X0416789Y0551470D01*
X0416309Y0551746D01*
X0415860Y0552071D01*
X0415448Y0552440D01*
X0415262Y0552645D01*
X0415262Y0552645D01*
X0415169Y0552743D01*
X0414967Y0552924D01*
X0414748Y0553082D01*
X0414513Y0553217D01*
X0414266Y0553327D01*
X0414008Y0553410D01*
X0413743Y0553466D01*
X0413474Y0553495D01*
X0413339Y0553498D01*
X0410615Y0553498D01*
X0408167D01*
X0408167Y0553498D01*
X0407982Y0553498D01*
X0407620Y0553570D01*
X0407279Y0553712D01*
X0406971Y0553917D01*
X0406710Y0554178D01*
X0406505Y0554485D01*
X0406364Y0554827D01*
X0406291Y0555189D01*
X0406291Y0555374D01*
Y0555553D01*
X0406362Y0555906D01*
X0406499Y0556238D01*
X0406699Y0556537D01*
X0406953Y0556791D01*
X0407252Y0556990D01*
X0407584Y0557128D01*
X0407936Y0557198D01*
X0408116D01*
X0413379Y0557198D01*
X0413379Y0557198D01*
X0413379Y0557198D01*
X0413379Y0557198D01*
X0413523Y0557202D01*
X0413811Y0557234D01*
X0414093Y0557298D01*
X0414366Y0557393D01*
X0414627Y0557518D01*
X0414872Y0557671D01*
X0415099Y0557850D01*
X0415304Y0558054D01*
X0415398Y0558164D01*
X0415398Y0558164D01*
X0415398D01*
X0415505Y0558296D01*
X0415746Y0558534D01*
X0416012Y0558744D01*
X0416299Y0558924D01*
X0416605Y0559070D01*
X0416925Y0559181D01*
X0417256Y0559256D01*
X0417593Y0559294D01*
X0417762Y0559294D01*
D02*
G37*
G36*
X0486861Y0554613D02*
X0487005Y0554553D01*
X0487135Y0554466D01*
X0487245Y0554356D01*
X0487331Y0554227D01*
X0487353Y0554174D01*
X0487421Y0553852D01*
X0487421Y0553852D01*
X0487421Y0553852D01*
X0487421Y0553044D01*
X0487421Y0552967D01*
X0487391Y0552816D01*
X0487333Y0552674D01*
X0487247Y0552546D01*
X0487138Y0552437D01*
X0487010Y0552351D01*
X0486956Y0552329D01*
X0486641Y0552262D01*
X0486640Y0552262D01*
X0486640Y0552262D01*
X0486640Y0552262D01*
X0477011Y0552262D01*
X0476897Y0552258D01*
X0476671Y0552226D01*
X0476453Y0552163D01*
X0476245Y0552070D01*
X0476052Y0551948D01*
X0475879Y0551801D01*
X0475727Y0551630D01*
X0475602Y0551441D01*
X0475549Y0551340D01*
X0475549Y0551340D01*
X0475512Y0551262D01*
X0475417Y0551118D01*
X0475302Y0550989D01*
X0475171Y0550878D01*
X0475025Y0550786D01*
X0474868Y0550715D01*
X0474768Y0550686D01*
X0474446Y0550643D01*
X0474445Y0550643D01*
X0474445Y0550643D01*
X0474445Y0550643D01*
X0474110Y0550643D01*
X0473990Y0550643D01*
X0473754Y0550690D01*
X0473533Y0550782D01*
X0473333Y0550915D01*
X0473163Y0551085D01*
X0473030Y0551284D01*
X0472938Y0551506D01*
X0472931Y0551540D01*
X0472891Y0551861D01*
X0472891Y0551861D01*
X0472891D01*
Y0553413D01*
X0472891Y0553534D01*
X0472939Y0553772D01*
X0473031Y0553996D01*
X0473166Y0554197D01*
X0473337Y0554368D01*
X0473539Y0554503D01*
X0473763Y0554596D01*
X0474000Y0554643D01*
X0474122Y0554643D01*
X0474122Y0554643D01*
X0486708D01*
X0486861Y0554613D01*
D02*
G37*
G36*
X0499443Y0543315D02*
X0499465Y0542998D01*
X0499479Y0542913D01*
X0499495Y0542838D01*
X0499515Y0542773D01*
X0499537Y0542718D01*
X0499563Y0542674D01*
X0499591Y0542639D01*
X0498891D01*
X0498920Y0542674D01*
X0498945Y0542718D01*
X0498968Y0542773D01*
X0498987Y0542838D01*
X0499004Y0542913D01*
X0499017Y0542998D01*
X0499035Y0543199D01*
X0499041Y0543440D01*
X0499441D01*
X0499443Y0543315D01*
D02*
G37*
G36*
X0486971Y0548736D02*
X0487190Y0548646D01*
X0487386Y0548514D01*
X0487554Y0548347D01*
X0487685Y0548151D01*
X0487775Y0547932D01*
X0487821Y0547700D01*
Y0547582D01*
Y0540848D01*
Y0540710D01*
X0487768Y0540440D01*
X0487662Y0540185D01*
X0487509Y0539956D01*
X0487314Y0539761D01*
X0487085Y0539607D01*
X0486830Y0539502D01*
X0486559Y0539448D01*
X0486284D01*
X0486013Y0539502D01*
X0485758Y0539607D01*
X0485529Y0539761D01*
X0485334Y0539956D01*
X0485181Y0540185D01*
X0485075Y0540440D01*
X0485021Y0540710D01*
Y0540848D01*
Y0547562D01*
Y0547682D01*
X0485068Y0547918D01*
X0485160Y0548140D01*
X0485294Y0548340D01*
X0485464Y0548510D01*
X0485664Y0548643D01*
X0485886Y0548735D01*
X0486121Y0548782D01*
X0486740D01*
X0486971Y0548736D01*
D02*
G37*
G36*
X0450759Y0539248D02*
X0443141Y0539248D01*
Y0540455D01*
X0443191Y0540460D01*
X0443195Y0540440D01*
X0443301Y0540185D01*
X0443454Y0539956D01*
X0443649Y0539761D01*
X0443878Y0539607D01*
X0444133Y0539502D01*
X0444404Y0539448D01*
X0444679D01*
X0444950Y0539502D01*
X0445205Y0539607D01*
X0445434Y0539761D01*
X0445629Y0539956D01*
X0445782Y0540185D01*
X0445888Y0540440D01*
X0445941Y0540710D01*
Y0540986D01*
X0445888Y0541256D01*
X0445782Y0541511D01*
X0445629Y0541740D01*
X0445434Y0541935D01*
X0445205Y0542089D01*
X0444950Y0542194D01*
X0444679Y0542248D01*
X0444404D01*
X0444133Y0542194D01*
X0443878Y0542089D01*
X0443649Y0541935D01*
X0443454Y0541740D01*
X0443301Y0541511D01*
X0443195Y0541256D01*
X0443191Y0541236D01*
X0443141Y0541241D01*
Y0542448D01*
X0450759D01*
Y0539248D01*
D02*
G37*
G36*
X0458530Y0577937D02*
X0458835Y0577860D01*
X0459129Y0577746D01*
X0459407Y0577597D01*
X0459664Y0577415D01*
X0459896Y0577203D01*
X0460101Y0576963D01*
X0460275Y0576701D01*
X0460415Y0576419D01*
X0460519Y0576121D01*
X0460586Y0575814D01*
X0460600Y0575657D01*
X0460600D01*
X0460661Y0575060D01*
X0460822Y0573871D01*
X0461034Y0572691D01*
X0461297Y0571520D01*
X0461611Y0570362D01*
X0461974Y0569219D01*
X0462387Y0568093D01*
X0462848Y0566986D01*
X0463357Y0565900D01*
X0463913Y0564836D01*
X0464514Y0563798D01*
X0465159Y0562787D01*
X0465848Y0561805D01*
X0466579Y0560854D01*
X0467351Y0559936D01*
X0468161Y0559052D01*
X0468581Y0558623D01*
X0468581Y0558623D01*
X0468581Y0558623D01*
X0469902Y0557301D01*
X0469990Y0557214D01*
X0470147Y0557022D01*
X0470285Y0556816D01*
X0470402Y0556597D01*
X0470497Y0556368D01*
X0470569Y0556131D01*
X0470617Y0555888D01*
X0470622Y0555841D01*
X0470641Y0555517D01*
Y0555517D01*
X0470641D01*
X0470641Y0555517D01*
X0470641Y0541441D01*
X0470641Y0541244D01*
X0470565Y0540858D01*
X0470414Y0540494D01*
X0470195Y0540167D01*
X0469917Y0539889D01*
X0469590Y0539670D01*
X0469226Y0539519D01*
X0468840Y0539443D01*
X0468643Y0539443D01*
X0464523D01*
X0464387Y0539443D01*
X0464120Y0539496D01*
X0463869Y0539600D01*
X0463642Y0539751D01*
X0463450Y0539943D01*
X0463299Y0540170D01*
X0463195Y0540421D01*
X0463141Y0540688D01*
X0463141Y0540824D01*
X0463141Y0540824D01*
X0463141Y0542380D01*
X0463141Y0542591D01*
X0463183Y0543011D01*
X0463265Y0543425D01*
X0463388Y0543828D01*
X0463549Y0544218D01*
X0463748Y0544590D01*
X0463982Y0544941D01*
X0464250Y0545267D01*
X0464399Y0545417D01*
X0464399Y0545417D01*
X0466281Y0547298D01*
X0466362Y0547387D01*
X0466496Y0547588D01*
X0466589Y0547811D01*
X0466636Y0548048D01*
X0466641Y0548169D01*
X0466641Y0548169D01*
X0466641Y0554216D01*
X0466637Y0554392D01*
X0466601Y0554742D01*
X0466530Y0555087D01*
X0466424Y0555423D01*
X0466284Y0555746D01*
X0466112Y0556054D01*
X0465910Y0556342D01*
X0465679Y0556608D01*
X0465554Y0556732D01*
X0465554Y0556732D01*
X0455808Y0565911D01*
X0455597Y0566103D01*
X0455157Y0566467D01*
X0454696Y0566804D01*
X0454214Y0567110D01*
X0453714Y0567385D01*
X0453198Y0567629D01*
X0452667Y0567839D01*
X0452124Y0568016D01*
X0451572Y0568158D01*
X0451011Y0568266D01*
X0450444Y0568337D01*
X0449913Y0568371D01*
X0449875Y0568373D01*
X0449596Y0568378D01*
X0449589Y0568378D01*
X0449589Y0568378D01*
Y0568378D01*
X0437500Y0568378D01*
X0437358Y0568378D01*
X0437078Y0568415D01*
X0436805Y0568488D01*
X0436543Y0568596D01*
X0436298Y0568738D01*
X0436073Y0568910D01*
X0435873Y0569110D01*
X0435701Y0569335D01*
X0435560Y0569580D01*
X0435451Y0569841D01*
X0435378Y0570115D01*
X0435341Y0570395D01*
X0435341Y0570537D01*
X0435341Y0570537D01*
X0435343Y0576156D01*
X0435343Y0576334D01*
X0435413Y0576684D01*
X0435549Y0577014D01*
X0435747Y0577310D01*
X0436000Y0577562D01*
X0436296Y0577760D01*
X0436625Y0577897D01*
X0436975Y0577966D01*
X0437153Y0577967D01*
X0437153Y0577967D01*
X0458060Y0577975D01*
X0458217Y0577975D01*
X0458530Y0577937D01*
D02*
G37*
%LPC*%
G36*
X0477736Y0671659D02*
X0477548Y0671659D01*
X0477313Y0671659D01*
X0477313Y0671659D01*
X0477148D01*
X0477108Y0671652D01*
X0472416D01*
X0472377Y0671659D01*
X0472215Y0671659D01*
X0472052Y0671659D01*
X0472012Y0671652D01*
X0467203D01*
X0467147Y0671657D01*
X0467126Y0671655D01*
X0467105Y0671659D01*
X0466682Y0671659D01*
X0466643Y0671652D01*
X0459625D01*
X0459586Y0671659D01*
X0459398Y0671659D01*
X0459163Y0671659D01*
X0459163Y0671659D01*
X0458998D01*
X0458958Y0671652D01*
X0454266D01*
X0454227Y0671659D01*
X0454065Y0671659D01*
X0453902Y0671659D01*
X0453862Y0671652D01*
X0449053D01*
X0448997Y0671657D01*
X0448976Y0671655D01*
X0448955Y0671659D01*
X0448532Y0671659D01*
X0448493Y0671652D01*
X0441475D01*
X0441436Y0671659D01*
X0441248Y0671659D01*
X0440848Y0671659D01*
X0440808Y0671652D01*
X0436012D01*
X0435957Y0671657D01*
X0435915Y0671653D01*
X0435873Y0671657D01*
X0435818Y0671652D01*
X0430903D01*
X0430846Y0671657D01*
X0430826Y0671655D01*
X0430805Y0671659D01*
X0430382Y0671659D01*
X0430343Y0671652D01*
X0428266D01*
Y0671458D01*
X0428261D01*
Y0669469D01*
X0428253Y0669375D01*
X0428255Y0669358D01*
X0428251Y0669341D01*
Y0669341D01*
X0428251Y0669341D01*
X0428251Y0656945D01*
X0428251Y0656883D01*
X0428251Y0656883D01*
X0428251Y0656883D01*
Y0656821D01*
X0428259Y0656782D01*
X0428259Y0656742D01*
X0428261Y0656734D01*
Y0644911D01*
X0428259Y0644903D01*
Y0644578D01*
X0428261Y0644570D01*
Y0639185D01*
X0428659D01*
Y0639185D01*
X0429636D01*
X0429675Y0639178D01*
X0429753Y0639178D01*
X0431528Y0639178D01*
X0431548Y0639176D01*
X0431602Y0639153D01*
X0431630Y0639126D01*
X0431652Y0639071D01*
X0431654Y0639051D01*
Y0637764D01*
X0431654Y0637714D01*
X0431662Y0637674D01*
Y0637634D01*
X0431682Y0637535D01*
X0431697Y0637498D01*
X0431705Y0637459D01*
X0431727Y0637405D01*
X0431730Y0637393D01*
X0431737Y0637383D01*
X0431744Y0637366D01*
X0431764Y0637335D01*
X0431767Y0637331D01*
X0431781Y0637295D01*
X0431824Y0637231D01*
X0431849Y0637188D01*
X0432016Y0637021D01*
X0432222Y0636902D01*
X0432451Y0636841D01*
X0432688D01*
X0432700Y0636844D01*
X0434113D01*
X0434172Y0636844D01*
X0434211Y0636852D01*
X0434252D01*
X0434368Y0636875D01*
X0434405Y0636891D01*
X0434444Y0636898D01*
X0434554Y0636944D01*
X0434587Y0636966D01*
X0434624Y0636981D01*
X0434722Y0637047D01*
X0434751Y0637076D01*
X0434784Y0637098D01*
X0434868Y0637182D01*
X0434890Y0637215D01*
X0434919Y0637243D01*
X0434984Y0637342D01*
X0435000Y0637379D01*
X0435022Y0637412D01*
X0435067Y0637522D01*
X0435075Y0637561D01*
X0435091Y0637598D01*
X0435114Y0637714D01*
Y0637754D01*
X0435122Y0637794D01*
X0435122Y0637853D01*
X0435122Y0637853D01*
Y0638901D01*
X0435398Y0639178D01*
X0449402Y0639178D01*
X0449440Y0639176D01*
X0449525Y0639159D01*
X0449596Y0639130D01*
X0449660Y0639087D01*
X0449714Y0639033D01*
X0449756Y0638969D01*
X0449785Y0638899D01*
X0449802Y0638814D01*
X0449804Y0638775D01*
Y0637731D01*
X0449804Y0637636D01*
X0449804Y0637636D01*
X0449823Y0637543D01*
X0449835Y0637480D01*
X0449835Y0637480D01*
X0449835Y0637480D01*
X0449908Y0637304D01*
X0449908Y0637304D01*
X0449908Y0637304D01*
X0449953Y0637237D01*
X0449997Y0637171D01*
X0449997Y0637171D01*
X0449997Y0637171D01*
X0450131Y0637037D01*
X0450132Y0637037D01*
X0450132Y0637037D01*
X0450202Y0636989D01*
X0450264Y0636948D01*
X0450264Y0636948D01*
X0450264Y0636948D01*
X0450363Y0636907D01*
X0450372Y0636902D01*
X0450382Y0636899D01*
X0450440Y0636875D01*
X0450440Y0636875D01*
X0450440Y0636875D01*
X0450519Y0636860D01*
X0450564Y0636851D01*
X0450601Y0636841D01*
X0450837D01*
X0450850Y0636844D01*
X0452323D01*
X0452376Y0636844D01*
X0452416Y0636852D01*
X0452456D01*
X0452561Y0636873D01*
X0452598Y0636888D01*
X0452637Y0636896D01*
X0452736Y0636937D01*
X0452769Y0636959D01*
X0452807Y0636975D01*
X0452895Y0637034D01*
X0452924Y0637062D01*
X0452957Y0637085D01*
X0453033Y0637160D01*
X0453055Y0637194D01*
X0453084Y0637222D01*
X0453143Y0637311D01*
X0453158Y0637348D01*
X0453181Y0637382D01*
X0453222Y0637481D01*
X0453229Y0637520D01*
X0453245Y0637557D01*
X0453266Y0637662D01*
Y0637702D01*
X0453274Y0637742D01*
X0453274Y0637795D01*
X0453274Y0637795D01*
Y0638838D01*
X0453275Y0638870D01*
X0453290Y0638943D01*
X0453314Y0639002D01*
X0453350Y0639056D01*
X0453395Y0639101D01*
X0453449Y0639137D01*
X0453508Y0639161D01*
X0453581Y0639176D01*
X0453614Y0639178D01*
X0467576Y0639178D01*
X0467612Y0639176D01*
X0467692Y0639160D01*
X0467759Y0639132D01*
X0467818Y0639092D01*
X0467869Y0639042D01*
X0467909Y0638982D01*
X0467937Y0638916D01*
X0467952Y0638835D01*
X0467954Y0638799D01*
Y0637669D01*
X0467954Y0637586D01*
X0467954Y0637586D01*
X0467954Y0637586D01*
X0467970Y0637506D01*
X0467985Y0637430D01*
X0467985Y0637430D01*
X0467985Y0637430D01*
X0468049Y0637277D01*
X0468049Y0637277D01*
X0468049Y0637277D01*
X0468088Y0637219D01*
X0468137Y0637144D01*
X0468137Y0637144D01*
X0468137Y0637144D01*
X0468254Y0637027D01*
X0468254Y0637027D01*
X0468255Y0637027D01*
X0468329Y0636978D01*
X0468387Y0636939D01*
X0468387Y0636939D01*
X0468387Y0636939D01*
X0468540Y0636875D01*
X0468540Y0636875D01*
X0468540Y0636875D01*
X0468616Y0636860D01*
X0468696Y0636844D01*
X0468696Y0636844D01*
X0468696Y0636844D01*
X0468738Y0636844D01*
X0468751Y0636841D01*
X0468988D01*
X0469000Y0636844D01*
X0470482D01*
X0470521Y0636852D01*
X0470562D01*
X0470676Y0636875D01*
X0470713Y0636890D01*
X0470752Y0636898D01*
X0470860Y0636942D01*
X0470893Y0636965D01*
X0470930Y0636980D01*
X0471027Y0637045D01*
X0471055Y0637073D01*
X0471089Y0637096D01*
X0471171Y0637178D01*
X0471193Y0637211D01*
X0471222Y0637240D01*
X0471286Y0637336D01*
X0471302Y0637373D01*
X0471324Y0637407D01*
X0471369Y0637514D01*
X0471377Y0637554D01*
X0471392Y0637591D01*
X0471415Y0637705D01*
Y0637745D01*
X0471422Y0637785D01*
Y0637843D01*
X0471422Y0637843D01*
Y0638845D01*
X0471424Y0638876D01*
X0471438Y0638948D01*
X0471462Y0639006D01*
X0471497Y0639058D01*
X0471542Y0639103D01*
X0471594Y0639138D01*
X0471652Y0639162D01*
X0471724Y0639176D01*
X0471755Y0639178D01*
X0486411Y0639178D01*
X0486510Y0639173D01*
X0486715Y0639132D01*
X0486898Y0639056D01*
X0487063Y0638946D01*
X0487203Y0638806D01*
X0487313Y0638641D01*
X0487389Y0638458D01*
X0487429Y0638254D01*
X0487434Y0638154D01*
X0487434Y0631344D01*
X0487433Y0631322D01*
X0487423Y0631271D01*
X0487407Y0631232D01*
X0487384Y0631198D01*
X0487354Y0631168D01*
X0487319Y0631144D01*
X0487280Y0631128D01*
X0487229Y0631118D01*
X0487208Y0631117D01*
X0485456Y0631117D01*
X0485363Y0631117D01*
X0485362Y0631117D01*
X0485362Y0631117D01*
X0485284Y0631102D01*
X0485206Y0631086D01*
X0485206Y0631086D01*
X0485206Y0631086D01*
X0485033Y0631015D01*
X0485033Y0631015D01*
X0485033Y0631015D01*
X0484967Y0630971D01*
X0484901Y0630926D01*
X0484900Y0630926D01*
X0484900Y0630926D01*
X0484805Y0630831D01*
X0484800Y0630823D01*
X0484792Y0630817D01*
X0484757Y0630759D01*
X0484753Y0630755D01*
X0484743Y0630738D01*
X0484717Y0630699D01*
X0484715Y0630689D01*
X0484711Y0630682D01*
X0484710Y0630680D01*
X0484710Y0630680D01*
X0484634Y0630550D01*
X0484573Y0630321D01*
Y0630084D01*
X0484634Y0629855D01*
X0484644Y0629838D01*
X0484660Y0629799D01*
X0484668Y0629757D01*
X0484677Y0629735D01*
X0484677Y0629735D01*
X0484677Y0629735D01*
X0484698Y0629705D01*
X0484703Y0629690D01*
X0484716Y0629678D01*
X0484766Y0629603D01*
X0484766Y0629603D01*
X0484766Y0629603D01*
X0484895Y0629474D01*
X0484895Y0629474D01*
X0484895Y0629474D01*
X0484960Y0629430D01*
X0485027Y0629386D01*
X0485027Y0629386D01*
X0485027Y0629386D01*
X0485195Y0629316D01*
X0485195Y0629316D01*
X0485195Y0629316D01*
X0485281Y0629299D01*
X0485351Y0629285D01*
X0485352Y0629285D01*
X0485352Y0629285D01*
X0485443Y0629285D01*
X0487233Y0629285D01*
X0487252Y0629284D01*
X0487298Y0629275D01*
X0487332Y0629261D01*
X0487363Y0629240D01*
X0487389Y0629214D01*
X0487410Y0629183D01*
X0487424Y0629149D01*
X0487433Y0629103D01*
X0487434Y0629084D01*
Y0618940D01*
X0487433Y0618925D01*
X0487425Y0618885D01*
X0487414Y0618857D01*
X0487397Y0618831D01*
X0487375Y0618810D01*
X0487350Y0618793D01*
X0487321Y0618781D01*
X0487282Y0618773D01*
X0487266Y0618772D01*
X0485456Y0618772D01*
X0485363Y0618772D01*
X0485362Y0618772D01*
X0485362Y0618772D01*
X0485284Y0618757D01*
X0485206Y0618741D01*
X0485206Y0618741D01*
X0485206Y0618741D01*
X0485033Y0618670D01*
X0485033Y0618670D01*
X0485033Y0618670D01*
X0484967Y0618626D01*
X0484900Y0618581D01*
X0484900Y0618581D01*
X0484900Y0618581D01*
X0484805Y0618486D01*
X0484800Y0618478D01*
X0484792Y0618472D01*
X0484757Y0618414D01*
X0484753Y0618410D01*
X0484743Y0618393D01*
X0484717Y0618354D01*
X0484715Y0618344D01*
X0484711Y0618337D01*
X0484710Y0618335D01*
X0484710Y0618335D01*
X0484634Y0618205D01*
X0484573Y0617976D01*
Y0617739D01*
X0484634Y0617510D01*
X0484644Y0617493D01*
X0484660Y0617454D01*
X0484668Y0617412D01*
X0484677Y0617390D01*
X0484677Y0617390D01*
X0484677Y0617390D01*
X0484698Y0617360D01*
X0484703Y0617345D01*
X0484716Y0617333D01*
X0484766Y0617258D01*
X0484766Y0617258D01*
X0484766Y0617258D01*
X0484895Y0617129D01*
X0484895Y0617129D01*
X0484895Y0617129D01*
X0484960Y0617085D01*
X0485027Y0617041D01*
X0485027Y0617041D01*
X0485027Y0617041D01*
X0485195Y0616971D01*
X0485195Y0616971D01*
X0485195Y0616971D01*
X0485281Y0616954D01*
X0485351Y0616940D01*
X0485352Y0616940D01*
X0485352Y0616940D01*
X0485443Y0616940D01*
X0487278Y0616940D01*
X0487292Y0616939D01*
X0487330Y0616932D01*
X0487356Y0616921D01*
X0487380Y0616905D01*
X0487400Y0616885D01*
X0487415Y0616862D01*
X0487426Y0616836D01*
X0487434Y0616798D01*
X0487434Y0616784D01*
X0487434Y0607865D01*
X0487430Y0607770D01*
X0487391Y0607575D01*
X0487318Y0607400D01*
X0487213Y0607243D01*
X0487080Y0607109D01*
X0486922Y0607004D01*
X0486747Y0606932D01*
X0486552Y0606893D01*
X0486457Y0606888D01*
X0457867Y0606888D01*
X0457691Y0606888D01*
X0457665Y0606883D01*
X0457638Y0606885D01*
X0457289Y0606839D01*
X0457263Y0606830D01*
X0457236Y0606828D01*
X0456896Y0606737D01*
X0456872Y0606725D01*
X0456846Y0606720D01*
X0456520Y0606585D01*
X0456498Y0606570D01*
X0456473Y0606562D01*
X0456168Y0606386D01*
X0456147Y0606368D01*
X0456123Y0606356D01*
X0455844Y0606142D01*
X0455826Y0606121D01*
X0455804Y0606107D01*
X0455555Y0605858D01*
X0455540Y0605835D01*
X0455520Y0605817D01*
X0455305Y0605538D01*
X0455293Y0605514D01*
X0455276Y0605494D01*
X0455100Y0605189D01*
X0455091Y0605163D01*
X0455076Y0605141D01*
X0454941Y0604815D01*
X0454936Y0604789D01*
X0454924Y0604765D01*
X0454833Y0604425D01*
X0454831Y0604398D01*
X0454823Y0604372D01*
X0454777Y0604023D01*
X0454778Y0603997D01*
X0454773Y0603970D01*
X0454773Y0603794D01*
Y0603284D01*
X0453659D01*
X0453659Y0603284D01*
X0453423D01*
X0453423Y0603284D01*
X0450883D01*
X0450651Y0603238D01*
X0450433Y0603148D01*
X0450236Y0603016D01*
X0450069Y0602849D01*
X0449938Y0602653D01*
X0449847Y0602434D01*
X0449801Y0602203D01*
Y0601966D01*
X0449847Y0601734D01*
X0449938Y0601516D01*
X0450069Y0601319D01*
X0450121Y0601267D01*
X0450135Y0601244D01*
X0450181Y0601192D01*
X0450209Y0601149D01*
X0450239Y0601090D01*
X0450269Y0601013D01*
X0450297Y0600919D01*
X0450321Y0600807D01*
X0450340Y0600683D01*
X0450365Y0600368D01*
X0450368Y0600190D01*
X0450371Y0600179D01*
Y0599796D01*
X0450368Y0599784D01*
X0450366Y0599605D01*
X0450355Y0599401D01*
X0444031D01*
X0444016Y0599609D01*
X0444014Y0599784D01*
X0444011Y0599796D01*
Y0600179D01*
X0444014Y0600190D01*
X0444017Y0600368D01*
X0444042Y0600683D01*
X0444061Y0600807D01*
X0444085Y0600919D01*
X0444113Y0601013D01*
X0444143Y0601090D01*
X0444173Y0601149D01*
X0444202Y0601192D01*
X0444247Y0601244D01*
X0444261Y0601267D01*
X0444313Y0601319D01*
X0444444Y0601516D01*
X0444535Y0601734D01*
X0444581Y0601966D01*
Y0602203D01*
X0444535Y0602434D01*
X0444444Y0602653D01*
X0444313Y0602849D01*
X0444146Y0603016D01*
X0443949Y0603148D01*
X0443731Y0603238D01*
X0443499Y0603284D01*
X0443263D01*
X0443263Y0603284D01*
X0438183D01*
Y0603284D01*
X0437951Y0603238D01*
X0437733Y0603148D01*
X0437536Y0603016D01*
X0437369Y0602849D01*
X0437238Y0602653D01*
X0437147Y0602434D01*
X0437101Y0602203D01*
Y0601966D01*
X0437147Y0601734D01*
X0437238Y0601516D01*
X0437369Y0601319D01*
X0437421Y0601267D01*
X0437435Y0601244D01*
X0437480Y0601192D01*
X0437509Y0601149D01*
X0437539Y0601090D01*
X0437569Y0601013D01*
X0437597Y0600919D01*
X0437621Y0600807D01*
X0437641Y0600683D01*
X0437665Y0600368D01*
X0437668Y0600190D01*
X0437671Y0600179D01*
Y0599796D01*
X0437668Y0599784D01*
X0437666Y0599605D01*
X0437655Y0599401D01*
X0428124D01*
Y0599314D01*
X0427881Y0599290D01*
X0427632Y0599214D01*
X0427401Y0599091D01*
X0427200Y0598926D01*
X0427034Y0598724D01*
X0426911Y0598494D01*
X0426835Y0598244D01*
X0426810Y0597984D01*
Y0597584D01*
X0426835Y0597325D01*
X0426911Y0597075D01*
X0427034Y0596845D01*
X0427200Y0596643D01*
X0427401Y0596477D01*
X0427632Y0596354D01*
X0427881Y0596279D01*
X0428124Y0596255D01*
Y0596159D01*
X0454773D01*
X0454773Y0595147D01*
X0454771Y0595100D01*
X0454751Y0594997D01*
X0454714Y0594910D01*
X0454662Y0594831D01*
X0454595Y0594764D01*
X0454516Y0594712D01*
X0454456Y0594687D01*
X0454456Y0594687D01*
X0454456Y0594687D01*
X0454429Y0594676D01*
X0454327Y0594655D01*
X0454279Y0594653D01*
X0425256Y0594653D01*
X0425073Y0594653D01*
X0424914Y0594653D01*
X0424874Y0594645D01*
X0424834Y0594645D01*
X0424522Y0594583D01*
X0424485Y0594568D01*
X0424445Y0594560D01*
X0424151Y0594438D01*
X0424117Y0594416D01*
X0424080Y0594401D01*
X0423815Y0594224D01*
X0423787Y0594195D01*
X0423754Y0594173D01*
X0423528Y0593948D01*
X0423506Y0593914D01*
X0423478Y0593886D01*
X0423301Y0593621D01*
X0423285Y0593584D01*
X0423263Y0593550D01*
X0423141Y0593256D01*
X0423133Y0593217D01*
X0423118Y0593179D01*
X0423091Y0593043D01*
X0423091Y0593024D01*
X0423085Y0593006D01*
X0423050Y0592670D01*
X0423051Y0592664D01*
X0423049Y0592657D01*
X0423051Y0592643D01*
X0423048Y0592628D01*
Y0587049D01*
X0423049Y0587042D01*
Y0586549D01*
X0423075Y0586295D01*
X0423149Y0586050D01*
X0423270Y0585824D01*
X0423432Y0585626D01*
X0423630Y0585463D01*
X0423856Y0585343D01*
X0424101Y0585268D01*
X0424356Y0585243D01*
X0424611Y0585268D01*
X0424856Y0585343D01*
X0425081Y0585463D01*
X0425279Y0585626D01*
X0425442Y0585824D01*
X0425563Y0586050D01*
X0425637Y0586295D01*
X0425662Y0586549D01*
Y0587042D01*
X0425664Y0587049D01*
X0425664Y0591876D01*
X0425668Y0591957D01*
X0425701Y0592126D01*
X0425763Y0592275D01*
X0425853Y0592409D01*
X0425967Y0592523D01*
X0426101Y0592613D01*
X0426250Y0592675D01*
X0426419Y0592708D01*
X0426504Y0592712D01*
X0454343Y0592712D01*
X0454384Y0592710D01*
X0454474Y0592693D01*
X0454550Y0592661D01*
X0454618Y0592616D01*
X0454676Y0592558D01*
X0454722Y0592489D01*
X0454753Y0592414D01*
X0454771Y0592323D01*
X0454773Y0592277D01*
Y0588833D01*
X0454423Y0588833D01*
X0451081Y0588833D01*
X0451081Y0588833D01*
X0451081Y0588833D01*
X0451053D01*
X0451053Y0588833D01*
X0450927Y0588833D01*
X0450680Y0588784D01*
X0450448Y0588687D01*
X0450238Y0588547D01*
X0450060Y0588369D01*
X0449920Y0588160D01*
X0449824Y0587927D01*
X0449775Y0587680D01*
Y0586428D01*
X0449794Y0586331D01*
X0449800Y0586272D01*
X0449817Y0586214D01*
X0449826Y0586169D01*
X0449844Y0586127D01*
X0449874Y0586027D01*
X0449924Y0585934D01*
X0449927Y0585925D01*
X0449933Y0585917D01*
X0449995Y0585801D01*
X0450157Y0585603D01*
X0450355Y0585440D01*
X0450472Y0585378D01*
X0450480Y0585373D01*
X0450489Y0585369D01*
X0450581Y0585320D01*
X0450681Y0585289D01*
X0450724Y0585272D01*
X0450769Y0585263D01*
X0450826Y0585245D01*
X0450886Y0585239D01*
X0450983Y0585220D01*
X0451115Y0585220D01*
X0456081D01*
X0456336Y0585245D01*
X0456581Y0585320D01*
X0456807Y0585440D01*
X0457005Y0585603D01*
X0457167Y0585801D01*
X0457288Y0586027D01*
X0457362Y0586272D01*
X0457378Y0586434D01*
X0457389Y0586487D01*
Y0596445D01*
X0457523Y0596537D01*
X0457739Y0596594D01*
X0457881Y0596477D01*
X0458112Y0596354D01*
X0458361Y0596279D01*
X0458621Y0596253D01*
X0458881Y0596279D01*
X0459131Y0596354D01*
X0459361Y0596477D01*
X0459562Y0596643D01*
X0459728Y0596845D01*
X0459851Y0597075D01*
X0459927Y0597325D01*
X0459952Y0597584D01*
Y0597984D01*
X0459927Y0598244D01*
X0459851Y0598494D01*
X0459728Y0598724D01*
X0459562Y0598926D01*
X0459361Y0599091D01*
X0459131Y0599214D01*
X0458881Y0599290D01*
X0458621Y0599316D01*
X0458361Y0599290D01*
X0458112Y0599214D01*
X0457881Y0599091D01*
X0457739Y0598975D01*
X0457523Y0599032D01*
X0457389Y0599123D01*
Y0599284D01*
X0457389Y0603284D01*
X0457394Y0603380D01*
X0457433Y0603578D01*
X0457506Y0603754D01*
X0457612Y0603913D01*
X0457748Y0604049D01*
X0457907Y0604155D01*
X0458084Y0604228D01*
X0458281Y0604268D01*
X0458377Y0604272D01*
X0483336Y0604272D01*
X0483431Y0604268D01*
X0483627Y0604229D01*
X0483802Y0604156D01*
X0483960Y0604051D01*
X0484094Y0603917D01*
X0484199Y0603759D01*
X0484271Y0603584D01*
X0484310Y0603388D01*
X0484315Y0603289D01*
Y0583821D01*
X0484315Y0583635D01*
X0484320Y0583608D01*
X0484319Y0583582D01*
X0484367Y0583212D01*
X0484376Y0583186D01*
X0484378Y0583159D01*
X0484474Y0582799D01*
X0484486Y0582775D01*
X0484491Y0582748D01*
X0484634Y0582404D01*
X0484649Y0582381D01*
X0484658Y0582356D01*
X0484844Y0582032D01*
X0484862Y0582012D01*
X0484874Y0581988D01*
X0485101Y0581692D01*
X0485121Y0581674D01*
X0485136Y0581652D01*
X0485400Y0581388D01*
X0485423Y0581373D01*
X0485440Y0581353D01*
X0485736Y0581126D01*
X0485761Y0581114D01*
X0485781Y0581096D01*
X0486104Y0580909D01*
X0486129Y0580901D01*
X0486152Y0580886D01*
X0486497Y0580743D01*
X0486523Y0580738D01*
X0486547Y0580726D01*
X0486908Y0580629D01*
X0486934Y0580627D01*
X0486960Y0580619D01*
X0487330Y0580570D01*
X0487357Y0580572D01*
X0487383Y0580567D01*
X0487570Y0580567D01*
X0493106Y0580567D01*
X0493193Y0580562D01*
X0493373Y0580526D01*
X0493534Y0580460D01*
X0493678Y0580364D01*
X0493801Y0580241D01*
X0493897Y0580097D01*
X0493963Y0579936D01*
X0493999Y0579756D01*
X0494004Y0579666D01*
Y0572264D01*
Y0572207D01*
X0494011Y0572168D01*
Y0572128D01*
X0494034Y0572016D01*
X0494049Y0571979D01*
X0494057Y0571940D01*
X0494100Y0571835D01*
X0494123Y0571801D01*
X0494138Y0571764D01*
X0494201Y0571670D01*
X0494229Y0571641D01*
X0494252Y0571608D01*
X0494332Y0571528D01*
X0494366Y0571505D01*
X0494394Y0571477D01*
X0494489Y0571414D01*
X0494526Y0571398D01*
X0494559Y0571376D01*
X0494664Y0571332D01*
X0494703Y0571325D01*
X0494741Y0571309D01*
X0494852Y0571287D01*
X0494892D01*
X0494932Y0571279D01*
X0494988D01*
X0494989Y0571279D01*
X0494989Y0571279D01*
X0495171Y0571279D01*
X0495211Y0571287D01*
X0495251D01*
X0495367Y0571310D01*
X0495404Y0571325D01*
X0495443Y0571333D01*
X0495552Y0571378D01*
X0495586Y0571401D01*
X0495623Y0571416D01*
X0495721Y0571482D01*
X0495749Y0571510D01*
X0495783Y0571532D01*
X0495866Y0571616D01*
X0495888Y0571649D01*
X0495917Y0571678D01*
X0495982Y0571776D01*
X0495998Y0571813D01*
X0496020Y0571846D01*
X0496065Y0571955D01*
X0496073Y0571995D01*
X0496088Y0572032D01*
X0496111Y0572147D01*
X0496111Y0572188D01*
X0496119Y0572227D01*
X0496119Y0572286D01*
X0496119Y0572286D01*
Y0580639D01*
Y0580820D01*
X0496111Y0580859D01*
Y0580900D01*
X0496041Y0581254D01*
X0496025Y0581291D01*
X0496018Y0581331D01*
X0495879Y0581665D01*
X0495857Y0581698D01*
X0495842Y0581735D01*
X0495641Y0582036D01*
X0495612Y0582064D01*
X0495590Y0582097D01*
X0495334Y0582353D01*
X0495301Y0582375D01*
X0495273Y0582404D01*
X0494972Y0582605D01*
X0494935Y0582620D01*
X0494901Y0582642D01*
X0494568Y0582781D01*
X0494528Y0582789D01*
X0494491Y0582804D01*
X0494136Y0582874D01*
X0494096D01*
X0494057Y0582882D01*
X0493876D01*
X0488368Y0582882D01*
X0488255Y0582886D01*
X0488024Y0582916D01*
X0487805Y0582975D01*
X0487596Y0583061D01*
X0487400Y0583175D01*
X0487221Y0583312D01*
X0487061Y0583472D01*
X0486923Y0583652D01*
X0486810Y0583848D01*
X0486723Y0584057D01*
X0486665Y0584275D01*
X0486635Y0584506D01*
X0486631Y0584619D01*
Y0603326D01*
X0486635Y0603418D01*
X0486673Y0603607D01*
X0486743Y0603777D01*
X0486845Y0603929D01*
X0486974Y0604058D01*
X0487127Y0604160D01*
X0487296Y0604230D01*
X0487485Y0604268D01*
X0487578Y0604272D01*
X0487703Y0604272D01*
X0487730Y0604278D01*
X0487756Y0604276D01*
X0488026Y0604311D01*
X0488052Y0604320D01*
X0488078Y0604322D01*
X0488341Y0604392D01*
X0488365Y0604404D01*
X0488392Y0604409D01*
X0488643Y0604513D01*
X0488665Y0604528D01*
X0488691Y0604537D01*
X0488926Y0604673D01*
X0488947Y0604691D01*
X0488971Y0604703D01*
X0489186Y0604868D01*
X0489204Y0604888D01*
X0489227Y0604903D01*
X0489419Y0605096D01*
X0489434Y0605118D01*
X0489454Y0605136D01*
X0489620Y0605352D01*
X0489632Y0605376D01*
X0489649Y0605396D01*
X0489785Y0605632D01*
X0489794Y0605657D01*
X0489809Y0605679D01*
X0489913Y0605931D01*
X0489918Y0605957D01*
X0489930Y0605981D01*
X0490001Y0606244D01*
X0490002Y0606271D01*
X0490011Y0606296D01*
X0490046Y0606566D01*
X0490045Y0606593D01*
X0490050Y0606619D01*
X0490050Y0606755D01*
X0490050Y0606755D01*
X0490050Y0628952D01*
X0490050Y0642038D01*
X0490050Y0643054D01*
X0490050Y0655399D01*
X0490050Y0666894D01*
X0490050Y0666977D01*
X0490042Y0667017D01*
X0490042Y0667057D01*
X0490009Y0667221D01*
X0489994Y0667258D01*
X0489986Y0667298D01*
X0489922Y0667453D01*
X0489900Y0667486D01*
X0489884Y0667523D01*
X0489791Y0667663D01*
X0489763Y0667691D01*
X0489741Y0667724D01*
X0489622Y0667843D01*
X0489589Y0667865D01*
X0489560Y0667894D01*
X0489421Y0667987D01*
X0489384Y0668002D01*
X0489350Y0668024D01*
X0489265Y0668060D01*
X0489225Y0668068D01*
X0489186Y0668083D01*
X0488869Y0668145D01*
X0488857Y0668145D01*
X0488845Y0668149D01*
X0488844Y0668149D01*
X0488818Y0668147D01*
X0488791Y0668152D01*
X0485456Y0668152D01*
X0485363Y0668152D01*
X0485362Y0668152D01*
X0485362Y0668152D01*
X0485280Y0668136D01*
X0485206Y0668121D01*
X0485206Y0668121D01*
X0485206Y0668121D01*
X0485033Y0668050D01*
X0485033Y0668050D01*
X0485033Y0668050D01*
X0484966Y0668005D01*
X0484900Y0667961D01*
X0484900Y0667961D01*
X0484900Y0667961D01*
X0484805Y0667866D01*
X0484800Y0667858D01*
X0484792Y0667852D01*
X0484757Y0667794D01*
X0484753Y0667790D01*
X0484743Y0667773D01*
X0484717Y0667734D01*
X0484715Y0667724D01*
X0484710Y0667717D01*
X0484710Y0667715D01*
X0484710Y0667715D01*
X0484634Y0667585D01*
X0484573Y0667356D01*
Y0667119D01*
X0484634Y0666890D01*
X0484644Y0666873D01*
X0484660Y0666834D01*
X0484668Y0666792D01*
X0484677Y0666770D01*
X0484677Y0666770D01*
X0484677Y0666770D01*
X0484698Y0666740D01*
X0484703Y0666725D01*
X0484716Y0666713D01*
X0484723Y0666703D01*
X0484766Y0666638D01*
X0484766Y0666638D01*
X0484766Y0666638D01*
X0484895Y0666509D01*
X0484895Y0666509D01*
X0484895Y0666509D01*
X0484964Y0666463D01*
X0485027Y0666421D01*
X0485027Y0666421D01*
X0485027Y0666421D01*
X0485195Y0666351D01*
X0485195Y0666351D01*
X0485195Y0666351D01*
X0485276Y0666335D01*
X0485351Y0666320D01*
X0485352Y0666320D01*
X0485352Y0666320D01*
X0485443Y0666320D01*
X0486898Y0666320D01*
X0486949Y0666318D01*
X0487060Y0666296D01*
X0487155Y0666256D01*
X0487241Y0666199D01*
X0487313Y0666126D01*
X0487370Y0666041D01*
X0487410Y0665946D01*
X0487432Y0665835D01*
X0487434Y0665783D01*
X0487434Y0656267D01*
X0487432Y0656223D01*
X0487413Y0656127D01*
X0487379Y0656046D01*
X0487331Y0655973D01*
X0487268Y0655911D01*
X0487195Y0655862D01*
X0487150Y0655843D01*
X0487150Y0655843D01*
X0487114Y0655828D01*
X0487018Y0655809D01*
X0486974Y0655807D01*
X0486634Y0655807D01*
X0485456Y0655807D01*
X0485363Y0655807D01*
X0485362Y0655807D01*
X0485362Y0655807D01*
X0485280Y0655791D01*
X0485206Y0655776D01*
X0485206Y0655776D01*
X0485206Y0655776D01*
X0485033Y0655705D01*
X0485033Y0655705D01*
X0485033Y0655705D01*
X0484966Y0655660D01*
X0484900Y0655616D01*
X0484900Y0655616D01*
X0484900Y0655616D01*
X0484805Y0655521D01*
X0484800Y0655513D01*
X0484792Y0655507D01*
X0484757Y0655449D01*
X0484753Y0655445D01*
X0484743Y0655428D01*
X0484717Y0655389D01*
X0484715Y0655379D01*
X0484710Y0655372D01*
X0484710Y0655370D01*
X0484710Y0655370D01*
X0484634Y0655240D01*
X0484573Y0655011D01*
Y0654774D01*
X0484634Y0654545D01*
X0484644Y0654528D01*
X0484660Y0654489D01*
X0484668Y0654447D01*
X0484677Y0654425D01*
X0484677Y0654425D01*
X0484677Y0654425D01*
X0484698Y0654395D01*
X0484703Y0654380D01*
X0484716Y0654368D01*
X0484723Y0654358D01*
X0484766Y0654293D01*
X0484766Y0654293D01*
X0484766Y0654293D01*
X0484895Y0654164D01*
X0484895Y0654164D01*
X0484895Y0654164D01*
X0484964Y0654118D01*
X0485027Y0654076D01*
X0485027Y0654076D01*
X0485027Y0654076D01*
X0485195Y0654006D01*
X0485195Y0654006D01*
X0485195Y0654006D01*
X0485276Y0653990D01*
X0485351Y0653975D01*
X0485352Y0653975D01*
X0485352Y0653975D01*
X0485443Y0653975D01*
X0486995Y0653975D01*
X0487037Y0653973D01*
X0487129Y0653955D01*
X0487206Y0653923D01*
X0487276Y0653876D01*
X0487335Y0653817D01*
X0487382Y0653747D01*
X0487399Y0653706D01*
X0487399Y0653706D01*
X0487399Y0653706D01*
X0487414Y0653670D01*
X0487432Y0653578D01*
X0487434Y0653535D01*
X0487434Y0643965D01*
X0487432Y0643917D01*
X0487411Y0643813D01*
X0487374Y0643724D01*
X0487321Y0643644D01*
X0487253Y0643576D01*
X0487173Y0643522D01*
X0487084Y0643485D01*
X0486980Y0643465D01*
X0486931Y0643462D01*
X0486591Y0643462D01*
X0485456Y0643462D01*
X0485363Y0643462D01*
X0485362Y0643462D01*
X0485362Y0643462D01*
X0485280Y0643446D01*
X0485206Y0643431D01*
X0485206Y0643431D01*
X0485206Y0643431D01*
X0485033Y0643360D01*
X0485033Y0643360D01*
X0485033Y0643360D01*
X0484966Y0643315D01*
X0484900Y0643271D01*
X0484900Y0643271D01*
X0484900Y0643271D01*
X0484805Y0643176D01*
X0484800Y0643168D01*
X0484792Y0643162D01*
X0484757Y0643104D01*
X0484753Y0643100D01*
X0484743Y0643083D01*
X0484717Y0643044D01*
X0484715Y0643034D01*
X0484710Y0643027D01*
X0484710Y0643025D01*
X0484710Y0643025D01*
X0484634Y0642895D01*
X0484573Y0642666D01*
Y0642429D01*
X0484576Y0642416D01*
X0484576Y0641947D01*
X0484573Y0641882D01*
X0484546Y0641745D01*
X0484497Y0641626D01*
X0484425Y0641518D01*
X0484333Y0641427D01*
X0484226Y0641355D01*
X0484107Y0641306D01*
X0483970Y0641278D01*
X0483905Y0641275D01*
X0479857D01*
Y0644570D01*
X0479859Y0644578D01*
Y0644903D01*
X0479857Y0644911D01*
Y0656734D01*
X0479859Y0656742D01*
X0479859Y0656778D01*
X0479859Y0656778D01*
Y0656782D01*
X0479867Y0656821D01*
Y0669529D01*
X0479859Y0669568D01*
Y0669608D01*
X0479857Y0669616D01*
Y0671265D01*
Y0671652D01*
X0477816D01*
X0477816Y0671652D01*
X0477775D01*
X0477736Y0671659D01*
D02*
G37*
G36*
X0422804Y0671623D02*
X0422783Y0671618D01*
X0422762Y0671620D01*
X0422427Y0671586D01*
X0422408Y0671580D01*
X0422389D01*
X0422250Y0671552D01*
X0422213Y0671537D01*
X0422174Y0671529D01*
X0421878Y0671406D01*
X0421844Y0671384D01*
X0421807Y0671369D01*
X0421541Y0671191D01*
X0421513Y0671162D01*
X0421479Y0671140D01*
X0421253Y0670914D01*
X0421230Y0670880D01*
X0421202Y0670852D01*
X0421024Y0670585D01*
X0421009Y0670548D01*
X0420986Y0670515D01*
X0420864Y0670219D01*
X0420856Y0670179D01*
X0420840Y0670142D01*
X0420813Y0670003D01*
Y0669984D01*
X0420807Y0669966D01*
X0420772Y0669630D01*
X0420774Y0669609D01*
X0420770Y0669588D01*
X0420770Y0661065D01*
X0420770Y0660902D01*
X0420778Y0660863D01*
Y0660823D01*
X0420841Y0660504D01*
X0420857Y0660467D01*
X0420865Y0660427D01*
X0420989Y0660127D01*
X0421011Y0660094D01*
X0421027Y0660057D01*
X0421207Y0659786D01*
X0421236Y0659758D01*
X0421258Y0659725D01*
X0421488Y0659495D01*
X0421521Y0659472D01*
X0421549Y0659444D01*
X0421820Y0659263D01*
X0421857Y0659248D01*
X0421890Y0659226D01*
X0422191Y0659101D01*
X0422201Y0659099D01*
X0422227Y0659088D01*
X0422256Y0659083D01*
X0422267Y0659078D01*
X0422586Y0659015D01*
X0422626D01*
X0422665Y0659007D01*
X0422828D01*
X0422990Y0659007D01*
X0423030Y0659015D01*
X0423070D01*
X0423389Y0659078D01*
X0423426Y0659094D01*
X0423465Y0659101D01*
X0423766Y0659226D01*
X0423799Y0659248D01*
X0423836Y0659263D01*
X0424106Y0659444D01*
X0424135Y0659472D01*
X0424168Y0659495D01*
X0424187Y0659513D01*
X0424537Y0659368D01*
Y0649255D01*
X0424187Y0649196D01*
X0424154Y0649290D01*
X0424145Y0649305D01*
X0424142Y0649321D01*
X0423951Y0649749D01*
X0423941Y0649763D01*
X0423936Y0649779D01*
X0423711Y0650189D01*
X0423700Y0650202D01*
X0423693Y0650218D01*
X0423435Y0650607D01*
X0423422Y0650620D01*
X0423415Y0650635D01*
X0423124Y0651001D01*
X0423111Y0651013D01*
X0423102Y0651027D01*
X0422782Y0651368D01*
X0422768Y0651378D01*
X0422758Y0651392D01*
X0422410Y0651705D01*
X0422395Y0651714D01*
X0422384Y0651727D01*
X0422012Y0652009D01*
X0421996Y0652017D01*
X0421983Y0652029D01*
X0421792Y0652151D01*
X0421562Y0652307D01*
X0421129Y0652665D01*
X0420749Y0653070D01*
X0420423Y0653519D01*
X0420155Y0654005D01*
X0419951Y0654521D01*
X0419813Y0655059D01*
X0419743Y0655616D01*
X0419734Y0655894D01*
X0419734Y0667523D01*
X0419802Y0667867D01*
Y0668271D01*
X0419734Y0668615D01*
X0419734Y0669534D01*
X0419734Y0669698D01*
X0419726Y0669738D01*
Y0669778D01*
X0419662Y0670101D01*
X0419646Y0670138D01*
X0419639Y0670178D01*
X0419512Y0670482D01*
X0419490Y0670516D01*
X0419475Y0670553D01*
X0419292Y0670827D01*
X0419263Y0670856D01*
X0419241Y0670889D01*
X0419008Y0671122D01*
X0418974Y0671144D01*
X0418946Y0671173D01*
X0418672Y0671356D01*
X0418635Y0671371D01*
X0418601Y0671394D01*
X0418297Y0671520D01*
X0418257Y0671528D01*
X0418220Y0671543D01*
X0417897Y0671607D01*
X0417857D01*
X0417817Y0671615D01*
X0417652Y0671615D01*
X0417492Y0671615D01*
X0417453Y0671607D01*
X0417413Y0671607D01*
X0417099Y0671545D01*
X0417061Y0671529D01*
X0417022Y0671522D01*
X0416726Y0671399D01*
X0416693Y0671377D01*
X0416655Y0671361D01*
X0416389Y0671183D01*
X0416361Y0671155D01*
X0416327Y0671133D01*
X0416101Y0670906D01*
X0416078Y0670873D01*
X0416050Y0670844D01*
X0415872Y0670578D01*
X0415857Y0670541D01*
X0415834Y0670508D01*
X0415712Y0670212D01*
X0415704Y0670172D01*
X0415689Y0670135D01*
X0415661Y0669996D01*
Y0669977D01*
X0415655Y0669959D01*
X0415620Y0669623D01*
X0415622Y0669602D01*
X0415618Y0669581D01*
X0415618Y0669581D01*
X0415618Y0653886D01*
X0415618Y0653659D01*
X0415622Y0653642D01*
X0415620Y0653625D01*
X0415658Y0653174D01*
X0415663Y0653157D01*
X0415662Y0653140D01*
X0415739Y0652694D01*
X0415745Y0652678D01*
X0415746Y0652660D01*
X0415860Y0652222D01*
X0415868Y0652206D01*
X0415870Y0652189D01*
X0416021Y0651763D01*
X0416030Y0651748D01*
X0416034Y0651730D01*
X0416220Y0651318D01*
X0416230Y0651304D01*
X0416235Y0651287D01*
X0416456Y0650892D01*
X0416467Y0650879D01*
X0416474Y0650863D01*
X0416727Y0650488D01*
X0416740Y0650476D01*
X0416748Y0650460D01*
X0417032Y0650108D01*
X0417045Y0650097D01*
X0417055Y0650082D01*
X0417367Y0649755D01*
X0417382Y0649745D01*
X0417392Y0649731D01*
X0417732Y0649432D01*
X0417747Y0649423D01*
X0417759Y0649410D01*
X0418122Y0649141D01*
X0418138Y0649134D01*
X0418151Y0649122D01*
X0418340Y0649005D01*
X0418535Y0648879D01*
X0418912Y0648600D01*
X0419261Y0648292D01*
X0419583Y0647957D01*
X0419875Y0647595D01*
X0420135Y0647209D01*
X0420362Y0646803D01*
X0420553Y0646379D01*
X0420708Y0645941D01*
X0420825Y0645491D01*
X0420903Y0645033D01*
X0420943Y0644565D01*
X0420948Y0644332D01*
X0420948Y0640798D01*
X0420948Y0640661D01*
X0420956Y0640622D01*
Y0640582D01*
X0421009Y0640313D01*
X0421025Y0640276D01*
X0421033Y0640237D01*
X0421138Y0639983D01*
X0421160Y0639950D01*
X0421175Y0639913D01*
X0421328Y0639685D01*
X0421356Y0639657D01*
X0421378Y0639623D01*
X0421572Y0639430D01*
X0421605Y0639407D01*
X0421634Y0639379D01*
X0421862Y0639227D01*
X0421899Y0639211D01*
X0421932Y0639189D01*
X0422185Y0639084D01*
X0422225Y0639076D01*
X0422262Y0639061D01*
X0422492Y0639015D01*
X0422500D01*
X0422508Y0639012D01*
X0422572Y0639015D01*
X0422578Y0639015D01*
X0422922Y0638999D01*
Y0638999D01*
X0424536Y0638999D01*
X0424537Y0638999D01*
Y0638999D01*
X0424537Y0638999D01*
X0424886Y0638999D01*
X0424886Y0639349D01*
X0424886Y0647672D01*
X0424886Y0647672D01*
X0424886Y0647672D01*
Y0649253D01*
X0424886Y0649253D01*
X0424886Y0649253D01*
Y0649253D01*
D01*
Y0659371D01*
X0424886D01*
Y0659371D01*
X0424886D01*
X0424886Y0659371D01*
X0424886Y0659921D01*
X0424886Y0660271D01*
Y0661065D01*
Y0669541D01*
Y0669706D01*
X0424878Y0669745D01*
Y0669786D01*
X0424814Y0670109D01*
X0424798Y0670146D01*
X0424790Y0670185D01*
X0424664Y0670490D01*
X0424642Y0670523D01*
X0424627Y0670560D01*
X0424443Y0670835D01*
X0424415Y0670863D01*
X0424393Y0670896D01*
X0424160Y0671129D01*
X0424126Y0671152D01*
X0424098Y0671180D01*
X0423824Y0671363D01*
X0423787Y0671379D01*
X0423753Y0671401D01*
X0423449Y0671527D01*
X0423409Y0671535D01*
X0423372Y0671550D01*
X0423220Y0671581D01*
X0423200D01*
X0423181Y0671586D01*
X0422845Y0671620D01*
X0422825Y0671619D01*
X0422804Y0671623D01*
D02*
G37*
G36*
X0412874Y0670119D02*
X0412470D01*
X0412074Y0670041D01*
X0411701Y0669886D01*
X0411365Y0669662D01*
X0411080Y0669376D01*
X0410856Y0669040D01*
X0410701Y0668667D01*
X0410622Y0668271D01*
Y0667867D01*
X0410701Y0667471D01*
X0410856Y0667098D01*
X0411080Y0666763D01*
X0411365Y0666477D01*
X0411701Y0666253D01*
X0412074Y0666098D01*
X0412470Y0666019D01*
X0412874D01*
X0413270Y0666098D01*
X0413643Y0666253D01*
X0413979Y0666477D01*
X0414265Y0666763D01*
X0414489Y0667098D01*
X0414644Y0667471D01*
X0414722Y0667867D01*
Y0668271D01*
X0414644Y0668667D01*
X0414489Y0669040D01*
X0414265Y0669376D01*
X0413979Y0669662D01*
X0413643Y0669886D01*
X0413270Y0670041D01*
X0412874Y0670119D01*
D02*
G37*
G36*
X0496513Y0662567D02*
X0496109D01*
X0495713Y0662489D01*
X0495340Y0662334D01*
X0495004Y0662110D01*
X0494719Y0661824D01*
X0494494Y0661488D01*
X0494340Y0661115D01*
X0494261Y0660719D01*
Y0660315D01*
X0494340Y0659919D01*
X0494494Y0659546D01*
X0494719Y0659211D01*
X0495004Y0658925D01*
X0495340Y0658701D01*
X0495713Y0658546D01*
X0496109Y0658467D01*
X0496513D01*
X0496909Y0658546D01*
X0497282Y0658701D01*
X0497618Y0658925D01*
X0497903Y0659211D01*
X0498128Y0659546D01*
X0498282Y0659919D01*
X0498361Y0660315D01*
Y0660719D01*
X0498282Y0661115D01*
X0498128Y0661488D01*
X0497903Y0661824D01*
X0497618Y0662110D01*
X0497282Y0662334D01*
X0496909Y0662489D01*
X0496513Y0662567D01*
D02*
G37*
G36*
X0496513Y0650222D02*
X0496109D01*
X0495713Y0650144D01*
X0495340Y0649989D01*
X0495004Y0649765D01*
X0494719Y0649479D01*
X0494494Y0649143D01*
X0494340Y0648770D01*
X0494261Y0648374D01*
Y0647971D01*
X0494340Y0647574D01*
X0494494Y0647201D01*
X0494719Y0646866D01*
X0495004Y0646580D01*
X0495340Y0646356D01*
X0495713Y0646201D01*
X0496109Y0646122D01*
X0496513D01*
X0496909Y0646201D01*
X0497282Y0646356D01*
X0497618Y0646580D01*
X0497903Y0646866D01*
X0498128Y0647201D01*
X0498282Y0647574D01*
X0498361Y0647971D01*
Y0648374D01*
X0498282Y0648770D01*
X0498128Y0649143D01*
X0497903Y0649479D01*
X0497618Y0649765D01*
X0497282Y0649989D01*
X0496909Y0650144D01*
X0496513Y0650222D01*
D02*
G37*
G36*
X0417850Y0642619D02*
X0417495D01*
X0417147Y0642550D01*
X0416820Y0642414D01*
X0416525Y0642217D01*
X0416274Y0641967D01*
X0416077Y0641672D01*
X0415941Y0641344D01*
X0415872Y0640997D01*
Y0640642D01*
X0415941Y0640294D01*
X0416077Y0639967D01*
X0416274Y0639672D01*
X0416525Y0639421D01*
X0416820Y0639224D01*
X0417147Y0639088D01*
X0417495Y0639019D01*
X0417850D01*
X0418197Y0639088D01*
X0418525Y0639224D01*
X0418820Y0639421D01*
X0419070Y0639672D01*
X0419267Y0639967D01*
X0419403Y0640294D01*
X0419472Y0640642D01*
Y0640997D01*
X0419403Y0641344D01*
X0419267Y0641672D01*
X0419070Y0641967D01*
X0418820Y0642217D01*
X0418525Y0642414D01*
X0418197Y0642550D01*
X0417850Y0642619D01*
D02*
G37*
G36*
X0496513Y0637877D02*
X0496109D01*
X0495713Y0637799D01*
X0495340Y0637644D01*
X0495004Y0637420D01*
X0494719Y0637134D01*
X0494494Y0636798D01*
X0494340Y0636425D01*
X0494261Y0636029D01*
Y0635625D01*
X0494340Y0635229D01*
X0494494Y0634856D01*
X0494719Y0634521D01*
X0495004Y0634235D01*
X0495340Y0634011D01*
X0495713Y0633856D01*
X0496109Y0633777D01*
X0496513D01*
X0496909Y0633856D01*
X0497282Y0634011D01*
X0497618Y0634235D01*
X0497903Y0634521D01*
X0498128Y0634856D01*
X0498282Y0635229D01*
X0498361Y0635625D01*
Y0636029D01*
X0498282Y0636425D01*
X0498128Y0636798D01*
X0497903Y0637134D01*
X0497618Y0637420D01*
X0497282Y0637644D01*
X0496909Y0637799D01*
X0496513Y0637877D01*
D02*
G37*
G36*
X0496513Y0625532D02*
X0496109D01*
X0495713Y0625454D01*
X0495340Y0625299D01*
X0495004Y0625075D01*
X0494719Y0624789D01*
X0494494Y0624453D01*
X0494340Y0624080D01*
X0494261Y0623684D01*
Y0623281D01*
X0494340Y0622884D01*
X0494494Y0622511D01*
X0494719Y0622176D01*
X0495004Y0621890D01*
X0495340Y0621666D01*
X0495713Y0621511D01*
X0496109Y0621432D01*
X0496513D01*
X0496909Y0621511D01*
X0497282Y0621666D01*
X0497618Y0621890D01*
X0497903Y0622176D01*
X0498128Y0622511D01*
X0498282Y0622884D01*
X0498361Y0623281D01*
Y0623684D01*
X0498282Y0624080D01*
X0498128Y0624453D01*
X0497903Y0624789D01*
X0497618Y0625075D01*
X0497282Y0625299D01*
X0496909Y0625454D01*
X0496513Y0625532D01*
D02*
G37*
G36*
X0427292Y0614649D02*
X0427292Y0614649D01*
X0427177Y0614649D01*
X0426966Y0614561D01*
X0426804Y0614400D01*
X0426716Y0614188D01*
X0426716Y0614073D01*
Y0613225D01*
X0426716Y0613224D01*
X0426716D01*
X0426716Y0611932D01*
X0426716Y0611932D01*
Y0611826D01*
X0426797Y0611631D01*
X0426947Y0611481D01*
X0427142Y0611400D01*
X0454513D01*
X0454603Y0611400D01*
X0454769Y0611469D01*
X0454897Y0611597D01*
X0454966Y0611764D01*
X0454966Y0611854D01*
X0454966Y0614170D01*
X0454966Y0614170D01*
X0454966Y0614170D01*
X0454966Y0614265D01*
X0454893Y0614441D01*
X0454893Y0614441D01*
X0454852Y0614482D01*
X0454758Y0614576D01*
X0454582Y0614649D01*
X0454487Y0614649D01*
X0427292Y0614649D01*
D02*
G37*
G36*
X0457740Y0614649D02*
X0457740Y0614649D01*
X0457632Y0614649D01*
X0457432Y0614566D01*
X0457279Y0614413D01*
X0457196Y0614214D01*
Y0611785D01*
X0457269Y0611609D01*
X0457404Y0611474D01*
X0457580Y0611401D01*
X0464633D01*
X0464859Y0611495D01*
X0465032Y0611668D01*
X0465126Y0611894D01*
Y0614010D01*
X0465126Y0614010D01*
X0465126Y0614010D01*
X0465126Y0614010D01*
X0465126Y0614137D01*
X0465029Y0614372D01*
X0464849Y0614552D01*
X0464614Y0614649D01*
X0464487Y0614649D01*
X0457740Y0614649D01*
D02*
G37*
G36*
X0456178Y0610424D02*
X0455941D01*
X0455712Y0610363D01*
X0455507Y0610245D01*
X0455461Y0610199D01*
X0455443Y0610189D01*
X0455439Y0610185D01*
X0455432Y0610183D01*
X0455401Y0610173D01*
X0455353Y0610163D01*
X0455297Y0610154D01*
X0455010Y0610134D01*
X0454897Y0610132D01*
X0454884Y0610130D01*
X0449720D01*
X0449709Y0610132D01*
X0449481Y0610138D01*
X0449307Y0610153D01*
X0449247Y0610163D01*
X0449199Y0610173D01*
X0449168Y0610183D01*
X0449162Y0610185D01*
X0449158Y0610189D01*
X0449139Y0610199D01*
X0449093Y0610245D01*
X0448888Y0610363D01*
X0448659Y0610424D01*
X0448422D01*
X0448193Y0610363D01*
X0447988Y0610245D01*
X0447821Y0610077D01*
X0447702Y0609872D01*
X0447641Y0609643D01*
Y0609406D01*
X0447702Y0609177D01*
X0447821Y0608972D01*
X0447988Y0608804D01*
X0448193Y0608686D01*
X0448422Y0608624D01*
X0448659D01*
X0448888Y0608686D01*
X0449093Y0608804D01*
X0449139Y0608850D01*
X0449158Y0608860D01*
X0449162Y0608863D01*
X0449168Y0608866D01*
X0449199Y0608875D01*
X0449247Y0608886D01*
X0449303Y0608895D01*
X0449590Y0608915D01*
X0449704Y0608917D01*
X0449716Y0608919D01*
X0454880D01*
X0454891Y0608917D01*
X0455120Y0608911D01*
X0455294Y0608895D01*
X0455353Y0608886D01*
X0455401Y0608875D01*
X0455432Y0608866D01*
X0455439Y0608863D01*
X0455443Y0608860D01*
X0455461Y0608850D01*
X0455507Y0608804D01*
X0455712Y0608686D01*
X0455941Y0608624D01*
X0456178D01*
X0456407Y0608686D01*
X0456612Y0608804D01*
X0456780Y0608972D01*
X0456899Y0609177D01*
X0456960Y0609406D01*
Y0609643D01*
X0456899Y0609872D01*
X0456780Y0610077D01*
X0456612Y0610245D01*
X0456407Y0610363D01*
X0456178Y0610424D01*
D02*
G37*
G36*
X0496513Y0613187D02*
X0496109D01*
X0495713Y0613109D01*
X0495340Y0612954D01*
X0495004Y0612730D01*
X0494719Y0612444D01*
X0494494Y0612108D01*
X0494340Y0611735D01*
X0494261Y0611339D01*
Y0610935D01*
X0494340Y0610539D01*
X0494494Y0610166D01*
X0494719Y0609831D01*
X0495004Y0609545D01*
X0495340Y0609321D01*
X0495713Y0609166D01*
X0496109Y0609087D01*
X0496513D01*
X0496909Y0609166D01*
X0497282Y0609321D01*
X0497618Y0609545D01*
X0497903Y0609831D01*
X0498128Y0610166D01*
X0498282Y0610539D01*
X0498361Y0610935D01*
Y0611339D01*
X0498282Y0611735D01*
X0498128Y0612108D01*
X0497903Y0612444D01*
X0497618Y0612730D01*
X0497282Y0612954D01*
X0496909Y0613109D01*
X0496513Y0613187D01*
D02*
G37*
G36*
Y0600842D02*
X0496109D01*
X0495713Y0600764D01*
X0495340Y0600609D01*
X0495004Y0600385D01*
X0494719Y0600099D01*
X0494494Y0599763D01*
X0494340Y0599390D01*
X0494261Y0598994D01*
Y0598591D01*
X0494340Y0598194D01*
X0494494Y0597821D01*
X0494719Y0597486D01*
X0495004Y0597200D01*
X0495340Y0596976D01*
X0495713Y0596821D01*
X0496109Y0596742D01*
X0496513D01*
X0496909Y0596821D01*
X0497282Y0596976D01*
X0497618Y0597200D01*
X0497903Y0597486D01*
X0498128Y0597821D01*
X0498282Y0598194D01*
X0498361Y0598591D01*
Y0598994D01*
X0498282Y0599390D01*
X0498128Y0599763D01*
X0497903Y0600099D01*
X0497618Y0600385D01*
X0497282Y0600609D01*
X0496909Y0600764D01*
X0496513Y0600842D01*
D02*
G37*
G36*
X0413361Y0595573D02*
X0413085D01*
X0412815Y0595519D01*
X0412560Y0595413D01*
X0412331Y0595260D01*
X0412136Y0595065D01*
X0411983Y0594836D01*
X0411877Y0594581D01*
X0411823Y0594310D01*
Y0594035D01*
X0411877Y0593764D01*
X0411983Y0593509D01*
X0412136Y0593280D01*
X0412331Y0593085D01*
X0412560Y0592932D01*
X0412815Y0592826D01*
X0413085Y0592773D01*
X0413361D01*
X0413632Y0592826D01*
X0413886Y0592932D01*
X0414116Y0593085D01*
X0414311Y0593280D01*
X0414464Y0593509D01*
X0414569Y0593764D01*
X0414623Y0594035D01*
Y0594310D01*
X0414569Y0594581D01*
X0414464Y0594836D01*
X0414311Y0595065D01*
X0414116Y0595260D01*
X0413886Y0595413D01*
X0413632Y0595519D01*
X0413361Y0595573D01*
D02*
G37*
G36*
X0429356Y0588856D02*
X0429101Y0588831D01*
X0428856Y0588756D01*
X0428630Y0588636D01*
X0428432Y0588473D01*
X0428270Y0588275D01*
X0428149Y0588049D01*
X0428075Y0587804D01*
X0428049Y0587549D01*
Y0586549D01*
X0428075Y0586295D01*
X0428149Y0586050D01*
X0428270Y0585824D01*
X0428432Y0585626D01*
X0428630Y0585463D01*
X0428856Y0585343D01*
X0429101Y0585268D01*
X0429356Y0585243D01*
X0429611Y0585268D01*
X0429856Y0585343D01*
X0430081Y0585463D01*
X0430279Y0585626D01*
X0430442Y0585824D01*
X0430506Y0585943D01*
X0430808Y0586014D01*
X0430913Y0585999D01*
X0430932Y0585976D01*
X0431130Y0585813D01*
X0431356Y0585693D01*
X0431601Y0585618D01*
X0431856Y0585593D01*
X0432111Y0585618D01*
X0432356Y0585693D01*
X0432581Y0585813D01*
X0432779Y0585976D01*
X0432942Y0586174D01*
X0433063Y0586400D01*
X0433137Y0586645D01*
X0433162Y0586899D01*
Y0587199D01*
X0433137Y0587454D01*
X0433063Y0587699D01*
X0432942Y0587925D01*
X0432779Y0588123D01*
X0432581Y0588286D01*
X0432356Y0588406D01*
X0432111Y0588481D01*
X0431856Y0588506D01*
X0431601Y0588481D01*
X0431356Y0588406D01*
X0431130Y0588286D01*
X0430932Y0588123D01*
X0430913Y0588100D01*
X0430808Y0588085D01*
X0430506Y0588156D01*
X0430442Y0588275D01*
X0430279Y0588473D01*
X0430081Y0588636D01*
X0429856Y0588756D01*
X0429611Y0588831D01*
X0429356Y0588856D01*
D02*
G37*
G36*
X0496513Y0588497D02*
X0496109D01*
X0495713Y0588419D01*
X0495340Y0588264D01*
X0495004Y0588040D01*
X0494719Y0587754D01*
X0494494Y0587418D01*
X0494340Y0587045D01*
X0494261Y0586649D01*
Y0586245D01*
X0494340Y0585849D01*
X0494494Y0585476D01*
X0494719Y0585141D01*
X0495004Y0584855D01*
X0495340Y0584631D01*
X0495713Y0584476D01*
X0496109Y0584397D01*
X0496513D01*
X0496909Y0584476D01*
X0497282Y0584631D01*
X0497618Y0584855D01*
X0497903Y0585141D01*
X0498128Y0585476D01*
X0498282Y0585849D01*
X0498361Y0586245D01*
Y0586649D01*
X0498282Y0587045D01*
X0498128Y0587418D01*
X0497903Y0587754D01*
X0497618Y0588040D01*
X0497282Y0588264D01*
X0496909Y0588419D01*
X0496513Y0588497D01*
D02*
G37*
%LPD*%
G36*
X0478105Y0671178D02*
X0478453Y0671034D01*
X0478766Y0670825D01*
X0479032Y0670559D01*
X0479241Y0670246D01*
X0479386Y0669898D01*
X0479459Y0669529D01*
Y0656821D01*
X0479411Y0656579D01*
X0479316Y0656351D01*
X0479179Y0656145D01*
X0479004Y0655971D01*
X0478799Y0655833D01*
X0478571Y0655739D01*
X0478328Y0655691D01*
X0478205Y0655691D01*
X0476871D01*
X0476750Y0655691D01*
X0476512Y0655738D01*
X0476288Y0655831D01*
X0476086Y0655966D01*
X0475914Y0656137D01*
X0475779Y0656339D01*
X0475686Y0656563D01*
X0475639Y0656801D01*
X0475639Y0656923D01*
Y0656923D01*
Y0669578D01*
Y0669743D01*
X0475703Y0670066D01*
X0475830Y0670371D01*
X0476013Y0670645D01*
X0476246Y0670878D01*
X0476520Y0671061D01*
X0476824Y0671187D01*
X0477148Y0671252D01*
X0477313D01*
X0477313Y0671252D01*
X0477548Y0671252D01*
X0477736Y0671252D01*
X0478105Y0671178D01*
D02*
G37*
G36*
X0441805Y0671178D02*
X0442153Y0671034D01*
X0442466Y0670825D01*
X0442732Y0670559D01*
X0442941Y0670246D01*
X0443086Y0669898D01*
X0443159Y0669529D01*
X0443159Y0669341D01*
X0443159D01*
X0443159Y0669341D01*
X0443159Y0656945D01*
X0443159Y0656821D01*
X0443111Y0656579D01*
X0443016Y0656351D01*
X0442879Y0656145D01*
X0442704Y0655971D01*
X0442499Y0655833D01*
X0442271Y0655739D01*
X0442028Y0655691D01*
X0441905Y0655691D01*
X0440571D01*
X0440450Y0655691D01*
X0440212Y0655738D01*
X0439987Y0655831D01*
X0439786Y0655966D01*
X0439614Y0656137D01*
X0439479Y0656339D01*
X0439386Y0656563D01*
X0439339Y0656801D01*
X0439339Y0656923D01*
Y0669578D01*
Y0669743D01*
X0439403Y0670066D01*
X0439530Y0670371D01*
X0439713Y0670645D01*
X0439946Y0670878D01*
X0440220Y0671061D01*
X0440524Y0671187D01*
X0440848Y0671252D01*
X0441248Y0671252D01*
X0441436Y0671252D01*
X0441805Y0671178D01*
D02*
G37*
G36*
X0459955Y0671178D02*
X0460303Y0671034D01*
X0460616Y0670825D01*
X0460882Y0670559D01*
X0461091Y0670246D01*
X0461236Y0669898D01*
X0461280Y0669676D01*
X0461309Y0669341D01*
Y0669341D01*
X0461309D01*
X0461309Y0669341D01*
X0461309Y0656945D01*
X0461309Y0656821D01*
X0461261Y0656579D01*
X0461166Y0656351D01*
X0461029Y0656145D01*
X0460854Y0655971D01*
X0460649Y0655833D01*
X0460421Y0655739D01*
X0460178Y0655691D01*
X0460055Y0655691D01*
X0458721D01*
X0458600Y0655691D01*
X0458362Y0655738D01*
X0458138Y0655831D01*
X0457936Y0655966D01*
X0457764Y0656137D01*
X0457629Y0656339D01*
X0457536Y0656563D01*
X0457489Y0656801D01*
X0457489Y0656923D01*
Y0669578D01*
Y0669743D01*
X0457553Y0670066D01*
X0457680Y0670371D01*
X0457863Y0670645D01*
X0458096Y0670878D01*
X0458370Y0671061D01*
X0458674Y0671187D01*
X0458998Y0671252D01*
X0459163D01*
X0459163Y0671252D01*
X0459398Y0671252D01*
X0459586Y0671252D01*
X0459955Y0671178D01*
D02*
G37*
G36*
X0472694Y0671188D02*
X0472994Y0671065D01*
X0473263Y0670885D01*
X0473492Y0670656D01*
X0473672Y0670386D01*
X0473796Y0670087D01*
X0473826Y0669934D01*
X0473859Y0669607D01*
X0473859Y0669607D01*
X0473859Y0669607D01*
X0473859Y0642546D01*
X0473859Y0642442D01*
X0473818Y0642238D01*
X0473739Y0642046D01*
X0473623Y0641873D01*
X0473476Y0641726D01*
X0473303Y0641611D01*
X0473111Y0641531D01*
X0472907Y0641491D01*
X0472803Y0641491D01*
X0471691D01*
X0471580Y0641491D01*
X0471361Y0641534D01*
X0471155Y0641620D01*
X0470970Y0641744D01*
X0470812Y0641901D01*
X0470688Y0642087D01*
X0470603Y0642293D01*
X0470559Y0642511D01*
X0470559Y0642623D01*
X0470559Y0642623D01*
X0470559Y0669596D01*
X0470559Y0669759D01*
X0470623Y0670079D01*
X0470747Y0670380D01*
X0470929Y0670651D01*
X0471159Y0670882D01*
X0471431Y0671063D01*
X0471732Y0671188D01*
X0472052Y0671252D01*
X0472215Y0671252D01*
X0472377Y0671252D01*
X0472694Y0671188D01*
D02*
G37*
G36*
X0454544Y0671188D02*
X0454844Y0671065D01*
X0455113Y0670885D01*
X0455342Y0670656D01*
X0455522Y0670386D01*
X0455646Y0670087D01*
X0455676Y0669934D01*
X0455709Y0669607D01*
X0455709Y0669607D01*
X0455709Y0669607D01*
X0455709Y0642546D01*
X0455709Y0642442D01*
X0455668Y0642238D01*
X0455589Y0642046D01*
X0455473Y0641873D01*
X0455326Y0641726D01*
X0455153Y0641611D01*
X0454961Y0641531D01*
X0454757Y0641491D01*
X0454653Y0641491D01*
X0453541D01*
X0453430Y0641491D01*
X0453211Y0641534D01*
X0453005Y0641620D01*
X0452820Y0641744D01*
X0452662Y0641901D01*
X0452538Y0642087D01*
X0452453Y0642293D01*
X0452409Y0642511D01*
X0452409Y0642623D01*
X0452409Y0642623D01*
X0452409Y0669596D01*
X0452409Y0669759D01*
X0452473Y0670079D01*
X0452598Y0670380D01*
X0452779Y0670651D01*
X0453009Y0670882D01*
X0453281Y0671063D01*
X0453582Y0671188D01*
X0453902Y0671252D01*
X0454065Y0671252D01*
X0454227Y0671252D01*
X0454544Y0671188D01*
D02*
G37*
G36*
X0467105Y0671252D02*
X0467441Y0671218D01*
X0467594Y0671187D01*
X0467898Y0671061D01*
X0468172Y0670878D01*
X0468405Y0670645D01*
X0468589Y0670371D01*
X0468715Y0670066D01*
X0468779Y0669743D01*
Y0669578D01*
Y0656923D01*
X0468779Y0656923D01*
X0468779Y0656801D01*
X0468732Y0656563D01*
X0468639Y0656339D01*
X0468504Y0656137D01*
X0468332Y0655966D01*
X0468131Y0655831D01*
X0467906Y0655738D01*
X0467668Y0655691D01*
X0467547Y0655691D01*
X0466213D01*
X0466090Y0655691D01*
X0465848Y0655739D01*
X0465619Y0655833D01*
X0465414Y0655971D01*
X0465239Y0656145D01*
X0465102Y0656351D01*
X0465007Y0656579D01*
X0464959Y0656821D01*
X0464959Y0656945D01*
X0464959Y0669341D01*
X0464959Y0669341D01*
X0464959Y0669341D01*
Y0669341D01*
X0464986Y0669663D01*
X0465033Y0669898D01*
X0465177Y0670246D01*
X0465386Y0670559D01*
X0465652Y0670825D01*
X0465965Y0671034D01*
X0466313Y0671178D01*
X0466682Y0671252D01*
X0467105Y0671252D01*
D02*
G37*
G36*
X0430805Y0671252D02*
X0431141Y0671218D01*
X0431294Y0671187D01*
X0431598Y0671061D01*
X0431872Y0670878D01*
X0432105Y0670645D01*
X0432289Y0670371D01*
X0432415Y0670066D01*
X0432479Y0669743D01*
Y0669578D01*
Y0656923D01*
X0432479Y0656801D01*
X0432432Y0656563D01*
X0432339Y0656339D01*
X0432204Y0656137D01*
X0432032Y0655966D01*
X0431831Y0655831D01*
X0431606Y0655738D01*
X0431368Y0655691D01*
X0431247Y0655691D01*
X0429913D01*
X0429790Y0655691D01*
X0429547Y0655739D01*
X0429319Y0655833D01*
X0429114Y0655971D01*
X0428939Y0656145D01*
X0428802Y0656351D01*
X0428707Y0656579D01*
X0428659Y0656821D01*
Y0656883D01*
X0428659Y0656945D01*
X0428659Y0669341D01*
X0428659Y0669341D01*
X0428659Y0669341D01*
Y0669341D01*
X0428687Y0669667D01*
X0428733Y0669898D01*
X0428877Y0670246D01*
X0429086Y0670559D01*
X0429352Y0670825D01*
X0429665Y0671034D01*
X0430013Y0671178D01*
X0430382Y0671252D01*
X0430805Y0671252D01*
D02*
G37*
G36*
X0448955Y0671252D02*
X0449291Y0671218D01*
X0449444Y0671187D01*
X0449748Y0671061D01*
X0450022Y0670878D01*
X0450255Y0670645D01*
X0450439Y0670371D01*
X0450565Y0670066D01*
X0450629Y0669743D01*
Y0669578D01*
Y0656923D01*
X0450629Y0656923D01*
X0450629Y0656801D01*
X0450582Y0656563D01*
X0450489Y0656339D01*
X0450354Y0656137D01*
X0450182Y0655966D01*
X0449981Y0655831D01*
X0449756Y0655738D01*
X0449518Y0655691D01*
X0449397Y0655691D01*
X0448063D01*
X0447940Y0655691D01*
X0447697Y0655739D01*
X0447469Y0655833D01*
X0447264Y0655971D01*
X0447089Y0656145D01*
X0446952Y0656351D01*
X0446857Y0656579D01*
X0446809Y0656821D01*
X0446809Y0656945D01*
X0446809Y0669341D01*
X0446809Y0669341D01*
X0446809Y0669341D01*
Y0669341D01*
X0446836Y0669663D01*
X0446883Y0669898D01*
X0447027Y0670246D01*
X0447236Y0670559D01*
X0447502Y0670825D01*
X0447815Y0671034D01*
X0448163Y0671178D01*
X0448532Y0671252D01*
X0448955Y0671252D01*
D02*
G37*
G36*
X0485456Y0667744D02*
X0488791Y0667744D01*
X0488791Y0667744D01*
X0488791Y0667744D01*
X0488792Y0667744D01*
X0489109Y0667683D01*
X0489194Y0667648D01*
X0489334Y0667555D01*
X0489452Y0667436D01*
X0489545Y0667297D01*
X0489609Y0667142D01*
X0489642Y0666977D01*
X0489642Y0666894D01*
X0489642Y0655399D01*
X0489642Y0643054D01*
X0489642Y0642038D01*
X0489642Y0628952D01*
X0489642Y0606755D01*
X0489642Y0606755D01*
X0489642Y0606619D01*
X0489607Y0606349D01*
X0489536Y0606087D01*
X0489432Y0605835D01*
X0489296Y0605600D01*
X0489131Y0605384D01*
X0488938Y0605192D01*
X0488722Y0605026D01*
X0488487Y0604890D01*
X0488236Y0604786D01*
X0487973Y0604716D01*
X0487703Y0604680D01*
X0487567Y0604680D01*
X0487567Y0604680D01*
X0487435Y0604674D01*
X0487177Y0604622D01*
X0486934Y0604521D01*
X0486714Y0604375D01*
X0486528Y0604189D01*
X0486382Y0603970D01*
X0486281Y0603726D01*
X0486229Y0603468D01*
X0486223Y0603336D01*
Y0584613D01*
X0486228Y0584473D01*
X0486264Y0584196D01*
X0486336Y0583925D01*
X0486444Y0583667D01*
X0486583Y0583425D01*
X0486754Y0583203D01*
X0486951Y0583005D01*
X0487173Y0582835D01*
X0487416Y0582695D01*
X0487674Y0582588D01*
X0487944Y0582516D01*
X0488221Y0582479D01*
X0488361Y0582474D01*
X0493876Y0582474D01*
X0494057D01*
X0494411Y0582404D01*
X0494745Y0582266D01*
X0495046Y0582065D01*
X0495302Y0581809D01*
X0495502Y0581509D01*
X0495641Y0581174D01*
X0495711Y0580820D01*
Y0580639D01*
Y0572286D01*
X0495711Y0572286D01*
X0495711Y0572227D01*
X0495688Y0572111D01*
X0495643Y0572002D01*
X0495578Y0571904D01*
X0495494Y0571821D01*
X0495396Y0571755D01*
X0495287Y0571710D01*
X0495171Y0571687D01*
X0494989Y0571687D01*
X0494989Y0571687D01*
X0494932D01*
X0494820Y0571709D01*
X0494715Y0571753D01*
X0494621Y0571816D01*
X0494540Y0571896D01*
X0494477Y0571991D01*
X0494434Y0572096D01*
X0494411Y0572207D01*
Y0572264D01*
Y0579679D01*
X0494411Y0579679D01*
X0494411Y0579679D01*
X0494411Y0579681D01*
X0494405Y0579806D01*
X0494355Y0580055D01*
X0494258Y0580290D01*
X0494117Y0580501D01*
X0493938Y0580680D01*
X0493727Y0580821D01*
X0493492Y0580919D01*
X0493243Y0580968D01*
X0493116Y0580974D01*
X0487570Y0580974D01*
X0487383Y0580974D01*
X0487013Y0581023D01*
X0486653Y0581120D01*
X0486308Y0581263D01*
X0485985Y0581449D01*
X0485689Y0581676D01*
X0485425Y0581940D01*
X0485198Y0582236D01*
X0485011Y0582560D01*
X0484868Y0582904D01*
X0484772Y0583265D01*
X0484723Y0583635D01*
X0484723Y0583821D01*
Y0603303D01*
X0484723Y0603303D01*
X0484723Y0603303D01*
X0484723Y0603306D01*
X0484716Y0603438D01*
X0484664Y0603703D01*
X0484560Y0603952D01*
X0484410Y0604177D01*
X0484220Y0604368D01*
X0483995Y0604518D01*
X0483746Y0604621D01*
X0483481Y0604674D01*
X0483346Y0604680D01*
X0458367Y0604680D01*
X0458367Y0604680D01*
X0458231Y0604674D01*
X0457965Y0604621D01*
X0457714Y0604517D01*
X0457488Y0604366D01*
X0457296Y0604173D01*
X0457145Y0603948D01*
X0457041Y0603696D01*
X0456988Y0603430D01*
X0456981Y0603294D01*
X0456981Y0599284D01*
Y0586487D01*
X0455181Y0586487D01*
Y0588833D01*
X0455181D01*
Y0592292D01*
X0455181Y0592292D01*
X0455181Y0592292D01*
X0455181Y0592295D01*
X0455177Y0592373D01*
X0455145Y0592532D01*
X0455145Y0592532D01*
X0455083Y0592682D01*
X0454993Y0592818D01*
X0454878Y0592932D01*
X0454743Y0593023D01*
X0454593Y0593085D01*
X0454434Y0593116D01*
X0454353Y0593120D01*
X0426490Y0593120D01*
X0426489Y0593120D01*
X0426368Y0593114D01*
X0426131Y0593067D01*
X0425908Y0592974D01*
X0425707Y0592840D01*
X0425536Y0592669D01*
X0425401Y0592468D01*
X0425309Y0592245D01*
X0425262Y0592007D01*
X0425256Y0591886D01*
X0425256Y0587049D01*
X0423456D01*
Y0592628D01*
X0423456Y0592628D01*
X0423491Y0592964D01*
X0423518Y0593100D01*
X0423640Y0593394D01*
X0423817Y0593659D01*
X0424042Y0593884D01*
X0424307Y0594061D01*
X0424601Y0594183D01*
X0424914Y0594245D01*
X0425073Y0594245D01*
X0425256Y0594245D01*
X0454289Y0594245D01*
X0454289Y0594245D01*
X0454376Y0594250D01*
X0454548Y0594284D01*
X0454548Y0594284D01*
X0454612Y0594310D01*
X0454710Y0594350D01*
X0454855Y0594448D01*
X0454979Y0594571D01*
X0455076Y0594717D01*
X0455143Y0594878D01*
X0455177Y0595050D01*
X0455181Y0595137D01*
X0455181Y0601194D01*
Y0603794D01*
X0455181Y0603970D01*
X0455227Y0604319D01*
X0455318Y0604659D01*
X0455453Y0604985D01*
X0455629Y0605290D01*
X0455843Y0605569D01*
X0456092Y0605818D01*
X0456371Y0606032D01*
X0456676Y0606209D01*
X0457002Y0606343D01*
X0457342Y0606434D01*
X0457691Y0606480D01*
X0457867Y0606480D01*
X0486467Y0606480D01*
X0486602Y0606487D01*
X0486866Y0606539D01*
X0487115Y0606642D01*
X0487339Y0606792D01*
X0487530Y0606983D01*
X0487680Y0607207D01*
X0487783Y0607456D01*
X0487835Y0607720D01*
X0487842Y0607855D01*
X0487842Y0616794D01*
X0487842Y0616794D01*
X0487842Y0616794D01*
X0487839Y0616848D01*
X0487818Y0616955D01*
X0487818Y0616955D01*
X0487777Y0617055D01*
X0487777Y0617055D01*
X0487716Y0617145D01*
X0487639Y0617222D01*
X0487549Y0617283D01*
X0487449Y0617324D01*
X0487342Y0617345D01*
X0487288Y0617348D01*
X0485443Y0617348D01*
X0485351Y0617348D01*
X0485183Y0617418D01*
X0485054Y0617546D01*
X0485045Y0617568D01*
X0484984Y0617893D01*
X0485094Y0618198D01*
X0485189Y0618293D01*
X0485362Y0618364D01*
X0485456Y0618364D01*
X0487276Y0618364D01*
X0487332Y0618367D01*
X0487440Y0618389D01*
X0487543Y0618431D01*
X0487635Y0618493D01*
X0487714Y0618571D01*
X0487775Y0618664D01*
X0487818Y0618766D01*
X0487839Y0618875D01*
X0487842Y0618930D01*
Y0629094D01*
X0487842Y0629094D01*
X0487842Y0629094D01*
X0487839Y0629152D01*
X0487816Y0629268D01*
X0487816Y0629268D01*
X0487771Y0629376D01*
X0487771Y0629376D01*
X0487750Y0629409D01*
X0487706Y0629474D01*
X0487623Y0629557D01*
X0487525Y0629622D01*
X0487417Y0629667D01*
X0487302Y0629690D01*
X0487243Y0629693D01*
X0485443Y0629693D01*
X0485351Y0629693D01*
X0485183Y0629763D01*
X0485054Y0629891D01*
X0485045Y0629913D01*
X0484984Y0630238D01*
X0485094Y0630543D01*
X0485189Y0630638D01*
X0485362Y0630709D01*
X0485456Y0630709D01*
X0487218Y0630709D01*
X0487218Y0630709D01*
X0487218Y0630709D01*
X0487279Y0630712D01*
X0487399Y0630736D01*
X0487399Y0630736D01*
X0487512Y0630783D01*
X0487512Y0630783D01*
X0487532Y0630796D01*
X0487614Y0630851D01*
X0487700Y0630938D01*
X0487768Y0631039D01*
X0487815Y0631152D01*
X0487839Y0631273D01*
X0487842Y0631334D01*
X0487842Y0638164D01*
X0487842D01*
X0487842Y0638164D01*
X0487842Y0638164D01*
X0487835Y0638304D01*
X0487781Y0638577D01*
X0487674Y0638834D01*
X0487520Y0639066D01*
X0487323Y0639263D01*
X0487091Y0639418D01*
X0486833Y0639524D01*
X0486560Y0639579D01*
X0486421Y0639585D01*
X0471745Y0639585D01*
X0471745Y0639585D01*
X0471674Y0639582D01*
X0471533Y0639554D01*
X0471401Y0639499D01*
X0471282Y0639420D01*
X0471180Y0639318D01*
X0471101Y0639199D01*
X0471046Y0639067D01*
X0471018Y0638926D01*
X0471015Y0638855D01*
Y0637843D01*
X0471015Y0637843D01*
Y0637785D01*
X0470992Y0637670D01*
X0470947Y0637563D01*
X0470883Y0637466D01*
X0470800Y0637384D01*
X0470704Y0637319D01*
X0470596Y0637275D01*
X0470482Y0637252D01*
X0468779D01*
X0468696Y0637252D01*
X0468543Y0637315D01*
X0468426Y0637433D01*
X0468362Y0637586D01*
X0468362Y0637669D01*
Y0638809D01*
X0468362D01*
X0468362Y0638809D01*
X0468362Y0638809D01*
X0468358Y0638885D01*
X0468329Y0639034D01*
X0468329Y0639034D01*
X0468270Y0639175D01*
X0468186Y0639302D01*
X0468078Y0639409D01*
X0467952Y0639494D01*
X0467811Y0639552D01*
X0467662Y0639582D01*
X0467586Y0639585D01*
X0453604Y0639585D01*
X0453604Y0639585D01*
X0453531Y0639582D01*
X0453389Y0639554D01*
X0453256Y0639498D01*
X0453135Y0639418D01*
X0453033Y0639316D01*
X0452953Y0639195D01*
X0452898Y0639062D01*
X0452869Y0638920D01*
X0452866Y0638848D01*
Y0637795D01*
X0452866Y0637795D01*
X0452866Y0637742D01*
X0452845Y0637637D01*
X0452804Y0637538D01*
X0452745Y0637449D01*
X0452669Y0637373D01*
X0452580Y0637314D01*
X0452481Y0637273D01*
X0452376Y0637252D01*
X0452323Y0637252D01*
X0450691D01*
X0450596Y0637252D01*
X0450420Y0637325D01*
X0450285Y0637460D01*
X0450212Y0637636D01*
X0450212Y0637731D01*
Y0638785D01*
X0450212D01*
X0450212Y0638785D01*
X0450212Y0638785D01*
X0450208Y0638864D01*
X0450178Y0639018D01*
X0450178Y0639018D01*
X0450118Y0639163D01*
X0450031Y0639293D01*
X0449920Y0639404D01*
X0449789Y0639491D01*
X0449644Y0639551D01*
X0449490Y0639582D01*
X0449412Y0639585D01*
X0435289Y0639585D01*
X0435289Y0639585D01*
X0435233Y0639583D01*
X0435122Y0639561D01*
X0435018Y0639517D01*
X0434924Y0639455D01*
X0434844Y0639375D01*
X0434782Y0639281D01*
X0434739Y0639177D01*
X0434717Y0639066D01*
X0434714Y0639010D01*
Y0637853D01*
X0434714Y0637853D01*
X0434714Y0637794D01*
X0434691Y0637678D01*
X0434645Y0637568D01*
X0434580Y0637470D01*
X0434496Y0637386D01*
X0434397Y0637320D01*
X0434288Y0637275D01*
X0434172Y0637252D01*
X0434113Y0637252D01*
X0432574D01*
X0432524Y0637252D01*
X0432425Y0637272D01*
X0432332Y0637310D01*
X0432248Y0637366D01*
X0432176Y0637438D01*
X0432120Y0637522D01*
X0432082Y0637615D01*
X0432062Y0637714D01*
X0432062Y0637764D01*
Y0639071D01*
X0432062Y0639071D01*
X0432062Y0639071D01*
X0432052Y0639171D01*
X0431975Y0639357D01*
X0431975Y0639357D01*
X0431949Y0639383D01*
X0431833Y0639499D01*
X0431648Y0639576D01*
X0431548Y0639585D01*
X0429753Y0639585D01*
X0429675Y0639585D01*
X0429522Y0639616D01*
X0429377Y0639676D01*
X0429247Y0639763D01*
X0429136Y0639873D01*
X0429049Y0640004D01*
X0428990Y0640148D01*
X0428959Y0640302D01*
X0428959Y0640380D01*
Y0640867D01*
Y0644741D01*
X0430809D01*
Y0641758D01*
X0430813Y0641670D01*
X0430847Y0641499D01*
X0430914Y0641338D01*
X0431011Y0641193D01*
X0431135Y0641070D01*
X0431280Y0640973D01*
X0431441Y0640906D01*
X0431612Y0640872D01*
X0431699Y0640867D01*
X0446595D01*
X0446650Y0640870D01*
X0446758Y0640892D01*
X0446861Y0640934D01*
X0446953Y0640995D01*
X0447031Y0641074D01*
X0447092Y0641166D01*
X0447135Y0641268D01*
X0447156Y0641377D01*
X0447159Y0641432D01*
X0447159Y0644741D01*
X0448959D01*
Y0641478D01*
X0448962Y0641418D01*
X0448985Y0641301D01*
X0449031Y0641190D01*
X0449098Y0641091D01*
X0449182Y0641006D01*
X0449282Y0640940D01*
X0449393Y0640894D01*
X0449510Y0640870D01*
X0449570Y0640867D01*
X0464170D01*
X0464281Y0640873D01*
X0464500Y0640916D01*
X0464707Y0641002D01*
X0464893Y0641126D01*
X0465050Y0641284D01*
X0465175Y0641470D01*
X0465260Y0641676D01*
X0465304Y0641895D01*
X0465309Y0642007D01*
X0465309Y0644741D01*
X0467109D01*
Y0641952D01*
X0467114Y0641846D01*
X0467156Y0641637D01*
X0467237Y0641441D01*
X0467355Y0641264D01*
X0467506Y0641114D01*
X0467682Y0640995D01*
X0467879Y0640914D01*
X0468087Y0640873D01*
X0468194Y0640867D01*
X0483915D01*
X0484020Y0640873D01*
X0484225Y0640913D01*
X0484419Y0640994D01*
X0484593Y0641110D01*
X0484742Y0641258D01*
X0484858Y0641433D01*
X0484938Y0641626D01*
X0484979Y0641832D01*
X0484984Y0641937D01*
X0484984Y0642233D01*
X0484984Y0642496D01*
X0484984Y0642583D01*
X0484984Y0642583D01*
X0485094Y0642888D01*
X0485189Y0642983D01*
X0485362Y0643054D01*
X0485456Y0643054D01*
X0486591Y0643054D01*
X0486941Y0643054D01*
X0486941Y0643054D01*
X0487029Y0643059D01*
X0487203Y0643093D01*
X0487203Y0643093D01*
X0487264Y0643119D01*
X0487366Y0643161D01*
X0487513Y0643259D01*
X0487638Y0643384D01*
X0487736Y0643531D01*
X0487803Y0643694D01*
X0487838Y0643867D01*
X0487842Y0643955D01*
X0487842Y0653545D01*
X0487842Y0653545D01*
X0487842Y0653545D01*
X0487842Y0653546D01*
X0487838Y0653627D01*
X0487806Y0653788D01*
X0487806Y0653789D01*
X0487776Y0653862D01*
X0487743Y0653940D01*
X0487652Y0654077D01*
X0487536Y0654193D01*
X0487399Y0654284D01*
X0487248Y0654347D01*
X0487087Y0654379D01*
X0487005Y0654383D01*
X0485443Y0654383D01*
X0485351Y0654383D01*
X0485183Y0654453D01*
X0485054Y0654581D01*
X0485045Y0654603D01*
X0484984Y0654928D01*
X0484984Y0654928D01*
X0485094Y0655233D01*
X0485189Y0655328D01*
X0485362Y0655399D01*
X0485456Y0655399D01*
X0486634Y0655399D01*
X0486984Y0655399D01*
X0486984Y0655399D01*
X0487068Y0655403D01*
X0487233Y0655436D01*
X0487233Y0655436D01*
X0487306Y0655466D01*
X0487388Y0655501D01*
X0487528Y0655594D01*
X0487647Y0655713D01*
X0487741Y0655853D01*
X0487805Y0656008D01*
X0487838Y0656173D01*
X0487842Y0656257D01*
X0487842Y0665794D01*
X0487842Y0665794D01*
X0487842Y0665794D01*
X0487842Y0665794D01*
X0487838Y0665885D01*
X0487802Y0666065D01*
X0487802Y0666065D01*
X0487783Y0666112D01*
X0487732Y0666234D01*
X0487630Y0666386D01*
X0487501Y0666516D01*
X0487348Y0666618D01*
X0487179Y0666688D01*
X0486999Y0666723D01*
X0486908Y0666728D01*
X0485443Y0666728D01*
X0485351Y0666728D01*
X0485183Y0666798D01*
X0485054Y0666926D01*
X0485045Y0666948D01*
X0484984Y0667273D01*
X0484984Y0667273D01*
X0485094Y0667578D01*
X0485189Y0667673D01*
X0485362Y0667744D01*
X0485456Y0667744D01*
D02*
G37*
G36*
X0436251Y0671217D02*
X0436394Y0671188D01*
X0436694Y0671065D01*
X0436963Y0670885D01*
X0437192Y0670656D01*
X0437372Y0670386D01*
X0437496Y0670087D01*
X0437559Y0669769D01*
X0437559Y0669607D01*
Y0642546D01*
X0437559Y0642442D01*
X0437518Y0642238D01*
X0437439Y0642046D01*
X0437323Y0641873D01*
X0437176Y0641726D01*
X0437003Y0641611D01*
X0436811Y0641531D01*
X0436607Y0641491D01*
X0436503Y0641491D01*
X0435391D01*
X0435280Y0641491D01*
X0435061Y0641534D01*
X0434855Y0641620D01*
X0434670Y0641744D01*
X0434512Y0641901D01*
X0434388Y0642087D01*
X0434303Y0642293D01*
X0434259Y0642511D01*
X0434259Y0642623D01*
X0434259Y0642623D01*
X0434259Y0669596D01*
X0434259Y0669759D01*
X0434323Y0670079D01*
X0434447Y0670380D01*
X0434629Y0670651D01*
X0434859Y0670882D01*
X0435131Y0671063D01*
X0435432Y0671188D01*
X0435579Y0671217D01*
X0435915Y0671252D01*
X0436251Y0671217D01*
D02*
G37*
G36*
X0443877Y0601441D02*
X0443820Y0601355D01*
X0443770Y0601257D01*
X0443727Y0601145D01*
X0443690Y0601020D01*
X0443660Y0600882D01*
X0443636Y0600730D01*
X0443609Y0600388D01*
X0443606Y0600197D01*
X0443156D01*
X0443153Y0600388D01*
X0443126Y0600730D01*
X0443102Y0600882D01*
X0443072Y0601020D01*
X0443035Y0601145D01*
X0442992Y0601257D01*
X0442942Y0601355D01*
X0442885Y0601441D01*
X0442821Y0601513D01*
X0443941D01*
X0443877Y0601441D01*
D02*
G37*
G36*
X0454037Y0601441D02*
X0453980Y0601355D01*
X0453930Y0601257D01*
X0453887Y0601145D01*
X0453850Y0601020D01*
X0453820Y0600882D01*
X0453796Y0600730D01*
X0453769Y0600388D01*
X0453766Y0600197D01*
X0453316D01*
X0453313Y0600388D01*
X0453286Y0600730D01*
X0453262Y0600882D01*
X0453232Y0601020D01*
X0453195Y0601145D01*
X0453152Y0601257D01*
X0453102Y0601355D01*
X0453045Y0601441D01*
X0452981Y0601513D01*
X0454101D01*
X0454037Y0601441D01*
D02*
G37*
G36*
X0441337D02*
X0441280Y0601355D01*
X0441230Y0601257D01*
X0441187Y0601145D01*
X0441150Y0601020D01*
X0441120Y0600882D01*
X0441096Y0600730D01*
X0441069Y0600388D01*
X0441066Y0600197D01*
X0440616D01*
X0440613Y0600388D01*
X0440586Y0600730D01*
X0440562Y0600882D01*
X0440532Y0601020D01*
X0440495Y0601145D01*
X0440452Y0601257D01*
X0440402Y0601355D01*
X0440345Y0601441D01*
X0440281Y0601513D01*
X0441401D01*
X0441337Y0601441D01*
D02*
G37*
G36*
X0451497Y0601441D02*
X0451440Y0601355D01*
X0451390Y0601257D01*
X0451347Y0601145D01*
X0451310Y0601020D01*
X0451280Y0600882D01*
X0451256Y0600730D01*
X0451229Y0600388D01*
X0451226Y0600197D01*
X0450776D01*
X0450773Y0600388D01*
X0450746Y0600730D01*
X0450722Y0600882D01*
X0450692Y0601020D01*
X0450655Y0601145D01*
X0450612Y0601257D01*
X0450562Y0601355D01*
X0450505Y0601441D01*
X0450441Y0601513D01*
X0451561D01*
X0451497Y0601441D01*
D02*
G37*
G36*
X0438797D02*
X0438740Y0601355D01*
X0438690Y0601257D01*
X0438647Y0601145D01*
X0438610Y0601020D01*
X0438580Y0600882D01*
X0438556Y0600730D01*
X0438529Y0600388D01*
X0438526Y0600197D01*
X0438076D01*
X0438073Y0600388D01*
X0438046Y0600730D01*
X0438022Y0600882D01*
X0437992Y0601020D01*
X0437955Y0601145D01*
X0437912Y0601257D01*
X0437862Y0601355D01*
X0437805Y0601441D01*
X0437741Y0601513D01*
X0438861D01*
X0438797Y0601441D01*
D02*
G37*
G36*
X0453768Y0599591D02*
X0453802Y0599144D01*
X0453822Y0599035D01*
X0453846Y0598945D01*
X0453876Y0598876D01*
X0453909Y0598826D01*
X0453947Y0598797D01*
X0453990Y0598787D01*
X0453092D01*
X0453135Y0598797D01*
X0453173Y0598826D01*
X0453206Y0598876D01*
X0453236Y0598945D01*
X0453260Y0599035D01*
X0453280Y0599144D01*
X0453296Y0599273D01*
X0453314Y0599591D01*
X0453316Y0599780D01*
X0453766D01*
X0453768Y0599591D01*
D02*
G37*
G36*
X0451228D02*
X0451262Y0599144D01*
X0451282Y0599035D01*
X0451307Y0598945D01*
X0451336Y0598876D01*
X0451369Y0598826D01*
X0451407Y0598797D01*
X0451450Y0598787D01*
X0450552D01*
X0450595Y0598797D01*
X0450633Y0598826D01*
X0450666Y0598876D01*
X0450696Y0598945D01*
X0450720Y0599035D01*
X0450740Y0599144D01*
X0450756Y0599273D01*
X0450774Y0599591D01*
X0450776Y0599780D01*
X0451226D01*
X0451228Y0599591D01*
D02*
G37*
G36*
X0443608D02*
X0443642Y0599144D01*
X0443662Y0599035D01*
X0443687Y0598945D01*
X0443716Y0598876D01*
X0443749Y0598826D01*
X0443787Y0598797D01*
X0443830Y0598787D01*
X0442932D01*
X0442975Y0598797D01*
X0443013Y0598826D01*
X0443046Y0598876D01*
X0443076Y0598945D01*
X0443100Y0599035D01*
X0443120Y0599144D01*
X0443136Y0599273D01*
X0443154Y0599591D01*
X0443156Y0599780D01*
X0443606D01*
X0443608Y0599591D01*
D02*
G37*
G36*
X0441068D02*
X0441102Y0599144D01*
X0441122Y0599035D01*
X0441147Y0598945D01*
X0441176Y0598876D01*
X0441209Y0598826D01*
X0441247Y0598797D01*
X0441290Y0598787D01*
X0440392D01*
X0440435Y0598797D01*
X0440473Y0598826D01*
X0440506Y0598876D01*
X0440536Y0598945D01*
X0440560Y0599035D01*
X0440580Y0599144D01*
X0440596Y0599273D01*
X0440614Y0599591D01*
X0440616Y0599780D01*
X0441066D01*
X0441068Y0599591D01*
D02*
G37*
G36*
X0438528D02*
X0438562Y0599144D01*
X0438582Y0599035D01*
X0438607Y0598945D01*
X0438636Y0598876D01*
X0438669Y0598826D01*
X0438707Y0598797D01*
X0438750Y0598787D01*
X0437852D01*
X0437895Y0598797D01*
X0437933Y0598826D01*
X0437966Y0598876D01*
X0437996Y0598945D01*
X0438020Y0599035D01*
X0438040Y0599144D01*
X0438056Y0599273D01*
X0438074Y0599591D01*
X0438076Y0599780D01*
X0438526D01*
X0438528Y0599591D01*
D02*
G37*
G36*
X0423140Y0671181D02*
X0423292Y0671150D01*
X0423597Y0671024D01*
X0423871Y0670841D01*
X0424104Y0670608D01*
X0424287Y0670334D01*
X0424414Y0670029D01*
X0424478Y0669706D01*
Y0669541D01*
Y0661065D01*
X0424478Y0661065D01*
Y0660902D01*
X0424415Y0660583D01*
X0424290Y0660283D01*
X0424110Y0660013D01*
X0423880Y0659783D01*
X0423609Y0659603D01*
X0423309Y0659478D01*
X0422990Y0659415D01*
X0422828Y0659415D01*
X0422665D01*
X0422347Y0659478D01*
X0422046Y0659603D01*
X0421776Y0659783D01*
X0421546Y0660013D01*
X0421366Y0660283D01*
X0421241Y0660583D01*
X0421178Y0660902D01*
X0421178Y0661065D01*
X0421178Y0669588D01*
X0421178D01*
X0421213Y0669924D01*
X0421240Y0670063D01*
X0421363Y0670359D01*
X0421541Y0670625D01*
X0421768Y0670852D01*
X0422034Y0671030D01*
X0422330Y0671152D01*
X0422469Y0671180D01*
X0422804Y0671215D01*
X0422804D01*
X0422804Y0671215D01*
X0423140Y0671181D01*
D02*
G37*
G36*
X0417652Y0671207D02*
X0417817Y0671207D01*
X0418141Y0671143D01*
X0418445Y0671017D01*
X0418719Y0670834D01*
X0418952Y0670601D01*
X0419136Y0670326D01*
X0419262Y0670022D01*
X0419326Y0669698D01*
X0419326Y0669534D01*
X0419326Y0655888D01*
X0419336Y0655584D01*
X0419411Y0654983D01*
X0419562Y0654395D01*
X0419786Y0653831D01*
X0420078Y0653300D01*
X0420434Y0652809D01*
X0420849Y0652367D01*
X0421317Y0651980D01*
X0421568Y0651810D01*
Y0651810D01*
X0421765Y0651685D01*
X0422137Y0651402D01*
X0422485Y0651089D01*
X0422805Y0650748D01*
X0423095Y0650382D01*
X0423354Y0649992D01*
X0423579Y0649583D01*
X0423769Y0649156D01*
X0423923Y0648714D01*
X0424039Y0648261D01*
X0424117Y0647800D01*
X0424156Y0647335D01*
X0424156Y0647101D01*
X0424156Y0640816D01*
X0424156Y0640816D01*
X0424156Y0640677D01*
X0424102Y0640405D01*
X0423996Y0640149D01*
X0423842Y0639918D01*
X0423645Y0639722D01*
X0423614Y0639701D01*
X0422922D01*
Y0639700D01*
X0422782Y0639465D01*
X0422572Y0639415D01*
X0422341Y0639461D01*
X0422088Y0639566D01*
X0421860Y0639718D01*
X0421667Y0639912D01*
X0421514Y0640140D01*
X0421409Y0640393D01*
X0421356Y0640661D01*
X0421356Y0640798D01*
X0421356Y0644337D01*
X0421356D01*
X0421351Y0644587D01*
X0421308Y0645084D01*
X0421224Y0645577D01*
X0421098Y0646060D01*
X0420932Y0646532D01*
X0420726Y0646987D01*
X0420483Y0647423D01*
X0420203Y0647837D01*
X0419889Y0648226D01*
X0419544Y0648587D01*
X0419169Y0648917D01*
X0418767Y0649215D01*
X0418558Y0649350D01*
X0418365Y0649469D01*
X0418001Y0649738D01*
X0417662Y0650037D01*
X0417349Y0650364D01*
X0417065Y0650716D01*
X0416812Y0651091D01*
X0416591Y0651486D01*
X0416405Y0651898D01*
X0416255Y0652325D01*
X0416141Y0652763D01*
X0416064Y0653209D01*
X0416026Y0653659D01*
X0416026Y0653886D01*
X0416026Y0669581D01*
X0416026Y0669581D01*
X0416061Y0669917D01*
X0416089Y0670055D01*
X0416211Y0670351D01*
X0416389Y0670618D01*
X0416616Y0670844D01*
X0416882Y0671022D01*
X0417178Y0671145D01*
X0417492Y0671207D01*
X0417652Y0671207D01*
D02*
G37*
G36*
X0455703Y0609174D02*
X0455668Y0609203D01*
X0455624Y0609228D01*
X0455569Y0609251D01*
X0455504Y0609270D01*
X0455429Y0609287D01*
X0455344Y0609300D01*
X0455143Y0609318D01*
X0454902Y0609324D01*
Y0609724D01*
X0455027Y0609726D01*
X0455344Y0609748D01*
X0455429Y0609762D01*
X0455504Y0609778D01*
X0455569Y0609798D01*
X0455624Y0609820D01*
X0455668Y0609846D01*
X0455703Y0609874D01*
Y0609174D01*
D02*
G37*
G36*
X0448932Y0609846D02*
X0448977Y0609820D01*
X0449032Y0609798D01*
X0449097Y0609778D01*
X0449172Y0609762D01*
X0449257Y0609748D01*
X0449458Y0609730D01*
X0449699Y0609724D01*
Y0609324D01*
X0449573Y0609323D01*
X0449257Y0609300D01*
X0449172Y0609287D01*
X0449097Y0609270D01*
X0449032Y0609251D01*
X0448977Y0609228D01*
X0448932Y0609203D01*
X0448898Y0609174D01*
Y0609874D01*
X0448932Y0609846D01*
D02*
G37*
D10*
X0471749Y0548762D02*
G03*
X0472311Y0549324I0000000J0000562D01*
G01*
X0471186Y0549324D02*
G03*
X0471749Y0548762I0000563J0000000D01*
G01*
X0472311Y0554824D02*
G03*
X0471749Y0555387I-0000562J0000000D01*
G01*
X0471749D02*
G03*
X0471186Y0554824I0000000J-0000562D01*
G01*
X0465466Y0548770D02*
G03*
X0466028Y0549333I0000000J0000562D01*
G01*
X0464903Y0549333D02*
G03*
X0465466Y0548770I0000563J0000000D01*
G01*
X0466028Y0554833D02*
G03*
X0465466Y0555395I-0000562J0000000D01*
G01*
X0465466D02*
G03*
X0464903Y0554833I0000000J-0000562D01*
G01*
X0490234Y0537478D02*
G03*
X0490797Y0538041I0000000J0000562D01*
G01*
X0489672Y0538041D02*
G03*
X0490234Y0537478I0000563J0000000D01*
G01*
X0490797Y0543541D02*
G03*
X0490234Y0544103I-0000562J0000000D01*
G01*
X0490234D02*
G03*
X0489672Y0543541I0000000J-0000562D01*
G01*
X0490234Y0546103D02*
G03*
X0490797Y0546666I0000000J0000562D01*
G01*
X0489672Y0546666D02*
G03*
X0490234Y0546103I0000563J0000000D01*
G01*
X0490797Y0552166D02*
G03*
X0490234Y0552728I-0000562J0000000D01*
G01*
X0490234D02*
G03*
X0489672Y0552166I0000000J-0000562D01*
G01*
X0490234Y0554728D02*
G03*
X0490797Y0555291I0000000J0000562D01*
G01*
X0489672Y0555291D02*
G03*
X0490234Y0554728I0000563J0000000D01*
G01*
X0490797Y0560791D02*
G03*
X0490234Y0561353I-0000562J0000000D01*
G01*
X0490234D02*
G03*
X0489672Y0560791I0000000J-0000562D01*
G01*
X0490234Y0563353D02*
G03*
X0490797Y0563916I0000000J0000562D01*
G01*
X0489672Y0563916D02*
G03*
X0490234Y0563353I0000563J0000000D01*
G01*
X0490797Y0569416D02*
G03*
X0490234Y0569978I-0000562J0000000D01*
G01*
X0490234D02*
G03*
X0489672Y0569416I0000000J-0000562D01*
G01*
X0488360Y0573380D02*
G03*
X0488360Y0574176I-0000398J0000398D01*
G01*
X0487565Y0573380D02*
G03*
X0488360Y0573380I0000398J0000398D01*
G01*
X0484471Y0578065D02*
G03*
X0483676Y0578065I-0000398J-0000398D01*
G01*
X0483676Y0578065D02*
G03*
X0483676Y0577269I0000398J-0000398D01*
G01*
X0480924Y0581787D02*
G03*
X0480361Y0582349I-0000562J0000000D01*
G01*
X0480361Y0581224D02*
G03*
X0480924Y0581787I0000000J0000563D01*
G01*
X0474861Y0582349D02*
G03*
X0474299Y0581787I0000000J-0000562D01*
G01*
Y0581787D02*
G03*
X0474861Y0581224I0000562J0000000D01*
G01*
X0472299Y0581787D02*
G03*
X0471736Y0582349I-0000562J0000000D01*
G01*
X0471736Y0581224D02*
G03*
X0472299Y0581787I0000000J0000563D01*
G01*
X0466236Y0582349D02*
G03*
X0465674Y0581787I0000000J-0000562D01*
G01*
Y0581787D02*
G03*
X0466236Y0581224I0000562J0000000D01*
G01*
X0463674Y0581787D02*
G03*
X0463111Y0582349I-0000562J0000000D01*
G01*
X0463111Y0581224D02*
G03*
X0463674Y0581787I0000000J0000563D01*
G01*
X0457611Y0582349D02*
G03*
X0457049Y0581787I0000000J-0000562D01*
G01*
Y0581787D02*
G03*
X0457611Y0581224I0000562J0000000D01*
G01*
X0455049Y0581787D02*
G03*
X0454486Y0582349I-0000562J0000000D01*
G01*
X0454486Y0581224D02*
G03*
X0455049Y0581787I0000000J0000563D01*
G01*
X0448986Y0582349D02*
G03*
X0448424Y0581787I0000000J-0000562D01*
G01*
Y0581787D02*
G03*
X0448986Y0581224I0000562J0000000D01*
G01*
X0446424Y0581787D02*
G03*
X0445861Y0582349I-0000562J0000000D01*
G01*
X0445861Y0581224D02*
G03*
X0446424Y0581787I0000000J0000563D01*
G01*
X0440361Y0582349D02*
G03*
X0439799Y0581787I0000000J-0000562D01*
G01*
Y0581787D02*
G03*
X0440361Y0581224I0000562J0000000D01*
G01*
X0437799Y0581787D02*
G03*
X0437236Y0582349I-0000562J0000000D01*
G01*
X0437236Y0581224D02*
G03*
X0437799Y0581787I0000000J0000563D01*
G01*
X0431736Y0582349D02*
G03*
X0431174Y0581787I0000000J-0000562D01*
G01*
Y0581787D02*
G03*
X0431736Y0581224I0000562J0000000D01*
G01*
X0429174Y0581787D02*
G03*
X0428611Y0582349I-0000562J0000000D01*
G01*
X0428611Y0581224D02*
G03*
X0429174Y0581787I0000000J0000563D01*
G01*
X0423111Y0582349D02*
G03*
X0422549Y0581787I0000000J-0000562D01*
G01*
Y0581787D02*
G03*
X0423111Y0581224I0000562J0000000D01*
G01*
X0420549Y0581787D02*
G03*
X0419986Y0582349I-0000562J0000000D01*
G01*
X0419986Y0581224D02*
G03*
X0420549Y0581787I0000000J0000563D01*
G01*
X0414486Y0582349D02*
G03*
X0413924Y0581787I0000000J-0000562D01*
G01*
Y0581787D02*
G03*
X0414486Y0581224I0000562J0000000D01*
G01*
X0411924Y0581787D02*
G03*
X0411361Y0582349I-0000562J0000000D01*
G01*
X0411361Y0581224D02*
G03*
X0411924Y0581787I0000000J0000563D01*
G01*
X0405861Y0582349D02*
G03*
X0405299Y0581787I0000000J-0000562D01*
G01*
Y0581787D02*
G03*
X0405861Y0581224I0000562J0000000D01*
G01*
X0471186Y0549324D02*
Y0554824D01*
X0472311Y0549324D02*
Y0554824D01*
X0464903Y0549333D02*
Y0554833D01*
X0466028Y0549333D02*
Y0554833D01*
X0489672Y0538041D02*
Y0543541D01*
X0490797Y0538041D02*
Y0543541D01*
X0489672Y0546666D02*
Y0552166D01*
X0490797Y0546666D02*
Y0552166D01*
X0489672Y0555291D02*
Y0560791D01*
X0490797Y0555291D02*
Y0560791D01*
X0489672Y0563916D02*
Y0569416D01*
X0490797Y0563916D02*
Y0569416D01*
X0483676Y0577269D02*
X0487565Y0573380D01*
X0484471Y0578065D02*
X0488360Y0574176D01*
X0474861Y0581224D02*
X0480361D01*
X0474861Y0582349D02*
X0480361D01*
X0466236Y0581224D02*
X0471736D01*
X0466236Y0582349D02*
X0471736D01*
X0457611Y0581224D02*
X0463111D01*
X0457611Y0582349D02*
X0463111D01*
X0448986Y0581224D02*
X0454486D01*
X0448986Y0582349D02*
X0454486D01*
X0440361Y0581224D02*
X0445861D01*
X0440361Y0582349D02*
X0445861D01*
X0431736Y0581224D02*
X0437236D01*
X0431736Y0582349D02*
X0437236D01*
X0423111Y0581224D02*
X0428611D01*
X0423111Y0582349D02*
X0428611D01*
X0414486Y0581224D02*
X0419986D01*
X0414486Y0582349D02*
X0419986D01*
X0405862Y0581224D02*
X0411361D01*
X0405861Y0582349D02*
X0411361D01*
D12*
X0499566Y0535195D02*
G03*
X0502566Y0538195I-0000000J0003000D01*
G01*
X0502566Y0672195D02*
G03*
X0499566Y0675195I-0003000J0000000D01*
G01*
X0405566Y0675195D02*
G03*
X0402566Y0672195I-0000000J-0003000D01*
G01*
X0402566Y0538195D02*
G03*
X0405566Y0535195I0003000J-0000000D01*
G01*
X0402566Y0538195D02*
X0402566Y0672195D01*
X0405566Y0535195D02*
X0499566Y0535195D01*
X0502566Y0538195D02*
X0502566Y0672195D01*
X0405566Y0675195D02*
X0499566Y0675195D01*
D16*
X0491916Y0574677D02*
G03*
X0493600Y0570611I0005749J-0000000D01*
G01*
X0499241Y0563974D02*
G03*
X0498540Y0565671I-0002404J-0000000D01*
G01*
X0493600Y0570611D02*
X0498540Y0565671D01*
X0491916Y0574677D02*
Y0574795D01*
X0499241Y0542282D02*
Y0563974D01*
X0448541Y0609524D02*
X0456060D01*
D41*
X0496311Y0591527D02*
D03*
Y0586447D02*
D03*
X0496311Y0653252D02*
D03*
Y0648172D02*
D03*
Y0665597D02*
D03*
X0496311Y0660517D02*
D03*
X0408923Y0587328D02*
D03*
X0408923Y0592408D02*
D03*
X0496311Y0640907D02*
D03*
Y0635827D02*
D03*
Y0603872D02*
D03*
Y0598792D02*
D03*
X0496311Y0616217D02*
D03*
X0496311Y0611137D02*
D03*
Y0628562D02*
D03*
X0496311Y0623482D02*
D03*
X0459139Y0668102D02*
D03*
X0454059D02*
D03*
X0448979D02*
D03*
X0440989Y0668102D02*
D03*
X0435909D02*
D03*
X0430829D02*
D03*
X0477289Y0668102D02*
D03*
X0472209D02*
D03*
X0467129D02*
D03*
X0422832Y0668069D02*
D03*
X0417752D02*
D03*
X0412672D02*
D03*
D51*
X0438301Y0602084D02*
D03*
X0440841Y0602084D02*
D03*
X0443381Y0602084D02*
D03*
X0451001Y0602084D02*
D03*
X0453541Y0602084D02*
D03*
D53*
X0440841Y0599284D02*
X0440841Y0599284D01*
X0440841Y0597784D02*
Y0602084D01*
X0438301Y0597784D02*
Y0602084D01*
X0453541Y0597784D02*
Y0602084D01*
X0451001Y0597784D02*
Y0602084D01*
X0443381Y0597784D02*
Y0602084D01*
D55*
X0472209Y0642741D02*
D03*
X0466209Y0656941D02*
D03*
X0478209D02*
D03*
X0466209Y0644741D02*
D03*
X0478209D02*
D03*
X0454059Y0642741D02*
D03*
X0448059Y0656941D02*
D03*
X0460059D02*
D03*
X0448059Y0644741D02*
D03*
X0460059D02*
D03*
X0435909Y0642741D02*
D03*
X0429909Y0656941D02*
D03*
X0441909D02*
D03*
X0429909Y0644741D02*
D03*
X0441909D02*
D03*
D56*
X0444541Y0555848D02*
D03*
Y0540848D02*
D03*
D57*
X0421601Y0570588D02*
D03*
X0436841D02*
D03*
Y0555348D02*
D03*
X0421601D02*
D03*
D58*
X0449741Y0562968D02*
D03*
X0469741D02*
D03*
Y0576608D02*
D03*
X0449741D02*
D03*
X0469741Y0570588D02*
D03*
X0449741Y0570588D02*
D03*
X0468641Y0540848D02*
D03*
X0486421D02*
D03*
X0444541D02*
D03*
X0464541D02*
D03*
X0417672Y0660819D02*
D03*
Y0640819D02*
D03*
X0422752Y0660819D02*
D03*
Y0640819D02*
D03*
D59*
X0449166Y0540848D02*
D03*
X0413221Y0547728D02*
D03*
Y0555348D02*
D03*
Y0562968D02*
D03*
Y0570588D02*
D03*
D60*
X0499566Y0538195D02*
D03*
X0405566Y0538195D02*
D03*
X0405566Y0672195D02*
D03*
X0499566D02*
D03*
D61*
X0408141Y0547728D02*
D03*
Y0562968D02*
D03*
Y0555348D02*
D03*
Y0570588D02*
D03*
D62*
X0486421Y0550522D02*
D03*
X0494041D02*
D03*
X0486421Y0547982D02*
D03*
Y0553062D02*
D03*
X0494041D02*
D03*
D63*
Y0547982D02*
D03*
D64*
X0468641Y0552643D02*
D03*
X0474141D02*
D03*
X0463141D02*
D03*
D65*
X0438301Y0613024D02*
D03*
X0428141D02*
D03*
X0430681Y0613024D02*
D03*
X0433221Y0613024D02*
D03*
X0435761Y0613024D02*
D03*
X0440841Y0613024D02*
D03*
X0443381Y0613024D02*
D03*
X0445921D02*
D03*
X0448461D02*
D03*
X0451001Y0613024D02*
D03*
X0453541Y0613024D02*
D03*
X0456081Y0613024D02*
D03*
X0458621Y0613024D02*
D03*
X0461161Y0613024D02*
D03*
X0463701D02*
D03*
X0428141Y0597784D02*
D03*
X0430681D02*
D03*
X0433221Y0597784D02*
D03*
X0435761Y0597784D02*
D03*
X0438301Y0597784D02*
D03*
X0440841D02*
D03*
X0443381D02*
D03*
X0445921Y0597784D02*
D03*
X0448461Y0597784D02*
D03*
X0451001D02*
D03*
X0453541D02*
D03*
X0456081Y0597784D02*
D03*
X0458621Y0597784D02*
D03*
X0461161Y0597784D02*
D03*
X0463701D02*
D03*
D66*
X0451081Y0587026D02*
D03*
X0456081D02*
D03*
X0429356Y0587049D02*
D03*
X0424356D02*
D03*
D67*
X0458581Y0587026D02*
D03*
X0453581D02*
D03*
X0426856Y0587049D02*
D03*
X0431856D02*
D03*
D68*
X0413223Y0594172D02*
D03*
Y0585562D02*
D03*
D69*
X0475916Y0602045D02*
D03*
X0475067Y0602894D02*
D03*
X0476764Y0601197D02*
D03*
X0479310Y0598651D02*
D03*
X0480158Y0597803D02*
D03*
X0477613Y0600348D02*
D03*
X0478461Y0599500D02*
D03*
X0461239Y0601197D02*
D03*
X0459542Y0602894D02*
D03*
X0460391Y0602045D02*
D03*
X0491916Y0574795D02*
D03*
X0459566Y0609524D02*
D03*
X0460766D02*
D03*
X0458366D02*
D03*
X0499241Y0542282D02*
D03*
X0456060Y0609524D02*
D03*
X0448541D02*
D03*
X0485473Y0593167D02*
D03*
X0495066Y0572187D02*
D03*
X0470509Y0639381D02*
D03*
X0468869Y0637741D02*
D03*
X0450719Y0637741D02*
D03*
X0452359Y0639381D02*
D03*
X0434209Y0639381D02*
D03*
X0432569Y0637741D02*
D03*
X0424672Y0593276D02*
D03*
X0417709Y0583524D02*
D03*
X0417709Y0594023D02*
D03*
X0485473Y0667237D02*
D03*
Y0654892D02*
D03*
X0485473Y0642547D02*
D03*
Y0630202D02*
D03*
X0477014Y0620221D02*
D03*
X0474561Y0624909D02*
D03*
X0456411Y0624909D02*
D03*
X0458864Y0620220D02*
D03*
X0485473Y0617857D02*
D03*
Y0605512D02*
D03*
X0444152Y0638683D02*
D03*
X0480452Y0638683D02*
D03*
Y0631251D02*
D03*
X0440714Y0620220D02*
D03*
X0438261Y0624901D02*
D03*
X0444352Y0631251D02*
D03*
X0462502Y0631250D02*
D03*
X0462302Y0638683D02*
D03*
X0416957Y0628527D02*
D03*
M02*
