G04*
G04 #@! TF.GenerationSoftware,Altium Limited,Altium Designer,24.7.2 (38)*
G04*
G04 Layer_Color=128*
%FSAX43Y43*%
%MOMM*%
G71*
G04*
G04 #@! TF.SameCoordinates,3F101F8B-C0B2-4B88-A1E1-6A066521CB33*
G04*
G04*
G04 #@! TF.FilePolarity,Positive*
G04*
G01*
G75*
%ADD10C,0.254*%
%ADD12C,0.100*%
D10*
X0471749Y0548762D02*
G03*
X0472311Y0549324I0000000J0000562D01*
G01*
X0471186Y0549324D02*
G03*
X0471749Y0548762I0000563J0000000D01*
G01*
X0472311Y0554824D02*
G03*
X0471749Y0555387I-0000562J0000000D01*
G01*
X0471749D02*
G03*
X0471186Y0554824I0000000J-0000562D01*
G01*
X0465466Y0548770D02*
G03*
X0466028Y0549333I0000000J0000562D01*
G01*
X0464903Y0549333D02*
G03*
X0465466Y0548770I0000563J0000000D01*
G01*
X0466028Y0554833D02*
G03*
X0465466Y0555395I-0000562J0000000D01*
G01*
X0465466D02*
G03*
X0464903Y0554833I0000000J-0000562D01*
G01*
X0490234Y0537478D02*
G03*
X0490797Y0538041I0000000J0000562D01*
G01*
X0489672Y0538041D02*
G03*
X0490234Y0537478I0000563J0000000D01*
G01*
X0490797Y0543541D02*
G03*
X0490234Y0544103I-0000562J0000000D01*
G01*
X0490234D02*
G03*
X0489672Y0543541I0000000J-0000562D01*
G01*
X0490234Y0546103D02*
G03*
X0490797Y0546666I0000000J0000562D01*
G01*
X0489672Y0546666D02*
G03*
X0490234Y0546103I0000563J0000000D01*
G01*
X0490797Y0552166D02*
G03*
X0490234Y0552728I-0000562J0000000D01*
G01*
X0490234D02*
G03*
X0489672Y0552166I0000000J-0000562D01*
G01*
X0490234Y0554728D02*
G03*
X0490797Y0555291I0000000J0000562D01*
G01*
X0489672Y0555291D02*
G03*
X0490234Y0554728I0000563J0000000D01*
G01*
X0490797Y0560791D02*
G03*
X0490234Y0561353I-0000562J0000000D01*
G01*
X0490234D02*
G03*
X0489672Y0560791I0000000J-0000562D01*
G01*
X0490234Y0563353D02*
G03*
X0490797Y0563916I0000000J0000562D01*
G01*
X0489672Y0563916D02*
G03*
X0490234Y0563353I0000563J0000000D01*
G01*
X0490797Y0569416D02*
G03*
X0490234Y0569978I-0000562J0000000D01*
G01*
X0490234D02*
G03*
X0489672Y0569416I0000000J-0000562D01*
G01*
X0488360Y0573380D02*
G03*
X0488360Y0574176I-0000398J0000398D01*
G01*
X0487565Y0573380D02*
G03*
X0488360Y0573380I0000398J0000398D01*
G01*
X0484471Y0578065D02*
G03*
X0483676Y0578065I-0000398J-0000398D01*
G01*
X0483676Y0578065D02*
G03*
X0483676Y0577269I0000398J-0000398D01*
G01*
X0480924Y0581787D02*
G03*
X0480361Y0582349I-0000562J0000000D01*
G01*
X0480361Y0581224D02*
G03*
X0480924Y0581787I0000000J0000563D01*
G01*
X0474861Y0582349D02*
G03*
X0474299Y0581787I0000000J-0000562D01*
G01*
Y0581787D02*
G03*
X0474861Y0581224I0000562J0000000D01*
G01*
X0472299Y0581787D02*
G03*
X0471736Y0582349I-0000562J0000000D01*
G01*
X0471736Y0581224D02*
G03*
X0472299Y0581787I0000000J0000563D01*
G01*
X0466236Y0582349D02*
G03*
X0465674Y0581787I0000000J-0000562D01*
G01*
Y0581787D02*
G03*
X0466236Y0581224I0000562J0000000D01*
G01*
X0463674Y0581787D02*
G03*
X0463111Y0582349I-0000562J0000000D01*
G01*
X0463111Y0581224D02*
G03*
X0463674Y0581787I0000000J0000563D01*
G01*
X0457611Y0582349D02*
G03*
X0457049Y0581787I0000000J-0000562D01*
G01*
Y0581787D02*
G03*
X0457611Y0581224I0000562J0000000D01*
G01*
X0455049Y0581787D02*
G03*
X0454486Y0582349I-0000562J0000000D01*
G01*
X0454486Y0581224D02*
G03*
X0455049Y0581787I0000000J0000563D01*
G01*
X0448986Y0582349D02*
G03*
X0448424Y0581787I0000000J-0000562D01*
G01*
Y0581787D02*
G03*
X0448986Y0581224I0000562J0000000D01*
G01*
X0446424Y0581787D02*
G03*
X0445861Y0582349I-0000562J0000000D01*
G01*
X0445861Y0581224D02*
G03*
X0446424Y0581787I0000000J0000563D01*
G01*
X0440361Y0582349D02*
G03*
X0439799Y0581787I0000000J-0000562D01*
G01*
Y0581787D02*
G03*
X0440361Y0581224I0000562J0000000D01*
G01*
X0437799Y0581787D02*
G03*
X0437236Y0582349I-0000562J0000000D01*
G01*
X0437236Y0581224D02*
G03*
X0437799Y0581787I0000000J0000563D01*
G01*
X0431736Y0582349D02*
G03*
X0431174Y0581787I0000000J-0000562D01*
G01*
Y0581787D02*
G03*
X0431736Y0581224I0000562J0000000D01*
G01*
X0429174Y0581787D02*
G03*
X0428611Y0582349I-0000562J0000000D01*
G01*
X0428611Y0581224D02*
G03*
X0429174Y0581787I0000000J0000563D01*
G01*
X0423111Y0582349D02*
G03*
X0422549Y0581787I0000000J-0000562D01*
G01*
Y0581787D02*
G03*
X0423111Y0581224I0000562J0000000D01*
G01*
X0420549Y0581787D02*
G03*
X0419986Y0582349I-0000562J0000000D01*
G01*
X0419986Y0581224D02*
G03*
X0420549Y0581787I0000000J0000563D01*
G01*
X0414486Y0582349D02*
G03*
X0413924Y0581787I0000000J-0000562D01*
G01*
Y0581787D02*
G03*
X0414486Y0581224I0000562J0000000D01*
G01*
X0411924Y0581787D02*
G03*
X0411361Y0582349I-0000562J0000000D01*
G01*
X0411361Y0581224D02*
G03*
X0411924Y0581787I0000000J0000563D01*
G01*
X0405861Y0582349D02*
G03*
X0405299Y0581787I0000000J-0000562D01*
G01*
Y0581787D02*
G03*
X0405861Y0581224I0000562J0000000D01*
G01*
X0471186Y0549324D02*
Y0554824D01*
X0472311Y0549324D02*
Y0554824D01*
X0464903Y0549333D02*
Y0554833D01*
X0466028Y0549333D02*
Y0554833D01*
X0489672Y0538041D02*
Y0543541D01*
X0490797Y0538041D02*
Y0543541D01*
X0489672Y0546666D02*
Y0552166D01*
X0490797Y0546666D02*
Y0552166D01*
X0489672Y0555291D02*
Y0560791D01*
X0490797Y0555291D02*
Y0560791D01*
X0489672Y0563916D02*
Y0569416D01*
X0490797Y0563916D02*
Y0569416D01*
X0483676Y0577269D02*
X0487565Y0573380D01*
X0484471Y0578065D02*
X0488360Y0574176D01*
X0474861Y0581224D02*
X0480361D01*
X0474861Y0582349D02*
X0480361D01*
X0466236Y0581224D02*
X0471736D01*
X0466236Y0582349D02*
X0471736D01*
X0457611Y0581224D02*
X0463111D01*
X0457611Y0582349D02*
X0463111D01*
X0448986Y0581224D02*
X0454486D01*
X0448986Y0582349D02*
X0454486D01*
X0440361Y0581224D02*
X0445861D01*
X0440361Y0582349D02*
X0445861D01*
X0431736Y0581224D02*
X0437236D01*
X0431736Y0582349D02*
X0437236D01*
X0423111Y0581224D02*
X0428611D01*
X0423111Y0582349D02*
X0428611D01*
X0414486Y0581224D02*
X0419986D01*
X0414486Y0582349D02*
X0419986D01*
X0405862Y0581224D02*
X0411361D01*
X0405861Y0582349D02*
X0411361D01*
D12*
X0499566Y0535195D02*
G03*
X0502566Y0538195I-0000000J0003000D01*
G01*
X0502566Y0672195D02*
G03*
X0499566Y0675195I-0003000J0000000D01*
G01*
X0405566Y0675195D02*
G03*
X0402566Y0672195I-0000000J-0003000D01*
G01*
X0402566Y0538195D02*
G03*
X0405566Y0535195I0003000J-0000000D01*
G01*
X0402566Y0538195D02*
X0402566Y0672195D01*
X0405566Y0535195D02*
X0499566Y0535195D01*
X0502566Y0538195D02*
X0502566Y0672195D01*
X0405566Y0675195D02*
X0499566Y0675195D01*
M02*
