M48
;Layer_Color=9474304
;FILE_FORMAT=4:3
METRIC
;TYPE=PLATED
T01F00S00C0.500
T02F00S00C0.800
T03F00S00C0.900
T04F00S00C1.000
T05F00S00C1.200
T06F00S00C1.300
T07F00S00C1.400
T08F00S00C1.500
T09F00S00C1.600
T10F00S00C1.850
T11F00S00C3.200
%
T01
X0499241Y0542282
X0417709Y0583524
X0417709Y0594023
X0424436Y0592646
X0485473Y0593167
X0491916Y0574795
X0495066Y0572187
X0480158Y0597803
X0479310Y0598651
X0478461Y0599500
X0477613Y0600348
X0476764Y0601197
X0485473Y0605512
Y0617857
X0477014Y0620221
X0480452Y0631251
X0485473Y0630202
X0474561Y0624909
X0456411Y0624909
X0458864Y0620220
X0458366Y0609524
X0459566
X0460766
X0456060
X0448541
X0459542Y0602894
X0460391Y0602045
X0461239Y0601197
X0475916Y0602045
X0475067Y0602894
X0462502Y0631250
X0444352Y0631251
X0438261Y0624901
X0440714Y0620220
X0416957Y0628527
X0432569Y0637741
X0434209Y0639381
X0444152Y0638683
X0450719Y0637741
X0452359Y0639381
X0462302Y0638683
X0468869Y0637741
X0470509Y0639381
X0480452Y0638683
X0485473Y0642547
X0485473Y0654892
Y0667237
T02
X0494041Y0553062
Y0550522
Y0547982
X0486421
Y0550522
Y0553062
X0453541Y0602084
X0445921
X0443381Y0602084
X0440841Y0602084
X0438301Y0602084
T03
X0463701Y0613024
X0461161
X0458621Y0613024
X0456081Y0613024
X0453541Y0613024
X0451001Y0613024
X0448461Y0613024
X0445921
X0443381
X0440841Y0613024
X0438301
X0438301Y0597784
X0440841
X0443381
X0445921Y0597784
X0448461Y0597784
X0451001
X0453541
X0456081Y0597784
X0458621Y0597784
X0461161Y0597784
X0463701
X0435761Y0597784
X0433221Y0597784
X0430681Y0597784
X0428141
X0428141Y0613024
X0430681Y0613024
X0433221Y0613024
X0435761Y0613024
T04
X0431856Y0587049
X0429356
X0426856
X0424356
X0451081Y0587026
X0453581
X0456081
X0458581
X0444541Y0555848
T05
X0486421Y0540848
X0468641
X0464541
X0444541
X0449741Y0562968
X0449741Y0570588
X0449741Y0576608
X0469741
Y0570588
Y0562968
X0422752Y0640819
X0417672
Y0660819
X0422752
T06
X0429909Y0656941
Y0644741
X0435909Y0642741
X0441909Y0644741
X0448059Y0644741
X0454059Y0642741
X0460059Y0644741
X0466209Y0644741
X0472209Y0642741
X0466209Y0656941
X0460059Y0656941
X0448059
X0441909Y0656941
X0478209Y0656941
Y0644741
T07
X0436841Y0555348
X0421601
Y0570588
X0436841
T08
X0449166Y0540848
X0413221Y0547728
Y0555348
Y0562968
Y0570588
X0412672Y0669569
X0417752
X0422832
T09
X0474141Y0552643
X0468641
X0463141
X0408923Y0587328
X0408923Y0592408
X0496311Y0591527
Y0586447
Y0598792
Y0603872
Y0611137
X0496311Y0616217
Y0623482
X0496311Y0628562
X0435909Y0669602
X0430829
X0440989
X0448979Y0669602
X0454059
X0459139
X0467129Y0669602
X0472209
X0477289
X0496311Y0665597
X0496311Y0660517
X0496311Y0653252
Y0648172
X0496311Y0640907
Y0635827
T10
X0408141Y0555348
Y0547728
Y0562968
Y0570588
T11
X0499566Y0538195
X0405566Y0538195
X0405566Y0672195
X0499566
M30
