G04*
G04 #@! TF.GenerationSoftware,Altium Limited,Altium Designer,24.7.2 (38)*
G04*
G04 Layer_Color=8388736*
%FSAX43Y43*%
%MOMM*%
G71*
G04*
G04 #@! TF.SameCoordinates,CBEA9559-B170-43FD-8457-18A981A7652A*
G04*
G04*
G04 #@! TF.FilePolarity,Negative*
G04*
G01*
G75*
%ADD12C,0.100*%
%ADD28R,1.800X1.200*%
%ADD29R,1.200X1.800*%
G04:AMPARAMS|DCode=30|XSize=1.3mm|YSize=1.3mm|CornerRadius=0.17mm|HoleSize=0mm|Usage=FLASHONLY|Rotation=270.000|XOffset=0mm|YOffset=0mm|HoleType=Round|Shape=RoundedRectangle|*
%AMROUNDEDRECTD30*
21,1,1.300,0.960,0,0,270.0*
21,1,0.960,1.300,0,0,270.0*
1,1,0.340,-0.480,-0.480*
1,1,0.340,-0.480,0.480*
1,1,0.340,0.480,0.480*
1,1,0.340,0.480,-0.480*
%
%ADD30ROUNDEDRECTD30*%
%ADD31R,1.600X1.600*%
%ADD32R,2.000X1.800*%
G04:AMPARAMS|DCode=33|XSize=1.1mm|YSize=1.3mm|CornerRadius=0.2mm|HoleSize=0mm|Usage=FLASHONLY|Rotation=90.000|XOffset=0mm|YOffset=0mm|HoleType=Round|Shape=RoundedRectangle|*
%AMROUNDEDRECTD33*
21,1,1.100,0.900,0,0,90.0*
21,1,0.700,1.300,0,0,90.0*
1,1,0.400,0.450,0.350*
1,1,0.400,0.450,-0.350*
1,1,0.400,-0.450,-0.350*
1,1,0.400,-0.450,0.350*
%
%ADD33ROUNDEDRECTD33*%
G04:AMPARAMS|DCode=34|XSize=1.5mm|YSize=1.9mm|CornerRadius=0.19mm|HoleSize=0mm|Usage=FLASHONLY|Rotation=0.000|XOffset=0mm|YOffset=0mm|HoleType=Round|Shape=RoundedRectangle|*
%AMROUNDEDRECTD34*
21,1,1.500,1.520,0,0,0.0*
21,1,1.120,1.900,0,0,0.0*
1,1,0.380,0.560,-0.760*
1,1,0.380,-0.560,-0.760*
1,1,0.380,-0.560,0.760*
1,1,0.380,0.560,0.760*
%
%ADD34ROUNDEDRECTD34*%
%ADD35R,1.800X2.000*%
%ADD36C,2.100*%
%ADD37C,1.600*%
%ADD38C,3.500*%
%ADD39C,3.100*%
%ADD40C,2.900*%
%ADD41C,3.300*%
%ADD42C,1.700*%
%ADD43C,5.700*%
%ADD44C,3.800*%
%ADD45O,2.100X1.700*%
G04:AMPARAMS|DCode=46|XSize=2.1mm|YSize=1.7mm|CornerRadius=0.45mm|HoleSize=0mm|Usage=FLASHONLY|Rotation=180.000|XOffset=0mm|YOffset=0mm|HoleType=Round|Shape=RoundedRectangle|*
%AMROUNDEDRECTD46*
21,1,2.100,0.800,0,0,180.0*
21,1,1.200,1.700,0,0,180.0*
1,1,0.900,-0.600,0.400*
1,1,0.900,0.600,0.400*
1,1,0.900,0.600,-0.400*
1,1,0.900,-0.600,-0.400*
%
%ADD46ROUNDEDRECTD46*%
%ADD47O,2.600X4.100*%
%ADD48O,1.950X2.350*%
%ADD49O,1.900X2.900*%
%ADD50O,1.900X2.200*%
%ADD51C,2.600*%
D12*
X0499566Y0535195D02*
G03*
X0502566Y0538195I-0000000J0003000D01*
G01*
X0502566Y0672195D02*
G03*
X0499566Y0675195I-0003000J0000000D01*
G01*
X0405566Y0675195D02*
G03*
X0402566Y0672195I-0000000J-0003000D01*
G01*
X0402566Y0538195D02*
G03*
X0405566Y0535195I0003000J-0000000D01*
G01*
X0402566Y0537495D02*
X0402566Y0671495D01*
X0405566Y0535195D02*
X0499566Y0535195D01*
X0502566Y0538195D02*
X0502566Y0672195D01*
X0405566Y0675195D02*
X0499566Y0675195D01*
D28*
X0485473Y0591527D02*
D03*
Y0588827D02*
D03*
X0487973D02*
D03*
Y0591527D02*
D03*
X0482973Y0588827D02*
D03*
Y0591527D02*
D03*
X0495066Y0567768D02*
D03*
Y0570468D02*
D03*
X0496841Y0542282D02*
D03*
Y0544982D02*
D03*
X0494041D02*
D03*
Y0542282D02*
D03*
X0452152Y0620024D02*
D03*
Y0622724D02*
D03*
X0434002Y0620024D02*
D03*
Y0622724D02*
D03*
X0470302Y0620024D02*
D03*
Y0622724D02*
D03*
X0417709Y0585224D02*
D03*
X0417709Y0587924D02*
D03*
X0429508Y0633508D02*
D03*
X0429508Y0630808D02*
D03*
X0412697Y0623650D02*
D03*
Y0626350D02*
D03*
X0415237Y0626350D02*
D03*
Y0623650D02*
D03*
X0485473Y0665597D02*
D03*
Y0662897D02*
D03*
X0487973Y0657817D02*
D03*
Y0660517D02*
D03*
Y0665597D02*
D03*
Y0662897D02*
D03*
X0436542Y0620024D02*
D03*
Y0622724D02*
D03*
X0485473Y0653252D02*
D03*
Y0650552D02*
D03*
X0487973Y0645472D02*
D03*
Y0648172D02*
D03*
Y0653252D02*
D03*
Y0650552D02*
D03*
X0485473Y0640907D02*
D03*
Y0638207D02*
D03*
X0454692Y0620024D02*
D03*
Y0622724D02*
D03*
X0487973Y0633127D02*
D03*
Y0635827D02*
D03*
Y0640907D02*
D03*
Y0638207D02*
D03*
X0485473Y0628562D02*
D03*
Y0625862D02*
D03*
X0487973Y0620782D02*
D03*
Y0623482D02*
D03*
Y0628562D02*
D03*
Y0625862D02*
D03*
X0472842Y0620024D02*
D03*
Y0622724D02*
D03*
X0485473Y0616217D02*
D03*
X0485473Y0613517D02*
D03*
X0487973Y0608437D02*
D03*
Y0611137D02*
D03*
Y0616217D02*
D03*
Y0613517D02*
D03*
X0485473Y0603872D02*
D03*
Y0601172D02*
D03*
X0487973Y0596092D02*
D03*
Y0598792D02*
D03*
Y0603872D02*
D03*
X0487973Y0601172D02*
D03*
D29*
X0426656Y0592646D02*
D03*
X0429355D02*
D03*
X0486121Y0568028D02*
D03*
X0483421D02*
D03*
X0457972Y0633958D02*
D03*
X0460672D02*
D03*
Y0631224D02*
D03*
X0457972D02*
D03*
X0439822Y0633958D02*
D03*
X0442522D02*
D03*
X0442522Y0631258D02*
D03*
X0439822D02*
D03*
X0476122Y0633858D02*
D03*
X0478822D02*
D03*
X0478822Y0631258D02*
D03*
X0476122D02*
D03*
D30*
X0496841Y0548422D02*
D03*
Y0550522D02*
D03*
X0457145Y0620220D02*
D03*
Y0622320D02*
D03*
X0438995Y0620220D02*
D03*
Y0622320D02*
D03*
X0475295Y0620221D02*
D03*
Y0622320D02*
D03*
X0417709Y0590224D02*
D03*
Y0592324D02*
D03*
X0429508Y0628508D02*
D03*
X0429508Y0626408D02*
D03*
X0417591Y0623946D02*
D03*
Y0626046D02*
D03*
D31*
X0472721Y0570543D02*
D03*
Y0565443D02*
D03*
X0481421Y0570543D02*
D03*
Y0565443D02*
D03*
D32*
X0495066D02*
D03*
X0486066D02*
D03*
X0495066Y0562903D02*
D03*
X0486066D02*
D03*
D33*
X0460672Y0636791D02*
D03*
Y0638691D02*
D03*
X0458472Y0637741D02*
D03*
X0442522Y0636791D02*
D03*
Y0638691D02*
D03*
X0440322Y0637741D02*
D03*
X0478822Y0636791D02*
D03*
Y0638691D02*
D03*
X0476622Y0637741D02*
D03*
D34*
X0455709Y0637741D02*
D03*
X0452309D02*
D03*
X0437559Y0637741D02*
D03*
X0434159D02*
D03*
X0473859Y0637741D02*
D03*
X0470459D02*
D03*
D35*
X0454692Y0624909D02*
D03*
Y0633909D02*
D03*
X0452152Y0624909D02*
D03*
Y0633909D02*
D03*
X0436542Y0624909D02*
D03*
Y0633909D02*
D03*
X0434002Y0624909D02*
D03*
Y0633909D02*
D03*
X0472842Y0624909D02*
D03*
Y0633909D02*
D03*
X0470302Y0624909D02*
D03*
Y0633909D02*
D03*
X0415237Y0628535D02*
D03*
Y0637535D02*
D03*
X0412697Y0628535D02*
D03*
Y0637535D02*
D03*
D36*
X0444541Y0555848D02*
D03*
Y0540848D02*
D03*
D37*
X0492011Y0584682D02*
D03*
Y0593292D02*
D03*
X0492011Y0646407D02*
D03*
Y0655017D02*
D03*
X0492011Y0658752D02*
D03*
X0492011Y0667362D02*
D03*
X0413223Y0594172D02*
D03*
Y0585562D02*
D03*
X0492011Y0634062D02*
D03*
Y0642672D02*
D03*
Y0597027D02*
D03*
Y0605637D02*
D03*
Y0609372D02*
D03*
Y0617982D02*
D03*
X0492011Y0621717D02*
D03*
Y0630327D02*
D03*
D38*
X0496311Y0591527D02*
D03*
Y0586447D02*
D03*
X0496311Y0653252D02*
D03*
Y0648172D02*
D03*
Y0665597D02*
D03*
X0496311Y0660517D02*
D03*
X0408923Y0587328D02*
D03*
X0408923Y0592408D02*
D03*
X0496311Y0640907D02*
D03*
Y0635827D02*
D03*
Y0603872D02*
D03*
Y0598792D02*
D03*
X0496311Y0616217D02*
D03*
X0496311Y0611137D02*
D03*
Y0628562D02*
D03*
X0496311Y0623482D02*
D03*
X0459139Y0669602D02*
D03*
X0454059D02*
D03*
X0448979D02*
D03*
X0440989Y0669602D02*
D03*
X0435909D02*
D03*
X0430829D02*
D03*
X0477289Y0669602D02*
D03*
X0472209D02*
D03*
X0467129D02*
D03*
X0422832Y0669569D02*
D03*
X0417752D02*
D03*
X0412672D02*
D03*
D39*
X0421601Y0570588D02*
D03*
X0436841D02*
D03*
Y0555348D02*
D03*
X0421601D02*
D03*
D40*
X0449741Y0562968D02*
D03*
X0469741D02*
D03*
Y0576608D02*
D03*
X0449741D02*
D03*
X0469741Y0570588D02*
D03*
X0449741Y0570588D02*
D03*
X0468641Y0540848D02*
D03*
X0486421D02*
D03*
X0444541D02*
D03*
X0464541D02*
D03*
X0417672Y0660819D02*
D03*
Y0640819D02*
D03*
X0422752Y0660819D02*
D03*
Y0640819D02*
D03*
D41*
X0449166Y0540848D02*
D03*
X0413221Y0547728D02*
D03*
Y0555348D02*
D03*
Y0562968D02*
D03*
Y0570588D02*
D03*
D42*
X0438301Y0602084D02*
D03*
X0440841Y0602084D02*
D03*
X0443381Y0602084D02*
D03*
X0445921Y0602084D02*
D03*
X0453541D02*
D03*
D43*
X0499566Y0538195D02*
D03*
X0405566Y0538195D02*
D03*
X0405566Y0672195D02*
D03*
X0499566D02*
D03*
D44*
X0408141Y0547728D02*
D03*
Y0562968D02*
D03*
Y0555348D02*
D03*
Y0570588D02*
D03*
D45*
X0486421Y0550522D02*
D03*
X0494041D02*
D03*
X0486421Y0547982D02*
D03*
Y0553062D02*
D03*
X0494041D02*
D03*
D46*
Y0547982D02*
D03*
D47*
X0468641Y0552643D02*
D03*
X0474141D02*
D03*
X0463141D02*
D03*
D48*
X0438301Y0613024D02*
D03*
X0428141D02*
D03*
X0430681Y0613024D02*
D03*
X0433221Y0613024D02*
D03*
X0435761Y0613024D02*
D03*
X0440841Y0613024D02*
D03*
X0443381Y0613024D02*
D03*
X0445921D02*
D03*
X0448461D02*
D03*
X0451001Y0613024D02*
D03*
X0453541Y0613024D02*
D03*
X0456081Y0613024D02*
D03*
X0458621Y0613024D02*
D03*
X0461161Y0613024D02*
D03*
X0463701D02*
D03*
X0428141Y0597784D02*
D03*
X0430681D02*
D03*
X0433221Y0597784D02*
D03*
X0435761Y0597784D02*
D03*
X0438301Y0597784D02*
D03*
X0440841D02*
D03*
X0443381D02*
D03*
X0445921Y0597784D02*
D03*
X0448461Y0597784D02*
D03*
X0451001D02*
D03*
X0453541D02*
D03*
X0456081Y0597784D02*
D03*
X0458621Y0597784D02*
D03*
X0461161Y0597784D02*
D03*
X0463701D02*
D03*
D49*
X0451081Y0587026D02*
D03*
X0456081D02*
D03*
X0429356Y0587049D02*
D03*
X0424356D02*
D03*
D50*
X0458581Y0587026D02*
D03*
X0453581D02*
D03*
X0426856Y0587049D02*
D03*
X0431856D02*
D03*
D51*
X0454059Y0642741D02*
D03*
X0448059Y0656941D02*
D03*
X0460059D02*
D03*
X0448059Y0644741D02*
D03*
X0460059D02*
D03*
X0435909Y0642741D02*
D03*
X0429909Y0656941D02*
D03*
X0441909D02*
D03*
X0429909Y0644741D02*
D03*
X0441909D02*
D03*
X0472209Y0642741D02*
D03*
X0466209Y0656941D02*
D03*
X0478209D02*
D03*
X0466209Y0644741D02*
D03*
X0478209D02*
D03*
M02*
