G04*
G04 #@! TF.GenerationSoftware,Altium Limited,Altium Designer,24.7.2 (38)*
G04*
G04 Layer_Color=128*
%FSAX43Y43*%
%MOMM*%
G71*
G04*
G04 #@! TF.SameCoordinates,CBEA9559-B170-43FD-8457-18A981A7652A*
G04*
G04*
G04 #@! TF.FilePolarity,Positive*
G04*
G01*
G75*
%ADD12C,0.100*%
%ADD70C,0.051*%
D12*
X0499566Y0535195D02*
G03*
X0502566Y0538195I-0000000J0003000D01*
G01*
X0502566Y0672195D02*
G03*
X0499566Y0675195I-0003000J0000000D01*
G01*
X0405566Y0675195D02*
G03*
X0402566Y0672195I-0000000J-0003000D01*
G01*
X0402566Y0538195D02*
G03*
X0405566Y0535195I0003000J-0000000D01*
G01*
X0402566Y0537495D02*
X0402566Y0671495D01*
X0405566Y0535195D02*
X0499566Y0535195D01*
X0502566Y0538195D02*
X0502566Y0672195D01*
X0405566Y0675195D02*
X0499566Y0675195D01*
D70*
X0444041Y0555848D02*
X0445041D01*
X0444541Y0555348D02*
Y0556348D01*
X0444041Y0540848D02*
X0445041D01*
X0444541Y0540348D02*
Y0541348D01*
X0491011Y0584682D02*
X0493011D01*
X0492011Y0583682D02*
Y0585682D01*
X0491011Y0593292D02*
X0493011D01*
X0492011Y0592292D02*
Y0594292D01*
X0495511Y0591527D02*
X0497111D01*
X0496311Y0590727D02*
Y0592327D01*
X0495511Y0586447D02*
X0497111D01*
X0496311Y0585647D02*
Y0587247D01*
X0420901Y0570588D02*
X0422301D01*
X0421601Y0569888D02*
Y0571288D01*
X0436141Y0570588D02*
X0437541D01*
X0436841Y0569888D02*
Y0571288D01*
X0449141Y0562968D02*
X0450341D01*
X0449741Y0562368D02*
Y0563568D01*
X0469141Y0562968D02*
X0470341D01*
X0469741Y0562368D02*
Y0563568D01*
X0448416Y0540848D02*
X0449916D01*
X0449166Y0540098D02*
Y0541598D01*
X0437901Y0602084D02*
X0438701D01*
X0438301Y0601684D02*
Y0602484D01*
X0440441Y0602084D02*
X0441241D01*
X0440841Y0601684D02*
Y0602484D01*
X0442981Y0602084D02*
X0443781D01*
X0443381Y0601684D02*
Y0602484D01*
X0445521Y0602084D02*
X0446321D01*
X0445921Y0601684D02*
Y0602484D01*
X0453141Y0602084D02*
X0453941D01*
X0453541Y0601684D02*
Y0602484D01*
X0497966Y0538195D02*
X0501166D01*
X0499566Y0536595D02*
Y0539795D01*
X0407216Y0547728D02*
X0409066D01*
X0408141Y0546803D02*
Y0548653D01*
X0407216Y0562968D02*
X0409066D01*
X0408141Y0562043D02*
Y0563893D01*
X0407216Y0555348D02*
X0409066D01*
X0408141Y0554423D02*
Y0556273D01*
X0407216Y0570588D02*
X0409066D01*
X0408141Y0569663D02*
Y0571513D01*
X0469141Y0576608D02*
X0470341D01*
X0469741Y0576008D02*
Y0577208D01*
X0449141Y0576608D02*
X0450341D01*
X0449741Y0576008D02*
Y0577208D01*
X0469141Y0570588D02*
X0470341D01*
X0469741Y0569988D02*
Y0571188D01*
X0449141Y0570588D02*
X0450341D01*
X0449741Y0569988D02*
Y0571188D01*
X0468041Y0540848D02*
X0469241D01*
X0468641Y0540248D02*
Y0541448D01*
X0485821Y0540848D02*
X0487021D01*
X0486421Y0540248D02*
Y0541448D01*
X0486021Y0550522D02*
X0486821D01*
X0486421Y0550122D02*
Y0550922D01*
X0493641Y0550522D02*
X0494441D01*
X0494041Y0550122D02*
Y0550922D01*
X0486021Y0547982D02*
X0486821D01*
X0486421Y0547582D02*
Y0548382D01*
X0486021Y0553062D02*
X0486821D01*
X0486421Y0552662D02*
Y0553462D01*
X0493641Y0547982D02*
X0494441D01*
X0494041Y0547582D02*
Y0548382D01*
X0493641Y0553062D02*
X0494441D01*
X0494041Y0552662D02*
Y0553462D01*
X0443941Y0540848D02*
X0445141D01*
X0444541Y0540248D02*
Y0541448D01*
X0463941Y0540848D02*
X0465141D01*
X0464541Y0540248D02*
Y0541448D01*
X0436141Y0555348D02*
X0437541D01*
X0436841Y0554648D02*
Y0556048D01*
X0420901Y0555348D02*
X0422301D01*
X0421601Y0554648D02*
Y0556048D01*
X0467841Y0552643D02*
X0469442D01*
X0468641Y0551843D02*
Y0553443D01*
X0473341Y0552643D02*
X0474942D01*
X0474141Y0551843D02*
Y0553443D01*
X0462341Y0552643D02*
X0463942D01*
X0463141Y0551843D02*
Y0553443D01*
X0412471Y0547728D02*
X0413971D01*
X0413221Y0546978D02*
Y0548478D01*
X0412471Y0555348D02*
X0413971D01*
X0413221Y0554598D02*
Y0556098D01*
X0412471Y0562968D02*
X0413971D01*
X0413221Y0562218D02*
Y0563718D01*
X0412471Y0570588D02*
X0413971D01*
X0413221Y0569838D02*
Y0571338D01*
X0437851Y0613024D02*
X0438751D01*
X0438301Y0612574D02*
Y0613474D01*
X0450581Y0587026D02*
X0451581D01*
X0451081Y0586526D02*
Y0587526D01*
X0455581Y0587026D02*
X0456581D01*
X0456081Y0586526D02*
Y0587526D01*
X0458081Y0587026D02*
X0459081D01*
X0458581Y0586526D02*
Y0587526D01*
X0453081Y0587026D02*
X0454081D01*
X0453581Y0586526D02*
Y0587526D01*
X0403966Y0538195D02*
X0407166D01*
X0405566Y0536595D02*
Y0539795D01*
X0491011Y0646407D02*
X0493011D01*
X0492011Y0645407D02*
Y0647407D01*
X0491011Y0655017D02*
X0493011D01*
X0492011Y0654017D02*
Y0656017D01*
X0495511Y0653252D02*
X0497111D01*
X0496311Y0652452D02*
Y0654052D01*
X0495511Y0648172D02*
X0497111D01*
X0496311Y0647372D02*
Y0648972D01*
X0491011Y0658752D02*
X0493011D01*
X0492011Y0657752D02*
Y0659752D01*
X0491011Y0667362D02*
X0493011D01*
X0492011Y0666362D02*
Y0668362D01*
X0495511Y0665597D02*
X0497111D01*
X0496311Y0664797D02*
Y0666397D01*
X0495511Y0660517D02*
X0497111D01*
X0496311Y0659717D02*
Y0661317D01*
X0412223Y0594172D02*
X0414223D01*
X0413223Y0593172D02*
Y0595172D01*
X0412223Y0585562D02*
X0414223D01*
X0413223Y0584562D02*
Y0586562D01*
X0408123Y0587328D02*
X0409723D01*
X0408923Y0586528D02*
Y0588128D01*
X0408123Y0592408D02*
X0409723D01*
X0408923Y0591607D02*
Y0593208D01*
X0491011Y0634062D02*
X0493011D01*
X0492011Y0633062D02*
Y0635062D01*
X0491011Y0642672D02*
X0493011D01*
X0492011Y0641672D02*
Y0643672D01*
X0495511Y0640907D02*
X0497111D01*
X0496311Y0640107D02*
Y0641707D01*
X0495511Y0635827D02*
X0497111D01*
X0496311Y0635027D02*
Y0636627D01*
X0491011Y0597027D02*
X0493011D01*
X0492011Y0596027D02*
Y0598027D01*
X0491011Y0605637D02*
X0493011D01*
X0492011Y0604637D02*
Y0606637D01*
X0495511Y0603872D02*
X0497111D01*
X0496311Y0603072D02*
Y0604672D01*
X0495511Y0598792D02*
X0497111D01*
X0496311Y0597992D02*
Y0599592D01*
X0491011Y0609372D02*
X0493011D01*
X0492011Y0608372D02*
Y0610372D01*
X0491011Y0617982D02*
X0493011D01*
X0492011Y0616982D02*
Y0618982D01*
X0495511Y0616217D02*
X0497111D01*
X0496311Y0615417D02*
Y0617017D01*
X0495511Y0611137D02*
X0497111D01*
X0496311Y0610337D02*
Y0611937D01*
X0491011Y0621717D02*
X0493011D01*
X0492011Y0620717D02*
Y0622717D01*
X0491011Y0630327D02*
X0493011D01*
X0492011Y0629327D02*
Y0631327D01*
X0495511Y0628562D02*
X0497111D01*
X0496311Y0627762D02*
Y0629362D01*
X0495511Y0623482D02*
X0497111D01*
X0496311Y0622682D02*
Y0624282D01*
X0458339Y0669602D02*
X0459939D01*
X0459139Y0668802D02*
Y0670402D01*
X0453259Y0669602D02*
X0454859D01*
X0454059Y0668802D02*
Y0670402D01*
X0448179Y0669602D02*
X0449779D01*
X0448979Y0668802D02*
Y0670402D01*
X0453409Y0642741D02*
X0454709D01*
X0454059Y0642091D02*
Y0643391D01*
X0447409Y0656941D02*
X0448709D01*
X0448059Y0656291D02*
Y0657591D01*
X0459409Y0656941D02*
X0460709D01*
X0460059Y0656291D02*
Y0657591D01*
X0447409Y0644741D02*
X0448709D01*
X0448059Y0644091D02*
Y0645391D01*
X0459409Y0644741D02*
X0460709D01*
X0460059Y0644091D02*
Y0645391D01*
X0435259Y0642741D02*
X0436559D01*
X0435909Y0642091D02*
Y0643391D01*
X0429259Y0656941D02*
X0430559D01*
X0429909Y0656291D02*
Y0657591D01*
X0441259Y0656941D02*
X0442559D01*
X0441909Y0656291D02*
Y0657591D01*
X0429259Y0644741D02*
X0430559D01*
X0429909Y0644091D02*
Y0645391D01*
X0441259Y0644741D02*
X0442559D01*
X0441909Y0644091D02*
Y0645391D01*
X0440189Y0669602D02*
X0441789D01*
X0440989Y0668802D02*
Y0670402D01*
X0435109Y0669602D02*
X0436709D01*
X0435909Y0668802D02*
Y0670402D01*
X0430029Y0669602D02*
X0431629D01*
X0430829Y0668802D02*
Y0670402D01*
X0476489Y0669602D02*
X0478089D01*
X0477289Y0668802D02*
Y0670402D01*
X0471409Y0669602D02*
X0473009D01*
X0472209Y0668802D02*
Y0670402D01*
X0466329Y0669602D02*
X0467929D01*
X0467129Y0668802D02*
Y0670402D01*
X0471559Y0642741D02*
X0472859D01*
X0472209Y0642091D02*
Y0643391D01*
X0465559Y0656941D02*
X0466859D01*
X0466209Y0656291D02*
Y0657591D01*
X0477559Y0656941D02*
X0478859D01*
X0478209Y0656291D02*
Y0657591D01*
X0465559Y0644741D02*
X0466859D01*
X0466209Y0644091D02*
Y0645391D01*
X0477559Y0644741D02*
X0478859D01*
X0478209Y0644091D02*
Y0645391D01*
X0426356Y0587049D02*
X0427356D01*
X0426856Y0586549D02*
Y0587549D01*
X0431356Y0587049D02*
X0432356D01*
X0431856Y0586549D02*
Y0587549D01*
X0428856Y0587049D02*
X0429856D01*
X0429356Y0586549D02*
Y0587549D01*
X0423856Y0587049D02*
X0424856D01*
X0424356Y0586549D02*
Y0587549D01*
X0422082Y0669569D02*
X0423582D01*
X0422832Y0668819D02*
Y0670319D01*
X0417002Y0669569D02*
X0418502D01*
X0417752Y0668819D02*
Y0670319D01*
X0411922Y0669569D02*
X0413422D01*
X0412672Y0668819D02*
Y0670319D01*
X0417072Y0660819D02*
X0418272D01*
X0417672Y0660219D02*
Y0661419D01*
X0417072Y0640819D02*
X0418272D01*
X0417672Y0640219D02*
Y0641419D01*
X0422152Y0660819D02*
X0423352D01*
X0422752Y0660219D02*
Y0661419D01*
X0422152Y0640819D02*
X0423352D01*
X0422752Y0640219D02*
Y0641419D01*
X0427691Y0613024D02*
X0428591D01*
X0428141Y0612574D02*
Y0613474D01*
X0430231Y0613024D02*
X0431131D01*
X0430681Y0612574D02*
Y0613474D01*
X0432771Y0613024D02*
X0433671D01*
X0433221Y0612574D02*
Y0613474D01*
X0435311Y0613024D02*
X0436211D01*
X0435761Y0612574D02*
Y0613474D01*
X0440391Y0613024D02*
X0441291D01*
X0440841Y0612574D02*
Y0613474D01*
X0442931Y0613024D02*
X0443831D01*
X0443381Y0612574D02*
Y0613474D01*
X0445471Y0613024D02*
X0446371D01*
X0445921Y0612574D02*
Y0613474D01*
X0448011Y0613024D02*
X0448911D01*
X0448461Y0612574D02*
Y0613474D01*
X0450551Y0613024D02*
X0451451D01*
X0451001Y0612574D02*
Y0613474D01*
X0453091Y0613024D02*
X0453991D01*
X0453541Y0612574D02*
Y0613474D01*
X0455631Y0613024D02*
X0456531D01*
X0456081Y0612574D02*
Y0613474D01*
X0458171Y0613024D02*
X0459071D01*
X0458621Y0612574D02*
Y0613474D01*
X0460711Y0613024D02*
X0461611D01*
X0461161Y0612574D02*
Y0613474D01*
X0463251Y0613024D02*
X0464151D01*
X0463701Y0612574D02*
Y0613474D01*
X0427691Y0597784D02*
X0428591D01*
X0428141Y0597334D02*
Y0598234D01*
X0430231Y0597784D02*
X0431131D01*
X0430681Y0597334D02*
Y0598234D01*
X0432771Y0597784D02*
X0433671D01*
X0433221Y0597334D02*
Y0598234D01*
X0435311Y0597784D02*
X0436211D01*
X0435761Y0597334D02*
Y0598234D01*
X0437851Y0597784D02*
X0438751D01*
X0438301Y0597334D02*
Y0598234D01*
X0440391Y0597784D02*
X0441291D01*
X0440841Y0597334D02*
Y0598234D01*
X0442931Y0597784D02*
X0443831D01*
X0443381Y0597334D02*
Y0598234D01*
X0445471Y0597784D02*
X0446371D01*
X0445921Y0597334D02*
Y0598234D01*
X0448011Y0597784D02*
X0448911D01*
X0448461Y0597334D02*
Y0598234D01*
X0450551Y0597784D02*
X0451451D01*
X0451001Y0597334D02*
Y0598234D01*
X0453091Y0597784D02*
X0453991D01*
X0453541Y0597334D02*
Y0598234D01*
X0455631Y0597784D02*
X0456531D01*
X0456081Y0597334D02*
Y0598234D01*
X0458171Y0597784D02*
X0459071D01*
X0458621Y0597334D02*
Y0598234D01*
X0460711Y0597784D02*
X0461611D01*
X0461161Y0597334D02*
Y0598234D01*
X0463251Y0597784D02*
X0464151D01*
X0463701Y0597334D02*
Y0598234D01*
X0403966Y0672195D02*
X0407166D01*
X0405566Y0670595D02*
Y0673795D01*
X0497966Y0672195D02*
X0501166D01*
X0499566Y0670595D02*
Y0673795D01*
X0475666Y0602045D02*
X0476166D01*
X0475916Y0601795D02*
Y0602295D01*
X0474817Y0602894D02*
X0475317D01*
X0475067Y0602644D02*
Y0603144D01*
X0476514Y0601197D02*
X0477014D01*
X0476764Y0600947D02*
Y0601447D01*
X0479060Y0598651D02*
X0479560D01*
X0479310Y0598401D02*
Y0598901D01*
X0479908Y0597803D02*
X0480408D01*
X0480158Y0597553D02*
Y0598053D01*
X0477363Y0600348D02*
X0477863D01*
X0477613Y0600098D02*
Y0600598D01*
X0478211Y0599500D02*
X0478711D01*
X0478461Y0599250D02*
Y0599750D01*
X0460989Y0601197D02*
X0461489D01*
X0461239Y0600947D02*
Y0601447D01*
X0459292Y0602894D02*
X0459792D01*
X0459542Y0602644D02*
Y0603144D01*
X0460141Y0602045D02*
X0460641D01*
X0460391Y0601795D02*
Y0602295D01*
X0491666Y0574795D02*
X0492166D01*
X0491916Y0574545D02*
Y0575045D01*
X0459316Y0609524D02*
X0459816D01*
X0459566Y0609274D02*
Y0609774D01*
X0460516Y0609524D02*
X0461016D01*
X0460766Y0609274D02*
Y0609774D01*
X0458116Y0609524D02*
X0458616D01*
X0458366Y0609274D02*
Y0609774D01*
X0498991Y0542282D02*
X0499491D01*
X0499241Y0542032D02*
Y0542532D01*
X0455810Y0609524D02*
X0456310D01*
X0456060Y0609274D02*
Y0609774D01*
X0448291Y0609524D02*
X0448791D01*
X0448541Y0609274D02*
Y0609774D01*
X0485223Y0593167D02*
X0485723D01*
X0485473Y0592917D02*
Y0593417D01*
X0494816Y0572187D02*
X0495316D01*
X0495066Y0571937D02*
Y0572437D01*
X0470259Y0639381D02*
X0470759D01*
X0470509Y0639131D02*
Y0639631D01*
X0468619Y0637741D02*
X0469119D01*
X0468869Y0637491D02*
Y0637991D01*
X0450469Y0637741D02*
X0450969D01*
X0450719Y0637491D02*
Y0637991D01*
X0452109Y0639381D02*
X0452609D01*
X0452359Y0639131D02*
Y0639631D01*
X0433959Y0639381D02*
X0434459D01*
X0434209Y0639131D02*
Y0639631D01*
X0432319Y0637741D02*
X0432819D01*
X0432569Y0637491D02*
Y0637991D01*
X0424186Y0592646D02*
X0424686D01*
X0424436Y0592396D02*
Y0592896D01*
X0417459Y0583524D02*
X0417959D01*
X0417709Y0583274D02*
Y0583774D01*
X0417459Y0594023D02*
X0417959D01*
X0417709Y0593773D02*
Y0594273D01*
X0485223Y0667237D02*
X0485723D01*
X0485473Y0666987D02*
Y0667487D01*
X0485223Y0654892D02*
X0485723D01*
X0485473Y0654642D02*
Y0655142D01*
X0485223Y0642547D02*
X0485723D01*
X0485473Y0642297D02*
Y0642797D01*
X0485223Y0630202D02*
X0485723D01*
X0485473Y0629952D02*
Y0630452D01*
X0476764Y0620221D02*
X0477264D01*
X0477014Y0619971D02*
Y0620471D01*
X0474311Y0624909D02*
X0474811D01*
X0474561Y0624659D02*
Y0625159D01*
X0456161Y0624909D02*
X0456661D01*
X0456411Y0624659D02*
Y0625159D01*
X0458614Y0620220D02*
X0459114D01*
X0458864Y0619970D02*
Y0620470D01*
X0485223Y0617857D02*
X0485723D01*
X0485473Y0617607D02*
Y0618107D01*
X0485223Y0605512D02*
X0485723D01*
X0485473Y0605262D02*
Y0605762D01*
X0443902Y0638683D02*
X0444402D01*
X0444152Y0638433D02*
Y0638933D01*
X0480202Y0638683D02*
X0480702D01*
X0480452Y0638433D02*
Y0638933D01*
X0480202Y0631251D02*
X0480702D01*
X0480452Y0631001D02*
Y0631501D01*
X0440464Y0620220D02*
X0440964D01*
X0440714Y0619970D02*
Y0620470D01*
X0438011Y0624901D02*
X0438511D01*
X0438261Y0624651D02*
Y0625151D01*
X0444102Y0631251D02*
X0444602D01*
X0444352Y0631001D02*
Y0631501D01*
X0462252Y0631250D02*
X0462752D01*
X0462502Y0631000D02*
Y0631500D01*
X0462052Y0638683D02*
X0462552D01*
X0462302Y0638433D02*
Y0638933D01*
X0416707Y0628527D02*
X0417207D01*
X0416957Y0628277D02*
Y0628777D01*
M02*
